<svg width="116" height="108" viewBox="0 0 116 108" fill="none" xmlns="http://www.w3.org/2000/svg">
<path d="M0.5 107.387L5.40384 87.458H21.2402L20.5703 90.1538H8.5888L7.12271 95.9989H17.4738L16.8419 98.6317H6.47813L4.97412 104.691H16.9936L16.3237 107.387H0.5Z" fill="#898989"/>
<path d="M25.3223 107.387L30.2261 87.458H34.0304L29.1265 107.387H25.3223Z" fill="#898989"/>
<path d="M39.4775 107.387L44.3814 87.458H54.9347C56.5651 87.458 57.8164 87.6218 58.6884 87.9367C59.5732 88.2516 60.1798 88.7051 60.5463 89.2846C60.9002 89.8641 61.0772 90.5569 61.0772 91.3757C61.0772 91.6025 61.0645 91.8544 61.0266 92.1315C60.9887 92.3961 60.9508 92.6858 60.8876 92.9881C60.837 93.2905 60.7612 93.5802 60.6727 93.8699C60.4705 94.6006 60.243 95.2682 59.9902 95.8477C59.7375 96.4398 59.4341 96.9562 59.0929 97.3971C58.7516 97.838 58.3093 98.216 57.7785 98.5309C57.2476 98.8458 56.5904 99.0852 55.8068 99.2489L57.6773 107.387H53.734L52.23 99.652C51.9899 99.652 51.7371 99.652 51.4844 99.6646C51.2316 99.6646 50.9662 99.6772 50.7008 99.6772H45.1903L43.2818 107.387H39.4775ZM45.8222 97.0822H51.6613C52.685 97.0822 53.5066 97.0192 54.1385 96.8807C54.7578 96.7421 55.2507 96.5405 55.5919 96.2634C55.9332 95.9863 56.1986 95.6209 56.3882 95.18C56.5778 94.7391 56.7421 94.2101 56.8685 93.618C56.9822 93.2653 57.058 92.9504 57.096 92.6606C57.1465 92.3709 57.1592 92.1064 57.1592 91.8796C57.1592 91.4891 57.058 91.1616 56.8432 90.897C56.6283 90.6325 56.2618 90.4309 55.7436 90.305C55.2254 90.179 54.4924 90.116 53.5571 90.116H47.5411L45.8096 97.0948L45.8222 97.0822Z" fill="#898989"/>
<path d="M104.238 107.626C103.278 107.626 102.267 107.601 101.218 107.563C100.156 107.526 99.1198 107.475 98.096 107.4C97.0723 107.337 96.1496 107.261 95.3281 107.185L95.9601 104.553C96.7437 104.616 97.5778 104.666 98.4625 104.729C99.3473 104.792 100.219 104.83 101.053 104.88C101.888 104.931 102.608 104.943 103.202 104.943C103.96 104.943 104.618 104.943 105.174 104.918C105.73 104.893 106.223 104.855 106.64 104.767C107.057 104.691 107.436 104.578 107.777 104.414C108.068 104.275 108.308 104.086 108.51 103.835C108.713 103.583 108.89 103.293 109.041 102.965C109.193 102.638 109.319 102.31 109.408 101.97C109.496 101.63 109.559 101.315 109.61 101.013C109.648 100.71 109.673 100.471 109.673 100.27C109.673 99.942 109.585 99.6901 109.408 99.5263C109.231 99.3626 108.927 99.2366 108.51 99.161C108.093 99.0854 107.512 99.0099 106.779 98.9343L101.369 98.2666C99.9665 98.1155 99.0186 97.7627 98.5131 97.2085C98.0075 96.6542 97.7674 95.911 97.7674 94.9662C97.7674 94.6135 97.7927 94.2355 97.8559 93.8072C97.9064 93.3789 97.9949 92.9506 98.1087 92.5097C98.4246 91.3508 98.8417 90.4186 99.3725 89.7258C99.9034 89.0329 100.573 88.5039 101.357 88.1511C102.153 87.7984 103.063 87.5591 104.112 87.4331C105.161 87.3071 106.336 87.2441 107.651 87.2441C108.611 87.2441 109.572 87.2693 110.558 87.3071C111.531 87.3449 112.466 87.4079 113.326 87.4835C114.198 87.5591 114.918 87.6473 115.5 87.748L114.893 90.2926C114.274 90.2171 113.553 90.1541 112.757 90.1037C111.961 90.0533 111.152 90.0155 110.33 89.9903C109.521 89.9651 108.738 89.9525 108.005 89.9525C107.272 89.9525 106.589 89.9777 106.021 90.0155C105.452 90.0533 104.971 90.1163 104.567 90.1919C104.163 90.2674 103.809 90.3808 103.493 90.5446C103.177 90.6957 102.911 90.9225 102.671 91.1996C102.444 91.4768 102.254 91.7917 102.102 92.1444C101.963 92.4971 101.862 92.8499 101.799 93.2026C101.749 93.5553 101.711 93.8954 101.711 94.1978C101.711 94.6638 101.888 94.9662 102.229 95.1299C102.57 95.2811 103.189 95.4071 104.087 95.5079L109.294 96.0621C110.141 96.1629 110.886 96.3015 111.544 96.4778C112.201 96.6668 112.719 96.9817 113.098 97.4352C113.477 97.8887 113.667 98.569 113.667 99.4759C113.667 99.6901 113.667 99.9294 113.629 100.194C113.604 100.459 113.566 100.748 113.515 101.051C113.465 101.353 113.389 101.668 113.3 102.021C112.972 103.331 112.517 104.376 111.961 105.145C111.405 105.913 110.747 106.48 109.989 106.845C109.231 107.198 108.371 107.425 107.423 107.526C106.463 107.626 105.401 107.677 104.213 107.677L104.238 107.626Z" fill="#898989"/>
<path d="M87.9854 88.655L85.1037 91.5271C85.1417 91.7287 85.1669 91.9428 85.1669 92.1822C85.1669 92.7365 85.0911 93.4545 84.9521 94.3111C84.813 95.1677 84.5729 96.2133 84.2317 97.4226C83.8778 98.8838 83.5492 100.093 83.2458 101.038C82.9425 101.983 82.6265 102.726 82.2979 103.255C81.9693 103.784 81.5522 104.162 81.0593 104.401C80.5664 104.628 79.9471 104.779 79.2014 104.83C78.4558 104.893 77.5205 104.918 76.383 104.918C75.1191 104.918 74.0954 104.88 73.3371 104.817C72.8189 104.767 72.4018 104.666 72.0732 104.49L69.6592 106.896C70.0131 107.034 70.4175 107.148 70.8725 107.223C72.1617 107.475 73.9437 107.601 76.2187 107.601C78.0387 107.601 79.5553 107.513 80.756 107.349C81.9567 107.185 82.9425 106.896 83.7135 106.48C84.4844 106.064 85.1164 105.485 85.5966 104.729C86.0896 103.973 86.5193 103.003 86.8984 101.819C87.2776 100.635 87.682 99.1862 88.0991 97.4856C88.4151 96.2133 88.6552 95.1047 88.8195 94.1725C88.9838 93.2403 89.0723 92.4089 89.0723 91.6909C89.0723 90.4942 88.8069 89.5746 88.2761 88.9195C88.1876 88.8187 88.0865 88.718 87.9854 88.6172V88.655Z" fill="#D1D1D1"/>
<path d="M71.1889 102.537C71.1889 102.184 71.2394 101.806 71.3152 101.378C71.4037 100.887 71.5175 100.307 71.6691 99.6397C71.8082 98.9721 71.9851 98.2414 72.1873 97.4226C72.5412 95.9613 72.8698 94.752 73.1605 93.8072C73.4512 92.8625 73.7672 92.1192 74.0958 91.5901C74.4244 91.0611 74.8415 90.6832 75.347 90.4438C75.8526 90.2045 76.4719 90.0659 77.2302 90.0155C77.9885 89.9525 78.9364 89.9273 80.0739 89.9273C81.3251 89.9273 82.311 89.9651 83.0693 90.0281C83.2841 90.0533 83.4864 90.0785 83.6633 90.1289L86.0647 87.7354C85.9004 87.6976 85.7361 87.6598 85.5718 87.622C84.2952 87.3701 82.5132 87.2441 80.2382 87.2441C78.4182 87.2441 76.8889 87.3197 75.6756 87.4709C74.4623 87.6221 73.4638 87.9118 72.6802 88.3275C71.8966 88.7432 71.2647 89.3353 70.7718 90.0911C70.2789 90.8595 69.8618 91.8295 69.5079 93.0136C69.154 94.1977 68.7749 95.6464 68.3704 97.347C68.0545 98.6193 67.8143 99.7405 67.6247 100.698C67.4352 101.655 67.3467 102.487 67.3467 103.205C67.3467 104.275 67.5742 105.107 68.0039 105.737L71.1889 102.562V102.537Z" fill="#D1D1D1"/>
<path d="M88.6171 31.7535L57.3615 0.625977L26.1185 31.7535C24.1089 33.7564 24.1089 37.0065 26.1185 38.9968L51.5477 64.3296L42.8143 73.0217L48.6408 78.8163L57.3741 70.1243L66.1075 78.8163L71.934 73.0217L63.2006 64.3296L88.6298 38.9968C90.6393 36.9939 90.6393 33.7438 88.6298 31.7535H88.6171ZM57.3615 58.5224L34.1188 35.3689L57.3615 12.2153L80.6042 35.3689L57.3615 58.5224Z" fill="#D1D1D1"/>
</svg>
