<svg width="174" height="112" viewBox="0 0 174 112" fill="none" xmlns="http://www.w3.org/2000/svg">
<path d="M1.19889 0.191351C1.19889 0.191351 3.13172 7.65303 8.93795 13.4417C14.7442 19.2303 17.4888 19.785 20.8751 24.0795C24.2614 28.374 26.519 39.5665 26.519 39.5665C26.519 39.5665 25.7149 35.0841 26.0319 31.729C26.3566 28.374 27.6478 22.5853 27.6478 22.5853C27.6478 22.5853 27.9725 30.2349 30.7094 32.6595C33.454 35.0841 41.193 38.2603 46.1952 43.1095C51.1974 47.9586 55.2254 58.9722 55.2254 58.9722C55.2254 58.9722 54.5837 51.8774 53.9343 49.4528C53.2848 47.0282 51.5144 44.0399 51.5144 44.0399C51.5144 44.0399 57.3206 53.1836 68.129 55.7961C78.9374 58.4086 84.5812 54.6777 98.1265 57.4781C111.672 60.2785 120.06 63.8214 120.06 63.8214C120.06 63.8214 117.161 59.7148 113.612 58.5965C110.064 57.4781 106.353 54.8656 106.353 54.8656C106.353 54.8656 120.864 55.7961 132.639 52.6289C144.414 49.4528 157.48 39.7544 157.48 39.7544C157.48 39.7544 140.224 85.4818 86.5141 80.9994C32.8046 76.517 21.6792 44.0489 21.6792 44.0489C21.6792 44.0489 41.9971 86.0454 95.869 84.5513C149.741 83.0572 164.09 36.3993 166.185 29.4923C168.281 22.5853 165.544 0.191352 169.247 0.00346776C172.958 -0.184416 174.891 7.28621 173.6 16.6178C172.309 25.9494 169.409 38.0813 167.306 42.7516C165.204 47.4218 161.338 53.3894 161.338 53.3894C161.338 53.3894 155.369 76.5349 145.69 86.2423C136.01 95.9496 118.916 103.787 118.916 103.787C118.916 103.787 123.431 99.1168 126.013 95.0191C128.596 90.9215 131.016 85.6876 131.016 85.6876C131.016 85.6876 118.761 106.033 97.307 110.515C75.8526 114.997 63.5984 107.903 63.5984 107.903C63.5984 107.903 69.8917 107.903 79.5636 103.608C89.2432 99.3136 91.6631 95.5828 91.6631 95.5828C91.6631 95.5828 72.791 107.903 49.0867 99.6894C25.3747 91.4762 17.311 77.4833 17.311 77.4833C17.311 77.4833 19.4062 79.5321 27.1529 81.0263C34.892 82.5204 37.799 81.5899 37.799 81.5899C37.799 81.5899 8.76786 71.14 3.12399 42.5816C-2.51215 14.0053 1.19889 0.191351 1.19889 0.191351Z" fill="#F4F8F9"/>
</svg>
