<svg width="85" height="16" viewBox="0 0 85 16" fill="none" xmlns="http://www.w3.org/2000/svg">
<g clip-path="url(#clip0_445_6481)">
<path d="M0 14.8499L3.6 0.169922H15.22L14.73 2.14992H5.93L4.85 6.45992H12.45L11.98 8.39992H4.38L3.28 12.8599H12.11L11.62 14.8399H0V14.8499Z" fill="#AAA7A3"/>
<path d="M18.22 14.8499L21.82 0.169922H24.61L21.01 14.8399H18.22V14.8499Z" fill="#AAA7A3"/>
<path d="M28.61 14.8499L32.22 0.169922H39.97C41.16 0.169922 42.08 0.289922 42.73 0.519922C43.38 0.749922 43.83 1.08992 44.09 1.50992C44.35 1.93992 44.48 2.44992 44.48 3.04992C44.48 3.21992 44.47 3.40992 44.44 3.59992C44.42 3.79992 44.38 4.00992 44.34 4.22992C44.3 4.44992 44.25 4.66992 44.18 4.87992C44.03 5.41992 43.87 5.90992 43.68 6.33992C43.49 6.76992 43.27 7.14992 43.02 7.47992C42.77 7.80992 42.44 8.07992 42.05 8.30992C41.66 8.53992 41.18 8.71992 40.6 8.83992L41.97 14.8299H39.08L37.98 9.13992C37.8 9.13992 37.62 9.13992 37.43 9.14992C37.24 9.14992 37.05 9.15992 36.85 9.15992H32.8L31.4 14.8299H28.61V14.8499ZM33.27 7.24992H37.56C38.31 7.24992 38.92 7.19992 39.37 7.09992C39.83 6.99992 40.18 6.84992 40.44 6.63992C40.69 6.42992 40.89 6.16992 41.03 5.83992C41.17 5.50992 41.29 5.12992 41.39 4.68992C41.47 4.42992 41.53 4.19992 41.56 3.98992C41.59 3.77992 41.61 3.57992 41.61 3.40992C41.61 3.12992 41.53 2.87992 41.38 2.67992C41.22 2.47992 40.95 2.33992 40.57 2.23992C40.19 2.14992 39.65 2.09992 38.96 2.09992H34.55L33.28 7.23992L33.27 7.24992Z" fill="#AAA7A3"/>
<path d="M76.15 15.0198C75.45 15.0198 74.71 15.0098 73.93 14.9798C73.15 14.9498 72.39 14.9098 71.64 14.8598C70.89 14.8098 70.21 14.7598 69.6 14.6998L70.07 12.7598C70.64 12.7998 71.26 12.8498 71.91 12.8898C72.56 12.9298 73.2 12.9698 73.81 12.9998C74.42 13.0298 74.95 13.0398 75.39 13.0398C75.95 13.0398 76.43 13.0398 76.84 13.0198C77.25 13.0098 77.61 12.9698 77.92 12.9098C78.23 12.8498 78.51 12.7698 78.75 12.6498C78.96 12.5498 79.14 12.4098 79.29 12.2198C79.44 12.0398 79.57 11.8198 79.68 11.5798C79.79 11.3398 79.88 11.0898 79.95 10.8398C80.02 10.5898 80.06 10.3598 80.1 10.1398C80.13 9.91977 80.15 9.73977 80.15 9.59977C80.15 9.35977 80.08 9.17977 79.95 9.05977C79.82 8.93977 79.6 8.84977 79.29 8.78977C78.98 8.72976 78.55 8.67977 78.02 8.61977L74.05 8.12977C73.02 8.01977 72.32 7.75977 71.95 7.34977C71.58 6.93977 71.4 6.38977 71.4 5.69977C71.4 5.43976 71.42 5.15977 71.46 4.84977C71.5 4.53977 71.56 4.21977 71.64 3.88977C71.87 3.03977 72.18 2.34977 72.57 1.83977C72.96 1.32977 73.45 0.939766 74.03 0.679766C74.61 0.419766 75.28 0.239766 76.05 0.149766C76.82 0.0597656 77.68 0.00976562 78.65 0.00976562C79.35 0.00976562 80.06 0.0197656 80.78 0.0497656C81.5 0.0797656 82.18 0.119766 82.81 0.179766C83.45 0.239766 83.98 0.299766 84.4 0.369766L83.96 2.24977C83.5 2.18977 82.98 2.14977 82.39 2.10977C81.8 2.06977 81.21 2.04977 80.61 2.01977C80.01 1.99977 79.45 1.98977 78.91 1.98977C78.37 1.98977 77.87 1.99977 77.45 2.02977C77.03 2.05977 76.68 2.09977 76.38 2.15977C76.08 2.21977 75.82 2.29977 75.6 2.41977C75.37 2.52977 75.17 2.68977 75 2.89977C74.83 3.10977 74.69 3.33977 74.58 3.58977C74.47 3.84977 74.4 4.10977 74.36 4.36977C74.32 4.62977 74.3 4.87977 74.3 5.10977C74.3 5.44977 74.43 5.67977 74.68 5.78977C74.93 5.89977 75.39 5.99977 76.04 6.06977L79.86 6.47977C80.48 6.54977 81.03 6.64977 81.52 6.78977C82 6.92977 82.38 7.15977 82.66 7.48977C82.94 7.81977 83.08 8.32977 83.08 8.98977C83.08 9.14977 83.08 9.31977 83.06 9.51977C83.04 9.71977 83.01 9.92976 82.97 10.1498C82.93 10.3698 82.88 10.6098 82.81 10.8598C82.56 11.8298 82.24 12.5898 81.83 13.1598C81.42 13.7298 80.94 14.1398 80.38 14.4098C79.82 14.6698 79.19 14.8398 78.49 14.9098C77.79 14.9798 77 15.0198 76.14 15.0198H76.15Z" fill="#AAA7A3"/>
<path d="M64.21 1.0498L62.1 3.1598C62.13 3.3098 62.15 3.4698 62.15 3.6498C62.15 4.0598 62.1 4.5898 61.99 5.2198C61.88 5.8498 61.71 6.6198 61.46 7.5098C61.2 8.5898 60.96 9.4798 60.74 10.1798C60.52 10.8798 60.29 11.4198 60.04 11.8098C59.79 12.1998 59.49 12.4798 59.13 12.6498C58.77 12.8198 58.32 12.9298 57.77 12.9698C57.22 13.0098 56.53 13.0298 55.7 13.0298C54.77 13.0298 54.02 13.0098 53.47 12.9598C53.09 12.9298 52.78 12.8398 52.54 12.7198L50.77 14.4898C51.03 14.5898 51.33 14.6698 51.66 14.7398C52.61 14.9198 53.92 15.0198 55.58 15.0198C56.92 15.0198 58.03 14.9598 58.91 14.8398C59.79 14.7198 60.52 14.5098 61.08 14.1998C61.64 13.8898 62.11 13.4598 62.47 12.9098C62.83 12.3598 63.15 11.6398 63.43 10.7698C63.71 9.89981 64 8.8298 64.31 7.5798C64.54 6.6398 64.71 5.8298 64.84 5.1398C64.97 4.4498 65.02 3.8398 65.02 3.3198C65.02 2.4398 64.82 1.7598 64.43 1.2798C64.37 1.1998 64.29 1.1298 64.21 1.0598V1.0498Z" fill="#F1F0EF"/>
<path d="M51.88 11.27C51.88 11.01 51.91 10.73 51.97 10.42C52.04 10.06 52.12 9.63 52.23 9.14C52.34 8.65 52.46 8.11 52.61 7.51C52.87 6.43 53.11 5.54 53.32 4.84C53.53 4.14 53.76 3.6 54.01 3.21C54.26 2.82 54.56 2.54 54.93 2.37C55.3 2.2 55.76 2.09 56.32 2.05C56.88 2.01 57.57 1.99 58.4 1.99C59.32 1.99 60.05 2.02 60.59 2.06C60.75 2.07 60.89 2.1 61.03 2.13L62.8 0.36C62.68 0.33 62.56 0.3 62.44 0.28C61.5 0.1 60.2 0 58.53 0C57.19 0 56.07 0.06 55.18 0.17C54.29 0.28 53.56 0.49 52.99 0.8C52.42 1.11 51.95 1.54 51.59 2.1C51.23 2.66 50.92 3.38 50.66 4.25C50.4 5.12 50.12 6.19 49.83 7.44C49.6 8.38 49.42 9.2 49.28 9.9C49.14 10.6 49.07 11.22 49.07 11.74C49.07 12.52 49.23 13.14 49.55 13.6L51.89 11.26L51.88 11.27Z" fill="#F1F0EF"/>
</g>
<defs>
<clipPath id="clip0_445_6481">
<rect width="84.41" height="15.02" fill="white"/>
</clipPath>
</defs>
</svg>
