<svg width="23" height="23" viewBox="0 0 23 23" fill="none" xmlns="http://www.w3.org/2000/svg">
<path d="M7.66666 10.542V5.75033C7.66666 4.73366 8.07053 3.75864 8.78942 3.03975C9.50831 2.32086 10.4833 1.91699 11.5 1.91699C12.5167 1.91699 13.4917 2.32086 14.2106 3.03975C14.9295 3.75864 15.3333 4.73366 15.3333 5.75033V10.542M1.96266 17.7927C1.90038 18.0729 1.90182 18.3635 1.96686 18.643C2.03189 18.9225 2.15888 19.1839 2.33843 19.4078C2.51799 19.6317 2.74553 19.8124 3.00427 19.9366C3.26301 20.0608 3.54633 20.1253 3.83333 20.1253H19.1667C19.4537 20.1253 19.737 20.0608 19.9957 19.9366C20.2545 19.8124 20.482 19.6317 20.6616 19.4078C20.8411 19.1839 20.9681 18.9225 21.0331 18.643C21.0982 18.3635 21.0996 18.0729 21.0373 17.7927L19.1207 9.16774C19.026 8.74212 18.7891 8.36148 18.4491 8.08864C18.109 7.8158 17.686 7.66707 17.25 7.66699H5.75C5.31399 7.66707 4.89103 7.8158 4.55094 8.08864C4.21085 8.36148 3.97394 8.74212 3.87933 9.16774L1.96266 17.7927Z" stroke="#CFCFCF" stroke-width="2" stroke-linecap="round" stroke-linejoin="round"/>
</svg>
