<svg width="23" height="23" viewBox="0 0 23 23" fill="none" xmlns="http://www.w3.org/2000/svg">
<path d="M7.66666 10.5415V5.74984C7.66666 4.73317 8.07053 3.75815 8.78942 3.03926C9.50831 2.32037 10.4833 1.9165 11.5 1.9165C12.5167 1.9165 13.4917 2.32037 14.2106 3.03926C14.9295 3.75815 15.3333 4.73317 15.3333 5.74984V10.5415M1.96266 17.7923C1.90038 18.0724 1.90182 18.363 1.96686 18.6425C2.03189 18.922 2.15888 19.1834 2.33843 19.4073C2.51799 19.6312 2.74553 19.8119 3.00427 19.9361C3.26301 20.0603 3.54633 20.1248 3.83333 20.1248H19.1667C19.4537 20.1248 19.737 20.0603 19.9957 19.9361C20.2545 19.8119 20.482 19.6312 20.6616 19.4073C20.8411 19.1834 20.9681 18.922 21.0331 18.6425C21.0982 18.363 21.0996 18.0724 21.0373 17.7923L19.1207 9.16725C19.026 8.74163 18.7891 8.36099 18.4491 8.08815C18.109 7.81531 17.686 7.66658 17.25 7.6665H5.75C5.31399 7.66658 4.89103 7.81531 4.55094 8.08815C4.21085 8.36099 3.97394 8.74163 3.87933 9.16725L1.96266 17.7923Z" stroke="#50A1B0" stroke-width="2" stroke-linecap="round" stroke-linejoin="round"/>
</svg>
