<svg width="528" height="430" viewBox="0 0 528 430" fill="none" xmlns="http://www.w3.org/2000/svg">
<g clip-path="url(#clip0_83_3589)">
<path d="M218.505 165.561L222.385 149.741H234.915L234.385 151.881H224.905L223.745 156.521H231.935L231.435 158.611H223.235L222.045 163.421H231.555L231.025 165.561H218.505Z" fill="#898989"/>
<path d="M238.145 165.561L242.025 149.741H245.035L241.155 165.561H238.145Z" fill="#898989"/>
<path d="M249.345 165.561L253.225 149.741H261.575C262.865 149.741 263.855 149.871 264.545 150.121C265.245 150.371 265.725 150.731 266.015 151.191C266.295 151.651 266.435 152.201 266.435 152.851C266.435 153.031 266.425 153.231 266.395 153.451C266.365 153.661 266.335 153.891 266.285 154.131C266.245 154.371 266.185 154.601 266.115 154.831C265.955 155.411 265.775 155.941 265.575 156.401C265.375 156.871 265.135 157.281 264.865 157.631C264.595 157.981 264.245 158.281 263.825 158.531C263.405 158.781 262.885 158.971 262.265 159.101L263.745 165.561H260.625L259.435 159.421C259.245 159.421 259.045 159.421 258.845 159.431C258.645 159.431 258.435 159.441 258.225 159.441H253.865L252.355 165.561H249.345ZM254.365 157.381H258.985C259.795 157.381 260.445 157.331 260.945 157.221C261.435 157.111 261.825 156.951 262.095 156.731C262.365 156.511 262.575 156.221 262.725 155.871C262.875 155.521 263.005 155.101 263.105 154.631C263.195 154.351 263.255 154.101 263.285 153.871C263.325 153.641 263.335 153.431 263.335 153.251C263.335 152.941 263.255 152.681 263.085 152.471C262.915 152.261 262.625 152.101 262.215 152.001C261.805 151.901 261.225 151.851 260.485 151.851H255.725L254.355 157.391L254.365 157.381Z" fill="#898989"/>
<path d="M300.585 165.751C299.825 165.751 299.025 165.731 298.195 165.701C297.355 165.671 296.535 165.631 295.725 165.571C294.915 165.521 294.185 165.461 293.535 165.401L294.035 163.311C294.655 163.361 295.315 163.401 296.015 163.451C296.715 163.501 297.405 163.531 298.065 163.571C298.725 163.611 299.295 163.621 299.765 163.621C300.365 163.621 300.885 163.621 301.325 163.601C301.765 163.581 302.155 163.551 302.485 163.481C302.815 163.421 303.115 163.331 303.385 163.201C303.615 163.091 303.805 162.941 303.965 162.741C304.125 162.541 304.265 162.311 304.385 162.051C304.505 161.791 304.605 161.531 304.675 161.261C304.745 160.991 304.795 160.741 304.835 160.501C304.865 160.261 304.885 160.071 304.885 159.911C304.885 159.651 304.815 159.451 304.675 159.321C304.535 159.191 304.295 159.091 303.965 159.031C303.635 158.971 303.175 158.911 302.595 158.851L298.315 158.321C297.205 158.201 296.455 157.921 296.055 157.481C295.655 157.041 295.465 156.451 295.465 155.701C295.465 155.421 295.485 155.121 295.535 154.781C295.575 154.441 295.645 154.101 295.735 153.751C295.985 152.831 296.315 152.091 296.735 151.541C297.155 150.991 297.685 150.571 298.305 150.291C298.935 150.011 299.655 149.821 300.485 149.721C301.315 149.621 302.245 149.571 303.285 149.571C304.045 149.571 304.805 149.591 305.585 149.621C306.355 149.651 307.095 149.701 307.775 149.761C308.465 149.821 309.035 149.891 309.495 149.971L309.015 151.991C308.525 151.931 307.955 151.881 307.325 151.841C306.695 151.801 306.055 151.771 305.405 151.751C304.765 151.731 304.145 151.721 303.565 151.721C302.985 151.721 302.445 151.741 301.995 151.771C301.545 151.801 301.165 151.851 300.845 151.911C300.525 151.971 300.245 152.061 299.995 152.191C299.745 152.311 299.535 152.491 299.345 152.711C299.165 152.931 299.015 153.181 298.895 153.461C298.785 153.741 298.705 154.021 298.655 154.301C298.615 154.581 298.585 154.851 298.585 155.091C298.585 155.461 298.725 155.701 298.995 155.831C299.265 155.951 299.755 156.051 300.465 156.131L304.585 156.571C305.255 156.651 305.845 156.761 306.365 156.901C306.885 157.051 307.295 157.301 307.595 157.661C307.895 158.021 308.045 158.561 308.045 159.281C308.045 159.451 308.045 159.641 308.015 159.851C307.995 160.061 307.965 160.291 307.925 160.531C307.885 160.771 307.825 161.021 307.755 161.301C307.495 162.341 307.135 163.171 306.695 163.781C306.255 164.391 305.735 164.841 305.135 165.131C304.535 165.411 303.855 165.591 303.105 165.671C302.345 165.751 301.505 165.791 300.565 165.791L300.585 165.751Z" fill="#898989"/>
<path d="M287.725 150.691L285.445 152.971C285.475 153.131 285.495 153.301 285.495 153.491C285.495 153.931 285.435 154.501 285.325 155.181C285.215 155.861 285.025 156.691 284.755 157.651C284.475 158.811 284.215 159.771 283.975 160.521C283.735 161.271 283.485 161.861 283.225 162.281C282.965 162.701 282.635 163.001 282.245 163.191C281.855 163.371 281.365 163.491 280.775 163.531C280.185 163.581 279.445 163.601 278.545 163.601C277.545 163.601 276.735 163.571 276.135 163.521C275.725 163.481 275.395 163.401 275.135 163.261L273.225 165.171C273.505 165.281 273.825 165.371 274.185 165.431C275.205 165.631 276.615 165.731 278.415 165.731C279.855 165.731 281.055 165.661 282.005 165.531C282.955 165.401 283.735 165.171 284.345 164.841C284.955 164.511 285.455 164.051 285.835 163.451C286.225 162.851 286.565 162.081 286.865 161.141C287.165 160.201 287.485 159.051 287.815 157.701C288.065 156.691 288.255 155.811 288.385 155.071C288.515 154.331 288.585 153.671 288.585 153.101C288.585 152.151 288.375 151.421 287.955 150.901C287.885 150.821 287.805 150.741 287.725 150.661V150.691Z" fill="#D1D1D1"/>
<path d="M274.435 161.711C274.435 161.431 274.475 161.131 274.535 160.791C274.605 160.401 274.695 159.941 274.815 159.411C274.925 158.881 275.065 158.301 275.225 157.651C275.505 156.491 275.765 155.531 275.995 154.781C276.225 154.031 276.475 153.441 276.735 153.021C276.995 152.601 277.325 152.301 277.725 152.111C278.125 151.921 278.615 151.811 279.215 151.771C279.815 151.721 280.565 151.701 281.465 151.701C282.455 151.701 283.235 151.731 283.835 151.781C284.005 151.801 284.165 151.821 284.305 151.861L286.205 149.961C286.075 149.931 285.945 149.901 285.815 149.871C284.805 149.671 283.395 149.571 281.595 149.571C280.155 149.571 278.945 149.631 277.985 149.751C277.025 149.871 276.235 150.101 275.615 150.431C274.995 150.761 274.495 151.231 274.105 151.831C273.715 152.441 273.385 153.211 273.105 154.151C272.825 155.091 272.525 156.241 272.205 157.591C271.955 158.601 271.765 159.491 271.615 160.251C271.465 161.011 271.395 161.671 271.395 162.241C271.395 163.091 271.575 163.751 271.915 164.251L274.435 161.731V161.711Z" fill="#D1D1D1"/>
<path d="M288.225 105.522L263.495 80.8115L238.775 105.522C237.185 107.112 237.185 109.692 238.775 111.272L258.895 131.382L251.985 138.282L256.595 142.882L263.505 135.982L270.415 142.882L275.025 138.282L268.115 131.382L288.235 111.272C289.825 109.682 289.825 107.102 288.235 105.522H288.225ZM263.495 126.772L245.105 108.392L263.495 90.0115L281.885 108.392L263.495 126.772Z" fill="#D1D1D1"/>
</g>
<path d="M241.907 183.752L244.259 172.744H249.315C250.093 172.744 250.691 172.835 251.107 173.016C251.533 173.187 251.832 173.432 252.003 173.752C252.173 174.072 252.259 174.456 252.259 174.904C252.259 175.032 252.248 175.171 252.227 175.32C252.216 175.469 252.195 175.629 252.163 175.8C252.141 175.96 252.109 176.12 252.067 176.28C251.971 176.685 251.859 177.053 251.731 177.384C251.613 177.704 251.469 177.987 251.299 178.232C251.139 178.477 250.931 178.685 250.675 178.856C250.419 179.027 250.104 179.16 249.731 179.256L250.627 183.752H248.739L248.019 179.48C247.901 179.48 247.779 179.485 247.651 179.496C247.533 179.496 247.411 179.496 247.283 179.496H244.643L243.731 183.752H241.907ZM244.947 178.056H247.747C248.237 178.056 248.632 178.019 248.931 177.944C249.229 177.869 249.459 177.757 249.619 177.608C249.789 177.448 249.917 177.245 250.003 177C250.099 176.755 250.179 176.467 250.243 176.136C250.296 175.944 250.333 175.768 250.355 175.608C250.376 175.448 250.387 175.304 250.387 175.176C250.387 174.963 250.333 174.781 250.227 174.632C250.131 174.483 249.955 174.376 249.699 174.312C249.453 174.237 249.107 174.2 248.659 174.2H245.779L244.947 178.056ZM257.543 183.88C256.455 183.88 255.602 183.811 254.983 183.672C254.365 183.533 253.927 183.288 253.671 182.936C253.415 182.584 253.287 182.083 253.287 181.432C253.287 181.037 253.33 180.579 253.415 180.056C253.511 179.523 253.634 178.904 253.783 178.2C253.975 177.261 254.157 176.467 254.327 175.816C254.498 175.155 254.701 174.616 254.935 174.2C255.17 173.773 255.474 173.448 255.847 173.224C256.221 172.989 256.695 172.829 257.271 172.744C257.858 172.659 258.589 172.616 259.463 172.616C260.551 172.616 261.399 172.685 262.007 172.824C262.626 172.963 263.063 173.213 263.319 173.576C263.575 173.928 263.703 174.435 263.703 175.096C263.703 175.491 263.661 175.949 263.575 176.472C263.501 176.984 263.389 177.592 263.239 178.296C263.037 179.235 262.845 180.035 262.663 180.696C262.482 181.347 262.274 181.88 262.039 182.296C261.805 182.712 261.501 183.037 261.127 183.272C260.765 183.496 260.295 183.656 259.719 183.752C259.143 183.837 258.418 183.88 257.543 183.88ZM257.623 182.392C258.167 182.392 258.615 182.376 258.967 182.344C259.33 182.312 259.629 182.232 259.863 182.104C260.098 181.976 260.295 181.768 260.455 181.48C260.615 181.181 260.765 180.771 260.903 180.248C261.053 179.725 261.213 179.059 261.383 178.248C261.543 177.576 261.655 177.005 261.719 176.536C261.794 176.056 261.831 175.661 261.831 175.352C261.831 174.947 261.751 174.659 261.591 174.488C261.431 174.307 261.17 174.2 260.807 174.168C260.455 174.125 259.981 174.104 259.383 174.104C258.839 174.104 258.386 174.12 258.023 174.152C257.661 174.184 257.357 174.264 257.111 174.392C256.877 174.52 256.679 174.733 256.519 175.032C256.359 175.32 256.21 175.725 256.071 176.248C255.933 176.771 255.778 177.437 255.607 178.248C255.511 178.696 255.426 179.107 255.351 179.48C255.287 179.843 255.234 180.163 255.191 180.44C255.149 180.707 255.127 180.947 255.127 181.16C255.127 181.555 255.207 181.843 255.367 182.024C255.538 182.195 255.805 182.301 256.167 182.344C256.53 182.376 257.015 182.392 257.623 182.392ZM263.692 183.752L270.156 172.744H272.508L274.3 183.752H272.492L272.028 181H267.18L265.548 183.752H263.692ZM267.948 179.544H271.852L271.036 174.488H270.94L267.948 179.544ZM276.172 183.752L278.524 172.744H281.996C283.138 172.744 284.028 172.813 284.668 172.952C285.319 173.08 285.778 173.32 286.044 173.672C286.311 174.013 286.444 174.515 286.444 175.176C286.444 175.56 286.402 176.008 286.316 176.52C286.242 177.021 286.13 177.613 285.98 178.296C285.778 179.213 285.591 179.997 285.42 180.648C285.25 181.288 285.042 181.816 284.796 182.232C284.562 182.637 284.258 182.952 283.884 183.176C283.511 183.389 283.026 183.539 282.428 183.624C281.842 183.709 281.106 183.752 280.22 183.752H276.172ZM278.332 182.264H279.996C280.636 182.264 281.159 182.253 281.564 182.232C281.97 182.2 282.306 182.12 282.572 181.992C282.839 181.864 283.058 181.661 283.228 181.384C283.399 181.096 283.554 180.701 283.692 180.2C283.831 179.688 283.986 179.037 284.156 178.248C284.284 177.629 284.386 177.096 284.46 176.648C284.546 176.2 284.588 175.827 284.588 175.528C284.588 175.219 284.535 174.973 284.428 174.792C284.332 174.611 284.167 174.483 283.932 174.408C283.708 174.323 283.415 174.275 283.052 174.264C282.69 174.243 282.242 174.232 281.708 174.232H280.044L278.332 182.264Z" fill="#50A1B0"/>
<path d="M264 189.752V230.252" stroke="#50A1B0"/>
<path d="M264 230.252L330.125 230.328" stroke="#50A1B0"/>
<path d="M264 230.328V270.828" stroke="#50A1B0"/>
<g clip-path="url(#clip1_83_3589)">
<path d="M263.99 324.688L239.91 300.598C238.34 299.028 238.34 296.488 239.91 294.918L263.99 270.828H264L288.09 294.918C289.66 296.488 289.66 299.028 288.09 300.598L264 324.688H263.99ZM241.2 299.828L264 322.628H264.01L286.81 299.828C287.95 298.688 287.95 296.838 286.81 295.698L264.01 272.898H264L241.2 295.698C240.06 296.838 240.06 298.688 241.2 299.828Z" fill="#D1D1D1"/>
</g>
<path d="M229.188 343.188L231.54 332.18H233.94L235.7 340.132H235.78L240.932 332.18H243.412L241.06 343.188H239.284L241.028 334.98H240.948L235.7 343.188H234.484L232.74 334.98H232.644L230.916 343.188H229.188ZM246.608 343.316C245.989 343.316 245.482 343.252 245.088 343.124C244.704 342.996 244.421 342.772 244.24 342.452C244.058 342.122 243.968 341.674 243.968 341.108C243.968 340.842 243.989 340.538 244.032 340.196C244.085 339.844 244.16 339.455 244.256 339.028C244.426 338.207 244.608 337.535 244.8 337.012C245.002 336.479 245.237 336.058 245.504 335.748C245.781 335.439 246.112 335.22 246.496 335.092C246.88 334.964 247.344 334.9 247.888 334.9C248.336 334.9 248.736 334.932 249.088 334.996C249.45 335.06 249.754 335.178 250 335.348C250.245 335.508 250.416 335.738 250.512 336.036H250.624L250.944 335.028H252.528L250.8 343.188H249.232L249.408 342.068H249.312C249.098 342.42 248.848 342.692 248.56 342.884C248.272 343.066 247.962 343.183 247.632 343.236C247.301 343.29 246.96 343.316 246.608 343.316ZM247.376 341.908C247.738 341.908 248.042 341.876 248.288 341.812C248.533 341.738 248.741 341.636 248.912 341.508C249.082 341.38 249.221 341.21 249.328 340.996C249.413 340.858 249.493 340.676 249.568 340.452C249.653 340.228 249.733 339.988 249.808 339.732C249.882 339.476 249.952 339.215 250.016 338.948C250.08 338.682 250.128 338.431 250.16 338.196C250.192 337.951 250.208 337.748 250.208 337.588C250.208 337.13 250.08 336.804 249.824 336.612C249.578 336.42 249.141 336.324 248.512 336.324C248.085 336.324 247.733 336.356 247.456 336.42C247.178 336.474 246.949 336.596 246.768 336.788C246.597 336.97 246.448 337.247 246.32 337.62C246.202 337.994 246.074 338.49 245.936 339.108C245.861 339.492 245.797 339.828 245.744 340.116C245.701 340.394 245.68 340.634 245.68 340.836C245.68 341.146 245.733 341.375 245.84 341.524C245.957 341.674 246.138 341.775 246.384 341.828C246.64 341.882 246.97 341.908 247.376 341.908ZM253.262 343.188L254.99 335.028H256.558L256.382 336.148H256.494C256.664 335.882 256.867 335.658 257.102 335.476C257.347 335.295 257.646 335.156 257.998 335.06C258.35 334.954 258.76 334.9 259.23 334.9C259.88 334.9 260.382 334.97 260.734 335.108C261.096 335.236 261.347 335.444 261.486 335.732C261.624 336.01 261.694 336.367 261.694 336.804C261.694 336.996 261.678 337.231 261.646 337.508C261.614 337.775 261.566 338.058 261.502 338.356L260.462 343.188H258.782L259.742 338.644C259.795 338.356 259.843 338.095 259.886 337.86C259.928 337.626 259.95 337.434 259.95 337.284C259.95 337.007 259.896 336.804 259.79 336.676C259.683 336.538 259.518 336.447 259.294 336.404C259.08 336.362 258.787 336.34 258.414 336.34C257.934 336.34 257.544 336.404 257.246 336.532C256.958 336.65 256.723 336.826 256.542 337.06C256.371 337.284 256.232 337.562 256.126 337.892C256.03 338.223 255.939 338.596 255.854 339.012L254.942 343.188H253.262ZM265.202 332.916L265.554 331.3H267.33L266.994 332.916H265.202ZM263.074 343.188L264.802 335.028H266.514L264.786 343.188H263.074ZM267.371 343.188L269.883 331.3H271.595L269.083 343.188H267.371ZM271.59 343.188L274.102 331.3H275.814L273.302 343.188H271.59ZM278.577 343.316C277.958 343.316 277.451 343.252 277.057 343.124C276.673 342.996 276.39 342.772 276.209 342.452C276.027 342.122 275.937 341.674 275.937 341.108C275.937 340.842 275.958 340.538 276.001 340.196C276.054 339.844 276.129 339.455 276.225 339.028C276.395 338.207 276.577 337.535 276.769 337.012C276.971 336.479 277.206 336.058 277.473 335.748C277.75 335.439 278.081 335.22 278.465 335.092C278.849 334.964 279.313 334.9 279.857 334.9C280.305 334.9 280.705 334.932 281.057 334.996C281.419 335.06 281.723 335.178 281.969 335.348C282.214 335.508 282.385 335.738 282.481 336.036H282.593L282.913 335.028H284.497L282.769 343.188H281.201L281.377 342.068H281.281C281.067 342.42 280.817 342.692 280.529 342.884C280.241 343.066 279.931 343.183 279.601 343.236C279.27 343.29 278.929 343.316 278.577 343.316ZM279.345 341.908C279.707 341.908 280.011 341.876 280.257 341.812C280.502 341.738 280.71 341.636 280.881 341.508C281.051 341.38 281.19 341.21 281.297 340.996C281.382 340.858 281.462 340.676 281.537 340.452C281.622 340.228 281.702 339.988 281.777 339.732C281.851 339.476 281.921 339.215 281.985 338.948C282.049 338.682 282.097 338.431 282.129 338.196C282.161 337.951 282.177 337.748 282.177 337.588C282.177 337.13 282.049 336.804 281.793 336.612C281.547 336.42 281.11 336.324 280.481 336.324C280.054 336.324 279.702 336.356 279.424 336.42C279.147 336.474 278.918 336.596 278.737 336.788C278.566 336.97 278.417 337.247 278.289 337.62C278.171 337.994 278.043 338.49 277.905 339.108C277.83 339.492 277.766 339.828 277.713 340.116C277.67 340.394 277.649 340.634 277.649 340.836C277.649 341.146 277.702 341.375 277.809 341.524C277.926 341.674 278.107 341.775 278.353 341.828C278.609 341.882 278.939 341.908 279.345 341.908ZM285.23 343.188L286.958 335.028H288.526L288.254 336.58H288.35C288.596 336.122 288.868 335.775 289.166 335.54C289.465 335.295 289.806 335.13 290.19 335.044C290.574 334.948 291.006 334.9 291.486 334.9L291.134 336.516C290.558 336.516 290.068 336.586 289.662 336.724C289.268 336.863 288.942 337.071 288.686 337.348C288.441 337.626 288.233 337.972 288.062 338.388C287.902 338.804 287.764 339.284 287.646 339.828L286.91 343.188H285.23ZM294.553 343.316C294.211 343.316 293.838 343.306 293.433 343.284C293.038 343.263 292.654 343.236 292.281 343.204C291.907 343.172 291.571 343.14 291.273 343.108L291.545 341.828C291.811 341.85 292.062 341.871 292.297 341.892C292.531 341.914 292.761 341.935 292.985 341.956C293.219 341.967 293.443 341.978 293.657 341.988C293.881 341.988 294.11 341.988 294.345 341.988C294.857 341.988 295.246 341.956 295.513 341.892C295.79 341.818 295.993 341.706 296.121 341.556C296.249 341.396 296.345 341.188 296.409 340.932C296.451 340.826 296.483 340.724 296.505 340.628C296.526 340.532 296.537 340.447 296.537 340.372C296.537 340.17 296.467 340.042 296.329 339.988C296.19 339.935 295.966 339.892 295.657 339.86L293.513 339.588C292.99 339.514 292.627 339.364 292.425 339.14C292.222 338.916 292.121 338.607 292.121 338.212C292.121 338.116 292.131 337.978 292.153 337.796C292.174 337.604 292.206 337.412 292.249 337.22C292.366 336.687 292.526 336.266 292.729 335.956C292.942 335.647 293.198 335.418 293.497 335.268C293.795 335.119 294.147 335.023 294.553 334.98C294.958 334.927 295.417 334.9 295.929 334.9C296.259 334.9 296.601 334.911 296.953 334.932C297.305 334.954 297.646 334.98 297.977 335.012C298.307 335.044 298.585 335.082 298.809 335.124L298.553 336.404C298.254 336.362 297.961 336.33 297.673 336.308C297.395 336.287 297.118 336.271 296.841 336.26C296.563 336.239 296.291 336.228 296.025 336.228C295.662 336.228 295.342 336.244 295.065 336.276C294.787 336.298 294.553 336.367 294.361 336.484C294.169 336.602 294.025 336.794 293.929 337.06C293.886 337.156 293.849 337.263 293.817 337.38C293.785 337.487 293.769 337.61 293.769 337.748C293.769 337.94 293.833 338.068 293.961 338.132C294.089 338.196 294.313 338.244 294.633 338.276L296.745 338.548C297.065 338.58 297.331 338.639 297.545 338.724C297.758 338.81 297.918 338.943 298.025 339.124C298.142 339.306 298.201 339.562 298.201 339.892C298.201 339.999 298.19 340.148 298.169 340.34C298.147 340.522 298.11 340.719 298.057 340.932C297.939 341.455 297.785 341.876 297.593 342.196C297.411 342.516 297.177 342.756 296.889 342.916C296.611 343.076 296.281 343.183 295.897 343.236C295.513 343.29 295.065 343.316 294.553 343.316Z" fill="#454545"/>
<defs>
<clipPath id="clip0_83_3589">
<rect width="90.99" height="84.94" fill="white" transform="translate(218.505 80.8115)"/>
</clipPath>
<clipPath id="clip1_83_3589">
<rect width="50.54" height="53.86" fill="white" transform="translate(238.729 270.828)"/>
</clipPath>
</defs>
</svg>
