<svg width="91" height="109" viewBox="0 0 91 109" fill="none" xmlns="http://www.w3.org/2000/svg">
<g clip-path="url(#clip0_178_3239)">
<path d="M0 84.7502L3.88 68.9302H16.41L15.88 71.0702H6.4L5.24 75.7102H13.43L12.93 77.8002H4.73L3.54 82.6102H13.05L12.52 84.7502H0Z" fill="#898989"/>
<path d="M19.64 84.7502L23.52 68.9302H26.53L22.65 84.7502H19.64Z" fill="#898989"/>
<path d="M30.84 84.7502L34.72 68.9302H43.07C44.36 68.9302 45.35 69.0602 46.04 69.3102C46.74 69.5602 47.22 69.9202 47.51 70.3802C47.79 70.8402 47.93 71.3902 47.93 72.0402C47.93 72.2202 47.92 72.4202 47.89 72.6402C47.86 72.8502 47.83 73.0802 47.78 73.3202C47.74 73.5602 47.68 73.7902 47.61 74.0202C47.45 74.6002 47.27 75.1302 47.07 75.5902C46.87 76.0602 46.63 76.4702 46.36 76.8202C46.09 77.1702 45.74 77.4702 45.32 77.7202C44.9 77.9702 44.38 78.1602 43.76 78.2902L45.24 84.7502H42.12L40.93 78.6102C40.74 78.6102 40.54 78.6102 40.34 78.6202C40.14 78.6202 39.93 78.6302 39.72 78.6302H35.36L33.85 84.7502H30.84ZM35.86 76.5702H40.48C41.29 76.5702 41.94 76.5202 42.44 76.4102C42.93 76.3002 43.32 76.1402 43.59 75.9202C43.86 75.7002 44.07 75.4102 44.22 75.0602C44.37 74.7102 44.5 74.2902 44.6 73.8202C44.69 73.5402 44.75 73.2902 44.78 73.0602C44.82 72.8302 44.83 72.6202 44.83 72.4402C44.83 72.1302 44.75 71.8702 44.58 71.6602C44.41 71.4502 44.12 71.2902 43.71 71.1902C43.3 71.0902 42.72 71.0402 41.98 71.0402H37.22L35.85 76.5802L35.86 76.5702Z" fill="#898989"/>
<path d="M82.08 84.9398C81.32 84.9398 80.52 84.9198 79.69 84.8898C78.85 84.8598 78.03 84.8198 77.22 84.7598C76.41 84.7098 75.68 84.6498 75.03 84.5898L75.53 82.4998C76.15 82.5498 76.81 82.5898 77.51 82.6398C78.21 82.6898 78.9 82.7198 79.56 82.7598C80.22 82.7998 80.79 82.8098 81.26 82.8098C81.86 82.8098 82.38 82.8098 82.82 82.7898C83.26 82.7698 83.65 82.7398 83.98 82.6698C84.31 82.6098 84.61 82.5198 84.88 82.3898C85.11 82.2798 85.3 82.1298 85.46 81.9298C85.62 81.7298 85.76 81.4998 85.88 81.2398C86 80.9798 86.1 80.7198 86.17 80.4498C86.24 80.1798 86.29 79.9298 86.33 79.6898C86.36 79.4498 86.38 79.2598 86.38 79.0998C86.38 78.8398 86.31 78.6398 86.17 78.5098C86.03 78.3798 85.79 78.2798 85.46 78.2198C85.13 78.1598 84.67 78.0998 84.09 78.0398L79.81 77.5098C78.7 77.3898 77.95 77.1098 77.55 76.6698C77.15 76.2298 76.96 75.6398 76.96 74.8898C76.96 74.6098 76.98 74.3098 77.03 73.9698C77.07 73.6298 77.14 73.2898 77.23 72.9398C77.48 72.0198 77.81 71.2798 78.23 70.7298C78.65 70.1798 79.18 69.7598 79.8 69.4798C80.43 69.1998 81.15 69.0098 81.98 68.9098C82.81 68.8098 83.74 68.7598 84.78 68.7598C85.54 68.7598 86.3 68.7798 87.08 68.8098C87.85 68.8398 88.59 68.8898 89.27 68.9498C89.96 69.0098 90.53 69.0798 90.99 69.1598L90.51 71.1798C90.02 71.1198 89.45 71.0698 88.82 71.0298C88.19 70.9898 87.55 70.9598 86.9 70.9398C86.26 70.9198 85.64 70.9098 85.06 70.9098C84.48 70.9098 83.94 70.9298 83.49 70.9598C83.04 70.9898 82.66 71.0398 82.34 71.0998C82.02 71.1598 81.74 71.2498 81.49 71.3798C81.24 71.4998 81.03 71.6798 80.84 71.8998C80.66 72.1198 80.51 72.3698 80.39 72.6498C80.28 72.9298 80.2 73.2098 80.15 73.4898C80.11 73.7698 80.08 74.0398 80.08 74.2798C80.08 74.6498 80.22 74.8898 80.49 75.0198C80.76 75.1398 81.25 75.2398 81.96 75.3198L86.08 75.7598C86.75 75.8398 87.34 75.9498 87.86 76.0898C88.38 76.2398 88.79 76.4898 89.09 76.8498C89.39 77.2098 89.54 77.7498 89.54 78.4698C89.54 78.6398 89.54 78.8298 89.51 79.0398C89.49 79.2498 89.46 79.4798 89.42 79.7198C89.38 79.9598 89.32 80.2098 89.25 80.4898C88.99 81.5298 88.63 82.3598 88.19 82.9698C87.75 83.5798 87.23 84.0298 86.63 84.3198C86.03 84.5998 85.35 84.7798 84.6 84.8598C83.84 84.9398 83 84.9798 82.06 84.9798L82.08 84.9398Z" fill="#898989"/>
<path d="M69.22 69.8796L66.94 72.1596C66.97 72.3196 66.99 72.4896 66.99 72.6796C66.99 73.1196 66.93 73.6896 66.82 74.3696C66.71 75.0496 66.52 75.8796 66.25 76.8396C65.97 77.9996 65.71 78.9596 65.47 79.7096C65.23 80.4596 64.98 81.0496 64.72 81.4696C64.46 81.8896 64.13 82.1896 63.74 82.3796C63.35 82.5596 62.86 82.6796 62.27 82.7196C61.68 82.7696 60.94 82.7896 60.04 82.7896C59.04 82.7896 58.23 82.7596 57.63 82.7096C57.22 82.6696 56.89 82.5896 56.63 82.4496L54.72 84.3596C55 84.4696 55.32 84.5596 55.68 84.6196C56.7 84.8196 58.11 84.9196 59.91 84.9196C61.35 84.9196 62.55 84.8496 63.5 84.7196C64.45 84.5896 65.23 84.3596 65.84 84.0296C66.45 83.6996 66.95 83.2396 67.33 82.6396C67.72 82.0396 68.06 81.2696 68.36 80.3296C68.66 79.3896 68.98 78.2396 69.31 76.8896C69.56 75.8796 69.75 74.9996 69.88 74.2596C70.01 73.5196 70.08 72.8596 70.08 72.2896C70.08 71.3396 69.87 70.6096 69.45 70.0896C69.38 70.0096 69.3 69.9296 69.22 69.8496V69.8796Z" fill="#D1D1D1"/>
<path d="M55.93 80.8998C55.93 80.6198 55.97 80.3198 56.03 79.9798C56.1 79.5898 56.19 79.1298 56.31 78.5998C56.42 78.0698 56.56 77.4898 56.72 76.8398C57 75.6798 57.26 74.7198 57.49 73.9698C57.72 73.2198 57.97 72.6298 58.23 72.2098C58.49 71.7898 58.82 71.4898 59.22 71.2998C59.62 71.1098 60.11 70.9998 60.71 70.9598C61.31 70.9098 62.06 70.8898 62.96 70.8898C63.95 70.8898 64.73 70.9198 65.33 70.9698C65.5 70.9898 65.66 71.0098 65.8 71.0498L67.7 69.1498C67.57 69.1198 67.44 69.0898 67.31 69.0598C66.3 68.8598 64.89 68.7598 63.09 68.7598C61.65 68.7598 60.44 68.8198 59.48 68.9398C58.52 69.0598 57.73 69.2898 57.11 69.6198C56.49 69.9498 55.99 70.4198 55.6 71.0198C55.21 71.6298 54.88 72.3998 54.6 73.3398C54.32 74.2798 54.02 75.4298 53.7 76.7798C53.45 77.7898 53.26 78.6798 53.11 79.4398C52.96 80.1998 52.89 80.8598 52.89 81.4298C52.89 82.2798 53.07 82.9398 53.41 83.4398L55.93 80.9198V80.8998Z" fill="#D1D1D1"/>
<path d="M69.72 24.71L44.99 0L20.27 24.71C18.68 26.3 18.68 28.88 20.27 30.46L40.39 50.57L33.48 57.47L38.09 62.07L45 55.17L51.91 62.07L56.52 57.47L49.61 50.57L69.73 30.46C71.32 28.87 71.32 26.29 69.73 24.71H69.72ZM44.99 45.96L26.6 27.58L44.99 9.2L63.38 27.58L44.99 45.96Z" fill="#D1D1D1"/>
</g>
<path d="M23.4017 102.94L25.7537 91.9319H30.8097C31.5884 91.9319 32.1857 92.0226 32.6017 92.2039C33.0284 92.3746 33.3271 92.6199 33.4977 92.9399C33.6684 93.2599 33.7537 93.6439 33.7537 94.0919C33.7537 94.2199 33.7431 94.3586 33.7217 94.5079C33.7111 94.6573 33.6897 94.8173 33.6577 94.9879C33.6364 95.1479 33.6044 95.3079 33.5617 95.4679C33.4657 95.8733 33.3537 96.2413 33.2257 96.5719C33.1084 96.8919 32.9644 97.1746 32.7937 97.4199C32.6337 97.6653 32.4257 97.8733 32.1697 98.0439C31.9137 98.2146 31.5991 98.3479 31.2257 98.4439L32.1217 102.94H30.2337L29.5137 98.6679C29.3964 98.6679 29.2737 98.6733 29.1457 98.6839C29.0284 98.6839 28.9057 98.6839 28.7777 98.6839H26.1377L25.2257 102.94H23.4017ZM26.4417 97.2439H29.2417C29.7324 97.2439 30.1271 97.2066 30.4257 97.1319C30.7244 97.0573 30.9537 96.9453 31.1137 96.7959C31.2844 96.6359 31.4124 96.4333 31.4977 96.1879C31.5937 95.9426 31.6737 95.6546 31.7377 95.3239C31.7911 95.1319 31.8284 94.9559 31.8497 94.7959C31.8711 94.6359 31.8817 94.4919 31.8817 94.3639C31.8817 94.1506 31.8284 93.9693 31.7217 93.8199C31.6257 93.6706 31.4497 93.5639 31.1937 93.4999C30.9484 93.4253 30.6017 93.3879 30.1537 93.3879H27.2737L26.4417 97.2439ZM39.0384 103.068C37.9504 103.068 37.097 102.999 36.4784 102.86C35.8597 102.721 35.4224 102.476 35.1664 102.124C34.9104 101.772 34.7824 101.271 34.7824 100.62C34.7824 100.225 34.825 99.7666 34.9104 99.2439C35.0064 98.7106 35.129 98.0919 35.2784 97.3879C35.4704 96.4493 35.6517 95.6546 35.8224 95.0039C35.993 94.3426 36.1957 93.8039 36.4304 93.3879C36.665 92.9613 36.969 92.6359 37.3424 92.4119C37.7157 92.1773 38.1904 92.0173 38.7664 91.9319C39.353 91.8466 40.0837 91.8039 40.9584 91.8039C42.0464 91.8039 42.8944 91.8733 43.5024 92.0119C44.121 92.1506 44.5584 92.4013 44.8144 92.7639C45.0704 93.1159 45.1984 93.6226 45.1984 94.2839C45.1984 94.6786 45.1557 95.1373 45.0704 95.6599C44.9957 96.1719 44.8837 96.7799 44.7344 97.4839C44.5317 98.4226 44.3397 99.2226 44.1584 99.8839C43.977 100.535 43.769 101.068 43.5344 101.484C43.2997 101.9 42.9957 102.225 42.6224 102.46C42.2597 102.684 41.7904 102.844 41.2144 102.94C40.6384 103.025 39.913 103.068 39.0384 103.068ZM39.1184 101.58C39.6624 101.58 40.1104 101.564 40.4624 101.532C40.825 101.5 41.1237 101.42 41.3584 101.292C41.593 101.164 41.7904 100.956 41.9504 100.668C42.1104 100.369 42.2597 99.9586 42.3984 99.4359C42.5477 98.9133 42.7077 98.2466 42.8784 97.4359C43.0384 96.7639 43.1504 96.1933 43.2144 95.7239C43.289 95.2439 43.3264 94.8493 43.3264 94.5399C43.3264 94.1346 43.2464 93.8466 43.0864 93.6759C42.9264 93.4946 42.665 93.3879 42.3024 93.3559C41.9504 93.3133 41.4757 93.2919 40.8784 93.2919C40.3344 93.2919 39.881 93.3079 39.5184 93.3399C39.1557 93.3719 38.8517 93.4519 38.6064 93.5799C38.3717 93.7079 38.1744 93.9213 38.0144 94.2199C37.8544 94.5079 37.705 94.9133 37.5664 95.4359C37.4277 95.9586 37.273 96.6253 37.1024 97.4359C37.0064 97.8839 36.921 98.2946 36.8464 98.6679C36.7824 99.0306 36.729 99.3506 36.6864 99.6279C36.6437 99.8946 36.6224 100.135 36.6224 100.348C36.6224 100.743 36.7024 101.031 36.8624 101.212C37.033 101.383 37.2997 101.489 37.6624 101.532C38.025 101.564 38.5104 101.58 39.1184 101.58ZM45.1872 102.94L51.6512 91.9319H54.0032L55.7952 102.94H53.9872L53.5232 100.188H48.6752L47.0432 102.94H45.1872ZM49.4432 98.7319H53.3472L52.5312 93.6759H52.4352L49.4432 98.7319ZM57.6674 102.94L60.0194 91.9319H63.4914C64.6327 91.9319 65.5234 92.0013 66.1634 92.1399C66.814 92.2679 67.2727 92.5079 67.5394 92.8599C67.806 93.2013 67.9394 93.7026 67.9394 94.3639C67.9394 94.7479 67.8967 95.1959 67.8114 95.7079C67.7367 96.2093 67.6247 96.8013 67.4754 97.4839C67.2727 98.4013 67.086 99.1853 66.9154 99.8359C66.7447 100.476 66.5367 101.004 66.2914 101.42C66.0567 101.825 65.7527 102.14 65.3794 102.364C65.006 102.577 64.5207 102.727 63.9234 102.812C63.3367 102.897 62.6007 102.94 61.7154 102.94H57.6674ZM59.8274 101.452H61.4914C62.1314 101.452 62.654 101.441 63.0594 101.42C63.4647 101.388 63.8007 101.308 64.0674 101.18C64.334 101.052 64.5527 100.849 64.7234 100.572C64.894 100.284 65.0487 99.8893 65.1874 99.3879C65.326 98.8759 65.4807 98.2253 65.6514 97.4359C65.7794 96.8173 65.8807 96.2839 65.9554 95.8359C66.0407 95.3879 66.0834 95.0146 66.0834 94.7159C66.0834 94.4066 66.03 94.1613 65.9234 93.9799C65.8274 93.7986 65.662 93.6706 65.4274 93.5959C65.2034 93.5106 64.91 93.4626 64.5474 93.4519C64.1847 93.4306 63.7367 93.4199 63.2034 93.4199H61.5394L59.8274 101.452Z" fill="#50A1B0"/>
<defs>
<clipPath id="clip0_178_3239">
<rect width="90.99" height="84.94" fill="white"/>
</clipPath>
</defs>
</svg>
