<svg width="188" height="176" viewBox="0 0 188 176" fill="none" xmlns="http://www.w3.org/2000/svg">
<path d="M0 174.608L8.01671 142.015H33.9057L32.8106 146.424H13.2234L10.8267 155.983H27.7485L26.7155 160.289H9.77294L7.31421 170.199H26.9634L25.8683 174.608H0Z" fill="#898989"/>
<path d="M40.5791 174.608L48.5958 142.015H54.815L46.7982 174.608H40.5791Z" fill="#898989"/>
<path d="M63.7207 174.608L71.7374 142.015H88.9899C91.6552 142.015 93.7007 142.282 95.1264 142.798C96.5727 143.313 97.5644 144.054 98.1636 145.002C98.7421 145.95 99.0314 147.083 99.0314 148.422C99.0314 148.793 99.0107 149.205 98.9487 149.658C98.8868 150.091 98.8248 150.565 98.7215 151.059C98.6388 151.554 98.5149 152.028 98.3702 152.501C98.0396 153.696 97.6677 154.788 97.2545 155.736C96.8413 156.704 96.3454 157.549 95.7875 158.27C95.2297 158.991 94.5065 159.609 93.6387 160.124C92.7709 160.64 91.6965 161.031 90.4155 161.299L93.4734 174.608H87.027L84.5683 161.958C84.1757 161.958 83.7625 161.958 83.3492 161.979C82.936 161.979 82.5021 161.999 82.0682 161.999H73.0598L69.9398 174.608H63.7207ZM74.0928 157.755H83.6385C85.3121 157.755 86.6551 157.652 87.6882 157.426C88.7006 157.199 89.5064 156.869 90.0643 156.416C90.6221 155.963 91.056 155.365 91.3659 154.644C91.6759 153.923 91.9445 153.058 92.1511 152.089C92.337 151.513 92.461 150.997 92.523 150.524C92.6056 150.05 92.6263 149.617 92.6263 149.246C92.6263 148.608 92.461 148.072 92.1098 147.639C91.7585 147.207 91.1593 146.877 90.3122 146.671C89.4651 146.465 88.2667 146.362 86.7377 146.362H76.9028L74.0722 157.776L74.0928 157.755Z" fill="#898989"/>
<path d="M169.591 175C168.021 175 166.368 174.959 164.653 174.897C162.917 174.836 161.223 174.753 159.549 174.629C157.876 174.526 156.367 174.403 155.024 174.279L156.057 169.973C157.339 170.076 158.702 170.159 160.149 170.262C161.595 170.365 163.02 170.427 164.384 170.509C165.748 170.591 166.926 170.612 167.897 170.612C169.136 170.612 170.211 170.612 171.12 170.571C172.029 170.53 172.835 170.468 173.517 170.323C174.198 170.2 174.818 170.014 175.376 169.747C175.851 169.52 176.244 169.211 176.574 168.799C176.905 168.387 177.194 167.913 177.442 167.377C177.69 166.842 177.897 166.306 178.041 165.75C178.186 165.193 178.289 164.678 178.372 164.184C178.434 163.689 178.475 163.298 178.475 162.968C178.475 162.433 178.331 162.021 178.041 161.753C177.752 161.485 177.256 161.279 176.574 161.155C175.893 161.032 174.942 160.908 173.744 160.784L164.901 159.692C162.607 159.445 161.058 158.868 160.231 157.962C159.405 157.055 159.012 155.84 159.012 154.295C159.012 153.718 159.053 153.1 159.157 152.399C159.239 151.699 159.384 150.998 159.57 150.277C160.087 148.382 160.768 146.857 161.636 145.724C162.504 144.591 163.599 143.725 164.88 143.148C166.182 142.572 167.669 142.18 169.384 141.974C171.099 141.768 173.021 141.665 175.169 141.665C176.74 141.665 178.31 141.706 179.922 141.768C181.513 141.83 183.042 141.933 184.447 142.056C185.872 142.18 187.05 142.324 188 142.489L187.009 146.651C185.996 146.527 184.818 146.424 183.517 146.342C182.215 146.259 180.893 146.198 179.55 146.156C178.227 146.115 176.946 146.095 175.748 146.095C174.55 146.095 173.434 146.136 172.504 146.198C171.574 146.259 170.789 146.362 170.128 146.486C169.467 146.61 168.888 146.795 168.372 147.063C167.855 147.31 167.421 147.681 167.029 148.134C166.657 148.588 166.347 149.103 166.099 149.68C165.872 150.256 165.706 150.833 165.603 151.41C165.521 151.987 165.459 152.543 165.459 153.038C165.459 153.8 165.748 154.295 166.306 154.562C166.864 154.81 167.876 155.016 169.343 155.18L177.856 156.087C179.24 156.252 180.459 156.478 181.533 156.767C182.608 157.076 183.455 157.591 184.075 158.333C184.694 159.074 185.004 160.187 185.004 161.67C185.004 162.021 185.004 162.412 184.942 162.845C184.901 163.277 184.839 163.751 184.756 164.246C184.674 164.74 184.55 165.255 184.405 165.832C183.868 167.975 183.124 169.685 182.215 170.942C181.306 172.198 180.232 173.125 178.992 173.723C177.752 174.3 176.347 174.671 174.798 174.836C173.227 175 171.492 175.083 169.55 175.083L169.591 175Z" fill="#898989"/>
<path d="M143.02 143.973L138.309 148.67C138.371 149 138.412 149.35 138.412 149.742C138.412 150.648 138.288 151.823 138.061 153.224C137.834 154.625 137.441 156.335 136.883 158.312C136.305 160.702 135.768 162.68 135.272 164.225C134.776 165.771 134.259 166.986 133.722 167.852C133.185 168.717 132.503 169.335 131.697 169.726C130.892 170.097 129.879 170.345 128.66 170.427C127.441 170.53 125.912 170.571 124.053 170.571C121.986 170.571 120.313 170.509 119.073 170.406C118.226 170.324 117.544 170.159 117.007 169.871L113.061 173.806C113.639 174.032 114.3 174.218 115.044 174.341C117.152 174.753 120.065 174.96 123.784 174.96C126.759 174.96 129.239 174.815 131.201 174.547C133.164 174.28 134.776 173.806 136.036 173.126C137.297 172.446 138.33 171.498 139.115 170.262C139.921 169.026 140.623 167.44 141.243 165.503C141.863 163.566 142.524 161.197 143.206 158.415C143.722 156.335 144.115 154.522 144.384 152.997C144.652 151.472 144.797 150.113 144.797 148.938C144.797 146.981 144.363 145.477 143.495 144.406C143.35 144.241 143.185 144.076 143.02 143.911V143.973Z" fill="#D1D1D1"/>
<path d="M115.56 166.677C115.56 166.1 115.643 165.482 115.767 164.781C115.912 163.978 116.098 163.03 116.346 161.938C116.573 160.846 116.862 159.651 117.193 158.312C117.771 155.922 118.308 153.944 118.784 152.399C119.259 150.854 119.775 149.638 120.313 148.773C120.85 147.908 121.532 147.29 122.358 146.898C123.185 146.507 124.197 146.28 125.437 146.198C126.676 146.095 128.226 146.053 130.086 146.053C132.131 146.053 133.743 146.115 134.982 146.218C135.334 146.259 135.664 146.301 135.953 146.383L139.879 142.469C139.611 142.407 139.342 142.345 139.073 142.283C136.987 141.871 134.073 141.665 130.354 141.665C127.379 141.665 124.879 141.789 122.895 142.036C120.912 142.283 119.28 142.757 117.998 143.437C116.717 144.117 115.684 145.085 114.879 146.321C114.073 147.578 113.391 149.164 112.812 151.101C112.234 153.038 111.614 155.407 110.953 158.188C110.436 160.269 110.044 162.103 109.734 163.669C109.424 165.235 109.279 166.594 109.279 167.769C109.279 169.52 109.651 170.88 110.354 171.91L115.56 166.718V166.677Z" fill="#D1D1D1"/>
<path d="M144.053 50.9095L92.9564 0L41.8809 50.9095C38.5957 54.1853 38.5957 59.5008 41.8809 62.7561L83.452 104.188L69.1749 118.404L78.6999 127.881L92.9771 113.666L107.254 127.881L116.779 118.404L102.502 104.188L144.073 62.7561C147.358 59.4802 147.358 54.1647 144.073 50.9095H144.053ZM92.9564 94.6904L54.9597 56.8225L92.9564 18.9546L130.953 56.8225L92.9564 94.6904Z" fill="#D1D1D1"/>
</svg>
