<svg width="91" height="109" viewBox="0 0 91 109" fill="none" xmlns="http://www.w3.org/2000/svg">
<g clip-path="url(#clip0_178_3252)">
<path d="M0 84.7502L3.88 68.9302H16.41L15.88 71.0702H6.4L5.24 75.7102H13.43L12.93 77.8002H4.73L3.54 82.6102H13.05L12.52 84.7502H0Z" fill="#898989"/>
<path d="M19.64 84.7502L23.52 68.9302H26.53L22.65 84.7502H19.64Z" fill="#898989"/>
<path d="M30.84 84.7502L34.72 68.9302H43.07C44.36 68.9302 45.35 69.0602 46.04 69.3102C46.74 69.5602 47.22 69.9202 47.51 70.3802C47.79 70.8402 47.93 71.3902 47.93 72.0402C47.93 72.2202 47.92 72.4202 47.89 72.6402C47.86 72.8502 47.83 73.0802 47.78 73.3202C47.74 73.5602 47.68 73.7902 47.61 74.0202C47.45 74.6002 47.27 75.1302 47.07 75.5902C46.87 76.0602 46.63 76.4702 46.36 76.8202C46.09 77.1702 45.74 77.4702 45.32 77.7202C44.9 77.9702 44.38 78.1602 43.76 78.2902L45.24 84.7502H42.12L40.93 78.6102C40.74 78.6102 40.54 78.6102 40.34 78.6202C40.14 78.6202 39.93 78.6302 39.72 78.6302H35.36L33.85 84.7502H30.84ZM35.86 76.5702H40.48C41.29 76.5702 41.94 76.5202 42.44 76.4102C42.93 76.3002 43.32 76.1402 43.59 75.9202C43.86 75.7002 44.07 75.4102 44.22 75.0602C44.37 74.7102 44.5 74.2902 44.6 73.8202C44.69 73.5402 44.75 73.2902 44.78 73.0602C44.82 72.8302 44.83 72.6202 44.83 72.4402C44.83 72.1302 44.75 71.8702 44.58 71.6602C44.41 71.4502 44.12 71.2902 43.71 71.1902C43.3 71.0902 42.72 71.0402 41.98 71.0402H37.22L35.85 76.5802L35.86 76.5702Z" fill="#898989"/>
<path d="M82.08 84.9398C81.32 84.9398 80.52 84.9198 79.69 84.8898C78.85 84.8598 78.03 84.8198 77.22 84.7598C76.41 84.7098 75.68 84.6498 75.03 84.5898L75.53 82.4998C76.15 82.5498 76.81 82.5898 77.51 82.6398C78.21 82.6898 78.9 82.7198 79.56 82.7598C80.22 82.7998 80.79 82.8098 81.26 82.8098C81.86 82.8098 82.38 82.8098 82.82 82.7898C83.26 82.7698 83.65 82.7398 83.98 82.6698C84.31 82.6098 84.61 82.5198 84.88 82.3898C85.11 82.2798 85.3 82.1298 85.46 81.9298C85.62 81.7298 85.76 81.4998 85.88 81.2398C86 80.9798 86.1 80.7198 86.17 80.4498C86.24 80.1798 86.29 79.9298 86.33 79.6898C86.36 79.4498 86.38 79.2598 86.38 79.0998C86.38 78.8398 86.31 78.6398 86.17 78.5098C86.03 78.3798 85.79 78.2798 85.46 78.2198C85.13 78.1598 84.67 78.0998 84.09 78.0398L79.81 77.5098C78.7 77.3898 77.95 77.1098 77.55 76.6698C77.15 76.2298 76.96 75.6398 76.96 74.8898C76.96 74.6098 76.98 74.3098 77.03 73.9698C77.07 73.6298 77.14 73.2898 77.23 72.9398C77.48 72.0198 77.81 71.2798 78.23 70.7298C78.65 70.1798 79.18 69.7598 79.8 69.4798C80.43 69.1998 81.15 69.0098 81.98 68.9098C82.81 68.8098 83.74 68.7598 84.78 68.7598C85.54 68.7598 86.3 68.7798 87.08 68.8098C87.85 68.8398 88.59 68.8898 89.27 68.9498C89.96 69.0098 90.53 69.0798 90.99 69.1598L90.51 71.1798C90.02 71.1198 89.45 71.0698 88.82 71.0298C88.19 70.9898 87.55 70.9598 86.9 70.9398C86.26 70.9198 85.64 70.9098 85.06 70.9098C84.48 70.9098 83.94 70.9298 83.49 70.9598C83.04 70.9898 82.66 71.0398 82.34 71.0998C82.02 71.1598 81.74 71.2498 81.49 71.3798C81.24 71.4998 81.03 71.6798 80.84 71.8998C80.66 72.1198 80.51 72.3698 80.39 72.6498C80.28 72.9298 80.2 73.2098 80.15 73.4898C80.11 73.7698 80.08 74.0398 80.08 74.2798C80.08 74.6498 80.22 74.8898 80.49 75.0198C80.76 75.1398 81.25 75.2398 81.96 75.3198L86.08 75.7598C86.75 75.8398 87.34 75.9498 87.86 76.0898C88.38 76.2398 88.79 76.4898 89.09 76.8498C89.39 77.2098 89.54 77.7498 89.54 78.4698C89.54 78.6398 89.54 78.8298 89.51 79.0398C89.49 79.2498 89.46 79.4798 89.42 79.7198C89.38 79.9598 89.32 80.2098 89.25 80.4898C88.99 81.5298 88.63 82.3598 88.19 82.9698C87.75 83.5798 87.23 84.0298 86.63 84.3198C86.03 84.5998 85.35 84.7798 84.6 84.8598C83.84 84.9398 83 84.9798 82.06 84.9798L82.08 84.9398Z" fill="#898989"/>
<path d="M69.22 69.8796L66.94 72.1596C66.97 72.3196 66.99 72.4896 66.99 72.6796C66.99 73.1196 66.93 73.6896 66.82 74.3696C66.71 75.0496 66.52 75.8796 66.25 76.8396C65.97 77.9996 65.71 78.9596 65.47 79.7096C65.23 80.4596 64.98 81.0496 64.72 81.4696C64.46 81.8896 64.13 82.1896 63.74 82.3796C63.35 82.5596 62.86 82.6796 62.27 82.7196C61.68 82.7696 60.94 82.7896 60.04 82.7896C59.04 82.7896 58.23 82.7596 57.63 82.7096C57.22 82.6696 56.89 82.5896 56.63 82.4496L54.72 84.3596C55 84.4696 55.32 84.5596 55.68 84.6196C56.7 84.8196 58.11 84.9196 59.91 84.9196C61.35 84.9196 62.55 84.8496 63.5 84.7196C64.45 84.5896 65.23 84.3596 65.84 84.0296C66.45 83.6996 66.95 83.2396 67.33 82.6396C67.72 82.0396 68.06 81.2696 68.36 80.3296C68.66 79.3896 68.98 78.2396 69.31 76.8896C69.56 75.8796 69.75 74.9996 69.88 74.2596C70.01 73.5196 70.08 72.8596 70.08 72.2896C70.08 71.3396 69.87 70.6096 69.45 70.0896C69.38 70.0096 69.3 69.9296 69.22 69.8496V69.8796Z" fill="#D1D1D1"/>
<path d="M55.93 80.8998C55.93 80.6198 55.97 80.3198 56.03 79.9798C56.1 79.5898 56.19 79.1298 56.31 78.5998C56.42 78.0698 56.56 77.4898 56.72 76.8398C57 75.6798 57.26 74.7198 57.49 73.9698C57.72 73.2198 57.97 72.6298 58.23 72.2098C58.49 71.7898 58.82 71.4898 59.22 71.2998C59.62 71.1098 60.11 70.9998 60.71 70.9598C61.31 70.9098 62.06 70.8898 62.96 70.8898C63.95 70.8898 64.73 70.9198 65.33 70.9698C65.5 70.9898 65.66 71.0098 65.8 71.0498L67.7 69.1498C67.57 69.1198 67.44 69.0898 67.31 69.0598C66.3 68.8598 64.89 68.7598 63.09 68.7598C61.65 68.7598 60.44 68.8198 59.48 68.9398C58.52 69.0598 57.73 69.2898 57.11 69.6198C56.49 69.9498 55.99 70.4198 55.6 71.0198C55.21 71.6298 54.88 72.3998 54.6 73.3398C54.32 74.2798 54.02 75.4298 53.7 76.7798C53.45 77.7898 53.26 78.6798 53.11 79.4398C52.96 80.1998 52.89 80.8598 52.89 81.4298C52.89 82.2798 53.07 82.9398 53.41 83.4398L55.93 80.9198V80.8998Z" fill="#D1D1D1"/>
<path d="M69.72 24.71L44.99 0L20.27 24.71C18.68 26.3 18.68 28.88 20.27 30.46L40.39 50.57L33.48 57.47L38.09 62.07L45 55.17L51.91 62.07L56.52 57.47L49.61 50.57L69.73 30.46C71.32 28.87 71.32 26.29 69.73 24.71H69.72ZM44.99 45.96L26.6 27.58L44.99 9.2L63.38 27.58L44.99 45.96Z" fill="#D1D1D1"/>
</g>
<path d="M15.9149 103.068C14.8802 103.068 14.0429 102.988 13.4029 102.828C12.7735 102.668 12.3095 102.38 12.0109 101.964C11.7229 101.548 11.5789 100.956 11.5789 100.188C11.5789 99.8359 11.6109 99.4253 11.6749 98.9559C11.7495 98.4866 11.8562 97.9639 11.9949 97.3879C12.1869 96.4706 12.3895 95.6866 12.6029 95.0359C12.8162 94.3853 13.0615 93.8519 13.3389 93.4359C13.6269 93.0093 13.9682 92.6786 14.3629 92.4439C14.7575 92.1986 15.2375 92.0333 15.8029 91.9479C16.3789 91.8519 17.0562 91.8039 17.8349 91.8039C18.2402 91.8039 18.6669 91.8199 19.1149 91.8519C19.5735 91.8839 20.0269 91.9266 20.4749 91.9799C20.9229 92.0226 21.3175 92.0759 21.6589 92.1399L21.3709 93.5319C21.0402 93.4893 20.6935 93.4519 20.3309 93.4199C19.9682 93.3773 19.6269 93.3453 19.3069 93.3239C18.9975 93.3026 18.7309 93.2919 18.5069 93.2919C17.8455 93.2919 17.2855 93.3079 16.8269 93.3399C16.3682 93.3613 15.9842 93.4359 15.6749 93.5639C15.3655 93.6919 15.0989 93.9053 14.8749 94.2039C14.6615 94.4919 14.4695 94.8973 14.2989 95.4199C14.1282 95.9426 13.9629 96.6146 13.8029 97.4359C13.6749 97.9906 13.5789 98.4813 13.5149 98.9079C13.4509 99.3239 13.4189 99.6919 13.4189 100.012C13.4189 100.449 13.4989 100.785 13.6589 101.02C13.8295 101.255 14.1069 101.415 14.4909 101.5C14.8749 101.585 15.3815 101.628 16.0109 101.628C16.2029 101.628 16.4215 101.623 16.6669 101.612C16.9122 101.601 17.1575 101.585 17.4029 101.564C17.6482 101.532 17.8562 101.511 18.0269 101.5L18.6989 98.2999H16.3789L16.6829 96.9079H20.7149L19.4669 102.748C19.1042 102.812 18.7095 102.871 18.2829 102.924C17.8562 102.967 17.4349 102.999 17.0189 103.02C16.6135 103.052 16.2455 103.068 15.9149 103.068ZM22.4174 102.94L24.7694 91.9319H32.3534L32.0334 93.4199H26.2894L25.5854 96.6519H30.5454L30.2414 98.1079H25.2814L24.5614 101.452H30.3214L30.0014 102.94H22.4174ZM31.1872 102.94L37.6512 91.9319H40.0032L41.7952 102.94H39.9872L39.5232 100.188H34.6752L33.0432 102.94H31.1872ZM35.4432 98.7319H39.3472L38.5312 93.6759H38.4352L35.4432 98.7319ZM43.6674 102.94L46.0194 91.9319H51.0754C51.854 91.9319 52.4514 92.0226 52.8674 92.2039C53.294 92.3746 53.5927 92.6199 53.7634 92.9399C53.934 93.2599 54.0194 93.6439 54.0194 94.0919C54.0194 94.2199 54.0087 94.3586 53.9874 94.5079C53.9767 94.6573 53.9554 94.8173 53.9234 94.9879C53.902 95.1479 53.87 95.3079 53.8274 95.4679C53.7314 95.8733 53.6194 96.2413 53.4914 96.5719C53.374 96.8919 53.23 97.1746 53.0594 97.4199C52.8994 97.6653 52.6914 97.8733 52.4354 98.0439C52.1794 98.2146 51.8647 98.3479 51.4914 98.4439L52.3874 102.94H50.4994L49.7794 98.6679C49.662 98.6679 49.5394 98.6733 49.4114 98.6839C49.294 98.6839 49.1714 98.6839 49.0434 98.6839H46.4034L45.4914 102.94H43.6674ZM46.7074 97.2439H49.5074C49.998 97.2439 50.3927 97.2066 50.6914 97.1319C50.99 97.0573 51.2194 96.9453 51.3794 96.7959C51.55 96.6359 51.678 96.4333 51.7634 96.1879C51.8594 95.9426 51.9394 95.6546 52.0034 95.3239C52.0567 95.1319 52.094 94.9559 52.1154 94.7959C52.1367 94.6359 52.1474 94.4919 52.1474 94.3639C52.1474 94.1506 52.094 93.9693 51.9874 93.8199C51.8914 93.6706 51.7154 93.5639 51.4594 93.4999C51.214 93.4253 50.8674 93.3879 50.4194 93.3879H47.5394L46.7074 97.2439ZM63.3044 103.068C62.3124 103.068 61.523 102.999 60.9364 102.86C60.3604 102.711 59.9444 102.46 59.6884 102.108C59.4324 101.745 59.3044 101.255 59.3044 100.636C59.3044 100.316 59.3364 99.9426 59.4004 99.5159C59.475 99.0893 59.5657 98.6093 59.6724 98.0759L60.9684 91.9319H62.7924L61.3844 98.5879C61.3097 98.9933 61.2404 99.3399 61.1764 99.6279C61.123 99.9159 61.0964 100.167 61.0964 100.38C61.0964 100.7 61.1657 100.945 61.3044 101.116C61.443 101.287 61.6724 101.409 61.9924 101.484C62.323 101.548 62.771 101.58 63.3364 101.58C63.9444 101.58 64.4297 101.543 64.7924 101.468C65.155 101.383 65.4377 101.239 65.6404 101.036C65.843 100.823 66.0084 100.519 66.1364 100.124C66.2644 99.7293 66.3924 99.2173 66.5204 98.5879L67.9284 91.9319H69.7524L68.4564 98.0759C68.2964 98.8759 68.1364 99.5639 67.9764 100.14C67.8164 100.716 67.6244 101.196 67.4004 101.58C67.187 101.953 66.9044 102.252 66.5524 102.476C66.211 102.689 65.779 102.844 65.2564 102.94C64.7337 103.025 64.083 103.068 63.3044 103.068ZM70.3705 102.94L72.7225 91.9319H77.6025C78.3705 91.9319 78.9678 92.0226 79.3945 92.2039C79.8212 92.3853 80.1198 92.6413 80.2905 92.9719C80.4612 93.3026 80.5465 93.6973 80.5465 94.1559C80.5465 94.3586 80.5252 94.5826 80.4825 94.8279C80.4505 95.0626 80.4078 95.3026 80.3545 95.5479C80.2585 96.0386 80.1305 96.4973 79.9705 96.9239C79.8212 97.3399 79.6132 97.7079 79.3465 98.0279C79.0798 98.3373 78.7172 98.5773 78.2585 98.7479C77.7998 98.9186 77.2078 99.0039 76.4825 99.0039H73.0425L72.1945 102.94H70.3705ZM73.3625 97.5479H76.0025C76.4932 97.5479 76.8825 97.5106 77.1705 97.4359C77.4692 97.3506 77.7038 97.2279 77.8745 97.0679C78.0452 96.8973 78.1785 96.6786 78.2745 96.4119C78.3705 96.1453 78.4612 95.8306 78.5465 95.4679C78.5892 95.2546 78.6212 95.0626 78.6425 94.8919C78.6745 94.7106 78.6905 94.5506 78.6905 94.4119C78.6905 94.1773 78.6372 93.9853 78.5305 93.8359C78.4345 93.6759 78.2532 93.5639 77.9865 93.4999C77.7305 93.4253 77.3732 93.3879 76.9145 93.3879H74.2425L73.3625 97.5479Z" fill="#50A1B0"/>
<defs>
<clipPath id="clip0_178_3252">
<rect width="90.99" height="84.94" fill="white"/>
</clipPath>
</defs>
</svg>
