<svg width="91" height="109" viewBox="0 0 91 109" fill="none" xmlns="http://www.w3.org/2000/svg">
<g clip-path="url(#clip0_178_3213)">
<path d="M0 84.7502L3.88 68.9302H16.41L15.88 71.0702H6.4L5.24 75.7102H13.43L12.93 77.8002H4.73L3.54 82.6102H13.05L12.52 84.7502H0Z" fill="#898989"/>
<path d="M19.64 84.7502L23.52 68.9302H26.53L22.65 84.7502H19.64Z" fill="#898989"/>
<path d="M30.84 84.7502L34.72 68.9302H43.07C44.36 68.9302 45.35 69.0602 46.04 69.3102C46.74 69.5602 47.22 69.9202 47.51 70.3802C47.79 70.8402 47.93 71.3902 47.93 72.0402C47.93 72.2202 47.92 72.4202 47.89 72.6402C47.86 72.8502 47.83 73.0802 47.78 73.3202C47.74 73.5602 47.68 73.7902 47.61 74.0202C47.45 74.6002 47.27 75.1302 47.07 75.5902C46.87 76.0602 46.63 76.4702 46.36 76.8202C46.09 77.1702 45.74 77.4702 45.32 77.7202C44.9 77.9702 44.38 78.1602 43.76 78.2902L45.24 84.7502H42.12L40.93 78.6102C40.74 78.6102 40.54 78.6102 40.34 78.6202C40.14 78.6202 39.93 78.6302 39.72 78.6302H35.36L33.85 84.7502H30.84ZM35.86 76.5702H40.48C41.29 76.5702 41.94 76.5202 42.44 76.4102C42.93 76.3002 43.32 76.1402 43.59 75.9202C43.86 75.7002 44.07 75.4102 44.22 75.0602C44.37 74.7102 44.5 74.2902 44.6 73.8202C44.69 73.5402 44.75 73.2902 44.78 73.0602C44.82 72.8302 44.83 72.6202 44.83 72.4402C44.83 72.1302 44.75 71.8702 44.58 71.6602C44.41 71.4502 44.12 71.2902 43.71 71.1902C43.3 71.0902 42.72 71.0402 41.98 71.0402H37.22L35.85 76.5802L35.86 76.5702Z" fill="#898989"/>
<path d="M82.08 84.9398C81.32 84.9398 80.52 84.9198 79.69 84.8898C78.85 84.8598 78.03 84.8198 77.22 84.7598C76.41 84.7098 75.68 84.6498 75.03 84.5898L75.53 82.4998C76.15 82.5498 76.81 82.5898 77.51 82.6398C78.21 82.6898 78.9 82.7198 79.56 82.7598C80.22 82.7998 80.79 82.8098 81.26 82.8098C81.86 82.8098 82.38 82.8098 82.82 82.7898C83.26 82.7698 83.65 82.7398 83.98 82.6698C84.31 82.6098 84.61 82.5198 84.88 82.3898C85.11 82.2798 85.3 82.1298 85.46 81.9298C85.62 81.7298 85.76 81.4998 85.88 81.2398C86 80.9798 86.1 80.7198 86.17 80.4498C86.24 80.1798 86.29 79.9298 86.33 79.6898C86.36 79.4498 86.38 79.2598 86.38 79.0998C86.38 78.8398 86.31 78.6398 86.17 78.5098C86.03 78.3798 85.79 78.2798 85.46 78.2198C85.13 78.1598 84.67 78.0998 84.09 78.0398L79.81 77.5098C78.7 77.3898 77.95 77.1098 77.55 76.6698C77.15 76.2298 76.96 75.6398 76.96 74.8898C76.96 74.6098 76.98 74.3098 77.03 73.9698C77.07 73.6298 77.14 73.2898 77.23 72.9398C77.48 72.0198 77.81 71.2798 78.23 70.7298C78.65 70.1798 79.18 69.7598 79.8 69.4798C80.43 69.1998 81.15 69.0098 81.98 68.9098C82.81 68.8098 83.74 68.7598 84.78 68.7598C85.54 68.7598 86.3 68.7798 87.08 68.8098C87.85 68.8398 88.59 68.8898 89.27 68.9498C89.96 69.0098 90.53 69.0798 90.99 69.1598L90.51 71.1798C90.02 71.1198 89.45 71.0698 88.82 71.0298C88.19 70.9898 87.55 70.9598 86.9 70.9398C86.26 70.9198 85.64 70.9098 85.06 70.9098C84.48 70.9098 83.94 70.9298 83.49 70.9598C83.04 70.9898 82.66 71.0398 82.34 71.0998C82.02 71.1598 81.74 71.2498 81.49 71.3798C81.24 71.4998 81.03 71.6798 80.84 71.8998C80.66 72.1198 80.51 72.3698 80.39 72.6498C80.28 72.9298 80.2 73.2098 80.15 73.4898C80.11 73.7698 80.08 74.0398 80.08 74.2798C80.08 74.6498 80.22 74.8898 80.49 75.0198C80.76 75.1398 81.25 75.2398 81.96 75.3198L86.08 75.7598C86.75 75.8398 87.34 75.9498 87.86 76.0898C88.38 76.2398 88.79 76.4898 89.09 76.8498C89.39 77.2098 89.54 77.7498 89.54 78.4698C89.54 78.6398 89.54 78.8298 89.51 79.0398C89.49 79.2498 89.46 79.4798 89.42 79.7198C89.38 79.9598 89.32 80.2098 89.25 80.4898C88.99 81.5298 88.63 82.3598 88.19 82.9698C87.75 83.5798 87.23 84.0298 86.63 84.3198C86.03 84.5998 85.35 84.7798 84.6 84.8598C83.84 84.9398 83 84.9798 82.06 84.9798L82.08 84.9398Z" fill="#898989"/>
<path d="M69.22 69.8796L66.94 72.1596C66.97 72.3196 66.99 72.4896 66.99 72.6796C66.99 73.1196 66.93 73.6896 66.82 74.3696C66.71 75.0496 66.52 75.8796 66.25 76.8396C65.97 77.9996 65.71 78.9596 65.47 79.7096C65.23 80.4596 64.98 81.0496 64.72 81.4696C64.46 81.8896 64.13 82.1896 63.74 82.3796C63.35 82.5596 62.86 82.6796 62.27 82.7196C61.68 82.7696 60.94 82.7896 60.04 82.7896C59.04 82.7896 58.23 82.7596 57.63 82.7096C57.22 82.6696 56.89 82.5896 56.63 82.4496L54.72 84.3596C55 84.4696 55.32 84.5596 55.68 84.6196C56.7 84.8196 58.11 84.9196 59.91 84.9196C61.35 84.9196 62.55 84.8496 63.5 84.7196C64.45 84.5896 65.23 84.3596 65.84 84.0296C66.45 83.6996 66.95 83.2396 67.33 82.6396C67.72 82.0396 68.06 81.2696 68.36 80.3296C68.66 79.3896 68.98 78.2396 69.31 76.8896C69.56 75.8796 69.75 74.9996 69.88 74.2596C70.01 73.5196 70.08 72.8596 70.08 72.2896C70.08 71.3396 69.87 70.6096 69.45 70.0896C69.38 70.0096 69.3 69.9296 69.22 69.8496V69.8796Z" fill="#D1D1D1"/>
<path d="M55.93 80.8998C55.93 80.6198 55.97 80.3198 56.03 79.9798C56.1 79.5898 56.19 79.1298 56.31 78.5998C56.42 78.0698 56.56 77.4898 56.72 76.8398C57 75.6798 57.26 74.7198 57.49 73.9698C57.72 73.2198 57.97 72.6298 58.23 72.2098C58.49 71.7898 58.82 71.4898 59.22 71.2998C59.62 71.1098 60.11 70.9998 60.71 70.9598C61.31 70.9098 62.06 70.8898 62.96 70.8898C63.95 70.8898 64.73 70.9198 65.33 70.9698C65.5 70.9898 65.66 71.0098 65.8 71.0498L67.7 69.1498C67.57 69.1198 67.44 69.0898 67.31 69.0598C66.3 68.8598 64.89 68.7598 63.09 68.7598C61.65 68.7598 60.44 68.8198 59.48 68.9398C58.52 69.0598 57.73 69.2898 57.11 69.6198C56.49 69.9498 55.99 70.4198 55.6 71.0198C55.21 71.6298 54.88 72.3998 54.6 73.3398C54.32 74.2798 54.02 75.4298 53.7 76.7798C53.45 77.7898 53.26 78.6798 53.11 79.4398C52.96 80.1998 52.89 80.8598 52.89 81.4298C52.89 82.2798 53.07 82.9398 53.41 83.4398L55.93 80.9198V80.8998Z" fill="#D1D1D1"/>
<path d="M69.72 24.71L44.99 0L20.27 24.71C18.68 26.3 18.68 28.88 20.27 30.46L40.39 50.57L33.48 57.47L38.09 62.07L45 55.17L51.91 62.07L56.52 57.47L49.61 50.57L69.73 30.46C71.32 28.87 71.32 26.29 69.73 24.71H69.72ZM44.99 45.96L26.6 27.58L44.99 9.2L63.38 27.58L44.99 45.96Z" fill="#D1D1D1"/>
</g>
<path d="M2.81581 102.94L5.16781 91.9319H7.56781L9.32781 99.8839H9.40781L14.5598 91.9319H17.0398L14.6878 102.94H12.9118L14.6558 94.7319H14.5758L9.32781 102.94H8.11181L6.36781 94.7319H6.27181L4.54381 102.94H2.81581ZM22.1556 103.068C21.0676 103.068 20.2142 102.999 19.5956 102.86C18.9769 102.721 18.5396 102.476 18.2836 102.124C18.0276 101.772 17.8996 101.271 17.8996 100.62C17.8996 100.225 17.9422 99.7666 18.0276 99.2439C18.1236 98.7106 18.2462 98.0919 18.3956 97.3879C18.5876 96.4493 18.7689 95.6546 18.9396 95.0039C19.1102 94.3426 19.3129 93.8039 19.5476 93.3879C19.7822 92.9613 20.0862 92.6359 20.4596 92.4119C20.8329 92.1773 21.3076 92.0173 21.8836 91.9319C22.4702 91.8466 23.2009 91.8039 24.0756 91.8039C25.1636 91.8039 26.0116 91.8733 26.6196 92.0119C27.2382 92.1506 27.6756 92.4013 27.9316 92.7639C28.1876 93.1159 28.3156 93.6226 28.3156 94.2839C28.3156 94.6786 28.2729 95.1373 28.1876 95.6599C28.1129 96.1719 28.0009 96.7799 27.8516 97.4839C27.6489 98.4226 27.4569 99.2226 27.2756 99.8839C27.0942 100.535 26.8862 101.068 26.6516 101.484C26.4169 101.9 26.1129 102.225 25.7396 102.46C25.3769 102.684 24.9076 102.844 24.3316 102.94C23.7556 103.025 23.0302 103.068 22.1556 103.068ZM22.2356 101.58C22.7796 101.58 23.2276 101.564 23.5796 101.532C23.9422 101.5 24.2409 101.42 24.4756 101.292C24.7102 101.164 24.9076 100.956 25.0676 100.668C25.2276 100.369 25.3769 99.9586 25.5156 99.4359C25.6649 98.9133 25.8249 98.2466 25.9956 97.4359C26.1556 96.7639 26.2676 96.1933 26.3316 95.7239C26.4062 95.2439 26.4436 94.8493 26.4436 94.5399C26.4436 94.1346 26.3636 93.8466 26.2036 93.6759C26.0436 93.4946 25.7822 93.3879 25.4196 93.3559C25.0676 93.3133 24.5929 93.2919 23.9956 93.2919C23.4516 93.2919 22.9982 93.3079 22.6356 93.3399C22.2729 93.3719 21.9689 93.4519 21.7236 93.5799C21.4889 93.7079 21.2916 93.9213 21.1316 94.2199C20.9716 94.5079 20.8222 94.9133 20.6836 95.4359C20.5449 95.9586 20.3902 96.6253 20.2196 97.4359C20.1236 97.8839 20.0382 98.2946 19.9636 98.6679C19.8996 99.0306 19.8462 99.3506 19.8036 99.6279C19.7609 99.8946 19.7396 100.135 19.7396 100.348C19.7396 100.743 19.8196 101.031 19.9796 101.212C20.1502 101.383 20.4169 101.489 20.7796 101.532C21.1422 101.564 21.6276 101.58 22.2356 101.58ZM33.9684 103.068C32.9764 103.068 32.1871 102.999 31.6004 102.86C31.0244 102.711 30.6084 102.46 30.3524 102.108C30.0964 101.745 29.9684 101.255 29.9684 100.636C29.9684 100.316 30.0004 99.9426 30.0644 99.5159C30.1391 99.0893 30.2298 98.6093 30.3364 98.0759L31.6324 91.9319H33.4564L32.0484 98.5879C31.9738 98.9933 31.9044 99.3399 31.8404 99.6279C31.7871 99.9159 31.7604 100.167 31.7604 100.38C31.7604 100.7 31.8298 100.945 31.9684 101.116C32.1071 101.287 32.3364 101.409 32.6564 101.484C32.9871 101.548 33.4351 101.58 34.0004 101.58C34.6084 101.58 35.0938 101.543 35.4564 101.468C35.8191 101.383 36.1018 101.239 36.3044 101.036C36.5071 100.823 36.6724 100.519 36.8004 100.124C36.9284 99.7293 37.0564 99.2173 37.1844 98.5879L38.5924 91.9319H40.4164L39.1204 98.0759C38.9604 98.8759 38.8004 99.5639 38.6404 100.14C38.4804 100.716 38.2884 101.196 38.0644 101.58C37.8511 101.953 37.5684 102.252 37.2164 102.476C36.8751 102.689 36.4431 102.844 35.9204 102.94C35.3978 103.025 34.7471 103.068 33.9684 103.068ZM41.0346 102.94L43.3866 91.9319H45.2586L48.8266 99.7079H48.9386L50.6026 91.9319H52.3626L50.0106 102.94H48.2826L44.6186 94.8439H44.5226L42.7946 102.94H41.0346ZM55.3073 102.94L57.3233 93.4839H53.8673L54.2033 91.9319H62.9393L62.6033 93.4839H59.1473L57.1473 102.94H55.3073ZM60.2888 102.94L66.7528 91.9319H69.1048L70.8968 102.94H69.0888L68.6248 100.188H63.7768L62.1448 102.94H60.2888ZM64.5448 98.7319H68.4488L67.6328 93.6759H67.5368L64.5448 98.7319ZM72.7689 102.94L75.1209 91.9319H76.9449L74.5929 102.94H72.7689ZM77.5814 102.94L79.9334 91.9319H81.8054L85.3734 99.7079H85.4854L87.1494 91.9319H88.9094L86.5574 102.94H84.8294L81.1654 94.8439H81.0694L79.3414 102.94H77.5814Z" fill="#50A1B0"/>
<defs>
<clipPath id="clip0_178_3213">
<rect width="90.99" height="84.94" fill="white"/>
</clipPath>
</defs>
</svg>
