<svg width="91" height="109" viewBox="0 0 91 109" fill="none" xmlns="http://www.w3.org/2000/svg">
<g clip-path="url(#clip0_178_3226)">
<path d="M0 84.7502L3.88 68.9302H16.41L15.88 71.0702H6.4L5.24 75.7102H13.43L12.93 77.8002H4.73L3.54 82.6102H13.05L12.52 84.7502H0Z" fill="#898989"/>
<path d="M19.64 84.7502L23.52 68.9302H26.53L22.65 84.7502H19.64Z" fill="#898989"/>
<path d="M30.84 84.7502L34.72 68.9302H43.07C44.36 68.9302 45.35 69.0602 46.04 69.3102C46.74 69.5602 47.22 69.9202 47.51 70.3802C47.79 70.8402 47.93 71.3902 47.93 72.0402C47.93 72.2202 47.92 72.4202 47.89 72.6402C47.86 72.8502 47.83 73.0802 47.78 73.3202C47.74 73.5602 47.68 73.7902 47.61 74.0202C47.45 74.6002 47.27 75.1302 47.07 75.5902C46.87 76.0602 46.63 76.4702 46.36 76.8202C46.09 77.1702 45.74 77.4702 45.32 77.7202C44.9 77.9702 44.38 78.1602 43.76 78.2902L45.24 84.7502H42.12L40.93 78.6102C40.74 78.6102 40.54 78.6102 40.34 78.6202C40.14 78.6202 39.93 78.6302 39.72 78.6302H35.36L33.85 84.7502H30.84ZM35.86 76.5702H40.48C41.29 76.5702 41.94 76.5202 42.44 76.4102C42.93 76.3002 43.32 76.1402 43.59 75.9202C43.86 75.7002 44.07 75.4102 44.22 75.0602C44.37 74.7102 44.5 74.2902 44.6 73.8202C44.69 73.5402 44.75 73.2902 44.78 73.0602C44.82 72.8302 44.83 72.6202 44.83 72.4402C44.83 72.1302 44.75 71.8702 44.58 71.6602C44.41 71.4502 44.12 71.2902 43.71 71.1902C43.3 71.0902 42.72 71.0402 41.98 71.0402H37.22L35.85 76.5802L35.86 76.5702Z" fill="#898989"/>
<path d="M82.08 84.9398C81.32 84.9398 80.52 84.9198 79.69 84.8898C78.85 84.8598 78.03 84.8198 77.22 84.7598C76.41 84.7098 75.68 84.6498 75.03 84.5898L75.53 82.4998C76.15 82.5498 76.81 82.5898 77.51 82.6398C78.21 82.6898 78.9 82.7198 79.56 82.7598C80.22 82.7998 80.79 82.8098 81.26 82.8098C81.86 82.8098 82.38 82.8098 82.82 82.7898C83.26 82.7698 83.65 82.7398 83.98 82.6698C84.31 82.6098 84.61 82.5198 84.88 82.3898C85.11 82.2798 85.3 82.1298 85.46 81.9298C85.62 81.7298 85.76 81.4998 85.88 81.2398C86 80.9798 86.1 80.7198 86.17 80.4498C86.24 80.1798 86.29 79.9298 86.33 79.6898C86.36 79.4498 86.38 79.2598 86.38 79.0998C86.38 78.8398 86.31 78.6398 86.17 78.5098C86.03 78.3798 85.79 78.2798 85.46 78.2198C85.13 78.1598 84.67 78.0998 84.09 78.0398L79.81 77.5098C78.7 77.3898 77.95 77.1098 77.55 76.6698C77.15 76.2298 76.96 75.6398 76.96 74.8898C76.96 74.6098 76.98 74.3098 77.03 73.9698C77.07 73.6298 77.14 73.2898 77.23 72.9398C77.48 72.0198 77.81 71.2798 78.23 70.7298C78.65 70.1798 79.18 69.7598 79.8 69.4798C80.43 69.1998 81.15 69.0098 81.98 68.9098C82.81 68.8098 83.74 68.7598 84.78 68.7598C85.54 68.7598 86.3 68.7798 87.08 68.8098C87.85 68.8398 88.59 68.8898 89.27 68.9498C89.96 69.0098 90.53 69.0798 90.99 69.1598L90.51 71.1798C90.02 71.1198 89.45 71.0698 88.82 71.0298C88.19 70.9898 87.55 70.9598 86.9 70.9398C86.26 70.9198 85.64 70.9098 85.06 70.9098C84.48 70.9098 83.94 70.9298 83.49 70.9598C83.04 70.9898 82.66 71.0398 82.34 71.0998C82.02 71.1598 81.74 71.2498 81.49 71.3798C81.24 71.4998 81.03 71.6798 80.84 71.8998C80.66 72.1198 80.51 72.3698 80.39 72.6498C80.28 72.9298 80.2 73.2098 80.15 73.4898C80.11 73.7698 80.08 74.0398 80.08 74.2798C80.08 74.6498 80.22 74.8898 80.49 75.0198C80.76 75.1398 81.25 75.2398 81.96 75.3198L86.08 75.7598C86.75 75.8398 87.34 75.9498 87.86 76.0898C88.38 76.2398 88.79 76.4898 89.09 76.8498C89.39 77.2098 89.54 77.7498 89.54 78.4698C89.54 78.6398 89.54 78.8298 89.51 79.0398C89.49 79.2498 89.46 79.4798 89.42 79.7198C89.38 79.9598 89.32 80.2098 89.25 80.4898C88.99 81.5298 88.63 82.3598 88.19 82.9698C87.75 83.5798 87.23 84.0298 86.63 84.3198C86.03 84.5998 85.35 84.7798 84.6 84.8598C83.84 84.9398 83 84.9798 82.06 84.9798L82.08 84.9398Z" fill="#898989"/>
<path d="M69.22 69.8796L66.94 72.1596C66.97 72.3196 66.99 72.4896 66.99 72.6796C66.99 73.1196 66.93 73.6896 66.82 74.3696C66.71 75.0496 66.52 75.8796 66.25 76.8396C65.97 77.9996 65.71 78.9596 65.47 79.7096C65.23 80.4596 64.98 81.0496 64.72 81.4696C64.46 81.8896 64.13 82.1896 63.74 82.3796C63.35 82.5596 62.86 82.6796 62.27 82.7196C61.68 82.7696 60.94 82.7896 60.04 82.7896C59.04 82.7896 58.23 82.7596 57.63 82.7096C57.22 82.6696 56.89 82.5896 56.63 82.4496L54.72 84.3596C55 84.4696 55.32 84.5596 55.68 84.6196C56.7 84.8196 58.11 84.9196 59.91 84.9196C61.35 84.9196 62.55 84.8496 63.5 84.7196C64.45 84.5896 65.23 84.3596 65.84 84.0296C66.45 83.6996 66.95 83.2396 67.33 82.6396C67.72 82.0396 68.06 81.2696 68.36 80.3296C68.66 79.3896 68.98 78.2396 69.31 76.8896C69.56 75.8796 69.75 74.9996 69.88 74.2596C70.01 73.5196 70.08 72.8596 70.08 72.2896C70.08 71.3396 69.87 70.6096 69.45 70.0896C69.38 70.0096 69.3 69.9296 69.22 69.8496V69.8796Z" fill="#D1D1D1"/>
<path d="M55.93 80.8998C55.93 80.6198 55.97 80.3198 56.03 79.9798C56.1 79.5898 56.19 79.1298 56.31 78.5998C56.42 78.0698 56.56 77.4898 56.72 76.8398C57 75.6798 57.26 74.7198 57.49 73.9698C57.72 73.2198 57.97 72.6298 58.23 72.2098C58.49 71.7898 58.82 71.4898 59.22 71.2998C59.62 71.1098 60.11 70.9998 60.71 70.9598C61.31 70.9098 62.06 70.8898 62.96 70.8898C63.95 70.8898 64.73 70.9198 65.33 70.9698C65.5 70.9898 65.66 71.0098 65.8 71.0498L67.7 69.1498C67.57 69.1198 67.44 69.0898 67.31 69.0598C66.3 68.8598 64.89 68.7598 63.09 68.7598C61.65 68.7598 60.44 68.8198 59.48 68.9398C58.52 69.0598 57.73 69.2898 57.11 69.6198C56.49 69.9498 55.99 70.4198 55.6 71.0198C55.21 71.6298 54.88 72.3998 54.6 73.3398C54.32 74.2798 54.02 75.4298 53.7 76.7798C53.45 77.7898 53.26 78.6798 53.11 79.4398C52.96 80.1998 52.89 80.8598 52.89 81.4298C52.89 82.2798 53.07 82.9398 53.41 83.4398L55.93 80.9198V80.8998Z" fill="#D1D1D1"/>
<path d="M69.72 24.71L44.99 0L20.27 24.71C18.68 26.3 18.68 28.88 20.27 30.46L40.39 50.57L33.48 57.47L38.09 62.07L45 55.17L51.91 62.07L56.52 57.47L49.61 50.57L69.73 30.46C71.32 28.87 71.32 26.29 69.73 24.71H69.72ZM44.99 45.96L26.6 27.58L44.99 9.2L63.38 27.58L44.99 45.96Z" fill="#D1D1D1"/>
</g>
<path d="M19.5555 103.068C18.5208 103.068 17.6835 102.988 17.0435 102.828C16.4142 102.668 15.9502 102.38 15.6515 101.964C15.3635 101.548 15.2195 100.956 15.2195 100.188C15.2195 99.8359 15.2515 99.4253 15.3155 98.9559C15.3902 98.4866 15.4968 97.9639 15.6355 97.3879C15.8275 96.4706 16.0302 95.6866 16.2435 95.0359C16.4568 94.3853 16.7022 93.8519 16.9795 93.4359C17.2675 93.0093 17.6088 92.6786 18.0035 92.4439C18.3982 92.1986 18.8782 92.0333 19.4435 91.9479C20.0195 91.8519 20.6968 91.8039 21.4755 91.8039C21.8808 91.8039 22.3075 91.8199 22.7555 91.8519C23.2142 91.8839 23.6675 91.9266 24.1155 91.9799C24.5635 92.0226 24.9582 92.0759 25.2995 92.1399L25.0115 93.5319C24.6808 93.4893 24.3342 93.4519 23.9715 93.4199C23.6088 93.3773 23.2675 93.3453 22.9475 93.3239C22.6382 93.3026 22.3715 93.2919 22.1475 93.2919C21.4862 93.2919 20.9262 93.3079 20.4675 93.3399C20.0088 93.3613 19.6248 93.4359 19.3155 93.5639C19.0062 93.6919 18.7395 93.9053 18.5155 94.2039C18.3022 94.4919 18.1102 94.8973 17.9395 95.4199C17.7688 95.9426 17.6035 96.6146 17.4435 97.4359C17.3155 97.9906 17.2195 98.4813 17.1555 98.9079C17.0915 99.3239 17.0595 99.6919 17.0595 100.012C17.0595 100.449 17.1395 100.785 17.2995 101.02C17.4702 101.255 17.7475 101.415 18.1315 101.5C18.5155 101.585 19.0222 101.628 19.6515 101.628C19.8435 101.628 20.0622 101.623 20.3075 101.612C20.5528 101.601 20.7982 101.585 21.0435 101.564C21.2888 101.532 21.4968 101.511 21.6675 101.5L22.3395 98.2999H20.0195L20.3235 96.9079H24.3555L23.1075 102.748C22.7448 102.812 22.3502 102.871 21.9235 102.924C21.4968 102.967 21.0755 102.999 20.6595 103.02C20.2542 103.052 19.8862 103.068 19.5555 103.068ZM26.058 102.94L28.41 91.9319H33.466C34.2447 91.9319 34.842 92.0226 35.258 92.2039C35.6847 92.3746 35.9833 92.6199 36.154 92.9399C36.3247 93.2599 36.41 93.6439 36.41 94.0919C36.41 94.2199 36.3993 94.3586 36.378 94.5079C36.3673 94.6573 36.346 94.8173 36.314 94.9879C36.2927 95.1479 36.2607 95.3079 36.218 95.4679C36.122 95.8733 36.01 96.2413 35.882 96.5719C35.7647 96.8919 35.6207 97.1746 35.45 97.4199C35.29 97.6653 35.082 97.8733 34.826 98.0439C34.57 98.2146 34.2553 98.3479 33.882 98.4439L34.778 102.94H32.89L32.17 98.6679C32.0527 98.6679 31.93 98.6733 31.802 98.6839C31.6847 98.6839 31.562 98.6839 31.434 98.6839H28.794L27.882 102.94H26.058ZM29.098 97.2439H31.898C32.3887 97.2439 32.7833 97.2066 33.082 97.1319C33.3807 97.0573 33.61 96.9453 33.77 96.7959C33.9407 96.6359 34.0687 96.4333 34.154 96.1879C34.25 95.9426 34.33 95.6546 34.394 95.3239C34.4473 95.1319 34.4847 94.9559 34.506 94.7959C34.5273 94.6359 34.538 94.4919 34.538 94.3639C34.538 94.1506 34.4847 93.9693 34.378 93.8199C34.282 93.6706 34.106 93.5639 33.85 93.4999C33.6047 93.4253 33.258 93.3879 32.81 93.3879H29.93L29.098 97.2439ZM36.0466 102.94L42.5106 91.9319H44.8626L46.6546 102.94H44.8466L44.3826 100.188H39.5346L37.9026 102.94H36.0466ZM40.3026 98.7319H44.2066L43.3906 93.6759H43.2946L40.3026 98.7319ZM50.4342 102.94L48.8502 91.9319H50.6902L51.9542 100.796H52.0502L57.1222 91.9319H59.0262L52.7222 102.94H50.4342ZM58.6361 102.94L60.9881 91.9319H68.5721L68.2521 93.4199H62.5081L61.8041 96.6519H66.7641L66.4601 98.1079H61.5001L60.7801 101.452H66.5401L66.2201 102.94H58.6361ZM68.558 102.94L70.91 91.9319H72.734L70.734 101.388H75.79L75.454 102.94H68.558Z" fill="#50A1B0"/>
<defs>
<clipPath id="clip0_178_3226">
<rect width="90.99" height="84.94" fill="white"/>
</clipPath>
</defs>
</svg>
