<svg width="530" height="429" viewBox="0 0 530 429" fill="none" xmlns="http://www.w3.org/2000/svg">
<g clip-path="url(#clip0_178_3266)">
<path d="M219.505 164.75L223.385 148.93H235.915L235.385 151.07H225.905L224.745 155.71H232.935L232.435 157.8H224.235L223.045 162.61H232.555L232.025 164.75H219.505Z" fill="#898989"/>
<path d="M239.145 164.75L243.025 148.93H246.035L242.155 164.75H239.145Z" fill="#898989"/>
<path d="M250.345 164.75L254.225 148.93H262.575C263.865 148.93 264.855 149.06 265.545 149.31C266.245 149.56 266.725 149.92 267.015 150.38C267.295 150.84 267.435 151.39 267.435 152.04C267.435 152.22 267.425 152.42 267.395 152.64C267.365 152.85 267.335 153.08 267.285 153.32C267.245 153.56 267.185 153.79 267.115 154.02C266.955 154.6 266.775 155.13 266.575 155.59C266.375 156.06 266.135 156.47 265.865 156.82C265.595 157.17 265.245 157.47 264.825 157.72C264.405 157.97 263.885 158.16 263.265 158.29L264.745 164.75H261.625L260.435 158.61C260.245 158.61 260.045 158.61 259.845 158.62C259.645 158.62 259.435 158.63 259.225 158.63H254.865L253.355 164.75H250.345ZM255.365 156.57H259.985C260.795 156.57 261.445 156.52 261.945 156.41C262.435 156.3 262.825 156.14 263.095 155.92C263.365 155.7 263.575 155.41 263.725 155.06C263.875 154.71 264.005 154.29 264.105 153.82C264.195 153.54 264.255 153.29 264.285 153.06C264.325 152.83 264.335 152.62 264.335 152.44C264.335 152.13 264.255 151.87 264.085 151.66C263.915 151.45 263.625 151.29 263.215 151.19C262.805 151.09 262.225 151.04 261.485 151.04H256.725L255.355 156.58L255.365 156.57Z" fill="#898989"/>
<path d="M301.585 164.94C300.825 164.94 300.025 164.92 299.195 164.89C298.355 164.86 297.535 164.82 296.725 164.76C295.915 164.71 295.185 164.65 294.535 164.59L295.035 162.5C295.655 162.55 296.315 162.59 297.015 162.64C297.715 162.69 298.405 162.72 299.065 162.76C299.725 162.8 300.295 162.81 300.765 162.81C301.365 162.81 301.885 162.81 302.325 162.79C302.765 162.77 303.155 162.74 303.485 162.67C303.815 162.61 304.115 162.52 304.385 162.39C304.615 162.28 304.805 162.13 304.965 161.93C305.125 161.73 305.265 161.5 305.385 161.24C305.505 160.98 305.605 160.72 305.675 160.45C305.745 160.18 305.795 159.93 305.835 159.69C305.865 159.45 305.885 159.26 305.885 159.1C305.885 158.84 305.815 158.64 305.675 158.51C305.535 158.38 305.295 158.28 304.965 158.22C304.635 158.16 304.175 158.1 303.595 158.04L299.315 157.51C298.205 157.39 297.455 157.11 297.055 156.67C296.655 156.23 296.465 155.64 296.465 154.89C296.465 154.61 296.485 154.31 296.535 153.97C296.575 153.63 296.645 153.29 296.735 152.94C296.985 152.02 297.315 151.28 297.735 150.73C298.155 150.18 298.685 149.76 299.305 149.48C299.935 149.2 300.655 149.01 301.485 148.91C302.315 148.81 303.245 148.76 304.285 148.76C305.045 148.76 305.805 148.78 306.585 148.81C307.355 148.84 308.095 148.89 308.775 148.95C309.465 149.01 310.035 149.08 310.495 149.16L310.015 151.18C309.525 151.12 308.955 151.07 308.325 151.03C307.695 150.99 307.055 150.96 306.405 150.94C305.765 150.92 305.145 150.91 304.565 150.91C303.985 150.91 303.445 150.93 302.995 150.96C302.545 150.99 302.165 151.04 301.845 151.1C301.525 151.16 301.245 151.25 300.995 151.38C300.745 151.5 300.535 151.68 300.345 151.9C300.165 152.12 300.015 152.37 299.895 152.65C299.785 152.93 299.705 153.21 299.655 153.49C299.615 153.77 299.585 154.04 299.585 154.28C299.585 154.65 299.725 154.89 299.995 155.02C300.265 155.14 300.755 155.24 301.465 155.32L305.585 155.76C306.255 155.84 306.845 155.95 307.365 156.09C307.885 156.24 308.295 156.49 308.595 156.85C308.895 157.21 309.045 157.75 309.045 158.47C309.045 158.64 309.045 158.83 309.015 159.04C308.995 159.25 308.965 159.48 308.925 159.72C308.885 159.96 308.825 160.21 308.755 160.49C308.495 161.53 308.135 162.36 307.695 162.97C307.255 163.58 306.735 164.03 306.135 164.32C305.535 164.6 304.855 164.78 304.105 164.86C303.345 164.94 302.505 164.98 301.565 164.98L301.585 164.94Z" fill="#898989"/>
<path d="M288.725 149.88L286.445 152.16C286.475 152.32 286.495 152.49 286.495 152.68C286.495 153.12 286.435 153.69 286.325 154.37C286.215 155.05 286.025 155.88 285.755 156.84C285.475 158 285.215 158.96 284.975 159.71C284.735 160.46 284.485 161.05 284.225 161.47C283.965 161.89 283.635 162.19 283.245 162.38C282.855 162.56 282.365 162.68 281.775 162.72C281.185 162.77 280.445 162.79 279.545 162.79C278.545 162.79 277.735 162.76 277.135 162.71C276.725 162.67 276.395 162.59 276.135 162.45L274.225 164.36C274.505 164.47 274.825 164.56 275.185 164.62C276.205 164.82 277.615 164.92 279.415 164.92C280.855 164.92 282.055 164.85 283.005 164.72C283.955 164.59 284.735 164.36 285.345 164.03C285.955 163.7 286.455 163.24 286.835 162.64C287.225 162.04 287.565 161.27 287.865 160.33C288.165 159.39 288.485 158.24 288.815 156.89C289.065 155.88 289.255 155 289.385 154.26C289.515 153.52 289.585 152.86 289.585 152.29C289.585 151.34 289.375 150.61 288.955 150.09C288.885 150.01 288.805 149.93 288.725 149.85V149.88Z" fill="#D1D1D1"/>
<path d="M275.435 160.9C275.435 160.62 275.475 160.32 275.535 159.98C275.605 159.59 275.695 159.13 275.815 158.6C275.925 158.07 276.065 157.49 276.225 156.84C276.505 155.68 276.765 154.72 276.995 153.97C277.225 153.22 277.475 152.63 277.735 152.21C277.995 151.79 278.325 151.49 278.725 151.3C279.125 151.11 279.615 151 280.215 150.96C280.815 150.91 281.565 150.89 282.465 150.89C283.455 150.89 284.235 150.92 284.835 150.97C285.005 150.99 285.165 151.01 285.305 151.05L287.205 149.15C287.075 149.12 286.945 149.09 286.815 149.06C285.805 148.86 284.395 148.76 282.595 148.76C281.155 148.76 279.945 148.82 278.985 148.94C278.025 149.06 277.235 149.29 276.615 149.62C275.995 149.95 275.495 150.42 275.105 151.02C274.715 151.63 274.385 152.4 274.105 153.34C273.825 154.28 273.525 155.43 273.205 156.78C272.955 157.79 272.765 158.68 272.615 159.44C272.465 160.2 272.395 160.86 272.395 161.43C272.395 162.28 272.575 162.94 272.915 163.44L275.435 160.92V160.9Z" fill="#D1D1D1"/>
<path d="M289.225 104.71L264.495 80L239.775 104.71C238.185 106.3 238.185 108.88 239.775 110.46L259.895 130.57L252.985 137.47L257.595 142.07L264.505 135.17L271.415 142.07L276.025 137.47L269.115 130.57L289.235 110.46C290.825 108.87 290.825 106.29 289.235 104.71H289.225ZM264.495 125.96L246.105 107.58L264.495 89.2L282.885 107.58L264.495 125.96Z" fill="#D1D1D1"/>
</g>
<path d="M222.321 182.94L224.673 171.932H227.073L228.833 179.884H228.913L234.065 171.932H236.545L234.193 182.94H232.417L234.161 174.732H234.081L228.833 182.94H227.617L225.873 174.732H225.777L224.049 182.94H222.321ZM241.661 183.068C240.573 183.068 239.719 182.999 239.101 182.86C238.482 182.722 238.045 182.476 237.789 182.124C237.533 181.772 237.405 181.271 237.405 180.62C237.405 180.226 237.447 179.767 237.533 179.244C237.629 178.711 237.751 178.092 237.901 177.388C238.093 176.45 238.274 175.655 238.445 175.004C238.615 174.343 238.818 173.804 239.053 173.388C239.287 172.962 239.591 172.636 239.965 172.412C240.338 172.178 240.813 172.018 241.389 171.932C241.975 171.847 242.706 171.804 243.581 171.804C244.669 171.804 245.517 171.874 246.125 172.012C246.743 172.151 247.181 172.402 247.437 172.764C247.693 173.116 247.821 173.623 247.821 174.284C247.821 174.679 247.778 175.138 247.693 175.66C247.618 176.172 247.506 176.78 247.357 177.484C247.154 178.423 246.962 179.223 246.781 179.884C246.599 180.535 246.391 181.068 246.157 181.484C245.922 181.9 245.618 182.226 245.245 182.46C244.882 182.684 244.413 182.844 243.837 182.94C243.261 183.026 242.535 183.068 241.661 183.068ZM241.741 181.58C242.285 181.58 242.733 181.564 243.085 181.532C243.447 181.5 243.746 181.42 243.981 181.292C244.215 181.164 244.413 180.956 244.573 180.668C244.733 180.37 244.882 179.959 245.021 179.436C245.17 178.914 245.33 178.247 245.501 177.436C245.661 176.764 245.773 176.194 245.837 175.724C245.911 175.244 245.949 174.85 245.949 174.54C245.949 174.135 245.869 173.847 245.709 173.676C245.549 173.495 245.287 173.388 244.925 173.356C244.573 173.314 244.098 173.292 243.501 173.292C242.957 173.292 242.503 173.308 242.141 173.34C241.778 173.372 241.474 173.452 241.229 173.58C240.994 173.708 240.797 173.922 240.637 174.22C240.477 174.508 240.327 174.914 240.189 175.436C240.05 175.959 239.895 176.626 239.725 177.436C239.629 177.884 239.543 178.295 239.469 178.668C239.405 179.031 239.351 179.351 239.309 179.628C239.266 179.895 239.245 180.135 239.245 180.348C239.245 180.743 239.325 181.031 239.485 181.212C239.655 181.383 239.922 181.49 240.285 181.532C240.647 181.564 241.133 181.58 241.741 181.58ZM253.473 183.068C252.481 183.068 251.692 182.999 251.105 182.86C250.529 182.711 250.113 182.46 249.857 182.108C249.601 181.746 249.473 181.255 249.473 180.636C249.473 180.316 249.505 179.943 249.569 179.516C249.644 179.09 249.735 178.61 249.841 178.076L251.137 171.932H252.961L251.553 178.588C251.479 178.994 251.409 179.34 251.345 179.628C251.292 179.916 251.265 180.167 251.265 180.38C251.265 180.7 251.335 180.946 251.473 181.116C251.612 181.287 251.841 181.41 252.161 181.484C252.492 181.548 252.94 181.58 253.505 181.58C254.113 181.58 254.599 181.543 254.961 181.468C255.324 181.383 255.607 181.239 255.809 181.036C256.012 180.823 256.177 180.519 256.305 180.124C256.433 179.73 256.561 179.218 256.689 178.588L258.097 171.932H259.921L258.625 178.076C258.465 178.876 258.305 179.564 258.145 180.14C257.985 180.716 257.793 181.196 257.569 181.58C257.356 181.954 257.073 182.252 256.721 182.476C256.38 182.69 255.948 182.844 255.425 182.94C254.903 183.026 254.252 183.068 253.473 183.068ZM260.54 182.94L262.892 171.932H264.764L268.332 179.708H268.444L270.108 171.932H271.868L269.516 182.94H267.788L264.124 174.844H264.028L262.3 182.94H260.54ZM274.812 182.94L276.828 173.484H273.372L273.708 171.932H282.444L282.108 173.484H278.652L276.652 182.94H274.812ZM279.794 182.94L286.258 171.932H288.61L290.402 182.94H288.594L288.13 180.188H283.282L281.65 182.94H279.794ZM284.05 178.732H287.954L287.138 173.676H287.042L284.05 178.732ZM292.274 182.94L294.626 171.932H296.45L294.098 182.94H292.274ZM297.086 182.94L299.438 171.932H301.31L304.878 179.708H304.99L306.654 171.932H308.414L306.062 182.94H304.334L300.67 174.844H300.574L298.846 182.94H297.086Z" fill="#50A1B0"/>
<path d="M265 188.939V229.439" stroke="#50A1B0"/>
<path d="M66.5613 229.439L132.686 229.516" stroke="#50A1B0"/>
<path d="M66.5613 229.516V270.016" stroke="#50A1B0"/>
<g clip-path="url(#clip1_178_3266)">
<path d="M66.5512 323.876L42.4712 299.786C40.9012 298.216 40.9012 295.676 42.4712 294.106L66.5512 270.016H66.5612L90.6512 294.106C92.2212 295.676 92.2212 298.216 90.6512 299.786L66.5612 323.876H66.5512ZM43.7612 299.016L66.5612 321.816H66.5712L89.3712 299.016C90.5112 297.876 90.5112 296.026 89.3712 294.886L66.5712 272.086H66.5612L43.7612 294.886C42.6212 296.026 42.6212 297.876 43.7612 299.016Z" fill="#D1D1D1"/>
</g>
<path d="M27.2493 342.376L29.6013 331.368H32.0013L33.7613 339.32H33.8413L38.9933 331.368H41.4733L39.1213 342.376H37.3453L39.0893 334.168H39.0093L33.7613 342.376H32.5453L30.8013 334.168H30.7053L28.9773 342.376H27.2493ZM44.669 342.504C44.0504 342.504 43.5437 342.44 43.149 342.312C42.765 342.184 42.4824 341.96 42.301 341.64C42.1197 341.309 42.029 340.861 42.029 340.296C42.029 340.029 42.0504 339.725 42.093 339.384C42.1464 339.032 42.221 338.643 42.317 338.216C42.4877 337.395 42.669 336.723 42.861 336.2C43.0637 335.667 43.2984 335.245 43.565 334.936C43.8424 334.627 44.173 334.408 44.557 334.28C44.941 334.152 45.405 334.088 45.949 334.088C46.397 334.088 46.797 334.12 47.149 334.184C47.5117 334.248 47.8157 334.365 48.061 334.536C48.3064 334.696 48.477 334.925 48.573 335.224H48.685L49.005 334.216H50.589L48.861 342.376H47.293L47.469 341.256H47.373C47.1597 341.608 46.909 341.88 46.621 342.072C46.333 342.253 46.0237 342.371 45.693 342.424C45.3624 342.477 45.021 342.504 44.669 342.504ZM45.437 341.096C45.7997 341.096 46.1037 341.064 46.349 341C46.5944 340.925 46.8024 340.824 46.973 340.696C47.1437 340.568 47.2824 340.397 47.389 340.184C47.4744 340.045 47.5544 339.864 47.629 339.64C47.7144 339.416 47.7944 339.176 47.869 338.92C47.9437 338.664 48.013 338.403 48.077 338.136C48.141 337.869 48.189 337.619 48.221 337.384C48.253 337.139 48.269 336.936 48.269 336.776C48.269 336.317 48.141 335.992 47.885 335.8C47.6397 335.608 47.2024 335.512 46.573 335.512C46.1464 335.512 45.7944 335.544 45.517 335.608C45.2397 335.661 45.0104 335.784 44.829 335.976C44.6584 336.157 44.509 336.435 44.381 336.808C44.2637 337.181 44.1357 337.677 43.997 338.296C43.9224 338.68 43.8584 339.016 43.805 339.304C43.7624 339.581 43.741 339.821 43.741 340.024C43.741 340.333 43.7944 340.563 43.901 340.712C44.0184 340.861 44.1997 340.963 44.445 341.016C44.701 341.069 45.0317 341.096 45.437 341.096ZM51.3229 342.376L53.0509 334.216H54.6189L54.4429 335.336H54.5549C54.7256 335.069 54.9282 334.845 55.1629 334.664C55.4082 334.483 55.7069 334.344 56.0589 334.248C56.4109 334.141 56.8216 334.088 57.2909 334.088C57.9416 334.088 58.4429 334.157 58.7949 334.296C59.1576 334.424 59.4082 334.632 59.5469 334.92C59.6856 335.197 59.7549 335.555 59.7549 335.992C59.7549 336.184 59.7389 336.419 59.7069 336.696C59.6749 336.963 59.6269 337.245 59.5629 337.544L58.5229 342.376H56.8429L57.8029 337.832C57.8562 337.544 57.9042 337.283 57.9469 337.048C57.9896 336.813 58.0109 336.621 58.0109 336.472C58.0109 336.195 57.9576 335.992 57.8509 335.864C57.7442 335.725 57.5789 335.635 57.3549 335.592C57.1416 335.549 56.8482 335.528 56.4749 335.528C55.9949 335.528 55.6056 335.592 55.3069 335.72C55.0189 335.837 54.7842 336.013 54.6029 336.248C54.4322 336.472 54.2936 336.749 54.1869 337.08C54.0909 337.411 54.0002 337.784 53.9149 338.2L53.0029 342.376H51.3229ZM63.2634 332.104L63.6154 330.488H65.3914L65.0554 332.104H63.2634ZM61.1354 342.376L62.8634 334.216H64.5754L62.8474 342.376H61.1354ZM65.4323 342.376L67.9443 330.488H69.6563L67.1443 342.376H65.4323ZM69.651 342.376L72.163 330.488H73.875L71.363 342.376H69.651ZM76.6378 342.504C76.0191 342.504 75.5124 342.44 75.1178 342.312C74.7338 342.184 74.4511 341.96 74.2698 341.64C74.0884 341.309 73.9978 340.861 73.9978 340.296C73.9978 340.029 74.0191 339.725 74.0618 339.384C74.1151 339.032 74.1898 338.643 74.2858 338.216C74.4564 337.395 74.6378 336.723 74.8298 336.2C75.0324 335.667 75.2671 335.245 75.5338 334.936C75.8111 334.627 76.1418 334.408 76.5258 334.28C76.9098 334.152 77.3738 334.088 77.9178 334.088C78.3658 334.088 78.7658 334.12 79.1178 334.184C79.4804 334.248 79.7844 334.365 80.0298 334.536C80.2751 334.696 80.4458 334.925 80.5418 335.224H80.6538L80.9738 334.216H82.5578L80.8298 342.376H79.2618L79.4378 341.256H79.3418C79.1284 341.608 78.8778 341.88 78.5898 342.072C78.3018 342.253 77.9924 342.371 77.6618 342.424C77.3311 342.477 76.9898 342.504 76.6378 342.504ZM77.4058 341.096C77.7684 341.096 78.0724 341.064 78.3178 341C78.5631 340.925 78.7711 340.824 78.9418 340.696C79.1124 340.568 79.2511 340.397 79.3578 340.184C79.4431 340.045 79.5231 339.864 79.5978 339.64C79.6831 339.416 79.7631 339.176 79.8378 338.92C79.9124 338.664 79.9818 338.403 80.0458 338.136C80.1098 337.869 80.1578 337.619 80.1898 337.384C80.2218 337.139 80.2378 336.936 80.2378 336.776C80.2378 336.317 80.1098 335.992 79.8538 335.8C79.6084 335.608 79.1711 335.512 78.5418 335.512C78.1151 335.512 77.7631 335.544 77.4858 335.608C77.2084 335.661 76.9791 335.784 76.7978 335.976C76.6271 336.157 76.4778 336.435 76.3498 336.808C76.2324 337.181 76.1044 337.677 75.9658 338.296C75.8911 338.68 75.8271 339.016 75.7738 339.304C75.7311 339.581 75.7098 339.821 75.7098 340.024C75.7098 340.333 75.7631 340.563 75.8698 340.712C75.9871 340.861 76.1684 340.963 76.4138 341.016C76.6698 341.069 77.0004 341.096 77.4058 341.096ZM83.2917 342.376L85.0197 334.216H86.5877L86.3157 335.768H86.4117C86.657 335.309 86.929 334.963 87.2277 334.728C87.5263 334.483 87.8677 334.317 88.2517 334.232C88.6357 334.136 89.0677 334.088 89.5477 334.088L89.1957 335.704C88.6197 335.704 88.129 335.773 87.7237 335.912C87.329 336.051 87.0037 336.259 86.7477 336.536C86.5023 336.813 86.2943 337.16 86.1237 337.576C85.9637 337.992 85.825 338.472 85.7077 339.016L84.9717 342.376H83.2917ZM93.014 342.504C92.1927 342.504 91.542 342.44 91.062 342.312C90.582 342.173 90.2407 341.96 90.038 341.672C89.846 341.373 89.75 340.984 89.75 340.504C89.75 340.216 89.7767 339.891 89.83 339.528C89.894 339.155 89.974 338.749 90.07 338.312C90.23 337.576 90.4007 336.941 90.582 336.408C90.774 335.875 91.0247 335.437 91.334 335.096C91.6434 334.744 92.0594 334.488 92.582 334.328C93.1047 334.168 93.7767 334.088 94.598 334.088C95.334 334.088 95.91 334.157 96.326 334.296C96.742 334.424 97.0354 334.627 97.206 334.904C97.3767 335.181 97.462 335.533 97.462 335.96C97.462 336.152 97.446 336.371 97.414 336.616C97.3927 336.861 97.3554 337.128 97.302 337.416C97.2487 337.693 97.1847 337.992 97.11 338.312L96.982 338.856H91.654C91.6007 339.123 91.5527 339.363 91.51 339.576C91.478 339.779 91.462 339.96 91.462 340.12C91.462 340.387 91.526 340.589 91.654 340.728C91.7927 340.867 92.0167 340.963 92.326 341.016C92.646 341.069 93.0887 341.096 93.654 341.096C93.8994 341.096 94.1714 341.091 94.47 341.08C94.7687 341.069 95.0674 341.048 95.366 341.016C95.6754 340.984 95.958 340.957 96.214 340.936L95.926 342.264C95.6914 342.307 95.4087 342.344 95.078 342.376C94.7474 342.419 94.4007 342.451 94.038 342.472C93.686 342.493 93.3447 342.504 93.014 342.504ZM91.91 337.688H95.59L95.622 337.512C95.6754 337.277 95.7127 337.075 95.734 336.904C95.7554 336.733 95.766 336.579 95.766 336.44C95.766 336.173 95.7127 335.976 95.606 335.848C95.51 335.709 95.3554 335.619 95.142 335.576C94.9287 335.523 94.646 335.496 94.294 335.496C93.8674 335.496 93.5207 335.528 93.254 335.592C92.9874 335.645 92.774 335.752 92.614 335.912C92.454 336.072 92.3207 336.296 92.214 336.584C92.1074 336.861 92.006 337.229 91.91 337.688ZM101.817 342.504C101.476 342.504 101.102 342.493 100.697 342.472C100.302 342.451 99.9185 342.424 99.5452 342.392C99.1718 342.36 98.8358 342.328 98.5372 342.296L98.8092 341.016C99.0758 341.037 99.3265 341.059 99.5612 341.08C99.7958 341.101 100.025 341.123 100.249 341.144C100.484 341.155 100.708 341.165 100.921 341.176C101.145 341.176 101.374 341.176 101.609 341.176C102.121 341.176 102.51 341.144 102.777 341.08C103.054 341.005 103.257 340.893 103.385 340.744C103.513 340.584 103.609 340.376 103.673 340.12C103.716 340.013 103.748 339.912 103.769 339.816C103.79 339.72 103.801 339.635 103.801 339.56C103.801 339.357 103.732 339.229 103.593 339.176C103.454 339.123 103.23 339.08 102.921 339.048L100.777 338.776C100.254 338.701 99.8918 338.552 99.6892 338.328C99.4865 338.104 99.3852 337.795 99.3852 337.4C99.3852 337.304 99.3958 337.165 99.4172 336.984C99.4385 336.792 99.4705 336.6 99.5132 336.408C99.6305 335.875 99.7905 335.453 99.9932 335.144C100.206 334.835 100.462 334.605 100.761 334.456C101.06 334.307 101.412 334.211 101.817 334.168C102.222 334.115 102.681 334.088 103.193 334.088C103.524 334.088 103.865 334.099 104.217 334.12C104.569 334.141 104.91 334.168 105.241 334.2C105.572 334.232 105.849 334.269 106.073 334.312L105.817 335.592C105.518 335.549 105.225 335.517 104.937 335.496C104.66 335.475 104.382 335.459 104.105 335.448C103.828 335.427 103.556 335.416 103.289 335.416C102.926 335.416 102.606 335.432 102.329 335.464C102.052 335.485 101.817 335.555 101.625 335.672C101.433 335.789 101.289 335.981 101.193 336.248C101.15 336.344 101.113 336.451 101.081 336.568C101.049 336.675 101.033 336.797 101.033 336.936C101.033 337.128 101.097 337.256 101.225 337.32C101.353 337.384 101.577 337.432 101.897 337.464L104.009 337.736C104.329 337.768 104.596 337.827 104.809 337.912C105.022 337.997 105.182 338.131 105.289 338.312C105.406 338.493 105.465 338.749 105.465 339.08C105.465 339.187 105.454 339.336 105.433 339.528C105.412 339.709 105.374 339.907 105.321 340.12C105.204 340.643 105.049 341.064 104.857 341.384C104.676 341.704 104.441 341.944 104.153 342.104C103.876 342.264 103.545 342.371 103.161 342.424C102.777 342.477 102.329 342.504 101.817 342.504Z" fill="#454545"/>
<path d="M132.708 229.439L198.854 229.516" stroke="#50A1B0"/>
<path d="M198.854 229.439L265 229.516" stroke="#50A1B0"/>
<path d="M198.854 229.516V270.016" stroke="#50A1B0"/>
<g clip-path="url(#clip2_178_3266)">
<path d="M198.844 323.876L174.764 299.786C173.194 298.216 173.194 295.676 174.764 294.106L198.844 270.016H198.854L222.944 294.106C224.514 295.676 224.514 298.216 222.944 299.786L198.854 323.876H198.844ZM176.054 299.016L198.854 321.816H198.864L221.664 299.016C222.804 297.876 222.804 296.026 221.664 294.886L198.864 272.086H198.854L176.054 294.886C174.914 296.026 174.914 297.876 176.054 299.016Z" fill="#D1D1D1"/>
</g>
<path d="M183.846 342.376L185.862 332.92H182.406L182.742 331.368H191.478L191.142 332.92H187.686L185.686 342.376H183.846ZM193.056 332.104L193.408 330.488H195.184L194.848 332.104H193.056ZM190.928 342.376L192.656 334.216H194.368L192.64 342.376H190.928ZM197.401 332.104L197.737 330.488H199.529L199.177 332.104H197.401ZM193.081 345.576L193.353 344.312C193.822 344.312 194.169 344.285 194.393 344.232C194.617 344.189 194.766 344.104 194.841 343.976C194.915 343.848 194.979 343.672 195.033 343.448L196.985 334.216H198.697L196.825 343.096C196.729 343.576 196.617 343.971 196.489 344.28C196.371 344.589 196.227 344.829 196.057 345C195.886 345.181 195.667 345.309 195.401 345.384C195.145 345.469 194.83 345.523 194.457 345.544C194.073 345.565 193.614 345.576 193.081 345.576ZM202.368 342.504C201.749 342.504 201.242 342.44 200.848 342.312C200.464 342.184 200.181 341.96 200 341.64C199.818 341.309 199.728 340.861 199.728 340.296C199.728 340.029 199.749 339.725 199.792 339.384C199.845 339.032 199.92 338.643 200.016 338.216C200.186 337.395 200.368 336.723 200.56 336.2C200.762 335.667 200.997 335.245 201.264 334.936C201.541 334.627 201.872 334.408 202.256 334.28C202.64 334.152 203.104 334.088 203.648 334.088C204.096 334.088 204.496 334.12 204.848 334.184C205.21 334.248 205.514 334.365 205.76 334.536C206.005 334.696 206.176 334.925 206.272 335.224H206.384L206.704 334.216H208.288L206.56 342.376H204.992L205.168 341.256H205.072C204.858 341.608 204.608 341.88 204.32 342.072C204.032 342.253 203.722 342.371 203.392 342.424C203.061 342.477 202.72 342.504 202.368 342.504ZM203.136 341.096C203.498 341.096 203.802 341.064 204.048 341C204.293 340.925 204.501 340.824 204.672 340.696C204.842 340.568 204.981 340.397 205.088 340.184C205.173 340.045 205.253 339.864 205.328 339.64C205.413 339.416 205.493 339.176 205.568 338.92C205.642 338.664 205.712 338.403 205.776 338.136C205.84 337.869 205.888 337.619 205.92 337.384C205.952 337.139 205.968 336.936 205.968 336.776C205.968 336.317 205.84 335.992 205.584 335.8C205.338 335.608 204.901 335.512 204.272 335.512C203.845 335.512 203.493 335.544 203.216 335.608C202.938 335.661 202.709 335.784 202.528 335.976C202.357 336.157 202.208 336.435 202.08 336.808C201.962 337.181 201.834 337.677 201.696 338.296C201.621 338.68 201.557 339.016 201.504 339.304C201.461 339.581 201.44 339.821 201.44 340.024C201.44 340.333 201.493 340.563 201.6 340.712C201.717 340.861 201.898 340.963 202.144 341.016C202.4 341.069 202.73 341.096 203.136 341.096ZM212.11 342.504C211.768 342.504 211.395 342.493 210.99 342.472C210.595 342.451 210.211 342.424 209.838 342.392C209.464 342.36 209.128 342.328 208.83 342.296L209.102 341.016C209.368 341.037 209.619 341.059 209.854 341.08C210.088 341.101 210.318 341.123 210.542 341.144C210.776 341.155 211 341.165 211.214 341.176C211.438 341.176 211.667 341.176 211.902 341.176C212.414 341.176 212.803 341.144 213.07 341.08C213.347 341.005 213.55 340.893 213.678 340.744C213.806 340.584 213.902 340.376 213.966 340.12C214.008 340.013 214.04 339.912 214.062 339.816C214.083 339.72 214.094 339.635 214.094 339.56C214.094 339.357 214.024 339.229 213.886 339.176C213.747 339.123 213.523 339.08 213.214 339.048L211.07 338.776C210.547 338.701 210.184 338.552 209.982 338.328C209.779 338.104 209.678 337.795 209.678 337.4C209.678 337.304 209.688 337.165 209.71 336.984C209.731 336.792 209.763 336.6 209.806 336.408C209.923 335.875 210.083 335.453 210.286 335.144C210.499 334.835 210.755 334.605 211.054 334.456C211.352 334.307 211.704 334.211 212.11 334.168C212.515 334.115 212.974 334.088 213.486 334.088C213.816 334.088 214.158 334.099 214.51 334.12C214.862 334.141 215.203 334.168 215.534 334.2C215.864 334.232 216.142 334.269 216.366 334.312L216.11 335.592C215.811 335.549 215.518 335.517 215.23 335.496C214.952 335.475 214.675 335.459 214.398 335.448C214.12 335.427 213.848 335.416 213.582 335.416C213.219 335.416 212.899 335.432 212.622 335.464C212.344 335.485 212.11 335.555 211.918 335.672C211.726 335.789 211.582 335.981 211.486 336.248C211.443 336.344 211.406 336.451 211.374 336.568C211.342 336.675 211.326 336.797 211.326 336.936C211.326 337.128 211.39 337.256 211.518 337.32C211.646 337.384 211.87 337.432 212.19 337.464L214.302 337.736C214.622 337.768 214.888 337.827 215.102 337.912C215.315 337.997 215.475 338.131 215.582 338.312C215.699 338.493 215.758 338.749 215.758 339.08C215.758 339.187 215.747 339.336 215.726 339.528C215.704 339.709 215.667 339.907 215.614 340.12C215.496 340.643 215.342 341.064 215.15 341.384C214.968 341.704 214.734 341.944 214.446 342.104C214.168 342.264 213.838 342.371 213.454 342.424C213.07 342.477 212.622 342.504 212.11 342.504Z" fill="#454545"/>
<path d="M265 229.439L331.146 229.516" stroke="#50A1B0"/>
<path d="M331.146 229.439L397.292 229.516" stroke="#50A1B0"/>
<path d="M331.146 229.516V270.016" stroke="#50A1B0"/>
<g clip-path="url(#clip3_178_3266)">
<path d="M331.136 323.876L307.056 299.786C305.486 298.216 305.486 295.676 307.056 294.106L331.136 270.016H331.146L355.236 294.106C356.806 295.676 356.806 298.216 355.236 299.786L331.146 323.876H331.136ZM308.346 299.016L331.146 321.816H331.156L353.956 299.016C355.096 297.876 355.096 296.026 353.956 294.886L331.156 272.086H331.146L308.346 294.886C307.206 296.026 307.206 297.876 308.346 299.016Z" fill="#D1D1D1"/>
</g>
<path d="M307.834 342.376L310.186 331.368H315.066C315.834 331.368 316.432 331.459 316.858 331.64C317.285 331.821 317.584 332.077 317.754 332.408C317.925 332.739 318.01 333.133 318.01 333.592C318.01 333.795 317.989 334.019 317.946 334.264C317.914 334.499 317.872 334.739 317.818 334.984C317.722 335.475 317.594 335.933 317.434 336.36C317.285 336.776 317.077 337.144 316.81 337.464C316.544 337.773 316.181 338.013 315.722 338.184C315.264 338.355 314.672 338.44 313.946 338.44H310.506L309.658 342.376H307.834ZM310.826 336.984H313.466C313.957 336.984 314.346 336.947 314.634 336.872C314.933 336.787 315.168 336.664 315.338 336.504C315.509 336.333 315.642 336.115 315.738 335.848C315.834 335.581 315.925 335.267 316.01 334.904C316.053 334.691 316.085 334.499 316.106 334.328C316.138 334.147 316.154 333.987 316.154 333.848C316.154 333.613 316.101 333.421 315.994 333.272C315.898 333.112 315.717 333 315.45 332.936C315.194 332.861 314.837 332.824 314.378 332.824H311.706L310.826 336.984ZM318.283 342.376L320.795 330.488H322.507L319.995 342.376H318.283ZM325.27 342.504C324.651 342.504 324.144 342.44 323.75 342.312C323.366 342.184 323.083 341.96 322.902 341.64C322.72 341.309 322.63 340.861 322.63 340.296C322.63 340.029 322.651 339.725 322.694 339.384C322.747 339.032 322.822 338.643 322.918 338.216C323.088 337.395 323.27 336.723 323.462 336.2C323.664 335.667 323.899 335.245 324.166 334.936C324.443 334.627 324.774 334.408 325.158 334.28C325.542 334.152 326.006 334.088 326.55 334.088C326.998 334.088 327.398 334.12 327.75 334.184C328.112 334.248 328.416 334.365 328.662 334.536C328.907 334.696 329.078 334.925 329.174 335.224H329.286L329.606 334.216H331.19L329.462 342.376H327.894L328.07 341.256H327.974C327.76 341.608 327.51 341.88 327.222 342.072C326.934 342.253 326.624 342.371 326.294 342.424C325.963 342.477 325.622 342.504 325.27 342.504ZM326.038 341.096C326.4 341.096 326.704 341.064 326.95 341C327.195 340.925 327.403 340.824 327.574 340.696C327.744 340.568 327.883 340.397 327.99 340.184C328.075 340.045 328.155 339.864 328.23 339.64C328.315 339.416 328.395 339.176 328.47 338.92C328.544 338.664 328.614 338.403 328.678 338.136C328.742 337.869 328.79 337.619 328.822 337.384C328.854 337.139 328.87 336.936 328.87 336.776C328.87 336.317 328.742 335.992 328.486 335.8C328.24 335.608 327.803 335.512 327.174 335.512C326.747 335.512 326.395 335.544 326.118 335.608C325.84 335.661 325.611 335.784 325.43 335.976C325.259 336.157 325.11 336.435 324.982 336.808C324.864 337.181 324.736 337.677 324.598 338.296C324.523 338.68 324.459 339.016 324.406 339.304C324.363 339.581 324.342 339.821 324.342 340.024C324.342 340.333 324.395 340.563 324.502 340.712C324.619 340.861 324.8 340.963 325.046 341.016C325.302 341.069 325.632 341.096 326.038 341.096ZM336.259 342.376C335.673 342.376 335.161 342.365 334.723 342.344C334.297 342.312 333.945 342.248 333.667 342.152C333.39 342.045 333.182 341.891 333.043 341.688C332.915 341.475 332.851 341.192 332.851 340.84C332.851 340.733 332.857 340.621 332.867 340.504C332.889 340.387 332.91 340.259 332.931 340.12C332.963 339.981 332.995 339.832 333.027 339.672L333.891 335.576H332.243L332.531 334.216H334.179L334.675 331.848H336.387L335.891 334.216H337.843L337.555 335.576H335.603L334.771 339.512C334.761 339.565 334.745 339.656 334.723 339.784C334.702 339.912 334.675 340.045 334.643 340.184C334.622 340.312 334.611 340.403 334.611 340.456C334.611 340.637 334.67 340.781 334.787 340.888C334.915 340.984 335.118 341.048 335.395 341.08C335.673 341.112 336.046 341.128 336.515 341.128L336.259 342.376ZM341.599 342.504C340.703 342.504 339.999 342.451 339.487 342.344C338.985 342.227 338.633 342.024 338.431 341.736C338.228 341.448 338.127 341.059 338.127 340.568C338.127 340.28 338.159 339.955 338.223 339.592C338.287 339.219 338.367 338.787 338.463 338.296C338.601 337.613 338.735 337.032 338.863 336.552C338.991 336.072 339.145 335.672 339.327 335.352C339.508 335.032 339.743 334.781 340.031 334.6C340.329 334.408 340.703 334.275 341.151 334.2C341.609 334.125 342.18 334.088 342.863 334.088C343.759 334.088 344.457 334.147 344.959 334.264C345.46 334.381 345.812 334.584 346.015 334.872C346.217 335.149 346.319 335.539 346.319 336.04C346.319 336.328 346.292 336.659 346.239 337.032C346.185 337.395 346.105 337.816 345.999 338.296C345.849 338.979 345.705 339.56 345.567 340.04C345.439 340.52 345.284 340.92 345.103 341.24C344.932 341.56 344.703 341.816 344.415 342.008C344.137 342.189 343.769 342.317 343.311 342.392C342.852 342.467 342.281 342.504 341.599 342.504ZM341.631 341.144C342.047 341.144 342.388 341.128 342.655 341.096C342.932 341.053 343.151 340.979 343.311 340.872C343.481 340.755 343.62 340.595 343.727 340.392C343.844 340.179 343.945 339.901 344.031 339.56C344.116 339.208 344.212 338.787 344.319 338.296C344.404 337.859 344.473 337.485 344.527 337.176C344.58 336.867 344.607 336.605 344.607 336.392C344.607 336.125 344.553 335.928 344.447 335.8C344.34 335.661 344.159 335.571 343.903 335.528C343.647 335.475 343.295 335.448 342.847 335.448C342.324 335.448 341.913 335.48 341.615 335.544C341.316 335.608 341.081 335.741 340.911 335.944C340.751 336.136 340.617 336.419 340.511 336.792C340.415 337.165 340.297 337.667 340.159 338.296C340.073 338.744 339.999 339.123 339.935 339.432C339.881 339.741 339.855 340.003 339.855 340.216C339.855 340.472 339.908 340.669 340.015 340.808C340.121 340.936 340.303 341.027 340.559 341.08C340.825 341.123 341.183 341.144 341.631 341.144ZM350.418 342.504C350.076 342.504 349.703 342.493 349.298 342.472C348.903 342.451 348.519 342.424 348.146 342.392C347.772 342.36 347.436 342.328 347.138 342.296L347.41 341.016C347.676 341.037 347.927 341.059 348.162 341.08C348.396 341.101 348.626 341.123 348.85 341.144C349.084 341.155 349.308 341.165 349.522 341.176C349.746 341.176 349.975 341.176 350.21 341.176C350.722 341.176 351.111 341.144 351.378 341.08C351.655 341.005 351.858 340.893 351.986 340.744C352.114 340.584 352.21 340.376 352.274 340.12C352.316 340.013 352.348 339.912 352.37 339.816C352.391 339.72 352.402 339.635 352.402 339.56C352.402 339.357 352.332 339.229 352.194 339.176C352.055 339.123 351.831 339.08 351.522 339.048L349.378 338.776C348.855 338.701 348.492 338.552 348.29 338.328C348.087 338.104 347.986 337.795 347.986 337.4C347.986 337.304 347.996 337.165 348.018 336.984C348.039 336.792 348.071 336.6 348.114 336.408C348.231 335.875 348.391 335.453 348.594 335.144C348.807 334.835 349.063 334.605 349.362 334.456C349.66 334.307 350.012 334.211 350.418 334.168C350.823 334.115 351.282 334.088 351.794 334.088C352.124 334.088 352.466 334.099 352.818 334.12C353.17 334.141 353.511 334.168 353.842 334.2C354.172 334.232 354.45 334.269 354.674 334.312L354.418 335.592C354.119 335.549 353.826 335.517 353.538 335.496C353.26 335.475 352.983 335.459 352.706 335.448C352.428 335.427 352.156 335.416 351.89 335.416C351.527 335.416 351.207 335.432 350.93 335.464C350.652 335.485 350.418 335.555 350.226 335.672C350.034 335.789 349.89 335.981 349.794 336.248C349.751 336.344 349.714 336.451 349.682 336.568C349.65 336.675 349.634 336.797 349.634 336.936C349.634 337.128 349.698 337.256 349.826 337.32C349.954 337.384 350.178 337.432 350.498 337.464L352.61 337.736C352.93 337.768 353.196 337.827 353.41 337.912C353.623 337.997 353.783 338.131 353.89 338.312C354.007 338.493 354.066 338.749 354.066 339.08C354.066 339.187 354.055 339.336 354.034 339.528C354.012 339.709 353.975 339.907 353.922 340.12C353.804 340.643 353.65 341.064 353.458 341.384C353.276 341.704 353.042 341.944 352.754 342.104C352.476 342.264 352.146 342.371 351.762 342.424C351.378 342.477 350.93 342.504 350.418 342.504Z" fill="#454545"/>
<path d="M397.292 229.439L463.439 229.516" stroke="#50A1B0"/>
<path d="M463.439 229.516V270.016" stroke="#50A1B0"/>
<g clip-path="url(#clip4_178_3266)">
<path d="M463.429 323.876L439.349 299.786C437.779 298.216 437.779 295.676 439.349 294.106L463.429 270.016H463.439L487.529 294.106C489.099 295.676 489.099 298.216 487.529 299.786L463.439 323.876H463.429ZM440.639 299.016L463.439 321.816H463.449L486.249 299.016C487.389 297.876 487.389 296.026 486.249 294.886L463.449 272.086H463.439L440.639 294.886C439.499 296.026 439.499 297.876 440.639 299.016Z" fill="#D1D1D1"/>
</g>
<path d="M421.975 342.376L428.439 331.368H430.791L432.583 342.376H430.775L430.311 339.624H425.463L423.831 342.376H421.975ZM426.231 338.168H430.135L429.319 333.112H429.223L426.231 338.168ZM437.543 342.504C436.743 342.504 436.114 342.424 435.655 342.264C435.207 342.104 434.887 341.864 434.695 341.544C434.514 341.213 434.423 340.808 434.423 340.328C434.423 340.136 434.45 339.837 434.503 339.432C434.556 339.027 434.636 338.584 434.743 338.104C434.882 337.411 435.036 336.813 435.207 336.312C435.388 335.8 435.618 335.384 435.895 335.064C436.183 334.733 436.556 334.488 437.015 334.328C437.484 334.168 438.076 334.088 438.791 334.088C439.25 334.088 439.708 334.109 440.167 334.152C440.636 334.195 441.042 334.248 441.383 334.312L441.095 335.608C440.85 335.565 440.551 335.528 440.199 335.496C439.847 335.464 439.516 335.448 439.207 335.448C438.738 335.448 438.348 335.491 438.039 335.576C437.73 335.651 437.479 335.789 437.287 335.992C437.095 336.195 436.935 336.483 436.807 336.856C436.69 337.229 436.567 337.709 436.439 338.296C436.354 338.669 436.284 338.995 436.231 339.272C436.188 339.549 436.167 339.789 436.167 339.992C436.167 340.312 436.226 340.557 436.343 340.728C436.471 340.888 436.668 341 436.935 341.064C437.212 341.117 437.575 341.144 438.023 341.144C438.322 341.144 438.658 341.128 439.031 341.096C439.404 341.064 439.735 341.027 440.023 340.984L439.751 342.264C439.452 342.328 439.1 342.381 438.695 342.424C438.3 342.477 437.916 342.504 437.543 342.504ZM445.152 342.504C444.352 342.504 443.723 342.424 443.264 342.264C442.816 342.104 442.496 341.864 442.304 341.544C442.123 341.213 442.032 340.808 442.032 340.328C442.032 340.136 442.059 339.837 442.112 339.432C442.166 339.027 442.246 338.584 442.352 338.104C442.491 337.411 442.646 336.813 442.816 336.312C442.998 335.8 443.227 335.384 443.504 335.064C443.792 334.733 444.166 334.488 444.624 334.328C445.094 334.168 445.686 334.088 446.4 334.088C446.859 334.088 447.318 334.109 447.776 334.152C448.246 334.195 448.651 334.248 448.992 334.312L448.704 335.608C448.459 335.565 448.16 335.528 447.808 335.496C447.456 335.464 447.126 335.448 446.816 335.448C446.347 335.448 445.958 335.491 445.648 335.576C445.339 335.651 445.088 335.789 444.896 335.992C444.704 336.195 444.544 336.483 444.416 336.856C444.299 337.229 444.176 337.709 444.048 338.296C443.963 338.669 443.894 338.995 443.84 339.272C443.798 339.549 443.776 339.789 443.776 339.992C443.776 340.312 443.835 340.557 443.952 340.728C444.08 340.888 444.278 341 444.544 341.064C444.822 341.117 445.184 341.144 445.632 341.144C445.931 341.144 446.267 341.128 446.64 341.096C447.014 341.064 447.344 341.027 447.632 340.984L447.36 342.264C447.062 342.328 446.71 342.381 446.304 342.424C445.91 342.477 445.526 342.504 445.152 342.504ZM452.97 342.504C452.148 342.504 451.498 342.44 451.018 342.312C450.538 342.173 450.196 341.96 449.994 341.672C449.802 341.373 449.706 340.984 449.706 340.504C449.706 340.216 449.732 339.891 449.786 339.528C449.85 339.155 449.93 338.749 450.026 338.312C450.186 337.576 450.356 336.941 450.538 336.408C450.73 335.875 450.98 335.437 451.29 335.096C451.599 334.744 452.015 334.488 452.538 334.328C453.06 334.168 453.732 334.088 454.554 334.088C455.29 334.088 455.866 334.157 456.282 334.296C456.698 334.424 456.991 334.627 457.162 334.904C457.332 335.181 457.418 335.533 457.418 335.96C457.418 336.152 457.402 336.371 457.37 336.616C457.348 336.861 457.311 337.128 457.258 337.416C457.204 337.693 457.14 337.992 457.066 338.312L456.938 338.856H451.61C451.556 339.123 451.508 339.363 451.466 339.576C451.434 339.779 451.418 339.96 451.418 340.12C451.418 340.387 451.482 340.589 451.61 340.728C451.748 340.867 451.972 340.963 452.282 341.016C452.602 341.069 453.044 341.096 453.61 341.096C453.855 341.096 454.127 341.091 454.426 341.08C454.724 341.069 455.023 341.048 455.322 341.016C455.631 340.984 455.914 340.957 456.17 340.936L455.882 342.264C455.647 342.307 455.364 342.344 455.034 342.376C454.703 342.419 454.356 342.451 453.994 342.472C453.642 342.493 453.3 342.504 452.97 342.504ZM451.866 337.688H455.546L455.578 337.512C455.631 337.277 455.668 337.075 455.69 336.904C455.711 336.733 455.722 336.579 455.722 336.44C455.722 336.173 455.668 335.976 455.562 335.848C455.466 335.709 455.311 335.619 455.098 335.576C454.884 335.523 454.602 335.496 454.25 335.496C453.823 335.496 453.476 335.528 453.21 335.592C452.943 335.645 452.73 335.752 452.57 335.912C452.41 336.072 452.276 336.296 452.17 336.584C452.063 336.861 451.962 337.229 451.866 337.688ZM461.773 342.504C461.431 342.504 461.058 342.493 460.653 342.472C460.258 342.451 459.874 342.424 459.501 342.392C459.127 342.36 458.791 342.328 458.493 342.296L458.765 341.016C459.031 341.037 459.282 341.059 459.517 341.08C459.751 341.101 459.981 341.123 460.205 341.144C460.439 341.155 460.663 341.165 460.877 341.176C461.101 341.176 461.33 341.176 461.565 341.176C462.077 341.176 462.466 341.144 462.733 341.08C463.01 341.005 463.213 340.893 463.341 340.744C463.469 340.584 463.565 340.376 463.629 340.12C463.671 340.013 463.703 339.912 463.725 339.816C463.746 339.72 463.757 339.635 463.757 339.56C463.757 339.357 463.687 339.229 463.549 339.176C463.41 339.123 463.186 339.08 462.877 339.048L460.733 338.776C460.21 338.701 459.847 338.552 459.645 338.328C459.442 338.104 459.341 337.795 459.341 337.4C459.341 337.304 459.351 337.165 459.373 336.984C459.394 336.792 459.426 336.6 459.469 336.408C459.586 335.875 459.746 335.453 459.949 335.144C460.162 334.835 460.418 334.605 460.717 334.456C461.015 334.307 461.367 334.211 461.773 334.168C462.178 334.115 462.637 334.088 463.149 334.088C463.479 334.088 463.821 334.099 464.173 334.12C464.525 334.141 464.866 334.168 465.197 334.2C465.527 334.232 465.805 334.269 466.029 334.312L465.773 335.592C465.474 335.549 465.181 335.517 464.893 335.496C464.615 335.475 464.338 335.459 464.061 335.448C463.783 335.427 463.511 335.416 463.245 335.416C462.882 335.416 462.562 335.432 462.285 335.464C462.007 335.485 461.773 335.555 461.581 335.672C461.389 335.789 461.245 335.981 461.149 336.248C461.106 336.344 461.069 336.451 461.037 336.568C461.005 336.675 460.989 336.797 460.989 336.936C460.989 337.128 461.053 337.256 461.181 337.32C461.309 337.384 461.533 337.432 461.853 337.464L463.965 337.736C464.285 337.768 464.551 337.827 464.765 337.912C464.978 337.997 465.138 338.131 465.245 338.312C465.362 338.493 465.421 338.749 465.421 339.08C465.421 339.187 465.41 339.336 465.389 339.528C465.367 339.709 465.33 339.907 465.277 340.12C465.159 340.643 465.005 341.064 464.813 341.384C464.631 341.704 464.397 341.944 464.109 342.104C463.831 342.264 463.501 342.371 463.117 342.424C462.733 342.477 462.285 342.504 461.773 342.504ZM470.438 342.504C469.542 342.504 468.838 342.451 468.326 342.344C467.825 342.227 467.473 342.024 467.27 341.736C467.067 341.448 466.966 341.059 466.966 340.568C466.966 340.28 466.998 339.955 467.062 339.592C467.126 339.219 467.206 338.787 467.302 338.296C467.441 337.613 467.574 337.032 467.702 336.552C467.83 336.072 467.985 335.672 468.166 335.352C468.347 335.032 468.582 334.781 468.87 334.6C469.169 334.408 469.542 334.275 469.99 334.2C470.449 334.125 471.019 334.088 471.702 334.088C472.598 334.088 473.297 334.147 473.798 334.264C474.299 334.381 474.651 334.584 474.854 334.872C475.057 335.149 475.158 335.539 475.158 336.04C475.158 336.328 475.131 336.659 475.078 337.032C475.025 337.395 474.945 337.816 474.838 338.296C474.689 338.979 474.545 339.56 474.406 340.04C474.278 340.52 474.123 340.92 473.942 341.24C473.771 341.56 473.542 341.816 473.254 342.008C472.977 342.189 472.609 342.317 472.15 342.392C471.691 342.467 471.121 342.504 470.438 342.504ZM470.47 341.144C470.886 341.144 471.227 341.128 471.494 341.096C471.771 341.053 471.99 340.979 472.15 340.872C472.321 340.755 472.459 340.595 472.566 340.392C472.683 340.179 472.785 339.901 472.87 339.56C472.955 339.208 473.051 338.787 473.158 338.296C473.243 337.859 473.313 337.485 473.366 337.176C473.419 336.867 473.446 336.605 473.446 336.392C473.446 336.125 473.393 335.928 473.286 335.8C473.179 335.661 472.998 335.571 472.742 335.528C472.486 335.475 472.134 335.448 471.686 335.448C471.163 335.448 470.753 335.48 470.454 335.544C470.155 335.608 469.921 335.741 469.75 335.944C469.59 336.136 469.457 336.419 469.35 336.792C469.254 337.165 469.137 337.667 468.998 338.296C468.913 338.744 468.838 339.123 468.774 339.432C468.721 339.741 468.694 340.003 468.694 340.216C468.694 340.472 468.747 340.669 468.854 340.808C468.961 340.936 469.142 341.027 469.398 341.08C469.665 341.123 470.022 341.144 470.47 341.144ZM476.169 342.376L477.897 334.216H479.465L479.193 335.768H479.289C479.534 335.309 479.806 334.963 480.105 334.728C480.404 334.483 480.745 334.317 481.129 334.232C481.513 334.136 481.945 334.088 482.425 334.088L482.073 335.704C481.497 335.704 481.006 335.773 480.601 335.912C480.206 336.051 479.881 336.259 479.625 336.536C479.38 336.813 479.172 337.16 479.001 337.576C478.841 337.992 478.702 338.472 478.585 339.016L477.849 342.376H476.169ZM484.531 332.104L484.883 330.488H486.659L486.323 332.104H484.531ZM482.403 342.376L484.131 334.216H485.843L484.115 342.376H482.403ZM490.172 342.504C489.276 342.504 488.572 342.451 488.06 342.344C487.559 342.227 487.207 342.024 487.004 341.736C486.802 341.448 486.7 341.059 486.7 340.568C486.7 340.28 486.732 339.955 486.796 339.592C486.86 339.219 486.94 338.787 487.036 338.296C487.175 337.613 487.308 337.032 487.436 336.552C487.564 336.072 487.719 335.672 487.9 335.352C488.082 335.032 488.316 334.781 488.604 334.6C488.903 334.408 489.276 334.275 489.724 334.2C490.183 334.125 490.754 334.088 491.436 334.088C492.332 334.088 493.031 334.147 493.532 334.264C494.034 334.381 494.386 334.584 494.588 334.872C494.791 335.149 494.892 335.539 494.892 336.04C494.892 336.328 494.866 336.659 494.812 337.032C494.759 337.395 494.679 337.816 494.572 338.296C494.423 338.979 494.279 339.56 494.14 340.04C494.012 340.52 493.858 340.92 493.676 341.24C493.506 341.56 493.276 341.816 492.988 342.008C492.711 342.189 492.343 342.317 491.884 342.392C491.426 342.467 490.855 342.504 490.172 342.504ZM490.204 341.144C490.62 341.144 490.962 341.128 491.228 341.096C491.506 341.053 491.724 340.979 491.884 340.872C492.055 340.755 492.194 340.595 492.3 340.392C492.418 340.179 492.519 339.901 492.604 339.56C492.69 339.208 492.786 338.787 492.892 338.296C492.978 337.859 493.047 337.485 493.1 337.176C493.154 336.867 493.18 336.605 493.18 336.392C493.18 336.125 493.127 335.928 493.02 335.8C492.914 335.661 492.732 335.571 492.476 335.528C492.22 335.475 491.868 335.448 491.42 335.448C490.898 335.448 490.487 335.48 490.188 335.544C489.89 335.608 489.655 335.741 489.484 335.944C489.324 336.136 489.191 336.419 489.084 336.792C488.988 337.165 488.871 337.667 488.732 338.296C488.647 338.744 488.572 339.123 488.508 339.432C488.455 339.741 488.428 340.003 488.428 340.216C488.428 340.472 488.482 340.669 488.588 340.808C488.695 340.936 488.876 341.027 489.132 341.08C489.399 341.123 489.756 341.144 490.204 341.144ZM498.991 342.504C498.65 342.504 498.277 342.493 497.871 342.472C497.477 342.451 497.093 342.424 496.719 342.392C496.346 342.36 496.01 342.328 495.711 342.296L495.983 341.016C496.25 341.037 496.501 341.059 496.735 341.08C496.97 341.101 497.199 341.123 497.423 341.144C497.658 341.155 497.882 341.165 498.095 341.176C498.319 341.176 498.549 341.176 498.783 341.176C499.295 341.176 499.685 341.144 499.951 341.08C500.229 341.005 500.431 340.893 500.559 340.744C500.687 340.584 500.783 340.376 500.847 340.12C500.89 340.013 500.922 339.912 500.943 339.816C500.965 339.72 500.975 339.635 500.975 339.56C500.975 339.357 500.906 339.229 500.767 339.176C500.629 339.123 500.405 339.08 500.095 339.048L497.951 338.776C497.429 338.701 497.066 338.552 496.863 338.328C496.661 338.104 496.559 337.795 496.559 337.4C496.559 337.304 496.57 337.165 496.591 336.984C496.613 336.792 496.645 336.6 496.687 336.408C496.805 335.875 496.965 335.453 497.167 335.144C497.381 334.835 497.637 334.605 497.935 334.456C498.234 334.307 498.586 334.211 498.991 334.168C499.397 334.115 499.855 334.088 500.367 334.088C500.698 334.088 501.039 334.099 501.391 334.12C501.743 334.141 502.085 334.168 502.415 334.2C502.746 334.232 503.023 334.269 503.247 334.312L502.991 335.592C502.693 335.549 502.399 335.517 502.111 335.496C501.834 335.475 501.557 335.459 501.279 335.448C501.002 335.427 500.73 335.416 500.463 335.416C500.101 335.416 499.781 335.432 499.503 335.464C499.226 335.485 498.991 335.555 498.799 335.672C498.607 335.789 498.463 335.981 498.367 336.248C498.325 336.344 498.287 336.451 498.255 336.568C498.223 336.675 498.207 336.797 498.207 336.936C498.207 337.128 498.271 337.256 498.399 337.32C498.527 337.384 498.751 337.432 499.071 337.464L501.183 337.736C501.503 337.768 501.77 337.827 501.983 337.912C502.197 337.997 502.357 338.131 502.463 338.312C502.581 338.493 502.639 338.749 502.639 339.08C502.639 339.187 502.629 339.336 502.607 339.528C502.586 339.709 502.549 339.907 502.495 340.12C502.378 340.643 502.223 341.064 502.031 341.384C501.85 341.704 501.615 341.944 501.327 342.104C501.05 342.264 500.719 342.371 500.335 342.424C499.951 342.477 499.503 342.504 498.991 342.504Z" fill="#454545"/>
<defs>
<clipPath id="clip0_178_3266">
<rect width="90.99" height="84.94" fill="white" transform="translate(219.505 80)"/>
</clipPath>
<clipPath id="clip1_178_3266">
<rect width="50.54" height="53.86" fill="white" transform="translate(41.2913 270.016)"/>
</clipPath>
<clipPath id="clip2_178_3266">
<rect width="50.54" height="53.86" fill="white" transform="translate(173.584 270.016)"/>
</clipPath>
<clipPath id="clip3_178_3266">
<rect width="50.54" height="53.86" fill="white" transform="translate(305.876 270.016)"/>
</clipPath>
<clipPath id="clip4_178_3266">
<rect width="50.54" height="53.86" fill="white" transform="translate(438.169 270.016)"/>
</clipPath>
</defs>
</svg>
