<svg width="172" height="187" viewBox="0 0 172 187" fill="none" xmlns="http://www.w3.org/2000/svg">
<path d="M165.85 78.8499C169.31 78.8499 172.111 76.0493 172.111 72.5893V72.0472C172.111 68.5872 169.31 65.7866 165.85 65.7866H103V78.8499H165.85Z" fill="#F4F8F9"/>
<path d="M6.26061 65.7773C2.80056 65.7773 0 68.5779 0 72.038V72.58C0 76.04 2.80056 78.8406 6.26061 78.8406H80.3942V65.7773H6.26061Z" fill="#F4F8F9"/>
<path d="M166.161 142.431C169.621 142.431 172.422 139.631 172.422 136.171V135.629C172.422 132.169 169.621 129.368 166.161 129.368H108V142.431H166.161Z" fill="#F4F8F9"/>
<path d="M6.26061 129.368C2.80056 129.368 0 132.169 0 135.629V136.171C0 139.631 2.80056 142.431 6.26061 142.431H85.0919V129.368H6.26061Z" fill="#F4F8F9"/>
<path d="M6.26061 108.174C2.80056 108.174 0 110.975 0 114.435V114.977C0 118.437 2.80056 121.238 6.26061 121.238H66.4817V108.174H6.26061Z" fill="#F4F8F9"/>
<path d="M165.762 121.238C169.223 121.238 172.023 118.437 172.023 114.977V114.435C172.023 110.975 169.223 108.174 165.762 108.174H89V121.238H165.762Z" fill="#F4F8F9"/>
<path d="M165.73 44.5923H86.8984V57.6555H165.73C169.19 57.6555 171.99 54.855 171.99 51.3949V50.8529C171.99 47.3928 169.19 44.5923 165.73 44.5923Z" fill="#F4F8F9"/>
<path d="M6.26061 44.5835C2.80056 44.5835 0 47.3841 0 50.8441V51.3862C0 54.8462 2.80056 57.6468 6.26061 57.6468H64.4129V44.5835H6.26061Z" fill="#F4F8F9"/>
<path d="M6.26061 86.9805C2.80056 86.9805 0 89.781 0 93.2411V93.7831C0 97.2432 2.80056 100.044 6.26061 100.044H75.6694V86.9805H6.26061Z" fill="#F4F8F9"/>
<path d="M165.584 100.044C169.044 100.044 171.844 97.2432 171.844 93.7831V93.2411C171.844 89.781 169.044 86.9805 165.584 86.9805H98V100.044H165.584Z" fill="#F4F8F9"/>
<path d="M86.4469 29.8306H85.5435V38.973H86.4469V29.8306Z" fill="#50A1B0"/>
<path d="M86.4469 14.7524H85.5435V23.8949H86.4469V14.7524Z" fill="#50A1B0"/>
<path d="M86.4469 0H85.5435V9.14248H86.4469V0Z" fill="#50A1B0"/>
<path d="M86.4469 177.637H85.5435V186.78H86.4469V177.637Z" fill="#50A1B0"/>
<path d="M86.4469 162.559H85.5435V171.702H86.4469V162.559Z" fill="#50A1B0"/>
<path d="M86.4469 147.807H85.5435V156.949H86.4469V147.807Z" fill="#50A1B0"/>
</svg>
