<svg width="172" height="187" viewBox="0 0 172 187" fill="none" xmlns="http://www.w3.org/2000/svg">
<path d="M149.748 78.8499C153.209 78.8499 156.009 76.0493 156.009 72.5893V72.0472C156.009 68.5872 153.209 65.7866 149.748 65.7866H86.8984V78.8499H149.748Z" fill="#F4F8F9"/>
<path d="M10.9584 65.7773C7.49832 65.7773 4.69775 68.5779 4.69775 72.038V72.58C4.69775 76.04 7.49832 78.8406 10.9584 78.8406H85.0919V65.7773H10.9584Z" fill="#F4F8F9"/>
<path d="M145.06 142.431C148.52 142.431 151.32 139.631 151.32 136.171V135.629C151.32 132.169 148.52 129.368 145.06 129.368H86.8984V142.431H145.06Z" fill="#F4F8F9"/>
<path d="M6.26061 129.368C2.80056 129.368 0 132.169 0 135.629V136.171C0 139.631 2.80056 142.431 6.26061 142.431H85.0919V129.368H6.26061Z" fill="#F4F8F9"/>
<path d="M24.871 108.174C21.4109 108.174 18.6104 110.975 18.6104 114.435V114.977C18.6104 118.437 21.4109 121.238 24.871 121.238H85.0921V108.174H24.871Z" fill="#F4F8F9"/>
<path d="M163.661 121.238C167.121 121.238 169.922 118.437 169.922 114.977V114.435C169.922 110.975 167.121 108.174 163.661 108.174H86.8984V121.238H163.661Z" fill="#F4F8F9"/>
<path d="M165.73 44.5923H86.8984V57.6555H165.73C169.19 57.6555 171.99 54.855 171.99 51.3949V50.8529C171.99 47.3928 169.19 44.5923 165.73 44.5923Z" fill="#F4F8F9"/>
<path d="M26.9398 44.5835C23.4798 44.5835 20.6792 47.3841 20.6792 50.8441V51.3862C20.6792 54.8462 23.4798 57.6468 26.9398 57.6468H85.0921V44.5835H26.9398Z" fill="#F4F8F9"/>
<path d="M15.6835 86.9805C12.2234 86.9805 9.42285 89.781 9.42285 93.2411V93.7831C9.42285 97.2432 12.2234 100.044 15.6835 100.044H85.0922V86.9805H15.6835Z" fill="#F4F8F9"/>
<path d="M154.482 100.044C157.942 100.044 160.743 97.2432 160.743 93.7831V93.2411C160.743 89.781 157.942 86.9805 154.482 86.9805H86.8984V100.044H154.482Z" fill="#F4F8F9"/>
<path d="M86.4469 29.8306H85.5435V38.973H86.4469V29.8306Z" fill="#50A1B0"/>
<path d="M86.4469 14.7524H85.5435V23.8949H86.4469V14.7524Z" fill="#50A1B0"/>
<path d="M86.4469 0H85.5435V9.14248H86.4469V0Z" fill="#50A1B0"/>
<path d="M86.4469 177.637H85.5435V186.78H86.4469V177.637Z" fill="#50A1B0"/>
<path d="M86.4469 162.559H85.5435V171.702H86.4469V162.559Z" fill="#50A1B0"/>
<path d="M86.4469 147.807H85.5435V156.949H86.4469V147.807Z" fill="#50A1B0"/>
</svg>
