<svg width="167" height="167" viewBox="0 0 167 167" fill="none" xmlns="http://www.w3.org/2000/svg">
<path d="M83.5038 167C37.4552 167 0 129.545 0 83.5038C0 37.4626 37.4552 0 83.5038 0C129.552 0 167.008 37.4552 167.008 83.5038C167.008 129.552 129.552 167.008 83.5038 167.008V167ZM83.5038 9.72278C42.8176 9.72278 9.72278 42.8176 9.72278 83.5038C9.72278 124.19 42.8176 157.285 83.5038 157.285C124.19 157.285 157.285 124.19 157.285 83.5038C157.285 42.8176 124.182 9.72278 83.5038 9.72278Z" fill="#F4F8F9"/>
<path d="M117.801 129.183C107.964 136.598 96.0442 140.617 83.5104 140.617H83.4575C70.9397 140.601 59.0458 136.587 49.2198 129.183L48.1568 130.246C58.2684 137.925 70.5377 142.092 83.4575 142.108L83.5104 142.108C96.774 142.108 109.012 137.676 118.843 130.225L117.796 129.178L117.801 129.183Z" fill="#50A1B0"/>
<path d="M36.7334 118.833L37.8017 117.765C30.3766 107.907 26.3574 95.9766 26.3679 83.4217C26.3838 70.9038 30.3978 59.01 37.8017 49.184L36.7546 48.1369C29.3136 57.9576 24.8872 70.1793 24.8713 83.4164C24.8607 96.3732 29.0281 108.685 36.7334 118.833Z" fill="#50A1B0"/>
<path d="M49.2196 37.766C59.0562 30.3516 70.9765 26.3323 83.5103 26.3323H83.5631C96.393 26.3429 108.239 30.6054 117.785 37.7819L118.848 36.7189C109.027 29.278 96.8055 24.8515 83.5631 24.8409H83.5103C70.2467 24.8409 58.0091 29.2727 48.1778 36.7242L49.2249 37.7713L49.2196 37.766Z" fill="#50A1B0"/>
<path d="M129.203 49.2C136.401 58.7669 140.669 70.6607 140.653 83.5276C140.637 96.0455 136.623 107.939 129.219 117.765L130.266 118.812C137.707 108.992 142.134 96.77 142.149 83.5329C142.165 70.2535 137.728 57.9895 130.266 48.137L129.203 49.2Z" fill="#50A1B0"/>
<path d="M70.7532 44.1072L65.316 49.5461C64.5773 50.2851 63.3834 50.2851 62.6447 49.5461L51.3667 38.2643L36.6616 23.5542C35.9229 22.8153 34.7289 22.8153 33.9902 23.5542L23.554 33.9939C22.8153 34.7329 22.8153 35.9272 23.554 36.6662L41.652 54.7703L49.5372 62.6581C50.2759 63.397 50.2759 64.5914 49.5372 65.3303L44.1 70.7693C42.9061 71.9636 43.7565 74 45.44 74H72.1103C73.1582 74 74 73.158 74 72.1097V45.4304C74 43.7463 71.9643 42.9042 70.7704 44.09L70.7532 44.1072Z" fill="#F4F8F9"/>
<path d="M95.3105 122.479L100.854 116.933C101.607 116.18 102.825 116.18 103.578 116.933L115.077 128.436L130.071 143.435C130.824 144.188 132.041 144.188 132.794 143.435L143.435 132.79C144.188 132.037 144.188 130.819 143.435 130.066L124.982 111.607L116.942 103.564C116.189 102.811 116.189 101.593 116.942 100.84L122.486 95.2941C123.704 94.0763 122.837 92 121.12 92H93.9267C92.8583 92 92 92.8586 92 93.9274V121.13C92 122.847 94.0756 123.705 95.293 122.496L95.3105 122.479Z" fill="#F4F8F9"/>
<path d="M44.521 95.3105L50.0666 100.854C50.8201 101.607 50.8201 102.825 50.0666 103.578L38.5636 115.077L23.5651 130.071C22.8116 130.824 22.8116 132.041 23.5651 132.794L34.2095 143.435C34.9629 144.188 36.1807 144.188 36.9341 143.435L55.3932 124.982L63.4357 116.942C64.1891 116.189 65.4069 116.189 66.1603 116.942L71.7059 122.486C72.9237 123.704 75 122.837 75 121.12V93.9267C75 92.8583 74.1414 92 73.0726 92H45.8702C44.1531 92 43.2945 94.0756 44.5035 95.293L44.521 95.3105Z" fill="#F4F8F9"/>
<path d="M122.479 71.6895L116.933 66.1458C116.18 65.3926 116.18 64.1752 116.933 63.4221L128.436 51.9229L143.435 36.9294C144.188 36.1763 144.188 34.9589 143.435 34.2057L132.79 23.5649C132.037 22.8117 130.819 22.8117 130.066 23.5649L111.607 42.0178L103.564 50.0575C102.811 50.8107 101.593 50.8107 100.84 50.0575L95.2941 44.5138C94.0763 43.2964 92 44.1635 92 45.88V73.0733C92 74.1417 92.8586 75 93.9274 75H121.13C122.847 75 123.705 72.9244 122.496 71.707L122.479 71.6895Z" fill="#F4F8F9"/>
<path d="M92.5641 81.1548L83.5 72L74.4359 81.1548C73.8547 81.7421 73.8547 82.6982 74.4359 83.2854L81.8124 90.735L79.279 93.2948L80.9667 95L83.5 92.4403L86.0333 95L87.721 93.2948L85.1876 90.735L92.5641 83.2854C93.1453 82.6982 93.1453 81.7421 92.5641 81.1548ZM83.5 89.0298L76.7569 82.2201L83.5 75.4105L90.2431 82.2201L83.5 89.0298Z" fill="#50A1B0"/>
</svg>
