<svg width="167" height="167" viewBox="0 0 167 167" fill="none" xmlns="http://www.w3.org/2000/svg">
<path d="M83.5038 167C37.4552 167 0 129.545 0 83.5038C0 37.4626 37.4552 0 83.5038 0C129.552 0 167.008 37.4552 167.008 83.5038C167.008 129.552 129.552 167.008 83.5038 167.008V167ZM83.5038 9.72278C42.8176 9.72278 9.72278 42.8176 9.72278 83.5038C9.72278 124.19 42.8176 157.285 83.5038 157.285C124.19 157.285 157.285 124.19 157.285 83.5038C157.285 42.8176 124.182 9.72278 83.5038 9.72278Z" fill="#F4F8F9"/>
<path d="M26.9319 75.4263C28.6446 63.2279 34.2314 51.957 43.0941 43.0943L43.1315 43.0569C51.9942 34.2166 63.2427 28.6447 75.4261 26.932V25.4287C62.8463 27.1489 51.2239 32.8779 42.077 42.0023L42.0396 42.0397C32.6608 51.4185 27.1413 63.2055 25.4585 75.4263H26.9394H26.9319Z" fill="#50A1B0"/>
<path d="M91.5737 25.4214V26.9322C103.795 28.6523 115.073 34.2467 123.943 43.1318C132.783 51.9945 138.355 63.243 140.068 75.4264H141.549C139.866 63.2206 134.354 51.4485 125.005 42.0773C115.851 32.9079 104.198 27.1491 91.5737 25.4214Z" fill="#50A1B0"/>
<path d="M140.068 91.5737C138.355 103.772 132.768 115.043 123.906 123.906L123.868 123.943C114.789 133.008 103.398 138.37 91.5737 140.046V141.549C103.78 139.866 115.552 134.354 124.923 124.998L124.96 124.96C134.339 115.582 139.859 103.795 141.541 91.5737H140.061H140.068Z" fill="#50A1B0"/>
<path d="M75.4263 140.046C63.572 138.37 52.144 132.978 43.0569 123.868C34.2166 115.006 28.6447 103.757 26.932 91.5737H25.4512C27.134 103.78 32.646 115.552 41.9949 124.923C51.3736 134.324 63.1831 139.859 75.4263 141.549V140.046Z" fill="#50A1B0"/>
<path d="M67.1765 43.9617L62.4423 48.6959C61.7991 49.3391 60.7595 49.3391 60.1163 48.6959L50.2963 38.8759L37.4921 26.0718C36.8489 25.4286 35.8093 25.4286 35.1661 26.0718L26.0791 35.1588C25.4359 35.802 25.4359 36.8416 26.0791 37.4848L41.8375 53.2432L48.7033 60.109C49.3465 60.7522 49.3465 61.7918 48.7033 62.435L43.969 67.1692C42.9294 68.2088 43.6698 69.9813 45.1357 69.9813H68.3582C69.2707 69.9813 70.0036 69.2484 70.0036 68.336V45.1135C70.0036 43.6476 68.2311 42.9146 67.1915 43.9467L67.1765 43.9617Z" fill="#F4F8F9"/>
<path d="M99.8232 123.046L104.557 118.311C105.201 117.668 106.24 117.668 106.883 118.311L116.703 128.131L129.508 140.935C130.151 141.579 131.19 141.579 131.834 140.935L140.921 131.848C141.564 131.205 141.564 130.166 140.921 129.522L125.162 113.764L118.296 106.898C117.653 106.255 117.653 105.215 118.296 104.572L123.031 99.838C124.07 98.7984 123.33 97.0259 121.864 97.0259H98.6415C97.729 97.0259 96.9961 97.7588 96.9961 98.6713V121.894C96.9961 123.36 98.7686 124.093 99.8082 123.061L99.8232 123.046Z" fill="#F4F8F9"/>
<path d="M43.9617 99.8232L48.6959 104.557C49.3391 105.201 49.3391 106.24 48.6959 106.883L38.8759 116.703L26.0718 129.508C25.4286 130.151 25.4286 131.19 26.0718 131.834L35.1588 140.921C35.802 141.564 36.8416 141.564 37.4848 140.921L53.2432 125.162L60.109 118.296C60.7522 117.653 61.7918 117.653 62.435 118.296L67.1692 123.031C68.2088 124.07 69.9813 123.33 69.9813 121.864V98.6415C69.9813 97.729 69.2484 96.9961 68.336 96.9961H45.1135C43.6476 96.9961 42.9146 98.7686 43.9467 99.8082L43.9617 99.8232Z" fill="#F4F8F9"/>
<path d="M123.046 67.1765L118.311 62.4423C117.668 61.7991 117.668 60.7595 118.311 60.1163L128.131 50.2963L140.935 37.4921C141.579 36.8489 141.579 35.8093 140.935 35.1661L131.848 26.0791C131.205 25.4359 130.166 25.4359 129.522 26.0791L113.764 41.8375L106.898 48.7033C106.255 49.3465 105.215 49.3465 104.572 48.7033L99.838 43.969C98.7984 42.9294 97.0259 43.6698 97.0259 45.1357V68.3582C97.0259 69.2707 97.7588 70.0036 98.6713 70.0036H121.894C123.36 70.0036 124.093 68.2311 123.061 67.1915L123.046 67.1765Z" fill="#F4F8F9"/>
<path d="M101.7 78.8444L83.5037 60.6553L65.3072 78.8444C64.1404 80.0111 64.1404 81.9108 65.3072 83.0775L80.1157 97.8786L75.03 102.964L78.418 106.352L83.5037 101.267L88.5895 106.352L91.9775 102.964L86.8918 97.8786L101.7 83.0775C102.867 81.9108 102.867 80.0111 101.7 78.8444ZM83.5037 94.4906L69.9666 80.9609L83.5037 67.4313L97.0409 80.9609L83.5037 94.4906Z" fill="#50A1B0"/>
</svg>
