<svg width="131" height="173" viewBox="0 0 131 173" fill="none" xmlns="http://www.w3.org/2000/svg">
<path d="M23.226 1.7631V57.9579C23.226 58.9356 22.4326 59.721 21.4629 59.721H14.2823C12.7115 59.721 11.9262 61.6203 13.0321 62.7343L30.623 80.3252C31.3122 81.0144 32.4262 81.0144 33.1154 80.3252L50.7063 62.7343C51.8203 61.6203 51.0269 59.721 49.4561 59.721H42.2835C41.3058 59.721 40.5204 58.9276 40.5204 57.9579V1.7631C40.5365 0.793395 39.7431 0 38.7734 0H24.9971C24.0194 0 23.234 0.793395 23.234 1.7631H23.226Z" fill="#F4F8F9"/>
<path d="M92.9326 1.76261V57.9574C92.9326 58.9351 92.1392 59.7205 91.1695 59.7205H83.9888C82.4181 59.7205 81.6327 61.6198 82.7386 62.7338L100.33 80.3247C101.019 81.0139 102.133 81.0139 102.822 80.3247L120.413 62.7338C121.527 61.6198 120.733 59.7205 119.163 59.7205H111.99C111.012 59.7205 110.227 58.9271 110.227 57.9574V1.76261C110.227 0.784892 109.434 -0.000488281 108.464 -0.000488281H94.6877C93.7099 -0.000488281 92.9246 0.792906 92.9246 1.76261H92.9326Z" fill="#F4F8F9"/>
<path d="M58.0795 18.977V104.111C58.0795 105.088 57.2942 105.874 56.3164 105.874H49.1358C47.5651 105.874 46.7797 107.773 47.8856 108.887L65.4765 126.478C66.1658 127.167 67.2797 127.167 67.9689 126.478L85.5598 108.887C86.6738 107.773 85.8804 105.874 84.3096 105.874H77.137C76.1593 105.874 75.3739 105.08 75.3739 104.111V18.977C75.3739 17.9992 74.5805 17.2139 73.6108 17.2139H59.8346C58.8569 17.2139 58.0715 18.0073 58.0715 18.977H58.0795Z" fill="#F4F8F9"/>
<path d="M64.5145 153.013C38.7412 153.013 12.8798 143.5 2.81407 139.341C0.417856 138.355 -0.664046 135.574 0.42587 133.226L0.994871 132C2.02067 129.796 4.58518 128.794 6.82913 129.716C16.2377 133.563 40.8409 142.595 64.5145 142.595C88.1882 142.595 114.378 133.426 124.171 129.604C126.439 128.722 128.996 129.78 129.974 132.008L130.519 133.242C131.552 135.598 130.43 138.347 128.034 139.293C117.624 143.388 90.4321 153.013 64.5226 153.013H64.5145Z" fill="#F4F8F9"/>
<path d="M64.5145 173C38.7412 173 12.8798 163.487 2.81407 159.328C0.417856 158.342 -0.664046 155.561 0.42587 153.213L0.994871 151.987C2.02067 149.783 4.58518 148.782 6.82913 149.703C16.2377 153.55 40.8409 162.582 64.5145 162.582C88.1882 162.582 114.378 153.414 124.171 149.591C126.439 148.709 128.996 149.767 129.974 151.995L130.519 153.229C131.552 155.586 130.43 158.334 128.034 159.28C117.624 163.375 90.4321 173 64.5226 173H64.5145Z" fill="#F4F8F9"/>
</svg>
