<svg width="131" height="173" viewBox="0 0 131 173" fill="none" xmlns="http://www.w3.org/2000/svg">
<path d="M23.226 37.7631V93.9579C23.226 94.9356 22.4326 95.721 21.4629 95.721H14.2823C12.7115 95.721 11.9262 97.6203 13.0321 98.7343L30.623 116.325C31.3122 117.014 32.4262 117.014 33.1154 116.325L50.7063 98.7343C51.8203 97.6203 51.0269 95.721 49.4561 95.721H42.2835C41.3058 95.721 40.5204 94.9276 40.5204 93.9579V37.7631C40.5365 36.7934 39.7431 36 38.7734 36H24.9971C24.0194 36 23.234 36.7934 23.234 37.7631H23.226Z" fill="#F4F8F9"/>
<path d="M92.9326 50.7631V106.958C92.9326 107.936 92.1392 108.721 91.1695 108.721H83.9888C82.4181 108.721 81.6327 110.62 82.7386 111.734L100.33 129.325C101.019 130.014 102.133 130.014 102.822 129.325L120.413 111.734C121.527 110.62 120.733 108.721 119.163 108.721H111.99C111.012 108.721 110.227 107.928 110.227 106.958V50.7631C110.227 49.7854 109.434 49 108.464 49H94.6877C93.7099 49 92.9246 49.7934 92.9246 50.7631H92.9326Z" fill="#F4F8F9"/>
<path d="M58.0795 1.7631V86.8968C58.0795 87.8745 57.2942 88.6599 56.3164 88.6599H49.1358C47.5651 88.6599 46.7797 90.5592 47.8856 91.6732L65.4765 109.264C66.1658 109.953 67.2797 109.953 67.9689 109.264L85.5598 91.6732C86.6738 90.5592 85.8804 88.6599 84.3096 88.6599H77.137C76.1593 88.6599 75.3739 87.8665 75.3739 86.8968V1.7631C75.3739 0.785381 74.5805 0 73.6108 0H59.8346C58.8569 0 58.0715 0.793395 58.0715 1.7631H58.0795Z" fill="#F4F8F9"/>
<path d="M62.373 141.351C37.0296 136.663 13.3296 122.606 4.18829 116.685C2.01133 115.28 1.45325 112.348 2.95206 110.238L3.73458 109.136C5.14412 107.155 7.84805 106.636 9.88695 107.951C18.4389 113.445 40.9891 126.801 64.2679 131.106C87.5467 135.412 114.967 131.16 125.292 129.182C127.683 128.728 130.004 130.233 130.561 132.602L130.872 133.915C131.46 136.419 129.857 138.918 127.329 139.412C116.347 141.546 87.8583 146.065 62.3809 141.352L62.373 141.351Z" fill="#F4F8F9"/>
<path d="M64.5145 173C38.7412 173 12.8798 163.487 2.81407 159.328C0.417856 158.342 -0.664046 155.561 0.42587 153.213L0.994871 151.987C2.02067 149.783 4.58518 148.782 6.82913 149.703C16.2377 153.55 40.8409 162.582 64.5145 162.582C88.1882 162.582 114.378 153.414 124.171 149.591C126.439 148.709 128.996 149.767 129.974 151.995L130.519 153.229C131.552 155.586 130.43 158.334 128.034 159.28C117.624 163.375 90.4321 173 64.5226 173H64.5145Z" fill="#F4F8F9"/>
</svg>
