<svg width="174" height="124" viewBox="0 0 174 124" fill="none" xmlns="http://www.w3.org/2000/svg">
<path d="M79.4007 46.1595L56.5794 23L33.7582 46.1595C32.2889 47.6511 32.2889 50.0626 33.7582 51.5542L52.3302 70.3998L45.9518 76.8752L50.2011 81.1891L56.5794 74.7138L62.9578 81.1891L67.2071 76.8752L60.8287 70.3998L79.4007 51.5542C80.8699 50.0626 80.8699 47.6511 79.4007 46.1595ZM56.5707 66.0769L39.5911 48.8479L56.5707 31.619L73.5502 48.8479L56.5707 66.0769Z" fill="#F4F8F9"/>
<path d="M142.691 26.5234L126.406 10L110.121 26.5234C109.074 27.5863 109.074 29.31 110.121 30.3729L123.371 43.8149L118.822 48.4325L121.858 51.5139L126.406 46.8963L130.954 51.5139L133.99 48.4325L129.441 43.8149L142.691 30.3729C143.737 29.31 143.737 27.5863 142.691 26.5234ZM126.406 40.7335L114.291 28.4437L126.406 16.1538L138.52 28.4437L126.406 40.7335Z" fill="#F4F8F9"/>
<path d="M107.052 61.227L95.9841 50L84.9165 61.227C84.2039 61.9504 84.2039 63.1205 84.9165 63.8439L93.9166 72.9809L90.8286 76.1159L92.8873 78.2059L95.9753 75.0709L99.0633 78.2059L101.122 76.1159L98.0339 72.9809L107.034 63.8439C107.747 63.1205 107.747 61.9504 107.034 61.227H107.052ZM95.9841 70.882L87.7494 62.531L95.9841 54.18L104.219 62.531L95.9841 70.882Z" fill="#50A1B0"/>
<path d="M94.973 5.44825L89.6064 0L84.2398 5.44825C83.8966 5.79659 83.8966 6.36821 84.2398 6.71654L88.6122 11.1466L87.1078 12.665L88.1108 13.6832L89.6152 12.1648L91.1196 13.6832L92.1225 12.665L90.6181 11.1466L94.9906 6.71654C95.3337 6.36821 95.3337 5.79659 94.9906 5.44825H94.973ZM89.5976 10.1373L85.6034 6.0824L89.5976 2.02747L93.5917 6.0824L89.5976 10.1373Z" fill="#F4F8F9"/>
<path d="M111.574 19.4483L106.207 14L100.84 19.4483C100.497 19.7966 100.497 20.3682 100.84 20.7165L105.213 25.1466L103.708 26.665L104.711 27.6832L106.216 26.1648L107.72 27.6832L108.723 26.665L107.219 25.1466L111.591 20.7165C111.934 20.3682 111.934 19.7966 111.591 19.4483H111.574ZM106.207 24.1373L102.213 20.0824L106.207 16.0275L110.201 20.0824L106.207 24.1373Z" fill="#50A1B0"/>
<path d="M1.19889 12.1914C1.19889 12.1914 3.13172 19.653 8.93795 25.4417C14.7442 31.2303 17.4888 31.785 20.8751 36.0795C24.2614 40.374 26.519 51.5665 26.519 51.5665C26.519 51.5665 25.7149 47.0841 26.0319 43.729C26.3566 40.374 27.6478 34.5853 27.6478 34.5853C27.6478 34.5853 27.9725 42.2349 30.7094 44.6595C33.454 47.0841 41.193 50.2603 46.1952 55.1095C51.1974 59.9586 55.2254 70.9722 55.2254 70.9722C55.2254 70.9722 54.5837 63.8774 53.9343 61.4528C53.2848 59.0282 51.5144 56.0399 51.5144 56.0399C51.5144 56.0399 57.3206 65.1836 68.129 67.7961C78.9374 70.4086 84.5812 66.6777 98.1265 69.4781C111.672 72.2785 120.06 75.8214 120.06 75.8214C120.06 75.8214 117.161 71.7148 113.612 70.5965C110.064 69.4781 106.353 66.8656 106.353 66.8656C106.353 66.8656 120.864 67.7961 132.639 64.6289C144.414 61.4528 157.48 51.7544 157.48 51.7544C157.48 51.7544 140.224 97.4818 86.5141 92.9994C32.8046 88.517 21.6792 56.0489 21.6792 56.0489C21.6792 56.0489 41.9971 98.0454 95.869 96.5513C149.741 95.0572 164.09 48.3993 166.185 41.4923C168.281 34.5853 165.544 12.1914 169.247 12.0035C172.958 11.8156 174.891 19.2862 173.6 28.6178C172.309 37.9494 169.409 50.0813 167.306 54.7516C165.204 59.4218 161.338 65.3894 161.338 65.3894C161.338 65.3894 155.369 88.5349 145.69 98.2423C136.01 107.95 118.916 115.787 118.916 115.787C118.916 115.787 123.431 111.117 126.013 107.019C128.596 102.921 131.016 97.6876 131.016 97.6876C131.016 97.6876 118.761 118.033 97.307 122.515C75.8526 126.997 63.5984 119.903 63.5984 119.903C63.5984 119.903 69.8917 119.903 79.5636 115.608C89.2432 111.314 91.6631 107.583 91.6631 107.583C91.6631 107.583 72.791 119.903 49.0867 111.689C25.3747 103.476 17.311 89.4833 17.311 89.4833C17.311 89.4833 19.4062 91.5321 27.1529 93.0263C34.892 94.5204 37.799 93.5899 37.799 93.5899C37.799 93.5899 8.76786 83.14 3.12399 54.5816C-2.51215 26.0053 1.19889 12.1914 1.19889 12.1914Z" fill="#F4F8F9"/>
</svg>
