<svg width="198" height="161" viewBox="0 0 198 161" fill="none" xmlns="http://www.w3.org/2000/svg">
<path d="M91.4007 31.7162L68.5794 8.55664L45.7582 31.7162C44.2889 33.2078 44.2889 35.6193 45.7582 37.1109L64.3302 55.9565L57.9518 62.4318L62.2011 66.7458L68.5794 60.2704L74.9578 66.7458L79.2071 62.4318L72.8287 55.9565L91.4007 37.1109C92.8699 35.6193 92.8699 33.2078 91.4007 31.7162ZM68.5707 51.6336L51.5911 34.4046L68.5707 17.1756L85.5502 34.4046L68.5707 51.6336Z" fill="#F4F8F9"/>
<path d="M154.691 32.9487L138.406 16.4253L122.121 32.9487C121.074 34.0115 121.074 35.7353 122.121 36.7982L135.371 50.2402L130.822 54.8578L133.858 57.9392L138.406 53.3216L142.954 57.9392L145.99 54.8578L141.441 50.2402L154.691 36.7982C155.737 35.7353 155.737 34.0115 154.691 32.9487ZM138.406 47.1588L126.291 34.869L138.406 22.5791L150.52 34.869L138.406 47.1588Z" fill="#F4F8F9"/>
<path d="M119.052 47.9623L107.984 36.7354L96.9165 47.9623C96.2039 48.6858 96.2039 49.8558 96.9165 50.5793L105.917 59.7163L102.829 62.8512L104.887 64.9412L107.975 61.8062L111.063 64.9412L113.122 62.8512L110.034 59.7163L119.034 50.5793C119.747 49.8558 119.747 48.6858 119.034 47.9623H119.052ZM107.984 57.6174L99.7494 49.2663L107.984 40.9153L116.219 49.2663L107.984 57.6174Z" fill="#50A1B0"/>
<path d="M106.973 17.4971L101.606 12.0488L96.2398 17.4971C95.8966 17.8454 95.8966 18.417 96.2398 18.7654L100.612 23.1954L99.1078 24.7138L100.111 25.732L101.615 24.2136L103.12 25.732L104.123 24.7138L102.618 23.1954L106.991 18.7654C107.334 18.417 107.334 17.8454 106.991 17.4971H106.973ZM101.598 22.1862L97.6034 18.1312L101.598 14.0763L105.592 18.1312L101.598 22.1862Z" fill="#F4F8F9"/>
<path d="M123.574 5.44825L118.207 0L112.84 5.44825C112.497 5.79659 112.497 6.36821 112.84 6.71654L117.213 11.1466L115.708 12.665L116.711 13.6832L118.216 12.1648L119.72 13.6832L120.723 12.665L119.219 11.1466L123.591 6.71654C123.934 6.36821 123.934 5.79659 123.591 5.44825H123.574ZM118.207 10.1373L114.213 6.0824L118.207 2.02747L122.201 6.0824L118.207 10.1373Z" fill="#50A1B0"/>
<path d="M1.36425 49.3824C1.36425 49.3824 3.56368 56.8314 10.1708 62.6101C16.7778 68.3888 19.901 68.9426 23.7544 73.2297C27.6078 77.5169 30.1768 88.6902 30.1768 88.6902C30.1768 88.6902 29.2618 84.2155 29.6225 80.8662C29.992 77.5169 31.4612 71.7381 31.4612 71.7381C31.4612 71.7381 31.8307 79.3746 34.9451 81.7951C38.0683 84.2155 46.8748 87.3862 52.567 92.2271C58.2591 97.0681 62.8427 108.063 62.8427 108.063C62.8427 108.063 62.1125 100.98 61.3735 98.5596C60.6345 96.1392 58.6198 93.156 58.6198 93.156C58.6198 93.156 65.2269 102.284 77.5261 104.892C89.8253 107.5 96.2476 103.776 111.661 106.571C127.075 109.367 136.62 112.904 136.62 112.904C136.62 112.904 133.321 108.804 129.283 107.688C125.245 106.571 121.022 103.963 121.022 103.963C121.022 103.963 137.535 104.892 150.934 101.73C164.333 98.5596 179.201 88.8778 179.201 88.8778C179.201 88.8778 159.565 134.527 98.447 130.052C37.3293 125.578 24.6694 93.165 24.6694 93.165C24.6694 93.165 47.7898 135.09 109.092 133.598C170.395 132.107 186.723 85.5285 189.107 78.6333C191.492 71.7381 188.377 49.3824 192.591 49.1949C196.814 49.0073 199.014 56.4652 197.545 65.7808C196.075 75.0964 192.776 87.2076 190.383 91.8699C187.99 96.5322 183.591 102.49 183.591 102.49C183.591 102.49 176.799 125.595 165.785 135.286C154.77 144.977 135.318 152.801 135.318 152.801C135.318 152.801 140.456 148.139 143.395 144.048C146.333 139.957 149.087 134.732 149.087 134.732C149.087 134.732 135.142 155.043 110.729 159.518C86.315 163.992 72.3706 156.91 72.3706 156.91C72.3706 156.91 79.532 156.91 90.5379 152.622C101.553 148.335 104.306 144.611 104.306 144.611C104.306 144.611 82.8311 156.91 55.8573 148.71C28.8747 140.511 19.6987 126.542 19.6987 126.542C19.6987 126.542 22.0829 128.588 30.8982 130.079C39.7047 131.571 43.0126 130.642 43.0126 130.642C43.0126 130.642 9.97722 120.21 3.55488 91.7002C-2.85865 63.1728 1.36425 49.3824 1.36425 49.3824Z" fill="#F4F8F9"/>
</svg>
