<svg width="146" height="187" viewBox="0 0 146 187" fill="none" xmlns="http://www.w3.org/2000/svg">
<path d="M21.976 1.90569V62.6451C21.976 63.7019 21.1185 64.5508 20.0704 64.5508H12.309C10.6112 64.5508 9.76232 66.6038 10.9577 67.8078L29.9713 86.8214C30.7162 87.5663 31.9203 87.5663 32.6652 86.8214L51.6788 67.8078C52.8828 66.6038 52.0253 64.5508 50.3275 64.5508H42.5748C41.518 64.5508 40.6691 63.6933 40.6691 62.6451V1.90569C40.6864 0.857559 39.8289 0 38.7721 0H23.8817C22.8249 0 21.976 0.857559 21.976 1.90569Z" fill="#F4F8F9"/>
<path d="M97.3112 1.90569V62.6451C97.3112 63.7019 96.4537 64.5508 95.4056 64.5508H87.6442C85.9464 64.5508 85.0975 66.6038 86.2929 67.8078L105.306 86.8214C106.051 87.5663 107.255 87.5663 108 86.8214L127.014 67.8078C128.218 66.6038 127.36 64.5508 125.663 64.5508H117.91C116.853 64.5508 116.004 63.6933 116.004 62.6451V1.90569C116.004 0.848897 115.147 0 114.099 0H99.2083C98.1515 0 97.3026 0.857559 97.3026 1.90569H97.3112Z" fill="#F4F8F9"/>
<path d="M59.6482 20.5121V112.531C59.6482 113.588 58.7993 114.437 57.7425 114.437H49.9811C48.2833 114.437 47.4344 116.489 48.6298 117.694L67.6434 136.707C68.3883 137.452 69.5924 137.452 70.3373 136.707L89.3509 117.694C90.5549 116.489 89.6974 114.437 87.9996 114.437H80.2469C79.1901 114.437 78.3412 113.579 78.3412 112.531V20.5121C78.3412 19.4553 77.4837 18.6064 76.4355 18.6064H61.5452C60.4884 18.6064 59.6395 19.464 59.6395 20.5121H59.6482Z" fill="#F4F8F9"/>
<path d="M139.089 146H6.00291C2.6876 146 0 148.688 0 152.003V152.523C0 155.838 2.6876 158.526 6.00291 158.526H139.089C142.405 158.526 145.092 155.838 145.092 152.523V152.003C145.092 148.688 142.405 146 139.089 146Z" fill="#F4F8F9"/>
<path d="M139.089 174.466H6.00291C2.6876 174.466 0 177.153 0 180.469V180.988C0 184.304 2.6876 186.991 6.00291 186.991H139.089C142.404 186.991 145.092 184.304 145.092 180.988V180.469C145.092 177.153 142.404 174.466 139.089 174.466Z" fill="#F4F8F9"/>
</svg>
