<svg width="146" height="182" viewBox="0 0 146 182" fill="none" xmlns="http://www.w3.org/2000/svg">
<path d="M21.976 51.9057V112.645C21.976 113.702 21.1185 114.551 20.0704 114.551H12.309C10.6112 114.551 9.76232 116.604 10.9577 117.808L29.9713 136.821C30.7162 137.566 31.9203 137.566 32.6652 136.821L51.6788 117.808C52.8828 116.604 52.0253 114.551 50.3275 114.551H42.5748C41.518 114.551 40.6691 113.693 40.6691 112.645V51.9057C40.6864 50.8576 39.8289 50 38.7721 50H23.8817C22.8249 50 21.976 50.8576 21.976 51.9057Z" fill="#F4F8F9"/>
<path d="M97.3115 51.9057V112.645C97.3115 113.702 96.4539 114.551 95.4058 114.551H87.6445C85.9467 114.551 85.0978 116.604 86.2932 117.808L105.307 136.821C106.052 137.566 107.256 137.566 108.001 136.821L127.014 117.808C128.218 116.604 127.361 114.551 125.663 114.551H117.91C116.853 114.551 116.005 113.693 116.005 112.645V51.9057C116.005 50.8489 115.147 50 114.099 50H99.2085C98.1517 50 97.3028 50.8576 97.3028 51.9057H97.3115Z" fill="#F4F8F9"/>
<path d="M59.6479 1.90569V93.9244C59.6479 94.9812 58.799 95.8301 57.7422 95.8301H49.9809C48.2831 95.8301 47.4342 97.883 48.6296 99.0871L67.6431 118.101C68.3881 118.846 69.5921 118.846 70.3371 118.101L89.3506 99.0871C90.5547 97.883 89.6971 95.8301 87.9993 95.8301H80.2467C79.1899 95.8301 78.341 94.9725 78.341 93.9244V1.90569C78.341 0.848898 77.4834 0 76.4353 0H61.5449C60.4882 0 59.6393 0.85756 59.6393 1.90569H59.6479Z" fill="#F4F8F9"/>
<path d="M139.089 146.935H6.00291C2.6876 146.935 0 149.623 0 152.938V153.458C0 156.773 2.6876 159.461 6.00291 159.461H139.089C142.404 159.461 145.092 156.773 145.092 153.458V152.938C145.092 149.623 142.404 146.935 139.089 146.935Z" fill="#F4F8F9"/>
<path d="M139.089 169.466H6.00291C2.6876 169.466 0 172.153 0 175.469V175.988C0 179.304 2.6876 181.991 6.00291 181.991H139.089C142.404 181.991 145.092 179.304 145.092 175.988V175.469C145.092 172.153 142.404 169.466 139.089 169.466Z" fill="#F4F8F9"/>
</svg>
