<svg width="144" height="95" viewBox="0 0 144 95" fill="none" xmlns="http://www.w3.org/2000/svg">
<path d="M137.277 82.6372H5.92468C2.65257 82.6372 0 85.2898 0 88.5619V89.0748C0 92.347 2.65257 94.9995 5.92468 94.9995H137.277C140.549 94.9995 143.201 92.347 143.201 89.0748V88.5619C143.201 85.2898 140.549 82.6372 137.277 82.6372Z" fill="#F4F8F9"/>
<path d="M75.1101 51.1695C102.05 56.667 127.052 72.1263 136.686 78.6208C138.98 80.1623 139.518 83.2998 137.878 85.5217L137.022 86.6819C135.479 88.7667 132.585 89.2668 130.436 87.8248C121.423 81.7972 97.6326 67.1088 72.8879 62.0592C48.1431 57.0097 18.8126 61.0063 7.76086 62.9131C5.20222 63.3507 2.7557 61.6997 2.20895 59.1624L1.90259 57.7562C1.32456 55.0729 3.08362 52.4391 5.78996 51.9617C17.5448 49.9017 48.0199 45.6413 75.1017 51.1678L75.1101 51.1695Z" fill="#F4F8F9"/>
<path d="M64.9248 80.9046C55.3694 78.8592 46.5357 73.2788 43.1281 70.9406C42.3207 70.3831 42.1395 69.2689 42.7269 68.4854L43.0325 68.0787C43.5841 67.34 44.6158 67.1761 45.3785 67.6978C48.5586 69.8736 56.9718 75.1717 65.7498 77.0506C74.5277 78.9296 84.9703 77.6065 88.901 76.9703C89.8151 76.825 90.6757 77.4201 90.858 78.3247L90.9602 78.8274C91.1569 79.7875 90.5206 80.718 89.561 80.871C85.373 81.5658 74.5286 82.969 64.9231 80.9129L64.9248 80.9046Z" fill="#50A1B0"/>
<path d="M137.277 0H5.92468C2.65257 0 0 2.65257 0 5.92468V6.43764C0 9.70975 2.65257 12.3623 5.92468 12.3623H137.277C140.549 12.3623 143.201 9.70975 143.201 6.43764V5.92468C143.201 2.65257 140.549 0 137.277 0Z" fill="#F4F8F9"/>
<path d="M72.9187 44.2567C45.8831 49.2598 16.9084 44.3014 5.54236 41.8923C2.83744 41.3234 1.16273 38.6164 1.85021 35.9417L2.20906 34.545C2.85729 32.034 5.35294 30.4854 7.88569 31.0166C18.5018 33.2254 46.0633 37.9236 70.8963 33.3282C95.7294 28.7327 121.422 14.0316 130.953 8.12056C133.161 6.75558 136.048 7.36898 137.506 9.51622L138.318 10.7051C139.859 12.9759 139.216 16.0772 136.886 17.5343C126.761 23.8509 100.106 39.2256 72.9271 44.2552L72.9187 44.2567Z" fill="#F4F8F9"/>
<path d="M65.7593 14.4196C75.371 12.6577 85.6669 14.4382 89.7095 15.2964C90.6687 15.503 91.2619 16.4634 91.0186 17.4119L90.8916 17.9046C90.6642 18.798 89.7734 19.3438 88.8693 19.1532C85.0991 18.358 75.2996 16.6777 66.4699 18.2963C57.6403 19.9149 48.4962 25.1287 45.1071 27.2189C44.3179 27.7025 43.2952 27.4815 42.781 26.7153L42.4944 26.2898C41.9457 25.4777 42.1781 24.3747 43.0063 23.8665C46.6108 21.6239 56.0956 16.1825 65.7578 14.4112L65.7593 14.4196Z" fill="#50A1B0"/>
</svg>
