<svg width="144" height="95" viewBox="0 0 144 95" fill="none" xmlns="http://www.w3.org/2000/svg">
<path d="M137.277 82.6372H5.92468C2.65257 82.6372 0 85.2898 0 88.5619V89.0748C0 92.347 2.65257 94.9995 5.92468 94.9995H137.277C140.549 94.9995 143.201 92.347 143.201 89.0748V88.5619C143.201 85.2898 140.549 82.6372 137.277 82.6372Z" fill="#F4F8F9"/>
<path d="M72.6008 50.7144C100.095 50.7144 127.684 60.8624 138.422 65.2995C140.978 66.3511 142.132 69.3177 140.97 71.8226L140.363 73.1307C139.268 75.4818 136.533 76.5504 134.139 75.5672C124.102 71.4636 97.8555 61.8285 72.6008 61.8285C47.3461 61.8285 19.4069 71.6089 8.95958 75.6869C6.54012 76.6274 3.81289 75.4989 2.76987 73.1221L2.18852 71.8055C1.08565 69.292 2.28256 66.3596 4.83881 65.3508C15.9444 60.9821 44.9522 50.7144 72.5922 50.7144H72.6008Z" fill="#F4F8F9"/>
<path d="M72.3787 77.3372C62.6068 77.3372 52.8007 73.7294 48.9792 72.1563C48.073 71.7801 47.6626 70.7286 48.073 69.8394L48.2867 69.3778C48.6714 68.5399 49.646 68.1638 50.501 68.5143C54.066 69.9762 63.4019 73.3959 72.3787 73.3959C81.3555 73.3959 91.2898 69.9164 95.0002 68.4715C95.8637 68.1381 96.8298 68.5399 97.1974 69.3863L97.4026 69.8565C97.7958 70.7542 97.3684 71.7972 96.4621 72.1477C92.5124 73.7037 82.2019 77.3457 72.3787 77.3457V77.3372Z" fill="#50A1B0"/>
<path d="M137.277 0H5.92468C2.65257 0 0 2.65257 0 5.92468V6.43764C0 9.70975 2.65257 12.3623 5.92468 12.3623H137.277C140.549 12.3623 143.201 9.70975 143.201 6.43764V5.92468C143.201 2.65257 140.549 0 137.277 0Z" fill="#F4F8F9"/>
<path d="M70.6001 44.2855C43.1054 44.2855 15.5168 34.1374 4.7788 29.7003C2.22255 28.6488 1.06839 25.6821 2.2311 23.1772L2.83811 21.8691C3.93242 19.5181 6.6682 18.4494 9.06201 19.4326C19.0989 23.5363 45.3454 33.1713 70.6001 33.1713C95.8548 33.1713 123.794 23.3909 134.241 19.3129C136.661 18.3725 139.388 19.501 140.431 21.8777L141.012 23.1943C142.115 25.7078 140.918 28.6402 138.362 29.649C127.256 34.0177 98.2486 44.2855 70.6086 44.2855H70.6001Z" fill="#F4F8F9"/>
<path d="M70.8226 17.6628C80.5945 17.6628 90.4006 21.2707 94.2222 22.8437C95.1284 23.2199 95.5387 24.2715 95.1284 25.1606L94.9146 25.6223C94.5299 26.4601 93.5553 26.8363 92.7004 26.4858C89.1353 25.0238 79.7994 21.6041 70.8226 21.6041C61.8459 21.6041 51.9115 25.0837 48.2011 26.5285C47.3376 26.8619 46.3716 26.4601 46.004 25.6137L45.7988 25.1435C45.4055 24.2458 45.833 23.2028 46.7392 22.8523C50.689 21.2963 60.9995 17.6543 70.8226 17.6543V17.6628Z" fill="#50A1B0"/>
</svg>
