<?xml version="1.0" encoding="UTF-8"?>
<svg id="Capa_2" data-name="Capa 2" xmlns="http://www.w3.org/2000/svg" xmlns:xlink="http://www.w3.org/1999/xlink" viewBox="0 0 371.76 441.17">
  <defs>
    <style>
      .cls-1 {
        fill: url(#Degradado_sin_nombre_3);
      }
    </style>
    <linearGradient id="Degradado_sin_nombre_3" data-name="Degradado sin nombre 3" x1="-116.02" y1="206.37" x2="194.02" y2="206.37" gradientTransform="translate(145.93 427.28) scale(1 -1)" gradientUnits="userSpaceOnUse">
      <stop offset="0" stop-color="#000" stop-opacity="0"/>
      <stop offset=".47" stop-color="#50a1b0" stop-opacity=".44"/>
      <stop offset="1" stop-color="#000" stop-opacity="0"/>
    </linearGradient>
  </defs>
  <g id="Capa_1-2" data-name="Capa 1">
    <path class="cls-1" d="M29.91,32.77h310.04v376.28H29.91V32.77Z"/>
    <path d="M136.12,65.01c.85-.08,4.27.12,5.74.08-1.68.88-8.81.22-5.74-.08ZM287.81,1.17c-1.23.22-2.45.43-3.68.65,3.49.14,8.17-.02,11.41.19.53.03-.84.66.41.69,1.25.03,1.01-.83,2.83-.92,2.04-.1,11.4.5,14.64.48,8.81-.04,17.68-.31,26.53-.32l29.28-1.4,1.54,32.22c0,3.32-.03,6.64-.13,9.96-.64-12.54-1.28.1-1.01,3.61.06.78,1.66.65,1.26,13.23-.26,7.99-2.54.61-1.4,13.95,1.6-10.26,1.49-.17,1.54,7.87,0,1.39-.23,12.58-.16,17.53.02,1.69.86,4.27.88,6.51.01,1.54-.44,2.71-.42,5.01.1,10.69.14,21.2-.02,31.91-2.15-6.26-.92,4.91-1.02,5.41-.58,2.55-.75-8.99-1.12-4.42.07,6.38.13,12.76.2,19.13.26-5.23,1.81,6.93,1.11,9.17,1.9-.99-1.66,29.07-1.02,33.64.13.95,1.07-5.28.64,9.18-.05,1.57-.62.97-.57,1.8.03.49,1.86,3.47.85,6.64-.37,1.16-1.57-6.26-1.08,10.03,1.86-6.48,1,22.58.54,27.93.25-1.07.5-2.14.75-3.2-.67,5.29-.04,6.24-.08,7.43-.14,4.8-.77,11.4-.72,15.87.07,5.23,1.22,5.25.77,11.35.25-1.45.51-2.89.76-4.34-.06,4.21-.12,8.42-.18,12.64-1.53-9.75-.07,2.1-.04,2.88.06,1.25-.57-.54-.49,1.54.01.22.6-.1.67,3.12.14,6.71-.6,5.65-.6,8.47,0,.26.53-.65.66,4.22.4,15.47-.41-.08-.48-.67-.1-.78-2.31,4.52-1.53-8.61-.25,4.41-1.23,4.86-1.26,5.35-.02.44.12,8.08.15,8.5.33,3.76,1,.45,1.12,1.18.1.6-.78,9.81,1.24,11.96-1.86,4.41-1.69-2.54-1.98-9.92-.38-1.08-.75,7.04-.75,7.46,0,10.46,1.53,4.67,2.51,6.96.51,1.2-.53,5.47.84,1.53.15,9.5-.65,3.74-.77,4.35-.17.93.22,4.25.17,4.67-.08.61-.55-1.51-.72.9-.02.4.79,4.28,1.18-.72-.12,6.68.58,6.13-.82,8.4,2.66,4.6-1.57,3.34-1.72,5.15-.39,4.82,1.69,3.42,1.8,3.68.65,1.75-.06,15.1.24,18.4-1.5-1.3-.02-10.58-.31-12.65-.97-6.91-.75,9.74-2.64,4.72.52,2.1,1.04,4.21,1.56,6.31-1.21,3.86-1.74-1.62-1.3,8.77,1.05,1.7-.17-7.34.66-5.53.48,1.07.59,7.09.84,7.21.31.12-.06-5.32.42-4.47,1.02,1.87.05,21.73-.51,6.61.02,3.67-1.52,5.79-1.5,8.68l1.26,26.47-29.13,1.39c-.43,0-.88.04-1.36.12-.88.15.42.64,1.36,1.17l30.47-1.46-1.32-27.69c.45-.8.92-1.34,1.24,0l1.38,28.87-31.77,1.52c-1.28.3-4.27.45-10.38.3-.42-.96,7.98-.28,8.19-.36.31-.11-1.21-2.27-1.48-2.38-.93-.35-21.31.81-25.61-.28,1.7,1.25-15.4.22-17.26.6-.5.1,1.36.87.83.95-3.31.48-12.25-.88-16.4-.92-4.64-.04-4.06.62-4.31.62-2.04-.04-.41-.48-1.66-.48-1.89,0-14.85-.09-15.5,0-.19.03,1.93.78-.9.93-.49.02-.18-.87-8.55-.48-10.08.47,7,1.11,2.81,2.05-6.48-1.34-6.27-.01-8.02-.12-.61-.04-5.13-1.16-10.05-1.09,3.53-.18,7.05-.37,10.58-.55-3.47-.2-10.2.05-13.06-.18-1.39-.11-.25-1.03-3.27-1.01-.64.01-3.19,2.26,4.74,1.25.63.8-3.14.28-4.89.51-.26.04-1.31,1.38-3.55.54-.54-.21,5.31-4.13-9.77-1.29-.49.09,1.2.58.73.68-.32.07-4.17-.13-4.6-.06-.43.07,1.42.61.91.72-2.65.54-6.14-1.58-.67-1.42-1.83-.26-3.66-.52-5.49-.79,1.96,1.6-2.87.45-5.4.5-16.22.31-5.36,1.36-8.15,1.9-4.49.87-1.06-1.88-7.72-1.05-.62.08,7.43,1.24-8.28.58,2.32-.05,4.64-.09,6.96-.14-1.34-1.55-8.38.11-8.92.13-6.17.21-2-.35-11.16.45-.82.07-2.6-.31-4.35-.12-7.25.79,9.57.48,10.03,1.1.22.31-17.88.23-18.5.08-2.64-.65,8.2-.29,6.14-1.09-.75-.29-26.55.3-31.72-.01-5.97-.36-8.66-2.46-8.7-.1-1.68-2.32-3.17-.74-3.94-.75-9.23-.21-9.25-.24-17.17-.02-1.75.05-3.23-.65-3.84-.54-.36.07.31.82-1.45,1.06-2.45.32-17.17-.46-18.26-.87-1.09-.42,6.22-.18,4.91-.86-5.29-.07-10.37.1-15.69.03-2.21-.03-1.08-.51-2.03-.52-.41,0-8.05.42-7.72.59.76.41,24.35.13,18.14.97-1.2.16-5.43-.94-4.76.4-10.61-.15-21.21-.31-31.82-.46l-27.95,1.33-1.47-30.75c.15-10.47.3-20.94.45-31.41.82,9.9.37,20.82.23,31.41l1.43,30.04,27.3-1.3c2.36.03,4.7.05,7.01.03,1.74-.01,7.62.12,6.9-.56-4.34-.07-9.1-.06-13.91-.04l-26.76,1.28-1.41-29.44c-.02-7.16-.04-14.45.22-20.64.01-.33.62.89.72-.36.18-2.32-.8-9.88-.55-11.15.06-.22.86,4.08,1.37,2.77,1.31-3.36-1.59-4.21-1.56-7.1.03-2.23,1.43-17.23.54-20.97-.94-3.97-.55,11.05-1.32,9.94-.78-10.17.05-20.46-.04-30.07,0-.17-.61,1.3-.69-.84-.15-3.73.71-4.71.85-6.52.15-1.96.02-8.88.34-9.81.04-.12.89,1.28.92,1.5.35,3.02-.75,4.09-.77,4.36-.04,1.03.38,2.04.36,2.98-.04,1.55-.43,2.4-.47,4.45-.03,1.41.73.05.69,1.41-.02.5-1.73,5.88.02,6.38.55.16,1.26-43.86.82-48.26-.21,3.77-.42,7.55-.63,11.32.51-7.66-.89-16.87,1.18-17.52.17-28.42.34-56.83.51-85.25.18-5.07,1.51-2.29,1.12-10.64-.42,2.16-.85,4.31-1.27,6.47.3-4.28.88-23.24.6-26.31-.04-.4-1.24-.95-1.34-5.69-.09-4.2.81-4.88.98-7.13.14-1.89-.09-4.01-.04-4.57.04-.43.59-.6.69-1.63.3-3.26-1.26-.62.53-3.86.07.79.14,1.58.2,2.37.26-3.94,1.07-9.32,1.47-3.52.07,1-.46.14-.46.89.1,29.14,1.14,5.87.31-4.34.79-2.62.31-17.32.46-17.81.23-.68.86,1.84,1.4-1.46.12-.69-.33-20.34.72-13.27.22,1.46-.01,10.88.02,13.15,1.68-5.34-.73-17.87-.66-19.28.26-5.68,1.45,10.92,1.65-1.88.15-9.84-.97-.6-1.45-4.39-.27-2.13.97-13.27-.63-12.96-.17-3.82.68-1.59.74-2.06.05-.46-.42-7.98-.09-10.42.04-.3.87.64.94.33.12-.6-.05-7.85-.12-8.14-.05-.19-.78,1.54-.95.83-.2-.83-.03-7.8-.24-8.19-.31-.54-.11,8.07-.92,6.63.2-3.97-.34-10.44-.99-13.06.19.64.21,4.49.15,5.83-1.19-.63-1.17-8.89-.23-6.07-.51-1.8-.77-.57-1.25-1.58-.12-.27-.15-2.82-.35-3.31-.04-.06-.49,2.57-.73,2.04-.44-.95-.34-8.69-.22-9.33.32-1.78.72,4.53,1.22,5.05.08.07,1.06-5.29,1.15-5.37.93-.31.26,5.66,1.1,4.97.18-1.48.35-2.95.53-4.43.85,5.7.41,16.23,1.38,18.95-.29-8.44-.25-17.28,1.92-17.26.92,0,1.45,3.65,1.69,3.51.83-.54-.07-5.59-.03-5.78.05-.15.1-.22.15-.22h0c.49,0,.84,7.21,1.06,7.57.4.61,2.03-2.6,2.39-2.6.07.11.46,5.25,1.09,3.51.64-1.75.65-6.25.72-6.4.38-.86.73,7,.95,7.24.11.12.81-4.1,1.01-4.22.2-.11.64,3.1,1.28,4.37.47.94.83-1.8.91-1.32.05.34.04,7.77.12,8.14.12.54.69-1.2.83-.94.2.36,0,2.76.21,2.45.16-.23,2.1-9.53,2.62-9.47.89.11-1.15,9.95,2.34.79.02-.06-.23-2.29-.2-2.36.64-1.38,1.63,5.77,1.46-2.97,1.12,16.26,1.33,2.02,2.82,4.43.57.93.81,7.23.9,7.26.73-.61.16-2.62.52-3.3.2-.38.97,5.26,1.47,4,.26-.66.17-6.64.22-6.89.47-2.37.98.54,1.32.02.23-.35.24-3.96.28-4.05.08-.15,1,4.75,1.32,5.78.25.78.63-2.14.74-1.6.64,3.27-1,10.21,1.3,3.52.14-.41.08-2.94.11-3.02.65-1.57.71,3.1,1.24,3.93.92,1.43.41-5.27,1.05.3.6-4.18.58-6.51.41-11.4.47,13.55,2.84,18.33,2.78,3.29-.04,4.78,1.3,4.25,1.33,5.68.01.89-1.32,7.83,1.67,4.64.37-.4-.1-4.61.66-3.29-.2,10.11.49.21.59.2,1.76.13.32,24.85.52,29.09.23,4.93,1.62,9.31,1.62,10.38,0,3.52-.7.6-.96,1.39-.26.8,1.09,10.82,1.02,11.32-.3,1.94-1.13-.03-1.18.17-.51,2.4.14,15.86-.05,19.63.54-.12.59-7.68,1.46-2.96,1.02,5.5-1.37,5.81-1.48,5.96.02,25.2.05,50.4.07,75.6,1.27-.31.31-16.79.48-17.16.99-2.2.97,25.63.52,29.05.27-2.59.55-5.19.82-7.78,1.46,4.43-.44,14.23.21,20.64.21,2.07.77-1.9.81-1.82.57,2.33.13,6.06-.63,3.27.73,5.68-.08,4.85-.14,9.21,0,.22.59-1.65.83,1.8.11,1.62.12,10.23.63,11.38.22.47,2.5-3.9.54-4.44.96-9.37-.9-2.99-.85-6.63.01-.56,1.11.73.59-8.44,1.98,1.75.5,12.3.74,14.11.49,3.73,1.52-11.65-.03-14.47,1.55,1.32.21-1.09.27-4.52.07-3.75.53-2.12.53-4.15.01-5.55-1.08-3.25-.1-7.83-3.05,4.46-.4-7.84.4-11.42.15,5.83.31,11.66.46,17.49.16-.33.32-.67.48-1-.02,1.54-.05,3.07-.07,4.61-.15-.25-.31-.49-.46-.74,1,7.92-.12,9.85-.14,10.5-.13,8.31-.12,17.92-.12,26.32,0,1.26,1,.4.22,9.59-.25,2.93-1.02.16-.91,3.49,2.11,4.16.43,4.08.42,5.32,0,3.55.52,5.71.53,6.04.08,4.38,0,10.8.07,15.61,0,.09.66-2.41.46.71-.07,1.1-2.83,10.95-1.93,19.56.19-2.24.37-4.48.56-6.72-.26,2.63.44,21.08,1.18,16.57.45-2.77-1.33-9.52.38-10.26-.51,6.14.25,40.05-.14,42.69-.06.37-.61-1.88-.68-1.38-.05.39.08,8.16-.14,9.19-.13.61-.47-2.82-.67-2.54-.14.24-.38,9.95.32,10.5-.28-2.38-.04-9.08.55-5.57.07.45-.38,2.79-.28,3.34.85,5.09.65-10.12.66-12.48.89,9.56-.16,24.34.42,35.41-.58,4.48-.89-6.63-1.37-1.57-1,10.5.8,2.79.88,3.12.59,2.61-2.55,11.49-.16,11.5-.1,1.1-.2,1.78-.28,2.31l-27.87-27.87c1.33.2,1.81.29,5.63.07-.71-.17-1.41-.33-2.12-.5,5.97-1.38,18.59,2.11,17.65,2.37-2.54.71-9.12-.4-9.68-.37-.81.04-3,2.33-11.48.47l25.84,25.84c.05-.24.11-.49.17-.75-.43-.99-.71-.44-.91.75l-25.1-25.1c3.29.55,11.48.48,5.42,1.3,5.58-.18,28.51.95,31.82.24.39-.09-1.44-1.71,4.23-.89,2.69.39-3.8.41-2.57.78,3.79,1.13,55.31.41,65.09.35.63,0,.4.5,1.03.5,1.92-.01,8.9-.76,12.34-.53-7.11-.93,6.7-1,10.21-.9,5.33.16,5,1.04,7.3,1.23,8.88.73,22.63-1.37,29.53.59-.38-1.95,11.93.96,17.53.97,4.39.01,10.75-1.27,4.83-2.06,7.57.09,15.54-.27,22.64-.39,1.17-.02-.44.56,1.56.5.18,0,.43-.57,2.15-.63,14.19-.49,7.29.71,9.94,1.06,1.49.2,2.58.3,3.39.33-8.27.11-17.82.33-20.37.35,2.18,1.25,18.34-.24,23.07.1.16.01-.41.7-.24.7h.01c1.77.05,13.07-.2,10.74-1.02-.62-.22-5.82-.22-11.99-.14,1.67-.15.42-.92.72-.96,3.57-.38,12.32.37,15.43.47.71.02.66-.47.78-.47,2.82.11,1.67,1.52,4.56.07,5.11,1.75-9.58.26-8.55,1.4.8.88,33.43.41,33.33-.98.11.15.56.33,1.48.54,2.04.46,11.12.32,12.69.06.26-.05.16-1.39.49-1.4.82-.03,11.92,1.02,16.07.23-2.24-.19-4.48-.38-6.72-.56,13.52-.01,11.43-.41,6.93-.81-.23,0-.44-.05-.66-.06-3.49-.3-7.97-.58-8.04-.69-.16-.25,8.25-.42,13.89-.25l-26.09,26.09c.11-3.64.38-6.12.86-4.39.07.27,0,2.46-.01,4.39l25.24-25.24c-2.48-.03-4.54.02-1.59.52.23.04.82.05,1.59.05l-24.67,24.67c0-2.32-.13-6.24-.05-6.51.37-1.37.82,2.93,1.3,6.51l23.42-23.42c-2.67.36-4.94.74-4.16,1.14,1.28-.31,2.69-.46,4.16-.52l-22.8,22.8c-.12-2.68.02-5.56-.12-8.23-.1-1.89-.78-2.35-.79-2.58-.18-3.48.53-1.53.51-2.69-.01-.62-1.51-7.47.56-6.18-1.52-22.57-1.52-6.24-1.4,7.6-.75-4.38-.39-12.95-.56-16.8-.06-1.38-.75-.56-.89-2.9-.28-4.8.51-27.73.7-33.7.24,3.67,1,2.6.94-.24-.05-2.83-1.06-.45-1.16-1.01-.11-.59.36-13.88.23-16.09.36,10,1.11,7.74,1.19-.74.22,1.23.43,2.45.65,3.68-.3-4.97.84-15.44.5-18.31-.05-.45-.69,1.17-.72.92-.27-2.52.37-11.1.16-11.5-.18-.34-.71,3.32-.97,1.96-.05-.28.8-3.81.59-7.29-.08-1.29-.67-.51-.71-.84-.29-2.71.72-1.11.56-6.06-.12-3.63-1.1-6.33-.78-11.34-1.25,16.45-.73,2.62-1.11-4.26-.06-1.1-1.14-.16-.62-6.74,1.96,14.02,1.03-4,1.06-7.68,0-.2.72-.27.73-2.08,0-.15-.48.07-.52-1.61-.35-15.93.2-5.74.67-8.77.2-1.29-.48-9.04-.5-11.12,0-.48.5-.26.48-2.12-.04-3.28-.57-6.23-.61-8.39,0-.25.79-.26.53-4.37-.07-1.16-.35-2.45-.58-.81-.75,5.44.55,15.76-.2,21.91-.68,5.61-.74-12.08-.75-13,0-.34.39,3.12.47-.39.06-3-1.3-8.47-1-12.94.02-.34,1.18-3.91,1.25-3.74.05.15.3,5.63.64,4.83.04-.1.03-3.58.28-4.03.3-.56,3.29-2.06,3.36-2.8.18-1.91-.5-.67-.45-1.9.1-2.65.98-11.83-.05-12.13-.06,1.52-.12,3.03-.18,4.55-.11-8.44-.55-4.84-.74-6.04-.21-1.29.7-.93.78-3.77.02-.62-.17-12.52-.55-12.31.61,6.58-.52,4.14-.54,4.45-.07,1.15.56,2.63.54,4.17-.1,10.88-1.09-.09-1.35,2.48-.09.88.45,2.65.42,3.02-.09,1.22-.79,1.24-.74,2.05.13,1.9,1.13-.32,1.18-.17.62,1.7-.15,8.34-1.24,4.2-.39,2.48.93,2.77.4,4.74-1.04,3.92-.77-1.95-.95-3.54-.62-5.7-.12-7.39-.29-15.46-.06-2.91-.7-6.35-.74-7.7-.02-.85,2.2-8.87-1.28-9.11.34-3.12,2.63-8.01,2.53-11.22-.1-2.88-1.33-1.97-1.38-2.24-.07-.41.02-3.9-.15-5.08-.21-1.38-.68-.69-.87-2.88-.48-5.46.78-5.31.86-5.88.94-6.51-.84-3.66-.99-5.11-.13-1.34.56-20.19.1-24.16.25,1.61.5,3.23.76,4.84.78-2.89-.49-5.95.91-6.01-2.27-.59-.75-6.55-.81-8.34-.02-.71-.41-.65-.43-1.53-.07-3.45.24-11.23.04-13.11-.84-8.1-2.25,12.61-2.34,14.24.03-3.26-.48-21.72-1.58-13.24-.17,1.31.85,3.64.89,4.37.26,4.99-.65,1.07-.74,1.46-.14.66.74,3.95.64,4.81-.03.29-.86-1.57-.88,3.18-.8-2.34-.15-15.7-.34-17.46-.07-.62-1.78,3.29-.12-8.15-.16.13-.32.26-.48.4-.07-6.37-.13-12.74-.2-19.11.37.69,1.1,4.27.94-.24-.09-2.59-.9-.67-.93-.91-.11-1.11-.1-11.07-.08-22.05l31.1,31.1c-12.02-.03-25.27-.08-29.44-.03-2.72.03-10.28.68-10.86.7-3.45.07-15.67-.36-18.11-.27-1.52.06-.07.74-1.43.71-1.26-.03.05-.69-.33-.72-3.11-.24-26.73.62-32.34,0,3.43.19,20.53-1.13,20.19-1.59-.07-.06-4.23-.56-5.09-.32-1.42-.57-6.28,1.16-8.93.82-.3-.04.88-1.01-3.84-1.19-1.63-.06-5.89.7-10.17-.15-6.21.41-38.84-.85-41.08.19-.07.06,4.53.42,1.42.84-4.13.57-.42-1.35-5.23-1.52-.73-.03-14.11.17-14.55.29-4.05,1.08,7.64,1.51,7.48,1.64-.41.32-10.13.51-10.52.43-.38-.08,7.55-1.51-1.97-.96,1.09.17,2.18.34,3.27.51-4.48.33-4.91-.66-5.99-.72-3.37-.19-7.02,1.31-12.43-.54-1.43-.49.94-1.04.76-1.11-1.72-.66-3.91,1.11-6.49-.21-.19-.1,5.81-.89-4.69-.89.72.13,1.45.25,2.17.38-1.48.28-12.11.45-13.54.38-4.18-.2-.53-1.1-4.73-1,2.69,1.25-10.08,1.41-9.34.34-1.78,1.35-12.63.31-17.73.28-3.22-.02-9.78.57-10.8.5-1.25-.08-.87-1-3.12-1.21-.64-.06-7.34.62-13.21-.34-1.14-.18-3.53-1.74-1.41-2.13,3.62-.67,10.48.59,10.39-.33-.1-.99-9.33-.4-11.82-.53-11.47-.59-4.85-1.64-5.14-1.96-.77-.77-7.03-.75-7.29-.82-1.08-.31,3.36-.92,3.42-1.39.08-.61-5.96-1.72-4.59-1.92,1.97-.29,7.52.63,7.87.58,4.58-.59-1.7-2.01-3.43-2.7-.52-.21,1.57-.57,1.13-.63-6.64-.95-1.4,1.99-5.82,1.79-3.94-.18,1.13-1.1.98-1.16-.19-.06-4.91-.11-5.64-.44-.36-.16,11.88-1.97,11.37-2.78-3.91.18-7.82.36-11.72.54-.31-1.06,5.31-.28,5.9-.39,1.17-.22-2.09-.75-1.95-1.09.08-.21,3.91-.97.45-1.28-1.19-.11-3.69.63-8.02-.12,15.07-.97,4.63-1.56,4.18-1.94-.44-.37,6.76-1.26-1.97-1.1-.38-2.06.19-.65,2.67-1.01,3.04-.44-3.99-1.12,7.13-.61-.63-.96-9.57-.9-10.04-.97-.41-.07,1.58-.54.87-.7-8.37-1.86-2.62-1.01-5.05-2.2-.22-.11-8.13-.55-2.1-.72,10.98-.31,15.57,1.05,17.41-1.87-8.12-1.27-17.96.62-20.43.65-3.78.05.14-.55-.33-.72-.16-.05-3.42,0-3.46-.05-2.32-2.23,14.49-.04,19.79-.42-1.42-.33-2.84-.67-4.26-1,1.93-.01,3.85-.03,5.78-.04-9.17-.67-.32-.25,1.96-2.06.51-.4-5.51.29,1.36-.84-5.07-.26-3.45-.63-8.04-.12.12-.72,10.45-1.54,14.52-1.91-14.39-.81-6.18,1.84-18.63.44-2.31.89,3.63.72,3.15.87-1.74.53-5.81-.31-10.72,1.55-.8.31,2.59,1.25-2.42,1.2-.55,0-3.75-.81-3.7-.87.42-.63,3.58-.39,3.71-.66.12-.25-3.4-.1-3.41-.17-.11-.79,2.94-.3,2.5-.55-.96-.54-13.63-2.23,2.91-1.74-13.74.89-1.76.87,3.59.53,1.36-.09,1.71-.56,3.65-.72,2.5-.21,5.43.01,6.72-.07,1.39-.1-6.52-1.21,4.92-.88-5.82-1.11-16.11.07-21.82-.7-11.54-1.57,8.04-1.91,10.09-2.06.54-.04-1.28-.68-.92-.72.59-.06,11.71.23,12.8-.29,1.09-.53-4.07.02-4.41-.52-.23-.37,13.18-1.02,5.92-1.28-5-.17-14.22,1.31-15.78-.28,7.36-.13,14.71-.26,22.07-.4-4.03-.61-8.05-1.21-12.08-1.82,8.26-.19,15.4.49,23.24-.38-18.85-1.94,6.12-1.55,6.39-1.79.09-.14-7.33-1.72-8.52-2.01,6.57-.61,26.55-.9,14.86-2.85,2.12.44,7.26-.65,7.19-.73-.65-.86-11.85-.3-10.03-1.08,2.12-.9,5.08.32,8.34.22,16.71-.51,12.13-5,28.89-4.29-.33-.16-.67-.32-1-.48,18.22.25,36.43.51,54.65.76,7.13-1.37,26.1-2.21,35.41-2.06,1.88.03,11.09.75,11.78.88,1.29.24-5.79.33-2.59.79.68.09,16.27.4,15.15-.37-1.75-.09-7.22.3-8.11.12-6.29-1.29,41.79-.26,44.17-.78-1.06-.25-2.13-.5-3.19-.75,3.03.12,6.07.25,9.1.37ZM148.42,62.83c-1.82.77-6.38.19-9.08.41-3.73.3-10.06,3.27-7.33.3,5.47-.23,10.94-.47,16.41-.7ZM228.36,63.98c-3.67-.41-.82-2.07,2.18-1.38.33.08,2.78,1.94-2.18,1.38ZM189.91,63.19c.15-.02,3.32.02,3.43.05,2.84.67-6.71.53-3.43-.05ZM310.38,68.49c-.07-4.04-1.58-1.11-.96,1.4.04.16.96-1.13.96-1.4ZM310.42,65.62c1.35-3.14-1.39-9.46-1.11-4.44.03.49,1.05,4.58,1.11,4.44ZM215.29,63.32c.41-.52,4.2-.27,5.81-.14-.04.47-4.23.09-5.81.14ZM311.22,63.18c.16-.41-12.99-.38-13.89.15,2.08-.23,13.74.21,13.89-.15ZM310.11,37.76c.07-.33-.04-4.88-.4-4.74-.47,2.22.08,6.25.4,4.74ZM310.09,104.8c.09.25,2.38-3.16.87,4.91-.22,1.18-.82-3.04-.9-2.62-.16.88-.23,1.58-.25,2.14-.19-3.75-.28-7.65-.14-8.03.66-1.77.38,3.5.42,3.61ZM311.79,139.99c.37.77.17,5.71.02,6.84-.03.19-1.01-.65-.94,1.58.06,1.79,1.06-.88.9,2.6-.16,3.52-.88-1.18-.93-.87-.07.41.38,5.85-.2,5.68-.43-.13-.14-5.95-.23-7.39-.12-1.84-.84.39-.68-2.69.1-1.94,1.36-.86,1.43-1.27.05-.34-.68-7.12.62-4.45,0,0,0,0,0,0ZM309.87,110.23c-.04-.28-.07-.61-.06-1.02.02.34.04.68.06,1.02ZM159.01,62.28c1.91.39-3.75.89-5.9.38-.04-.41,5.59-.44,5.9-.38ZM310.9,113.72c-.32,5.58-.75,1.47-1.03-3.48.24,1.57,1.14,1.61,1.03,3.48ZM262.54,62.34c.23.09.38.24.4.48-.62-.26-.67-.41-.4-.48ZM275.55,62.78c4.46-.74-4.6-.71-4.54-.18.03.2,4.37.21,4.54.18ZM310.3,73.67c.07-.41,2.3,5.93.63-3.27-.26,4.91-.5-.27-.7-.19-.56.2-.02,8.45-.26,10.28,1,1.43.1-5.47.34-6.8h0ZM311.25,203.42c-.59-1.12-.4-4.66-.36-7.06.59,1.12.4,4.66.36,7.06ZM58.69,298.4c.54,16.4-1.85,18.52-.9,3.52.02-.29.66-4.51.9-3.52ZM60,380.89c1.55,1.04-3.57,1.21-6.93.78-.76-.1-3.57-1.15-.36-1.36-.1,1.26,4.86,1.75,7.29.58ZM311.57,116.87c.7,1.62.2,6.62.1,9.26-.57-1.61-.31-6.93-.1-9.26ZM57.44,352.29c-.08,1.73.83,2.9.9,2.6.35-1.34-.39-4.57-.9-2.6ZM311.68,100.73c.42-.23.82,6.39-.21,6.85.07-1.42-.05-6.69.21-6.85ZM311.56,198.91c.21-1.03.59,4.3.38,5.91-.44-.13-.52-5.23-.38-5.91ZM57.75,380.12c-.08,1.55-.1,5.42.26,5.84.46.53.3-5.14-.26-5.84ZM56.96,92.09c.16-.2,1.35,5.79,1.05,8.46-.58,5.06-1.17-8.24-1.05-8.46ZM56.97,335.92c.86-4.88.03.54.94.32.03-3.29.08-11.46-.82-5.84-.17,1.09-.06,3.98-.12,5.51ZM56.67,340.43c.29.52,1.22,4.04,1.16,1-.03-1.41-1.06-3.67-1.16-1ZM57.36,129.2c-.8,4.38-.37-15.68-.23-16.26.07-.31.14-.5.2-.62-.26-.74-.3-4.53.34-4.96-.05,1.14,0,4.24-.07,4.6-.03.16-.06.27-.09.35.56,1.34,0,16.05-.16,16.89ZM56.53,162.44c-1.19-5.01.83-5.89.9-5.46.83,5.45-.66,1.9-.73,2.06-.12.38.57,4.25-.16,3.38v.02ZM57.03,136.01c-.03-.21.04-4.41.07-4.58.68-3.45.5,8.45-.07,4.58ZM313.2,166.52c-.2,3.01-.94.06-.68-1.94.03-.16.85-.71.68,1.94ZM56.87,342.83c-.14.7-.67,18.55.45,17.47-.13-1.52.44-21.8-.45-17.47ZM97.07,382.36c-3.15,0,.28-1.07,1.96-.67.62.15-1.17.67-1.96.67ZM312.64,91.8c-.58-3.27,1.37-2.59.7.24-.03.11-.68-.11-.7-.24ZM71.93,381.75c10.85-.64,8.28,2.71-5.83,1.58.44-.15.88-.3,1.32-.45-16.29-.5-1.11-.24,2.87-.42,1.52-.07.24-.63,1.62-.71,0,0,0,0,.01,0ZM113.62,382.42c10.45,2.38-9.5.83-15.23,1.14,5.55-.98,12.77-.83,2.95-1.84,14.37-.19,8.39.75,8.96.83.68.09,2.87-.23,3.32-.13ZM86.05,382.44c-.6.07-5.16-.42-6.8-.34,2.29-.81,10.81-.14,6.8.34ZM57.08,197.28c-.64-.38-1.11-1.31-.87-4.91.32,1.11.6,3.41.87,4.91ZM144.96,59.48c-2.47-.05-7.4-.29-5.89.38.16.06,5.88,0,5.89-.38ZM56.35,394.67c-.08.53-.13,14.14.57,9.44.21-1.42.12-13.8-.57-9.44ZM56.43,324.19c0,1.14.11,5.77.26,5.86.52.31.23-5.37-.26-5.86ZM132.48,58.83c-.33-.07-7.88.05-7.05.36,1.58.58,8.17-.13,7.05-.36ZM314.7,177.47c.02.63-.67,1.47-.68,1.69,0,.51.26,12.08-.63,7.66-.15-.74.19-17.38.28-19.54.95-.84.05,6.27.14,8,.02.3.81.5.88,2.19,0,0,0,0,0,0ZM56.41,178.56c-.6-.51-1-14.11-.27-13.95.09,4.65.18,9.3.27,13.95ZM56.31,185.47c-.43,2.9-.57-3.89-.38-5.9.41-.02.44,5.47.38,5.9ZM54.18,349.98c.15,1.37,1.03-2.84,1.2-1.9.11.6-.22,3.66.05,4.63.09.28.92-2.84.88-3.74-.05-1.28-.7-.04-.7-1.44-.01-4.64.45-8.74.44-13.09,0-.39-.46,2.65-.46-.7,0-.52.69-3.62.58-7.63-2.12-8.84-.04-15.34-.8-26.56-.2.42-.74,8.82-.76,9.31-.35,9.38-.39,26.18-.39,36.01,0,2.52.45,1.3.46,2.38.01.86-.82-.16-.51,2.71ZM146.27,59.02c-1.18-.83-5.32-.31-7.96-.35.93.75,5.38.16,7.96.35ZM55.67,246.51c.03,1.32-.22,5.43.03,5.77.33.44.53-5.49-.03-5.77ZM314.46,242.68c.02.13-.02,3.31-.05,3.44-.67,2.85-.53-6.71.05-3.44ZM314.3,318.91c.1,2.42.36,4.85-.31,5.67.1-1.54-.16-5.95.31-5.67ZM324.93,383.42c.5.88-6.77.31-8.15.23.51-.39,7.78-.87,8.15-.23ZM54.31,197.8c.05-4.45-1.29-3.51-.68-6.33.1-.46,2.89-1.95,1.84,2.94-.19.88-.85-2.56-1.16,3.39ZM63.8,383.3c-1.13.58-4.66.41-7.05.36.54-.43,5.35-.32,7.05-.36ZM118.83,58.16c-2.09-.82-11.72-.21-9.34.33.34.07,7.98-.36,9.34-.33ZM314.23,128.17c.65,3.96.85-4.25.22-6.84.04,1.17-.26,6.57-.22,6.84ZM314.8,398.81c.03.19-.04,4.39-.07,4.58-.68,3.45-.5-8.45.07-4.58ZM315.37,293.84c.53,1.51.1,11.47-.43,13.7-.78-2.15-.24-15.58.43-13.7ZM54.69,216.1c-.03-3.17.14-6.18.37-9.1.45.61-.03,8.76-.37,9.1ZM334.76,383.95c-.23,0-.44-.05-.66-.06.22.02.44.04.66.06ZM54.38,287.1c-.18,2.66.65,2.11.67,1.94.27-2-.47-4.95-.67-1.94ZM143.24,57.8c-.92-.74-5.39-.17-7.96-.34.75.59,5.89.42,7.96.34ZM124.82,383.94c3.34.81-10.25,1.74-13.11,1.22-.21-.5,12.62-1.33,13.11-1.22ZM315.35,115.86c.58-.27-.12-5.97-.4-4.76-.17.77.03,4.92.4,4.76ZM104.87,384.83c-1.28.18-4.25-.4-3.2-.75,1.35-.45,3.53.7,3.2.75ZM53.66,369.47c-.09.56.51,8.07,1.1,4.96.41-2.15-.43-2.49-.43-3,0-.57,1.03-12.62-.67-1.96ZM200.92,384.45c-2.83.22-6.26-.04-9.22-.02,1.21-.36,8.02-.46,9.22.02ZM315.5,137.87c.24-.69.38-19.43-.35-8.78-.04.62-.37,10.87.35,8.78ZM54.31,197.8c0,.56-.03,1.21-.09,1.96.02-.74.06-1.39.09-1.96ZM54.22,248.3c-.42-1.02-.54,4.13-.31,5.66.52.47.37-5.51.31-5.66ZM191.48,385.03c-1.71.24-4.81-.02-6.92.01.36-.39,6.18-.41,6.92-.01ZM311.41,385.47c-3.39-.23-7.57-.13-7.63.36-.07-.08-.23-.16-.51-.24-.28-.08-3.91.15-5.49-.02-9.45-.98,36.49-.57,9.87.79,1.25-.3,2.51-.59,3.76-.89ZM316.51,280.37c.59-1.93-.15-7.32-.38-5.92-.16.97-.21,7.84.38,5.92ZM316.86,354.44c.11-.58-.31-5.84-.62-5.97-.33,3.03.13,8.6.62,5.97ZM317.2,265.57c.09-1.21-.86-2.75-.9-2.61-.35,1.23.37,4.64.9,2.61ZM51.76,207.01c-.27,1.8.41,7.53,1.04,8.78-.12.23-.28.86-.47,2.01h0c-.25,1.54-.53,47.85.68,16.79.04-.97-.52.36-.42-3.6,0-.26.47-.39.49-1.2.05-1.86.34-11.76-.03-13.75.08-.02.17-.15.24-.42.66-2.44-1.31-9.99-1.52-8.6ZM316.94,364.87c.17-1.06,0-4.41-.4-4.76-.2,1.66,0,7.22.4,4.76ZM317.16,137.29c.33-2.16-.29-7.63-.62-5.97-.2,1.01.24,8.46.62,5.97ZM316.72,331.29c-.48,12.38.04,2.95.63,4.85-.21-1.62-.42-3.23-.63-4.85ZM53.29,149.74c-.14,1.97-1.31-.35-.67-2.52.2-.68.75,1.41.67,2.52ZM52.93,60.63c-1.04,1.68-.43-6.54.28-3.34.02.15-.24,3.21-.28,3.34ZM52.5,122.9c.71,1.34.79,2.21.62,5.99-.2-5.59-.82-.41-.62-5.99ZM303.82,385.9s-.04-.05-.04-.08c.02.03.03.05.04.08ZM317.01,253.93c.6-1.55.55-5.89-.05-4.6-.06.12-.39,3.96.05,4.6ZM52.8,215.79c.11-.21.18-.1.24.24-.08.02-.16-.07-.24-.24ZM317.5,277.24c-.45-.16-.62,6.45-.57,6.72.78,3.79.59-3.99.57-6.72ZM317.79,93.59c-.05-.34-1.2,1.86-.75,3.2.35,1.04.93-1.93.75-3.2ZM52.22,110.08c0-2.09,0-5.04.55-5.58-.08,1.4-.15,5.63-.55,5.58ZM52.18,63.85c.64,2.47.64,8.12.54,11.73-.85.07-.34-9.41-.54-11.73ZM52.08,201.34c-.03.17-.29,5.42.28,4.7.83-1.05.03-6.18-.28-4.7ZM317.18,103.78c.39,2.35,1.59-3.05.66-5.53-.47-1.27-.73,5.13-.66,5.53ZM317.8,240.38c-.33-3.1-.91,4.58-.32,5.65.05-1.43.44-4.55.32-5.65ZM318.4,345.74c1.71-9.76-1.41-4.44-1.14-2.71.04.24,1.1,2.95,1.14,2.71ZM94.61,54.74c-1.38.24,3.77,1.1,4.44.53.41-.35-3.55-.68-4.44-.53ZM256.33,386.38c.41,0,.82-.01,1.23-.02-.3.03-.7.04-1.23.02ZM320.09,212.27c-2.42,6.87-.55,6.15-.56,6.74-.03,1.29-.68,4.29-.57,6.72-.27-2.78-.54-5.57-.82-8.35-.17,2.2-1.06,21.3-.67,21.7.56.57.38-5.44.43-5.61.07-.25,1.62-1.19,1.68-1.75.09-.92.13-16.89.51-19.45ZM318.13,325.33c-.18,1.57-.8,2.01-.65,2.74.05.25.64.29.79,1.14-.05-1.29-.09-2.59-.14-3.88ZM317.92,199.97c.72-1.94.44,6.77.36,7.05-.49,1.49-.95-5.46-.36-7.05ZM318.02,273.95c.04-.32.27-7.01-.13-6.96-.3,1.77-.39,10.72.13,6.96ZM318.3,330.26c-.07,2.35-.66,6.8.22,6.29h0c-.07-2.1-.15-4.2-.22-6.29ZM319.04,111.82c1.41-4.36-.37-2.29-.82,1.57.63,1.17.6-.85.82-1.57ZM320.09,97.87c.25-1.21-.02-13.71-.77-11.8-.26.68.4,7.86.35,8.2-.08.5-.9-1.79-.74,2.04.28-.22,1.07,1.98,1.15,1.57ZM319.94,108.21c1.07-4.33-.9-5.3-.91-2.05,0,1.27.75,2.66.91,2.05ZM319.78,125.9c.19-1.56.46-5.71-.2-8.57-.06,3.83-.11,7.66-.17,11.49.37.44.2-1.55.36-2.93h0ZM47.13,37.82c-.56,3.44-.77-4.49-.64-4.82.46-1,.89,3.28.64,4.82ZM67.73,36.83c-.96-.22-1.58-.96-3.69-.57,2.12.54,4.23,1.08,6.35,1.62,1.65-1.24-1.62-.81-2.67-1.05ZM59.65,32.3c.3-.03-1.33-1.94,2.53-.66,2.61.86-11.59,1.7-14.15.85,2.83-.39,9.04.06,11.62-.19ZM34.78,24.04c-.16-.15,5.23-.38,5.85-.27,3.28.57-4.97,1.08-5.85.27ZM51.99,24.41c-2.53-.37,3.07-.61,4.74-.4.16.36-4.35.45-4.74.4ZM19.5,72.68c-1.3,2.74,1.49,5.19.93.97-.03-.2-.87-1.09-.93-.97ZM40.05,22.12c2.53.37-3.07.61-4.74.4-.16-.35,4.36-.45,4.74-.4ZM16.41,74.6c-.93,3.64,2.2,2.36,2.32,1.9.5-1.87-.73-8.29-1.04-9.6.47,9.6-.85,5.99-1.29,7.7ZM18.29,91.37c.33,3.37.97-5.25.1-6.89.04,1.68-.2,5.93-.1,6.89ZM17.29,111.84c-.11,1.81-.38,7.21.11,8.11-.09-1.98.39-7.35-.11-8.11ZM15.81,115.94c-.67,2.83,1.28,3.51.7.25-.02-.13-.66-.35-.7-.25ZM15.11,131.88c-.78,1.86,1.11,3.98,1.16.97.01-.89-1.08-1.17-1.16-.97ZM13.05,79.15c-.33,2.66,1.02,6.09,1.17.41.21,2,.41,3.99.62,5.99.76-7.45-1.12-6.9-1.04-9.04.11-2.99,1.66-2.75,2.14-2.15-.95-2.45-.96-12.86-1.14-18.87-.4,5.29-1.09,13.86-1.34,19.08-.07,1.49.35,2.93.3,4.2-.08,2.04-.69.23-.71.37h0ZM15.08,152.82c-.88,5.47,1.02,2.01.68-1.08-.03-.13-.66.94-.68,1.08ZM32.8,16.35c7.3.79,1.99,1.84,17.27.25-6.42,1.13-.35.81-1.61,1.27-1,.36-4.77.06-2.58.79-2.88-.79-15.37-.57-15.92-.7h.02c-.33-.08.5-1.86,2.83-1.6ZM12.33,111.86c-2.3,1.82,1.35,2.54-.56,6.12,2.77,4.77,0-13.18,2.34-15.35-.27,19.49,2.32-12.88-1.18.73,1.27-11.21-.43-3.67-.88-5.4-.48-1.85.04-8.19-.82-7.87h0c.06,3.89.12,7.77.18,11.65,1.85-3.8,1.29,4.13-.21,6.82.38,1.1.75,2.21,1.13,3.31ZM14.07,89.91c-.04.38.22,8.82.59,8.27.24-1.13-.05-13.1-.59-8.27ZM13.66,52.79c0,3.03-.37,7.71.33,9.36,0-3.03.37-7.71-.33-9.36ZM13.53,208.75c.57,3.86.74-8.03.06-4.59-.03.17-.09,4.4-.06,4.59ZM12.68,120.65c-.7,3.92,1.54,2.07.95-.84-.03-.17-.92.66-.95.84ZM38.72,16.08c.26-.55,10.86-.16,12.73-.17-1.07.51-13.04.8-12.73.17ZM11.61,47.46c-1.97,6.03.31,14.2.26,15.1-.05.89-.91-.51-.94-.3-.05.46.02,9.96.08,10.42.05.33,1.26-1.39,1.64.57-.69-3.82-.26-21.19-.39-22.09-.11-.7-1.38,4.56-.65-3.69h0ZM11.6,64.8c.51-2.37.57,4.28.38,5.89-.42,3.58-.44-5.59-.38-5.89ZM11.13,80.8c-.11.76-.22,7.62.35,8.2.73-3.25-.08-9.92-.35-8.2ZM11.21,157.11c.07,1.78-.36,6.68.13,6.96-.07-1.78.36-6.68-.13-6.96ZM74.87,11.77c-2.96-.41,3.9-.58,5.9-.38.11.33-5.64.42-5.9.38ZM7.95,121.31c-.15,1.05.22,22.57.46,25.58.37-2.95.4-24.27.22-25.24-.05-.28-.65-.48-.68-.35ZM7.73,74.79c-.73-1.97.15-3.26.16-3.51.11-2.44-.05-7.5.65-6.39-.28,4.3.64,13.82-.8,9.9ZM7.92,158.63c.27,7.31,1.04-6.73.28-4.89-.05.12-.3,4.13-.28,4.89ZM7.74,118.91c-.59-1.61-.08-23.13-.08-26.58,1.08,3.09.26,5.59.32,9.74.02,1.12.47.82.47.94.02,1.94-.5.49-.51,1.69,0,.76.63,16.48-.2,14.21ZM7.22,73.66c-.42-1.2-.59-14.64-.48-15.18.82-4.04.63,14.14.48,15.18ZM6.78,120.88c-1.26-2.31-.42-13,.21-5.69.06.7-.49,3.66-.21,5.69ZM6.72,157.85c-.04.36-.29,7.97.11,8.11.16-1.1.3-12.2-.11-8.11ZM5.36,153.91c0,.18.78-1.6.68,1.97,0,.3-.88.85-.56,5.34.07.91.64,2.32.68,2.22,1.36-4.67-1.25-18.75-.8-9.53ZM6.52,73.41c-.37.72-1.46-1.02-.9-2.6.24-.68.89.58.9,2.6ZM6.37,182c-.66-4.43-.78,9.47-.62,10.18.41-.45.68-9.74.62-10.18ZM81.8,6.67h-.01c3.72.15,1.42.7,1.59.72,7.93.81,5.83-.44,7.07-.58,2.66-.32,2.23,1.2,6.72.57-7.42.93-.67.54-.46,1.08.83,2.2-9.87-1.03-13.57-.57-.52.06,3.29.76,1.97.96-4.29.65-17.6-2.74-3.31-2.17ZM5.52,69.6c-.65-1.73-.02-14.83.51-11.36.09.56.43,13.9-.51,11.36ZM302.63,434.39c-3.15.56,4.15,1.21,5.5.78.67-.22-4.12-1.02-5.5-.78ZM367.68,395.19c-.11-3.74-2.44-7.69-2.08-3.03.04.49,1.76,3.46,2.08,3.03ZM108.06,435.58c3.91.83,3.68-.71.81-.69-1.01,0-.93.67-.81.69ZM257.21,435.38c.39.05,4.91-.04,4.74-.4-1.67-.21-7.27.03-4.74.4ZM106.82,435.8c2.32-.28-1.67-1.4-4.5-.3,1.44-.09,4.27.33,4.5.3ZM3.36,128.96c.63,1.94.44,7.43.55,10.58-.82.34-.4-8.33-.55-10.58ZM337.92,435.84c3.54-.58-4.05-1.05-3.35-.29.1.04,3.21.31,3.35.29ZM3.07,361.13c.49,2.58,1.15-5.6.29-3.35-.04.11-.32,3.21-.29,3.35ZM3.35,325.42c-.17,1.95-.11,10.29.36,7.04.07-.5.09-6.9-.36-7.04ZM90.67,6.21c-1.05-.84,5.06-.64,5.93-.5.34.06-4.56,1.59-5.93.5ZM133.44,435.71c2.02-.11,7.27.1,8.19-.35-2.47.09-8.85-.53-8.19.35ZM321.77,435.84c3.08.92,8.36.83,7.05-.37-5.82.08.72,1.08-7.05.37ZM93.8,436.79c1.62.07,2.86-1.08,2.68-1.14-1.76-.52-4.29.69-2.68,1.14ZM215.47,435.84c.09.49,5.29.27,4.6-.05-.23-.11-4.67-.35-4.6.05ZM3.08,197.03c-.45,2.38-.89-4.89-.36-7.04.76-1.05.42,6.74.36,7.04ZM48.84,436.5c-.24.73,7.88.32,4.68-.29-.8-.15-4.6.04-4.68.29ZM1.58,350.2c.87,5.45,1.49-17.43.4-11.42-.08.43-.48,10.95-.4,11.42ZM2.12,312.83c-.1.94-2.55.47-1.6-3.42.12-.51.77,1.88.92,1.46.08-.25.43-8.71.37-9.1-.07-.42-.85.07-.94-.35-.1-.48.59-5.69.6-8.41.01-5.14-.64-5.69-.64-6.12,0-1.23.46-3.29.46-5.78,0-12.55-.56-31.74.83-41.68-.56,8.85.03,17.29.22,26.09-1.37-2.58,1.05,12.96-.52,3.87.34,4.18.62,40.35.32,43.42h0ZM368.37,380.42c.84,2.3.65-9.5-.32-10.5-.13,1.56.22,10.21.32,10.5ZM314.16,439.51c-1.1.15-2.14,1.78-7.88.95h-.02c-1.68-.24.23-.64-.07-.78-.11-.06-5.35-.87-1-1,6.63-.2.62,1.22,4.16,1.24.43,0,7.13-.89,6.74-1.08-.04-.02-2.05.16-2.39.08-1.26-.3-.64-.82-.82-.84-.58-.06-11.17.81-12.71.05-.5-.25,16.88-.81,17.56-.68.43.08.25,1.5.69,1.64.23.07,7.22-.46,8.13-.33.26.04.46.08.61.11-1.06-.44,5.27-.41,5.08.09-.11.19-4.47.08-4.62.05-.07-.01-.13-.03-.18-.05.9.54-13.85.51-10.67,1.31-4.28.44.61-1.17-2.61-.74ZM293.6,440.38c.44-.15.88-.3,1.32-.45-7.49.37-16.13-.35-24.75-.35-2.19,0,.33.91-2.54.66-2.3-.2-4.84-1.05-3.59-1.24.31-.05,4.98.5,7.33.45,6.91-.17,5.17-.95,5.57-.97.45-.02,4.8.53,7.17.5,5.97-.06,8.7-.54,16.87.08-4.71.52-2.13,1.64-7.38,1.3ZM.24,393.66c-.49-.28-.06-5.18-.13-6.96.49.28.06,5.18.13,6.96ZM311.54,2.46c-1.51.81,9.77,1.01,6.8.34-.66-.15-5.38-.33-6.8-.34ZM369.77,55.02c.22,1.51.81-4.57.18-4.56-.2,0-.21,4.36-.18,4.56ZM196.82,439.59c-.29.03-4.44-.16-4.57-.2-2.75-.86,10.91-.36,4.57.2ZM370.76,116.62c-.53-5.26-.76,10.57-.08,5.73.03-.24.11-5.48.08-5.73ZM370.91,138.63c-.03-1.26.24-6.86-.01-6.93-.4-.11-.67,6.3.01,6.93ZM92.71,439.84c.61.91-6.78.22-9.34.34-.61-.91,6.78-.22,9.34-.34ZM139.3,440.52c-31.12.72-24.26-1.23,1.85-.44.04.58.11.4-1.85.44ZM99.45,440.41c1.13-.58,4.67-.41,7.05-.36-.43.41-5.33.26-7.05.36ZM298.11,1.21c1.95-.74,10.6.17,9.06.48-.36.07-9.78-.07-9.06-.48ZM194.21,440.37c.72.89-8.62.52-9.34.33-2.88-.79,8.58-.13,9.34-.33ZM48.53,440.62c-1.65.69-6.34.34-9.35.33,1.37-.59,6.79-.34,9.35-.33ZM70.29,441.17c-.19.03-4.39-.04-4.58-.07-3.44-.68,8.45-.5,4.58.07ZM76.63,0c.14-.02,3.32.02,3.44.05,2.84.67-6.71.53-3.44-.05Z"/>
  </g>
</svg>