<svg width="528" height="429" viewBox="0 0 528 429" fill="none" xmlns="http://www.w3.org/2000/svg">
<g clip-path="url(#clip0_453_10582)">
<path d="M218.506 164.75L222.386 148.93H234.916L234.386 151.07H224.906L223.746 155.71H231.936L231.436 157.8H223.236L222.046 162.61H231.556L231.026 164.75H218.506Z" fill="#898989"/>
<path d="M238.146 164.75L242.026 148.93H245.036L241.156 164.75H238.146Z" fill="#898989"/>
<path d="M249.346 164.75L253.226 148.93H261.576C262.866 148.93 263.856 149.06 264.546 149.31C265.246 149.56 265.726 149.92 266.016 150.38C266.296 150.84 266.436 151.39 266.436 152.04C266.436 152.22 266.426 152.42 266.396 152.64C266.366 152.85 266.336 153.08 266.286 153.32C266.246 153.56 266.186 153.79 266.116 154.02C265.956 154.6 265.776 155.13 265.576 155.59C265.376 156.06 265.136 156.47 264.866 156.82C264.596 157.17 264.246 157.47 263.826 157.72C263.406 157.97 262.886 158.16 262.266 158.29L263.746 164.75H260.626L259.436 158.61C259.246 158.61 259.046 158.61 258.846 158.62C258.646 158.62 258.436 158.63 258.226 158.63H253.866L252.356 164.75H249.346ZM254.366 156.57H258.986C259.796 156.57 260.446 156.52 260.946 156.41C261.436 156.3 261.826 156.14 262.096 155.92C262.366 155.7 262.576 155.41 262.726 155.06C262.876 154.71 263.006 154.29 263.106 153.82C263.196 153.54 263.256 153.29 263.286 153.06C263.326 152.83 263.336 152.62 263.336 152.44C263.336 152.13 263.256 151.87 263.086 151.66C262.916 151.45 262.626 151.29 262.216 151.19C261.806 151.09 261.226 151.04 260.486 151.04H255.726L254.356 156.58L254.366 156.57Z" fill="#898989"/>
<path d="M300.585 164.94C299.825 164.94 299.025 164.92 298.195 164.89C297.355 164.86 296.535 164.82 295.725 164.76C294.915 164.71 294.185 164.65 293.535 164.59L294.035 162.5C294.655 162.55 295.315 162.59 296.015 162.64C296.715 162.69 297.405 162.72 298.065 162.76C298.725 162.8 299.295 162.81 299.765 162.81C300.365 162.81 300.885 162.81 301.325 162.79C301.765 162.77 302.155 162.74 302.485 162.67C302.815 162.61 303.115 162.52 303.385 162.39C303.615 162.28 303.805 162.13 303.965 161.93C304.125 161.73 304.265 161.5 304.385 161.24C304.505 160.98 304.605 160.72 304.675 160.45C304.745 160.18 304.795 159.93 304.835 159.69C304.865 159.45 304.885 159.26 304.885 159.1C304.885 158.84 304.815 158.64 304.675 158.51C304.535 158.38 304.295 158.28 303.965 158.22C303.635 158.16 303.175 158.1 302.595 158.04L298.315 157.51C297.205 157.39 296.455 157.11 296.055 156.67C295.655 156.23 295.465 155.64 295.465 154.89C295.465 154.61 295.485 154.31 295.535 153.97C295.575 153.63 295.645 153.29 295.735 152.94C295.985 152.02 296.315 151.28 296.735 150.73C297.155 150.18 297.685 149.76 298.305 149.48C298.935 149.2 299.655 149.01 300.485 148.91C301.315 148.81 302.245 148.76 303.285 148.76C304.045 148.76 304.805 148.78 305.585 148.81C306.355 148.84 307.095 148.89 307.775 148.95C308.465 149.01 309.035 149.08 309.495 149.16L309.015 151.18C308.525 151.12 307.955 151.07 307.325 151.03C306.695 150.99 306.055 150.96 305.405 150.94C304.765 150.92 304.145 150.91 303.565 150.91C302.985 150.91 302.445 150.93 301.995 150.96C301.545 150.99 301.165 151.04 300.845 151.1C300.525 151.16 300.245 151.25 299.995 151.38C299.745 151.5 299.535 151.68 299.345 151.9C299.165 152.12 299.015 152.37 298.895 152.65C298.785 152.93 298.705 153.21 298.655 153.49C298.615 153.77 298.585 154.04 298.585 154.28C298.585 154.65 298.725 154.89 298.995 155.02C299.265 155.14 299.755 155.24 300.465 155.32L304.585 155.76C305.255 155.84 305.845 155.95 306.365 156.09C306.885 156.24 307.295 156.49 307.595 156.85C307.895 157.21 308.045 157.75 308.045 158.47C308.045 158.64 308.045 158.83 308.015 159.04C307.995 159.25 307.965 159.48 307.925 159.72C307.885 159.96 307.825 160.21 307.755 160.49C307.495 161.53 307.135 162.36 306.695 162.97C306.255 163.58 305.735 164.03 305.135 164.32C304.535 164.6 303.855 164.78 303.105 164.86C302.345 164.94 301.505 164.98 300.565 164.98L300.585 164.94Z" fill="#898989"/>
<path d="M287.727 149.88L285.447 152.16C285.477 152.32 285.497 152.49 285.497 152.68C285.497 153.12 285.437 153.69 285.327 154.37C285.217 155.05 285.027 155.88 284.757 156.84C284.477 158 284.217 158.96 283.977 159.71C283.737 160.46 283.487 161.05 283.227 161.47C282.967 161.89 282.637 162.19 282.247 162.38C281.857 162.56 281.367 162.68 280.777 162.72C280.187 162.77 279.447 162.79 278.547 162.79C277.547 162.79 276.737 162.76 276.137 162.71C275.727 162.67 275.397 162.59 275.137 162.45L273.227 164.36C273.507 164.47 273.827 164.56 274.187 164.62C275.207 164.82 276.617 164.92 278.417 164.92C279.857 164.92 281.057 164.85 282.007 164.72C282.957 164.59 283.737 164.36 284.347 164.03C284.957 163.7 285.457 163.24 285.837 162.64C286.227 162.04 286.567 161.27 286.867 160.33C287.167 159.39 287.487 158.24 287.817 156.89C288.067 155.88 288.257 155 288.387 154.26C288.517 153.52 288.587 152.86 288.587 152.29C288.587 151.34 288.377 150.61 287.957 150.09C287.887 150.01 287.807 149.93 287.727 149.85V149.88Z" fill="#D1D1D1"/>
<path d="M274.436 160.9C274.436 160.62 274.476 160.32 274.536 159.98C274.606 159.59 274.696 159.13 274.816 158.6C274.926 158.07 275.066 157.49 275.226 156.84C275.506 155.68 275.766 154.72 275.996 153.97C276.226 153.22 276.476 152.63 276.736 152.21C276.996 151.79 277.326 151.49 277.726 151.3C278.126 151.11 278.616 151 279.216 150.96C279.816 150.91 280.566 150.89 281.466 150.89C282.456 150.89 283.236 150.92 283.836 150.97C284.006 150.99 284.166 151.01 284.306 151.05L286.206 149.15C286.076 149.12 285.946 149.09 285.816 149.06C284.806 148.86 283.396 148.76 281.596 148.76C280.156 148.76 278.946 148.82 277.986 148.94C277.026 149.06 276.236 149.29 275.616 149.62C274.996 149.95 274.496 150.42 274.106 151.02C273.716 151.63 273.386 152.4 273.106 153.34C272.826 154.28 272.526 155.43 272.206 156.78C271.956 157.79 271.766 158.68 271.616 159.44C271.466 160.2 271.396 160.86 271.396 161.43C271.396 162.28 271.576 162.94 271.916 163.44L274.436 160.92V160.9Z" fill="#D1D1D1"/>
<path d="M288.226 104.71L263.496 80L238.776 104.71C237.186 106.3 237.186 108.88 238.776 110.46L258.896 130.57L251.986 137.47L256.596 142.07L263.506 135.17L270.416 142.07L275.026 137.47L268.116 130.57L288.236 110.46C289.826 108.87 289.826 106.29 288.236 104.71H288.226ZM263.496 125.96L245.106 107.58L263.496 89.2L281.886 107.58L263.496 125.96Z" fill="#D1D1D1"/>
</g>
<path d="M221.314 182.94L223.666 171.932H226.066L227.826 179.884H227.906L233.058 171.932H235.538L233.186 182.94H231.41L233.154 174.732H233.074L227.826 182.94H226.61L224.866 174.732H224.77L223.042 182.94H221.314ZM240.654 183.068C239.566 183.068 238.712 182.999 238.094 182.86C237.475 182.721 237.038 182.476 236.782 182.124C236.526 181.772 236.398 181.271 236.398 180.62C236.398 180.225 236.44 179.767 236.526 179.244C236.622 178.711 236.744 178.092 236.894 177.388C237.086 176.449 237.267 175.655 237.438 175.004C237.608 174.343 237.811 173.804 238.046 173.388C238.28 172.961 238.584 172.636 238.958 172.412C239.331 172.177 239.806 172.017 240.382 171.932C240.968 171.847 241.699 171.804 242.574 171.804C243.662 171.804 244.51 171.873 245.118 172.012C245.736 172.151 246.174 172.401 246.43 172.764C246.686 173.116 246.814 173.623 246.814 174.284C246.814 174.679 246.771 175.137 246.686 175.66C246.611 176.172 246.499 176.78 246.35 177.484C246.147 178.423 245.955 179.223 245.774 179.884C245.592 180.535 245.384 181.068 245.15 181.484C244.915 181.9 244.611 182.225 244.238 182.46C243.875 182.684 243.406 182.844 242.83 182.94C242.254 183.025 241.528 183.068 240.654 183.068ZM240.734 181.58C241.278 181.58 241.726 181.564 242.078 181.532C242.44 181.5 242.739 181.42 242.974 181.292C243.208 181.164 243.406 180.956 243.566 180.668C243.726 180.369 243.875 179.959 244.014 179.436C244.163 178.913 244.323 178.247 244.494 177.436C244.654 176.764 244.766 176.193 244.83 175.724C244.904 175.244 244.942 174.849 244.942 174.54C244.942 174.135 244.862 173.847 244.702 173.676C244.542 173.495 244.28 173.388 243.918 173.356C243.566 173.313 243.091 173.292 242.494 173.292C241.95 173.292 241.496 173.308 241.134 173.34C240.771 173.372 240.467 173.452 240.222 173.58C239.987 173.708 239.79 173.921 239.63 174.22C239.47 174.508 239.32 174.913 239.182 175.436C239.043 175.959 238.888 176.625 238.718 177.436C238.622 177.884 238.536 178.295 238.462 178.668C238.398 179.031 238.344 179.351 238.302 179.628C238.259 179.895 238.238 180.135 238.238 180.348C238.238 180.743 238.318 181.031 238.478 181.212C238.648 181.383 238.915 181.489 239.278 181.532C239.64 181.564 240.126 181.58 240.734 181.58ZM252.466 183.068C251.474 183.068 250.685 182.999 250.098 182.86C249.522 182.711 249.106 182.46 248.85 182.108C248.594 181.745 248.466 181.255 248.466 180.636C248.466 180.316 248.498 179.943 248.562 179.516C248.637 179.089 248.728 178.609 248.834 178.076L250.13 171.932H251.954L250.546 178.588C250.472 178.993 250.402 179.34 250.338 179.628C250.285 179.916 250.258 180.167 250.258 180.38C250.258 180.7 250.328 180.945 250.466 181.116C250.605 181.287 250.834 181.409 251.154 181.484C251.485 181.548 251.933 181.58 252.498 181.58C253.106 181.58 253.592 181.543 253.954 181.468C254.317 181.383 254.6 181.239 254.802 181.036C255.005 180.823 255.17 180.519 255.298 180.124C255.426 179.729 255.554 179.217 255.682 178.588L257.09 171.932H258.914L257.618 178.076C257.458 178.876 257.298 179.564 257.138 180.14C256.978 180.716 256.786 181.196 256.562 181.58C256.349 181.953 256.066 182.252 255.714 182.476C255.373 182.689 254.941 182.844 254.418 182.94C253.896 183.025 253.245 183.068 252.466 183.068ZM259.533 182.94L261.885 171.932H263.757L267.325 179.708H267.437L269.101 171.932H270.861L268.509 182.94H266.781L263.117 174.844H263.021L261.293 182.94H259.533ZM273.805 182.94L275.821 173.484H272.365L272.701 171.932H281.437L281.101 173.484H277.645L275.645 182.94H273.805ZM278.802 182.94L285.266 171.932H287.618L289.41 182.94H287.602L287.138 180.188H282.29L280.658 182.94H278.802ZM283.058 178.732H286.962L286.146 173.676H286.05L283.058 178.732ZM291.283 182.94L293.635 171.932H295.459L293.107 182.94H291.283ZM296.095 182.94L298.447 171.932H300.319L303.887 179.708H303.999L305.663 171.932H307.423L305.071 182.94H303.343L299.679 174.844H299.583L297.855 182.94H296.095Z" fill="#50A1B0"/>
<path d="M264 188.94V229.44" stroke="#50A1B0"/>
<path d="M264 229.44L330.125 229.516" stroke="#50A1B0"/>
<path d="M264 229.516V270.016" stroke="#50A1B0"/>
<g clip-path="url(#clip1_453_10582)">
<path d="M263.99 323.876L239.91 299.786C238.34 298.216 238.34 295.676 239.91 294.106L263.99 270.016H264L288.09 294.106C289.66 295.676 289.66 298.216 288.09 299.786L264 323.876H263.99ZM241.2 299.016L264 321.816H264.01L286.81 299.016C287.95 297.876 287.95 296.026 286.81 294.886L264.01 272.086H264L241.2 294.886C240.06 296.026 240.06 297.876 241.2 299.016Z" fill="#D1D1D1"/>
</g>
<path d="M224.688 342.376L227.04 331.368H229.44L231.2 339.32H231.28L236.432 331.368H238.912L236.56 342.376H234.784L236.528 334.168H236.448L231.2 342.376H229.984L228.24 334.168H228.144L226.416 342.376H224.688ZM242.108 342.504C241.489 342.504 240.982 342.44 240.588 342.312C240.204 342.184 239.921 341.96 239.74 341.64C239.558 341.31 239.468 340.862 239.468 340.296C239.468 340.03 239.489 339.726 239.532 339.384C239.585 339.032 239.66 338.643 239.756 338.216C239.926 337.395 240.108 336.723 240.3 336.2C240.502 335.667 240.737 335.246 241.004 334.936C241.281 334.627 241.612 334.408 241.996 334.28C242.38 334.152 242.844 334.088 243.388 334.088C243.836 334.088 244.236 334.12 244.588 334.184C244.95 334.248 245.254 334.366 245.5 334.536C245.745 334.696 245.916 334.926 246.012 335.224H246.124L246.444 334.216H248.028L246.3 342.376H244.732L244.908 341.256H244.812C244.598 341.608 244.348 341.88 244.06 342.072C243.772 342.254 243.462 342.371 243.132 342.424C242.801 342.478 242.46 342.504 242.108 342.504ZM242.876 341.096C243.238 341.096 243.542 341.064 243.788 341C244.033 340.926 244.241 340.824 244.412 340.696C244.582 340.568 244.721 340.398 244.828 340.184C244.913 340.046 244.993 339.864 245.068 339.64C245.153 339.416 245.233 339.176 245.308 338.92C245.382 338.664 245.452 338.403 245.516 338.136C245.58 337.87 245.628 337.619 245.66 337.384C245.692 337.139 245.708 336.936 245.708 336.776C245.708 336.318 245.58 335.992 245.324 335.8C245.078 335.608 244.641 335.512 244.012 335.512C243.585 335.512 243.233 335.544 242.956 335.608C242.678 335.662 242.449 335.784 242.268 335.976C242.097 336.158 241.948 336.435 241.82 336.808C241.702 337.182 241.574 337.678 241.436 338.296C241.361 338.68 241.297 339.016 241.244 339.304C241.201 339.582 241.18 339.822 241.18 340.024C241.18 340.334 241.233 340.563 241.34 340.712C241.457 340.862 241.638 340.963 241.884 341.016C242.14 341.07 242.47 341.096 242.876 341.096ZM248.762 342.376L250.49 334.216H252.058L251.882 335.336H251.994C252.164 335.07 252.367 334.846 252.602 334.664C252.847 334.483 253.146 334.344 253.498 334.248C253.85 334.142 254.26 334.088 254.73 334.088C255.38 334.088 255.882 334.158 256.234 334.296C256.596 334.424 256.847 334.632 256.986 334.92C257.124 335.198 257.194 335.555 257.194 335.992C257.194 336.184 257.178 336.419 257.146 336.696C257.114 336.963 257.066 337.246 257.002 337.544L255.962 342.376H254.282L255.242 337.832C255.295 337.544 255.343 337.283 255.386 337.048C255.428 336.814 255.45 336.622 255.45 336.472C255.45 336.195 255.396 335.992 255.29 335.864C255.183 335.726 255.018 335.635 254.794 335.592C254.58 335.55 254.287 335.528 253.914 335.528C253.434 335.528 253.044 335.592 252.746 335.72C252.458 335.838 252.223 336.014 252.042 336.248C251.871 336.472 251.732 336.75 251.626 337.08C251.53 337.411 251.439 337.784 251.354 338.2L250.442 342.376H248.762ZM260.702 332.104L261.054 330.488H262.83L262.494 332.104H260.702ZM258.574 342.376L260.302 334.216H262.014L260.286 342.376H258.574ZM262.871 342.376L265.383 330.488H267.095L264.583 342.376H262.871ZM267.09 342.376L269.602 330.488H271.314L268.802 342.376H267.09ZM274.077 342.504C273.458 342.504 272.951 342.44 272.557 342.312C272.173 342.184 271.89 341.96 271.709 341.64C271.527 341.31 271.437 340.862 271.437 340.296C271.437 340.03 271.458 339.726 271.501 339.384C271.554 339.032 271.629 338.643 271.725 338.216C271.895 337.395 272.077 336.723 272.269 336.2C272.471 335.667 272.706 335.246 272.973 334.936C273.25 334.627 273.581 334.408 273.965 334.28C274.349 334.152 274.813 334.088 275.357 334.088C275.805 334.088 276.205 334.12 276.557 334.184C276.919 334.248 277.223 334.366 277.469 334.536C277.714 334.696 277.885 334.926 277.981 335.224H278.093L278.413 334.216H279.997L278.269 342.376H276.701L276.877 341.256H276.781C276.567 341.608 276.317 341.88 276.029 342.072C275.741 342.254 275.431 342.371 275.101 342.424C274.77 342.478 274.429 342.504 274.077 342.504ZM274.845 341.096C275.207 341.096 275.511 341.064 275.757 341C276.002 340.926 276.21 340.824 276.381 340.696C276.551 340.568 276.69 340.398 276.797 340.184C276.882 340.046 276.962 339.864 277.037 339.64C277.122 339.416 277.202 339.176 277.277 338.92C277.351 338.664 277.421 338.403 277.485 338.136C277.549 337.87 277.597 337.619 277.629 337.384C277.661 337.139 277.677 336.936 277.677 336.776C277.677 336.318 277.549 335.992 277.293 335.8C277.047 335.608 276.61 335.512 275.981 335.512C275.554 335.512 275.202 335.544 274.924 335.608C274.647 335.662 274.418 335.784 274.237 335.976C274.066 336.158 273.917 336.435 273.789 336.808C273.671 337.182 273.543 337.678 273.405 338.296C273.33 338.68 273.266 339.016 273.213 339.304C273.17 339.582 273.149 339.822 273.149 340.024C273.149 340.334 273.202 340.563 273.309 340.712C273.426 340.862 273.607 340.963 273.853 341.016C274.109 341.07 274.439 341.096 274.845 341.096ZM280.73 342.376L282.458 334.216H284.026L283.754 335.768H283.85C284.096 335.31 284.368 334.963 284.666 334.728C284.965 334.483 285.306 334.318 285.69 334.232C286.074 334.136 286.506 334.088 286.986 334.088L286.634 335.704C286.058 335.704 285.568 335.774 285.162 335.912C284.768 336.051 284.442 336.259 284.186 336.536C283.941 336.814 283.733 337.16 283.562 337.576C283.402 337.992 283.264 338.472 283.146 339.016L282.41 342.376H280.73ZM290.453 342.504C289.631 342.504 288.981 342.44 288.501 342.312C288.021 342.174 287.679 341.96 287.477 341.672C287.285 341.374 287.189 340.984 287.189 340.504C287.189 340.216 287.215 339.891 287.269 339.528C287.333 339.155 287.413 338.75 287.509 338.312C287.669 337.576 287.839 336.942 288.021 336.408C288.213 335.875 288.463 335.438 288.773 335.096C289.082 334.744 289.498 334.488 290.021 334.328C290.543 334.168 291.215 334.088 292.037 334.088C292.773 334.088 293.349 334.158 293.765 334.296C294.181 334.424 294.474 334.627 294.645 334.904C294.815 335.182 294.901 335.534 294.901 335.96C294.901 336.152 294.885 336.371 294.853 336.616C294.831 336.862 294.794 337.128 294.741 337.416C294.687 337.694 294.623 337.992 294.549 338.312L294.421 338.856H289.093C289.039 339.123 288.991 339.363 288.949 339.576C288.917 339.779 288.901 339.96 288.901 340.12C288.901 340.387 288.965 340.59 289.093 340.728C289.231 340.867 289.455 340.963 289.765 341.016C290.085 341.07 290.527 341.096 291.093 341.096C291.338 341.096 291.61 341.091 291.909 341.08C292.207 341.07 292.506 341.048 292.805 341.016C293.114 340.984 293.397 340.958 293.653 340.936L293.365 342.264C293.13 342.307 292.847 342.344 292.517 342.376C292.186 342.419 291.839 342.451 291.477 342.472C291.125 342.494 290.783 342.504 290.453 342.504ZM289.349 337.688H293.029L293.061 337.512C293.114 337.278 293.151 337.075 293.173 336.904C293.194 336.734 293.205 336.579 293.205 336.44C293.205 336.174 293.151 335.976 293.045 335.848C292.949 335.71 292.794 335.619 292.581 335.576C292.367 335.523 292.085 335.496 291.733 335.496C291.306 335.496 290.959 335.528 290.693 335.592C290.426 335.646 290.213 335.752 290.053 335.912C289.893 336.072 289.759 336.296 289.653 336.584C289.546 336.862 289.445 337.23 289.349 337.688ZM299.256 342.504C298.915 342.504 298.541 342.494 298.136 342.472C297.741 342.451 297.357 342.424 296.984 342.392C296.611 342.36 296.275 342.328 295.976 342.296L296.248 341.016C296.515 341.038 296.765 341.059 297 341.08C297.235 341.102 297.464 341.123 297.688 341.144C297.923 341.155 298.147 341.166 298.36 341.176C298.584 341.176 298.813 341.176 299.048 341.176C299.56 341.176 299.949 341.144 300.216 341.08C300.493 341.006 300.696 340.894 300.824 340.744C300.952 340.584 301.048 340.376 301.112 340.12C301.155 340.014 301.187 339.912 301.208 339.816C301.229 339.72 301.24 339.635 301.24 339.56C301.24 339.358 301.171 339.23 301.032 339.176C300.893 339.123 300.669 339.08 300.36 339.048L298.216 338.776C297.693 338.702 297.331 338.552 297.128 338.328C296.925 338.104 296.824 337.795 296.824 337.4C296.824 337.304 296.835 337.166 296.856 336.984C296.877 336.792 296.909 336.6 296.952 336.408C297.069 335.875 297.229 335.454 297.432 335.144C297.645 334.835 297.901 334.606 298.2 334.456C298.499 334.307 298.851 334.211 299.256 334.168C299.661 334.115 300.12 334.088 300.632 334.088C300.963 334.088 301.304 334.099 301.656 334.12C302.008 334.142 302.349 334.168 302.68 334.2C303.011 334.232 303.288 334.27 303.512 334.312L303.256 335.592C302.957 335.55 302.664 335.518 302.376 335.496C302.099 335.475 301.821 335.459 301.544 335.448C301.267 335.427 300.995 335.416 300.728 335.416C300.365 335.416 300.045 335.432 299.768 335.464C299.491 335.486 299.256 335.555 299.064 335.672C298.872 335.79 298.728 335.982 298.632 336.248C298.589 336.344 298.552 336.451 298.52 336.568C298.488 336.675 298.472 336.798 298.472 336.936C298.472 337.128 298.536 337.256 298.664 337.32C298.792 337.384 299.016 337.432 299.336 337.464L301.448 337.736C301.768 337.768 302.035 337.827 302.248 337.912C302.461 337.998 302.621 338.131 302.728 338.312C302.845 338.494 302.904 338.75 302.904 339.08C302.904 339.187 302.893 339.336 302.872 339.528C302.851 339.71 302.813 339.907 302.76 340.12C302.643 340.643 302.488 341.064 302.296 341.384C302.115 341.704 301.88 341.944 301.592 342.104C301.315 342.264 300.984 342.371 300.6 342.424C300.216 342.478 299.768 342.504 299.256 342.504Z" fill="#454545"/>
<defs>
<clipPath id="clip0_453_10582">
<rect width="90.99" height="84.94" fill="white" transform="translate(218.506 80)"/>
</clipPath>
<clipPath id="clip1_453_10582">
<rect width="50.54" height="53.86" fill="white" transform="translate(238.73 270.016)"/>
</clipPath>
</defs>
</svg>
