<svg width="530" height="270" viewBox="0 0 530 270" fill="none" xmlns="http://www.w3.org/2000/svg">
<g clip-path="url(#clip0_178_1605)">
<path d="M219.505 85.4997L223.385 69.6797H235.915L235.385 71.8197H225.905L224.745 76.4597H232.935L232.435 78.5497H224.235L223.045 83.3597H232.555L232.025 85.4997H219.505Z" fill="#898989"/>
<path d="M239.145 85.4997L243.025 69.6797H246.035L242.155 85.4997H239.145Z" fill="#898989"/>
<path d="M250.345 85.4997L254.225 69.6797H262.575C263.865 69.6797 264.855 69.8097 265.545 70.0597C266.245 70.3097 266.725 70.6697 267.015 71.1297C267.295 71.5897 267.435 72.1397 267.435 72.7897C267.435 72.9697 267.425 73.1697 267.395 73.3897C267.365 73.5997 267.335 73.8297 267.285 74.0697C267.245 74.3097 267.185 74.5397 267.115 74.7697C266.955 75.3497 266.775 75.8797 266.575 76.3397C266.375 76.8097 266.135 77.2197 265.865 77.5697C265.595 77.9197 265.245 78.2197 264.825 78.4697C264.405 78.7197 263.885 78.9097 263.265 79.0397L264.745 85.4997H261.625L260.435 79.3597C260.245 79.3597 260.045 79.3597 259.845 79.3697C259.645 79.3697 259.435 79.3797 259.225 79.3797H254.865L253.355 85.4997H250.345ZM255.365 77.3197H259.985C260.795 77.3197 261.445 77.2697 261.945 77.1597C262.435 77.0497 262.825 76.8897 263.095 76.6697C263.365 76.4497 263.575 76.1597 263.725 75.8097C263.875 75.4597 264.005 75.0397 264.105 74.5697C264.195 74.2897 264.255 74.0397 264.285 73.8097C264.325 73.5797 264.335 73.3697 264.335 73.1897C264.335 72.8797 264.255 72.6197 264.085 72.4097C263.915 72.1997 263.625 72.0397 263.215 71.9397C262.805 71.8397 262.225 71.7897 261.485 71.7897H256.725L255.355 77.3297L255.365 77.3197Z" fill="#898989"/>
<path d="M301.585 85.6898C300.825 85.6898 300.025 85.6698 299.195 85.6398C298.355 85.6098 297.535 85.5698 296.725 85.5098C295.915 85.4598 295.185 85.3998 294.535 85.3398L295.035 83.2498C295.655 83.2998 296.315 83.3398 297.015 83.3898C297.715 83.4398 298.405 83.4698 299.065 83.5098C299.725 83.5498 300.295 83.5598 300.765 83.5598C301.365 83.5598 301.885 83.5598 302.325 83.5398C302.765 83.5198 303.155 83.4898 303.485 83.4198C303.815 83.3598 304.115 83.2698 304.385 83.1398C304.615 83.0298 304.805 82.8798 304.965 82.6798C305.125 82.4798 305.265 82.2498 305.385 81.9898C305.505 81.7298 305.605 81.4698 305.675 81.1998C305.745 80.9298 305.795 80.6798 305.835 80.4398C305.865 80.1998 305.885 80.0098 305.885 79.8498C305.885 79.5898 305.815 79.3898 305.675 79.2598C305.535 79.1298 305.295 79.0298 304.965 78.9698C304.635 78.9098 304.175 78.8498 303.595 78.7898L299.315 78.2598C298.205 78.1398 297.455 77.8598 297.055 77.4198C296.655 76.9798 296.465 76.3898 296.465 75.6398C296.465 75.3598 296.485 75.0598 296.535 74.7198C296.575 74.3798 296.645 74.0398 296.735 73.6898C296.985 72.7698 297.315 72.0298 297.735 71.4798C298.155 70.9298 298.685 70.5098 299.305 70.2298C299.935 69.9498 300.655 69.7598 301.485 69.6598C302.315 69.5598 303.245 69.5098 304.285 69.5098C305.045 69.5098 305.805 69.5298 306.585 69.5598C307.355 69.5898 308.095 69.6398 308.775 69.6998C309.465 69.7598 310.035 69.8298 310.495 69.9098L310.015 71.9298C309.525 71.8698 308.955 71.8198 308.325 71.7798C307.695 71.7398 307.055 71.7098 306.405 71.6898C305.765 71.6698 305.145 71.6598 304.565 71.6598C303.985 71.6598 303.445 71.6798 302.995 71.7098C302.545 71.7398 302.165 71.7898 301.845 71.8498C301.525 71.9098 301.245 71.9998 300.995 72.1298C300.745 72.2498 300.535 72.4298 300.345 72.6498C300.165 72.8698 300.015 73.1198 299.895 73.3998C299.785 73.6798 299.705 73.9598 299.655 74.2398C299.615 74.5198 299.585 74.7898 299.585 75.0298C299.585 75.3998 299.725 75.6398 299.995 75.7698C300.265 75.8898 300.755 75.9898 301.465 76.0698L305.585 76.5098C306.255 76.5898 306.845 76.6998 307.365 76.8398C307.885 76.9898 308.295 77.2398 308.595 77.5998C308.895 77.9598 309.045 78.4998 309.045 79.2198C309.045 79.3898 309.045 79.5798 309.015 79.7898C308.995 79.9998 308.965 80.2298 308.925 80.4698C308.885 80.7098 308.825 80.9598 308.755 81.2398C308.495 82.2798 308.135 83.1098 307.695 83.7198C307.255 84.3298 306.735 84.7798 306.135 85.0698C305.535 85.3498 304.855 85.5298 304.105 85.6098C303.345 85.6898 302.505 85.7298 301.565 85.7298L301.585 85.6898Z" fill="#898989"/>
<path d="M288.725 70.6296L286.445 72.9096C286.475 73.0696 286.495 73.2396 286.495 73.4296C286.495 73.8696 286.435 74.4396 286.325 75.1196C286.215 75.7996 286.025 76.6296 285.755 77.5896C285.475 78.7496 285.215 79.7096 284.975 80.4596C284.735 81.2096 284.485 81.7996 284.225 82.2196C283.965 82.6396 283.635 82.9396 283.245 83.1296C282.855 83.3096 282.365 83.4296 281.775 83.4696C281.185 83.5196 280.445 83.5396 279.545 83.5396C278.545 83.5396 277.735 83.5096 277.135 83.4596C276.725 83.4196 276.395 83.3396 276.135 83.1996L274.225 85.1096C274.505 85.2196 274.825 85.3096 275.185 85.3696C276.205 85.5696 277.615 85.6696 279.415 85.6696C280.855 85.6696 282.055 85.5996 283.005 85.4696C283.955 85.3396 284.735 85.1096 285.345 84.7796C285.955 84.4496 286.455 83.9896 286.835 83.3896C287.225 82.7896 287.565 82.0196 287.865 81.0796C288.165 80.1396 288.485 78.9896 288.815 77.6396C289.065 76.6296 289.255 75.7496 289.385 75.0096C289.515 74.2696 289.585 73.6096 289.585 73.0396C289.585 72.0896 289.375 71.3596 288.955 70.8396C288.885 70.7596 288.805 70.6796 288.725 70.5996V70.6296Z" fill="#D1D1D1"/>
<path d="M275.435 81.6498C275.435 81.3698 275.475 81.0698 275.535 80.7298C275.605 80.3398 275.695 79.8798 275.815 79.3498C275.925 78.8198 276.065 78.2398 276.225 77.5898C276.505 76.4298 276.765 75.4698 276.995 74.7198C277.225 73.9698 277.475 73.3798 277.735 72.9598C277.995 72.5398 278.325 72.2398 278.725 72.0498C279.125 71.8598 279.615 71.7498 280.215 71.7098C280.815 71.6598 281.565 71.6398 282.465 71.6398C283.455 71.6398 284.235 71.6698 284.835 71.7198C285.005 71.7398 285.165 71.7598 285.305 71.7998L287.205 69.8998C287.075 69.8698 286.945 69.8398 286.815 69.8098C285.805 69.6098 284.395 69.5098 282.595 69.5098C281.155 69.5098 279.945 69.5698 278.985 69.6898C278.025 69.8098 277.235 70.0398 276.615 70.3698C275.995 70.6998 275.495 71.1698 275.105 71.7698C274.715 72.3798 274.385 73.1498 274.105 74.0898C273.825 75.0298 273.525 76.1798 273.205 77.5298C272.955 78.5398 272.765 79.4298 272.615 80.1898C272.465 80.9498 272.395 81.6098 272.395 82.1798C272.395 83.0298 272.575 83.6898 272.915 84.1898L275.435 81.6698V81.6498Z" fill="#D1D1D1"/>
<path d="M289.225 25.46L264.495 0.75L239.775 25.46C238.185 27.05 238.185 29.63 239.775 31.21L259.895 51.32L252.985 58.22L257.595 62.82L264.505 55.92L271.415 62.82L276.025 58.22L269.115 51.32L289.235 31.21C290.825 29.62 290.825 27.04 289.235 25.46H289.225ZM264.495 46.71L246.105 28.33L264.495 9.95L282.885 28.33L264.495 46.71Z" fill="#D1D1D1"/>
</g>
<path d="M222.321 103.69L224.673 92.6824H227.073L228.833 100.634H228.913L234.065 92.6824H236.545L234.193 103.69H232.417L234.161 95.4824H234.081L228.833 103.69H227.617L225.873 95.4824H225.777L224.049 103.69H222.321ZM241.66 103.818C240.572 103.818 239.719 103.749 239.1 103.61C238.482 103.472 238.044 103.226 237.788 102.874C237.532 102.522 237.404 102.021 237.404 101.37C237.404 100.976 237.447 100.517 237.532 99.9944C237.628 99.4611 237.751 98.8424 237.9 98.1384C238.092 97.1998 238.274 96.4051 238.444 95.7544C238.615 95.0931 238.818 94.5544 239.052 94.1384C239.287 93.7118 239.591 93.3864 239.964 93.1624C240.338 92.9278 240.812 92.7678 241.388 92.6824C241.975 92.5971 242.706 92.5544 243.58 92.5544C244.668 92.5544 245.516 92.6238 246.124 92.7624C246.743 92.9011 247.18 93.1518 247.436 93.5144C247.692 93.8664 247.82 94.3731 247.82 95.0344C247.82 95.4291 247.778 95.8878 247.692 96.4104C247.618 96.9224 247.506 97.5304 247.356 98.2344C247.154 99.1731 246.962 99.9731 246.78 100.634C246.599 101.285 246.391 101.818 246.156 102.234C245.922 102.65 245.618 102.976 245.244 103.21C244.882 103.434 244.412 103.594 243.836 103.69C243.26 103.776 242.535 103.818 241.66 103.818ZM241.74 102.33C242.284 102.33 242.732 102.314 243.084 102.282C243.447 102.25 243.746 102.17 243.98 102.042C244.215 101.914 244.412 101.706 244.572 101.418C244.732 101.12 244.882 100.709 245.02 100.186C245.17 99.6638 245.33 98.9971 245.5 98.1864C245.66 97.5144 245.772 96.9438 245.836 96.4744C245.911 95.9944 245.948 95.5998 245.948 95.2904C245.948 94.8851 245.868 94.5971 245.708 94.4264C245.548 94.2451 245.287 94.1384 244.924 94.1064C244.572 94.0638 244.098 94.0424 243.5 94.0424C242.956 94.0424 242.503 94.0584 242.14 94.0904C241.778 94.1224 241.474 94.2024 241.228 94.3304C240.994 94.4584 240.796 94.6718 240.636 94.9704C240.476 95.2584 240.327 95.6638 240.188 96.1864C240.05 96.7091 239.895 97.3758 239.724 98.1864C239.628 98.6344 239.543 99.0451 239.468 99.4184C239.404 99.7811 239.351 100.101 239.308 100.378C239.266 100.645 239.244 100.885 239.244 101.098C239.244 101.493 239.324 101.781 239.484 101.962C239.655 102.133 239.922 102.24 240.284 102.282C240.647 102.314 241.132 102.33 241.74 102.33ZM253.473 103.818C252.481 103.818 251.692 103.749 251.105 103.61C250.529 103.461 250.113 103.21 249.857 102.858C249.601 102.496 249.473 102.005 249.473 101.386C249.473 101.066 249.505 100.693 249.569 100.266C249.644 99.8398 249.735 99.3598 249.841 98.8264L251.137 92.6824H252.961L251.553 99.3384C251.479 99.7438 251.409 100.09 251.345 100.378C251.292 100.666 251.265 100.917 251.265 101.13C251.265 101.45 251.335 101.696 251.473 101.866C251.612 102.037 251.841 102.16 252.161 102.234C252.492 102.298 252.94 102.33 253.505 102.33C254.113 102.33 254.599 102.293 254.961 102.218C255.324 102.133 255.607 101.989 255.809 101.786C256.012 101.573 256.177 101.269 256.305 100.874C256.433 100.48 256.561 99.9678 256.689 99.3384L258.097 92.6824H259.921L258.625 98.8264C258.465 99.6264 258.305 100.314 258.145 100.89C257.985 101.466 257.793 101.946 257.569 102.33C257.356 102.704 257.073 103.002 256.721 103.226C256.38 103.44 255.948 103.594 255.425 103.69C254.903 103.776 254.252 103.818 253.473 103.818ZM260.539 103.69L262.891 92.6824H264.763L268.331 100.458H268.443L270.107 92.6824H271.867L269.515 103.69H267.787L264.123 95.5944H264.027L262.299 103.69H260.539ZM274.812 103.69L276.828 94.2344H273.372L273.708 92.6824H282.444L282.108 94.2344H278.652L276.652 103.69H274.812ZM279.794 103.69L286.258 92.6824H288.61L290.402 103.69H288.594L288.13 100.938H283.282L281.65 103.69H279.794ZM284.05 99.4824H287.954L287.138 94.4264H287.042L284.05 99.4824ZM292.274 103.69L294.626 92.6824H296.45L294.098 103.69H292.274ZM297.086 103.69L299.438 92.6824H301.31L304.878 100.458H304.99L306.654 92.6824H308.414L306.062 103.69H304.334L300.67 95.5944H300.574L298.846 103.69H297.086Z" fill="#50A1B0"/>
<path d="M265 109.689V150.189" stroke="#50A1B0"/>
<path d="M66.5615 150.189L132.686 150.266" stroke="#50A1B0"/>
<path d="M66.5615 150.266V190.766" stroke="#50A1B0"/>
<path d="M89.0675 222.395L66.2927 245.046L43.518 222.395C40.5487 219.442 40.5487 214.65 43.518 211.697L66.2893 189.046L89.0641 211.697C92.0333 214.65 92.0333 219.442 89.0641 222.395H89.0675Z" fill="#D1D1D1"/>
<path d="M31.7495 263.126L34.1015 252.118H36.5015L38.2615 260.07H38.3415L43.4935 252.118H45.9735L43.6215 263.126H41.8455L43.5895 254.918H43.5095L38.2615 263.126H37.0455L35.3015 254.918H35.2055L33.4775 263.126H31.7495ZM49.1693 263.254C48.5506 263.254 48.0439 263.19 47.6493 263.062C47.2653 262.934 46.9826 262.71 46.8013 262.39C46.6199 262.059 46.5293 261.611 46.5293 261.046C46.5293 260.779 46.5506 260.475 46.5933 260.134C46.6466 259.782 46.7213 259.393 46.8173 258.966C46.9879 258.145 47.1693 257.473 47.3613 256.95C47.5639 256.417 47.7986 255.995 48.0653 255.686C48.3426 255.377 48.6733 255.158 49.0573 255.03C49.4413 254.902 49.9053 254.838 50.4493 254.838C50.8973 254.838 51.2973 254.87 51.6493 254.934C52.0119 254.998 52.3159 255.115 52.5613 255.286C52.8066 255.446 52.9773 255.675 53.0733 255.974H53.1853L53.5053 254.966H55.0893L53.3613 263.126H51.7933L51.9693 262.006H51.8733C51.6599 262.358 51.4093 262.63 51.1213 262.822C50.8333 263.003 50.5239 263.121 50.1933 263.174C49.8626 263.227 49.5213 263.254 49.1693 263.254ZM49.9373 261.846C50.2999 261.846 50.6039 261.814 50.8493 261.75C51.0946 261.675 51.3026 261.574 51.4733 261.446C51.6439 261.318 51.7826 261.147 51.8893 260.934C51.9746 260.795 52.0546 260.614 52.1293 260.39C52.2146 260.166 52.2946 259.926 52.3693 259.67C52.4439 259.414 52.5133 259.153 52.5773 258.886C52.6413 258.619 52.6893 258.369 52.7213 258.134C52.7533 257.889 52.7693 257.686 52.7693 257.526C52.7693 257.067 52.6413 256.742 52.3853 256.55C52.1399 256.358 51.7026 256.262 51.0733 256.262C50.6466 256.262 50.2946 256.294 50.0173 256.358C49.7399 256.411 49.5106 256.534 49.3293 256.726C49.1586 256.907 49.0093 257.185 48.8813 257.558C48.7639 257.931 48.6359 258.427 48.4973 259.046C48.4226 259.43 48.3586 259.766 48.3053 260.054C48.2626 260.331 48.2413 260.571 48.2413 260.774C48.2413 261.083 48.2946 261.313 48.4013 261.462C48.5186 261.611 48.6999 261.713 48.9453 261.766C49.2013 261.819 49.5319 261.846 49.9373 261.846ZM55.8231 263.126L57.5511 254.966H59.1191L58.9431 256.086H59.0551C59.2258 255.819 59.4285 255.595 59.6631 255.414C59.9085 255.233 60.2071 255.094 60.5591 254.998C60.9111 254.891 61.3218 254.838 61.7911 254.838C62.4418 254.838 62.9431 254.907 63.2951 255.046C63.6578 255.174 63.9085 255.382 64.0471 255.67C64.1858 255.947 64.2551 256.305 64.2551 256.742C64.2551 256.934 64.2391 257.169 64.2071 257.446C64.1751 257.713 64.1271 257.995 64.0631 258.294L63.0231 263.126H61.3431L62.3031 258.582C62.3565 258.294 62.4045 258.033 62.4471 257.798C62.4898 257.563 62.5111 257.371 62.5111 257.222C62.5111 256.945 62.4578 256.742 62.3511 256.614C62.2445 256.475 62.0791 256.385 61.8551 256.342C61.6418 256.299 61.3485 256.278 60.9751 256.278C60.4951 256.278 60.1058 256.342 59.8071 256.47C59.5191 256.587 59.2845 256.763 59.1031 256.998C58.9325 257.222 58.7938 257.499 58.6871 257.83C58.5911 258.161 58.5005 258.534 58.4151 258.95L57.5031 263.126H55.8231ZM67.7636 252.854L68.1156 251.238H69.8916L69.5556 252.854H67.7636ZM65.6356 263.126L67.3636 254.966H69.0756L67.3476 263.126H65.6356ZM69.9325 263.126L72.4445 251.238H74.1565L71.6445 263.126H69.9325ZM74.1513 263.126L76.6633 251.238H78.3753L75.8633 263.126H74.1513ZM81.138 263.254C80.5194 263.254 80.0127 263.19 79.618 263.062C79.234 262.934 78.9514 262.71 78.77 262.39C78.5887 262.059 78.498 261.611 78.498 261.046C78.498 260.779 78.5194 260.475 78.562 260.134C78.6154 259.782 78.69 259.393 78.786 258.966C78.9567 258.145 79.138 257.473 79.33 256.95C79.5327 256.417 79.7674 255.995 80.034 255.686C80.3114 255.377 80.642 255.158 81.026 255.03C81.41 254.902 81.874 254.838 82.418 254.838C82.866 254.838 83.266 254.87 83.618 254.934C83.9807 254.998 84.2847 255.115 84.53 255.286C84.7754 255.446 84.946 255.675 85.042 255.974H85.154L85.474 254.966H87.058L85.33 263.126H83.762L83.938 262.006H83.842C83.6287 262.358 83.378 262.63 83.09 262.822C82.802 263.003 82.4927 263.121 82.162 263.174C81.8314 263.227 81.49 263.254 81.138 263.254ZM81.906 261.846C82.2687 261.846 82.5727 261.814 82.818 261.75C83.0634 261.675 83.2714 261.574 83.442 261.446C83.6127 261.318 83.7514 261.147 83.858 260.934C83.9434 260.795 84.0234 260.614 84.098 260.39C84.1834 260.166 84.2634 259.926 84.338 259.67C84.4127 259.414 84.482 259.153 84.546 258.886C84.61 258.619 84.658 258.369 84.69 258.134C84.722 257.889 84.738 257.686 84.738 257.526C84.738 257.067 84.61 256.742 84.354 256.55C84.1087 256.358 83.6714 256.262 83.042 256.262C82.6154 256.262 82.2634 256.294 81.986 256.358C81.7087 256.411 81.4794 256.534 81.298 256.726C81.1274 256.907 80.978 257.185 80.85 257.558C80.7327 257.931 80.6047 258.427 80.466 259.046C80.3914 259.43 80.3274 259.766 80.274 260.054C80.2314 260.331 80.21 260.571 80.21 260.774C80.21 261.083 80.2634 261.313 80.37 261.462C80.4874 261.611 80.6687 261.713 80.914 261.766C81.17 261.819 81.5007 261.846 81.906 261.846ZM87.7919 263.126L89.5199 254.966H91.0879L90.8159 256.518H90.9119C91.1572 256.059 91.4292 255.713 91.7279 255.478C92.0266 255.233 92.3679 255.067 92.7519 254.982C93.1359 254.886 93.5679 254.838 94.0479 254.838L93.6959 256.454C93.1199 256.454 92.6292 256.523 92.2239 256.662C91.8292 256.801 91.5039 257.009 91.2479 257.286C91.0026 257.563 90.7946 257.91 90.6239 258.326C90.4639 258.742 90.3252 259.222 90.2079 259.766L89.4719 263.126H87.7919ZM97.1143 263.254C96.7729 263.254 96.3996 263.243 95.9943 263.222C95.5996 263.201 95.2156 263.174 94.8423 263.142C94.4689 263.11 94.1329 263.078 93.8343 263.046L94.1063 261.766C94.3729 261.787 94.6236 261.809 94.8583 261.83C95.0929 261.851 95.3223 261.873 95.5463 261.894C95.7809 261.905 96.0049 261.915 96.2183 261.926C96.4423 261.926 96.6716 261.926 96.9063 261.926C97.4183 261.926 97.8076 261.894 98.0743 261.83C98.3516 261.755 98.5543 261.643 98.6823 261.494C98.8103 261.334 98.9063 261.126 98.9703 260.87C99.0129 260.763 99.0449 260.662 99.0663 260.566C99.0876 260.47 99.0983 260.385 99.0983 260.31C99.0983 260.107 99.0289 259.979 98.8903 259.926C98.7516 259.873 98.5276 259.83 98.2183 259.798L96.0743 259.526C95.5516 259.451 95.1889 259.302 94.9863 259.078C94.7836 258.854 94.6823 258.545 94.6823 258.15C94.6823 258.054 94.6929 257.915 94.7143 257.734C94.7356 257.542 94.7676 257.35 94.8103 257.158C94.9276 256.625 95.0876 256.203 95.2903 255.894C95.5036 255.585 95.7596 255.355 96.0583 255.206C96.3569 255.057 96.7089 254.961 97.1143 254.918C97.5196 254.865 97.9783 254.838 98.4903 254.838C98.8209 254.838 99.1623 254.849 99.5143 254.87C99.8663 254.891 100.208 254.918 100.538 254.95C100.869 254.982 101.146 255.019 101.37 255.062L101.114 256.342C100.816 256.299 100.522 256.267 100.234 256.246C99.9569 256.225 99.6796 256.209 99.4023 256.198C99.1249 256.177 98.8529 256.166 98.5863 256.166C98.2236 256.166 97.9036 256.182 97.6263 256.214C97.3489 256.235 97.1143 256.305 96.9223 256.422C96.7303 256.539 96.5863 256.731 96.4903 256.998C96.4476 257.094 96.4103 257.201 96.3783 257.318C96.3463 257.425 96.3303 257.547 96.3303 257.686C96.3303 257.878 96.3943 258.006 96.5223 258.07C96.6503 258.134 96.8743 258.182 97.1943 258.214L99.3063 258.486C99.6263 258.518 99.8929 258.577 100.106 258.662C100.32 258.747 100.48 258.881 100.586 259.062C100.704 259.243 100.762 259.499 100.762 259.83C100.762 259.937 100.752 260.086 100.73 260.278C100.709 260.459 100.672 260.657 100.618 260.87C100.501 261.393 100.346 261.814 100.154 262.134C99.9729 262.454 99.7383 262.694 99.4503 262.854C99.1729 263.014 98.8423 263.121 98.4583 263.174C98.0743 263.227 97.6263 263.254 97.1143 263.254Z" fill="#50A1B0"/>
<path d="M132.707 150.189L198.853 150.266" stroke="#50A1B0"/>
<path d="M198.854 150.189L265 150.266" stroke="#50A1B0"/>
<path d="M198.854 150.266V190.766" stroke="#50A1B0"/>
<g clip-path="url(#clip1_178_1605)">
<path d="M198.843 244.626L174.763 220.536C173.193 218.966 173.193 216.426 174.763 214.856L198.843 190.766H198.853L222.943 214.856C224.513 216.426 224.513 218.966 222.943 220.536L198.853 244.626H198.843ZM176.053 219.766L198.853 242.566H198.863L221.663 219.766C222.803 218.626 222.803 216.776 221.663 215.636L198.863 192.836H198.853L176.053 215.636C174.913 216.776 174.913 218.626 176.053 219.766Z" fill="#D1D1D1"/>
</g>
<path d="M180.846 263.126L182.862 253.67H179.406L179.742 252.118H188.478L188.142 253.67H184.686L182.686 263.126H180.846ZM190.056 252.854L190.408 251.238H192.184L191.848 252.854H190.056ZM187.928 263.126L189.656 254.966H191.368L189.64 263.126H187.928ZM194.705 266.422C194.363 266.422 194.011 266.411 193.649 266.39C193.297 266.379 192.966 266.358 192.657 266.326C192.347 266.305 192.091 266.283 191.889 266.262L192.177 264.918C192.411 264.939 192.667 264.955 192.945 264.966C193.222 264.977 193.505 264.982 193.793 264.982C194.081 264.993 194.347 264.998 194.593 264.998C195.169 264.998 195.633 264.961 195.985 264.886C196.337 264.822 196.609 264.705 196.801 264.534C197.003 264.363 197.163 264.123 197.281 263.814C197.398 263.505 197.505 263.105 197.601 262.614C197.633 262.529 197.659 262.438 197.681 262.342C197.702 262.246 197.718 262.155 197.729 262.07H197.633C197.441 262.369 197.206 262.598 196.929 262.758C196.662 262.918 196.363 263.03 196.033 263.094C195.702 263.158 195.339 263.19 194.945 263.19C194.411 263.19 193.969 263.131 193.617 263.014C193.275 262.886 193.019 262.678 192.849 262.39C192.689 262.091 192.609 261.691 192.609 261.19C192.609 260.913 192.635 260.598 192.689 260.246C192.742 259.883 192.811 259.483 192.897 259.046C193.067 258.225 193.259 257.547 193.473 257.014C193.686 256.47 193.937 256.043 194.225 255.734C194.523 255.414 194.87 255.185 195.265 255.046C195.67 254.907 196.145 254.838 196.689 254.838C197.03 254.838 197.355 254.87 197.665 254.934C197.985 254.998 198.257 255.115 198.481 255.286C198.715 255.457 198.881 255.702 198.977 256.022H199.073L199.377 254.966H200.929L199.425 262.118C199.286 262.726 199.142 263.265 198.993 263.734C198.854 264.214 198.678 264.619 198.465 264.95C198.262 265.291 198.001 265.569 197.681 265.782C197.361 265.995 196.955 266.155 196.465 266.262C195.985 266.369 195.398 266.422 194.705 266.422ZM195.921 261.702C196.219 261.702 196.47 261.681 196.673 261.638C196.886 261.585 197.073 261.51 197.233 261.414C197.393 261.307 197.531 261.185 197.649 261.046C197.745 260.939 197.835 260.779 197.921 260.566C198.006 260.342 198.086 260.097 198.161 259.83C198.246 259.563 198.315 259.286 198.369 258.998C198.433 258.71 198.481 258.438 198.513 258.182C198.555 257.915 198.577 257.686 198.577 257.494C198.577 257.067 198.454 256.769 198.209 256.598C197.963 256.427 197.579 256.342 197.057 256.342C196.641 256.342 196.299 256.374 196.033 256.438C195.766 256.491 195.553 256.609 195.393 256.79C195.233 256.971 195.094 257.238 194.977 257.59C194.859 257.942 194.737 258.422 194.609 259.03C194.523 259.414 194.459 259.745 194.417 260.022C194.374 260.299 194.353 260.539 194.353 260.742C194.353 261.009 194.401 261.217 194.497 261.366C194.603 261.505 194.774 261.595 195.009 261.638C195.243 261.681 195.547 261.702 195.921 261.702ZM205.4 263.254C204.579 263.254 203.928 263.19 203.448 263.062C202.968 262.923 202.627 262.71 202.424 262.422C202.232 262.123 202.136 261.734 202.136 261.254C202.136 260.966 202.163 260.641 202.216 260.278C202.28 259.905 202.36 259.499 202.456 259.062C202.616 258.326 202.787 257.691 202.968 257.158C203.16 256.625 203.411 256.187 203.72 255.846C204.029 255.494 204.445 255.238 204.968 255.078C205.491 254.918 206.163 254.838 206.984 254.838C207.72 254.838 208.296 254.907 208.712 255.046C209.128 255.174 209.421 255.377 209.592 255.654C209.763 255.931 209.848 256.283 209.848 256.71C209.848 256.902 209.832 257.121 209.8 257.366C209.779 257.611 209.741 257.878 209.688 258.166C209.635 258.443 209.571 258.742 209.496 259.062L209.368 259.606H204.04C203.987 259.873 203.939 260.113 203.896 260.326C203.864 260.529 203.848 260.71 203.848 260.87C203.848 261.137 203.912 261.339 204.04 261.478C204.179 261.617 204.403 261.713 204.712 261.766C205.032 261.819 205.475 261.846 206.04 261.846C206.285 261.846 206.557 261.841 206.856 261.83C207.155 261.819 207.453 261.798 207.752 261.766C208.061 261.734 208.344 261.707 208.6 261.686L208.312 263.014C208.077 263.057 207.795 263.094 207.464 263.126C207.133 263.169 206.787 263.201 206.424 263.222C206.072 263.243 205.731 263.254 205.4 263.254ZM204.296 258.438H207.976L208.008 258.262C208.061 258.027 208.099 257.825 208.12 257.654C208.141 257.483 208.152 257.329 208.152 257.19C208.152 256.923 208.099 256.726 207.992 256.598C207.896 256.459 207.741 256.369 207.528 256.326C207.315 256.273 207.032 256.246 206.68 256.246C206.253 256.246 205.907 256.278 205.64 256.342C205.373 256.395 205.16 256.502 205 256.662C204.84 256.822 204.707 257.046 204.6 257.334C204.493 257.611 204.392 257.979 204.296 258.438ZM214.203 263.254C213.862 263.254 213.488 263.243 213.083 263.222C212.688 263.201 212.304 263.174 211.931 263.142C211.558 263.11 211.222 263.078 210.923 263.046L211.195 261.766C211.462 261.787 211.712 261.809 211.947 261.83C212.182 261.851 212.411 261.873 212.635 261.894C212.87 261.905 213.094 261.915 213.307 261.926C213.531 261.926 213.76 261.926 213.995 261.926C214.507 261.926 214.896 261.894 215.163 261.83C215.44 261.755 215.643 261.643 215.771 261.494C215.899 261.334 215.995 261.126 216.059 260.87C216.102 260.763 216.134 260.662 216.155 260.566C216.176 260.47 216.187 260.385 216.187 260.31C216.187 260.107 216.118 259.979 215.979 259.926C215.84 259.873 215.616 259.83 215.307 259.798L213.163 259.526C212.64 259.451 212.278 259.302 212.075 259.078C211.872 258.854 211.771 258.545 211.771 258.15C211.771 258.054 211.782 257.915 211.803 257.734C211.824 257.542 211.856 257.35 211.899 257.158C212.016 256.625 212.176 256.203 212.379 255.894C212.592 255.585 212.848 255.355 213.147 255.206C213.446 255.057 213.798 254.961 214.203 254.918C214.608 254.865 215.067 254.838 215.579 254.838C215.91 254.838 216.251 254.849 216.603 254.87C216.955 254.891 217.296 254.918 217.627 254.95C217.958 254.982 218.235 255.019 218.459 255.062L218.203 256.342C217.904 256.299 217.611 256.267 217.323 256.246C217.046 256.225 216.768 256.209 216.491 256.198C216.214 256.177 215.942 256.166 215.675 256.166C215.312 256.166 214.992 256.182 214.715 256.214C214.438 256.235 214.203 256.305 214.011 256.422C213.819 256.539 213.675 256.731 213.579 256.998C213.536 257.094 213.499 257.201 213.467 257.318C213.435 257.425 213.419 257.547 213.419 257.686C213.419 257.878 213.483 258.006 213.611 258.07C213.739 258.134 213.963 258.182 214.283 258.214L216.395 258.486C216.715 258.518 216.982 258.577 217.195 258.662C217.408 258.747 217.568 258.881 217.675 259.062C217.792 259.243 217.851 259.499 217.851 259.83C217.851 259.937 217.84 260.086 217.819 260.278C217.798 260.459 217.76 260.657 217.707 260.87C217.59 261.393 217.435 261.814 217.243 262.134C217.062 262.454 216.827 262.694 216.539 262.854C216.262 263.014 215.931 263.121 215.547 263.174C215.163 263.227 214.715 263.254 214.203 263.254Z" fill="#454545"/>
<path d="M265 150.189L331.146 150.266" stroke="#50A1B0"/>
<path d="M331.146 150.189L397.293 150.266" stroke="#50A1B0"/>
<path d="M331.146 150.266V190.766" stroke="#50A1B0"/>
<g clip-path="url(#clip2_178_1605)">
<path d="M331.136 244.626L307.056 220.536C305.486 218.966 305.486 216.426 307.056 214.856L331.136 190.766H331.146L355.236 214.856C356.806 216.426 356.806 218.966 355.236 220.536L331.146 244.626H331.136ZM308.346 219.766L331.146 242.566H331.156L353.956 219.766C355.096 218.626 355.096 216.776 353.956 215.636L331.156 192.836H331.146L308.346 215.636C307.206 216.776 307.206 218.626 308.346 219.766Z" fill="#D1D1D1"/>
</g>
<path d="M312.334 263.126L314.686 252.118H319.566C320.334 252.118 320.932 252.209 321.358 252.39C321.785 252.571 322.084 252.827 322.254 253.158C322.425 253.489 322.51 253.883 322.51 254.342C322.51 254.545 322.489 254.769 322.446 255.014C322.414 255.249 322.372 255.489 322.318 255.734C322.222 256.225 322.094 256.683 321.934 257.11C321.785 257.526 321.577 257.894 321.31 258.214C321.044 258.523 320.681 258.763 320.222 258.934C319.764 259.105 319.172 259.19 318.446 259.19H315.006L314.158 263.126H312.334ZM315.326 257.734H317.966C318.457 257.734 318.846 257.697 319.134 257.622C319.433 257.537 319.668 257.414 319.838 257.254C320.009 257.083 320.142 256.865 320.238 256.598C320.334 256.331 320.425 256.017 320.51 255.654C320.553 255.441 320.585 255.249 320.606 255.078C320.638 254.897 320.654 254.737 320.654 254.598C320.654 254.363 320.601 254.171 320.494 254.022C320.398 253.862 320.217 253.75 319.95 253.686C319.694 253.611 319.337 253.574 318.878 253.574H316.206L315.326 257.734ZM322.783 263.126L325.295 251.238H327.007L324.495 263.126H322.783ZM329.77 263.254C329.151 263.254 328.645 263.19 328.25 263.062C327.866 262.934 327.583 262.71 327.402 262.39C327.221 262.059 327.13 261.611 327.13 261.046C327.13 260.779 327.151 260.475 327.194 260.134C327.247 259.782 327.322 259.393 327.418 258.966C327.589 258.145 327.77 257.473 327.962 256.95C328.165 256.417 328.399 255.995 328.666 255.686C328.943 255.377 329.274 255.158 329.658 255.03C330.042 254.902 330.506 254.838 331.05 254.838C331.498 254.838 331.898 254.87 332.25 254.934C332.613 254.998 332.917 255.115 333.162 255.286C333.407 255.446 333.578 255.675 333.674 255.974H333.786L334.106 254.966H335.69L333.962 263.126H332.394L332.57 262.006H332.474C332.261 262.358 332.01 262.63 331.722 262.822C331.434 263.003 331.125 263.121 330.794 263.174C330.463 263.227 330.122 263.254 329.77 263.254ZM330.538 261.846C330.901 261.846 331.205 261.814 331.45 261.75C331.695 261.675 331.903 261.574 332.074 261.446C332.245 261.318 332.383 261.147 332.49 260.934C332.575 260.795 332.655 260.614 332.73 260.39C332.815 260.166 332.895 259.926 332.97 259.67C333.045 259.414 333.114 259.153 333.178 258.886C333.242 258.619 333.29 258.369 333.322 258.134C333.354 257.889 333.37 257.686 333.37 257.526C333.37 257.067 333.242 256.742 332.986 256.55C332.741 256.358 332.303 256.262 331.674 256.262C331.247 256.262 330.895 256.294 330.618 256.358C330.341 256.411 330.111 256.534 329.93 256.726C329.759 256.907 329.61 257.185 329.482 257.558C329.365 257.931 329.237 258.427 329.098 259.046C329.023 259.43 328.959 259.766 328.906 260.054C328.863 260.331 328.842 260.571 328.842 260.774C328.842 261.083 328.895 261.313 329.002 261.462C329.119 261.611 329.301 261.713 329.546 261.766C329.802 261.819 330.133 261.846 330.538 261.846ZM340.76 263.126C340.173 263.126 339.661 263.115 339.224 263.094C338.797 263.062 338.445 262.998 338.168 262.902C337.89 262.795 337.682 262.641 337.544 262.438C337.416 262.225 337.352 261.942 337.352 261.59C337.352 261.483 337.357 261.371 337.368 261.254C337.389 261.137 337.41 261.009 337.432 260.87C337.464 260.731 337.496 260.582 337.528 260.422L338.392 256.326H336.744L337.032 254.966H338.68L339.176 252.598H340.888L340.392 254.966H342.344L342.056 256.326H340.104L339.272 260.262C339.261 260.315 339.245 260.406 339.224 260.534C339.202 260.662 339.176 260.795 339.144 260.934C339.122 261.062 339.112 261.153 339.112 261.206C339.112 261.387 339.17 261.531 339.288 261.638C339.416 261.734 339.618 261.798 339.896 261.83C340.173 261.862 340.546 261.878 341.016 261.878L340.76 263.126ZM345.715 263.254C345.374 263.254 345 263.243 344.595 263.222C344.2 263.201 343.816 263.174 343.443 263.142C343.07 263.11 342.734 263.078 342.435 263.046L342.707 261.766C342.974 261.787 343.224 261.809 343.459 261.83C343.694 261.851 343.923 261.873 344.147 261.894C344.382 261.905 344.606 261.915 344.819 261.926C345.043 261.926 345.272 261.926 345.507 261.926C346.019 261.926 346.408 261.894 346.675 261.83C346.952 261.755 347.155 261.643 347.283 261.494C347.411 261.334 347.507 261.126 347.571 260.87C347.614 260.763 347.646 260.662 347.667 260.566C347.688 260.47 347.699 260.385 347.699 260.31C347.699 260.107 347.63 259.979 347.491 259.926C347.352 259.873 347.128 259.83 346.819 259.798L344.675 259.526C344.152 259.451 343.79 259.302 343.587 259.078C343.384 258.854 343.283 258.545 343.283 258.15C343.283 258.054 343.294 257.915 343.315 257.734C343.336 257.542 343.368 257.35 343.411 257.158C343.528 256.625 343.688 256.203 343.891 255.894C344.104 255.585 344.36 255.355 344.659 255.206C344.958 255.057 345.31 254.961 345.715 254.918C346.12 254.865 346.579 254.838 347.091 254.838C347.422 254.838 347.763 254.849 348.115 254.87C348.467 254.891 348.808 254.918 349.139 254.95C349.47 254.982 349.747 255.019 349.971 255.062L349.715 256.342C349.416 256.299 349.123 256.267 348.835 256.246C348.558 256.225 348.28 256.209 348.003 256.198C347.726 256.177 347.454 256.166 347.187 256.166C346.824 256.166 346.504 256.182 346.227 256.214C345.95 256.235 345.715 256.305 345.523 256.422C345.331 256.539 345.187 256.731 345.091 256.998C345.048 257.094 345.011 257.201 344.979 257.318C344.947 257.425 344.931 257.547 344.931 257.686C344.931 257.878 344.995 258.006 345.123 258.07C345.251 258.134 345.475 258.182 345.795 258.214L347.907 258.486C348.227 258.518 348.494 258.577 348.707 258.662C348.92 258.747 349.08 258.881 349.187 259.062C349.304 259.243 349.363 259.499 349.363 259.83C349.363 259.937 349.352 260.086 349.331 260.278C349.31 260.459 349.272 260.657 349.219 260.87C349.102 261.393 348.947 261.814 348.755 262.134C348.574 262.454 348.339 262.694 348.051 262.854C347.774 263.014 347.443 263.121 347.059 263.174C346.675 263.227 346.227 263.254 345.715 263.254Z" fill="#454545"/>
<path d="M397.293 150.189L463.439 150.266" stroke="#50A1B0"/>
<path d="M463.439 150.266V190.766" stroke="#50A1B0"/>
<g clip-path="url(#clip3_178_1605)">
<path d="M463.429 244.626L439.349 220.536C437.779 218.966 437.779 216.426 439.349 214.856L463.429 190.766H463.439L487.529 214.856C489.099 216.426 489.099 218.966 487.529 220.536L463.439 244.626H463.429ZM440.639 219.766L463.439 242.566H463.449L486.249 219.766C487.389 218.626 487.389 216.776 486.249 215.636L463.449 192.836H463.439L440.639 215.636C439.499 216.776 439.499 218.626 440.639 219.766Z" fill="#D1D1D1"/>
</g>
<path d="M422.475 263.126L428.939 252.118H431.291L433.083 263.126H431.275L430.811 260.374H425.963L424.331 263.126H422.475ZM426.731 258.918H430.635L429.819 253.862H429.723L426.731 258.918ZM438.044 263.254C437.244 263.254 436.614 263.174 436.156 263.014C435.708 262.854 435.388 262.614 435.196 262.294C435.014 261.963 434.924 261.558 434.924 261.078C434.924 260.886 434.95 260.587 435.004 260.182C435.057 259.777 435.137 259.334 435.244 258.854C435.382 258.161 435.537 257.563 435.708 257.062C435.889 256.55 436.118 256.134 436.396 255.814C436.684 255.483 437.057 255.238 437.516 255.078C437.985 254.918 438.577 254.838 439.292 254.838C439.75 254.838 440.209 254.859 440.668 254.902C441.137 254.945 441.542 254.998 441.884 255.062L441.596 256.358C441.35 256.315 441.052 256.278 440.7 256.246C440.348 256.214 440.017 256.198 439.708 256.198C439.238 256.198 438.849 256.241 438.54 256.326C438.23 256.401 437.98 256.539 437.788 256.742C437.596 256.945 437.436 257.233 437.308 257.606C437.19 257.979 437.068 258.459 436.94 259.046C436.854 259.419 436.785 259.745 436.732 260.022C436.689 260.299 436.668 260.539 436.668 260.742C436.668 261.062 436.726 261.307 436.844 261.478C436.972 261.638 437.169 261.75 437.436 261.814C437.713 261.867 438.076 261.894 438.524 261.894C438.822 261.894 439.158 261.878 439.532 261.846C439.905 261.814 440.236 261.777 440.524 261.734L440.252 263.014C439.953 263.078 439.601 263.131 439.196 263.174C438.801 263.227 438.417 263.254 438.044 263.254ZM445.653 263.254C444.853 263.254 444.224 263.174 443.765 263.014C443.317 262.854 442.997 262.614 442.805 262.294C442.624 261.963 442.533 261.558 442.533 261.078C442.533 260.886 442.56 260.587 442.613 260.182C442.666 259.777 442.746 259.334 442.853 258.854C442.992 258.161 443.146 257.563 443.317 257.062C443.498 256.55 443.728 256.134 444.005 255.814C444.293 255.483 444.666 255.238 445.125 255.078C445.594 254.918 446.186 254.838 446.901 254.838C447.36 254.838 447.818 254.859 448.277 254.902C448.746 254.945 449.152 254.998 449.493 255.062L449.205 256.358C448.96 256.315 448.661 256.278 448.309 256.246C447.957 256.214 447.626 256.198 447.317 256.198C446.848 256.198 446.458 256.241 446.149 256.326C445.84 256.401 445.589 256.539 445.397 256.742C445.205 256.945 445.045 257.233 444.917 257.606C444.8 257.979 444.677 258.459 444.549 259.046C444.464 259.419 444.394 259.745 444.341 260.022C444.298 260.299 444.277 260.539 444.277 260.742C444.277 261.062 444.336 261.307 444.453 261.478C444.581 261.638 444.778 261.75 445.045 261.814C445.322 261.867 445.685 261.894 446.133 261.894C446.432 261.894 446.768 261.878 447.141 261.846C447.514 261.814 447.845 261.777 448.133 261.734L447.861 263.014C447.562 263.078 447.21 263.131 446.805 263.174C446.41 263.227 446.026 263.254 445.653 263.254ZM453.47 263.254C452.649 263.254 451.998 263.19 451.518 263.062C451.038 262.923 450.697 262.71 450.494 262.422C450.302 262.123 450.206 261.734 450.206 261.254C450.206 260.966 450.233 260.641 450.286 260.278C450.35 259.905 450.43 259.499 450.526 259.062C450.686 258.326 450.857 257.691 451.038 257.158C451.23 256.625 451.481 256.187 451.79 255.846C452.1 255.494 452.516 255.238 453.038 255.078C453.561 254.918 454.233 254.838 455.054 254.838C455.79 254.838 456.366 254.907 456.782 255.046C457.198 255.174 457.492 255.377 457.662 255.654C457.833 255.931 457.918 256.283 457.918 256.71C457.918 256.902 457.902 257.121 457.87 257.366C457.849 257.611 457.812 257.878 457.758 258.166C457.705 258.443 457.641 258.742 457.566 259.062L457.438 259.606H452.11C452.057 259.873 452.009 260.113 451.966 260.326C451.934 260.529 451.918 260.71 451.918 260.87C451.918 261.137 451.982 261.339 452.11 261.478C452.249 261.617 452.473 261.713 452.782 261.766C453.102 261.819 453.545 261.846 454.11 261.846C454.356 261.846 454.628 261.841 454.926 261.83C455.225 261.819 455.524 261.798 455.822 261.766C456.132 261.734 456.414 261.707 456.67 261.686L456.382 263.014C456.148 263.057 455.865 263.094 455.534 263.126C455.204 263.169 454.857 263.201 454.494 263.222C454.142 263.243 453.801 263.254 453.47 263.254ZM452.366 258.438H456.046L456.078 258.262C456.132 258.027 456.169 257.825 456.19 257.654C456.212 257.483 456.222 257.329 456.222 257.19C456.222 256.923 456.169 256.726 456.062 256.598C455.966 256.459 455.812 256.369 455.598 256.326C455.385 256.273 455.102 256.246 454.75 256.246C454.324 256.246 453.977 256.278 453.71 256.342C453.444 256.395 453.23 256.502 453.07 256.662C452.91 256.822 452.777 257.046 452.67 257.334C452.564 257.611 452.462 257.979 452.366 258.438ZM462.273 263.254C461.932 263.254 461.559 263.243 461.153 263.222C460.759 263.201 460.375 263.174 460.001 263.142C459.628 263.11 459.292 263.078 458.993 263.046L459.265 261.766C459.532 261.787 459.783 261.809 460.017 261.83C460.252 261.851 460.481 261.873 460.705 261.894C460.94 261.905 461.164 261.915 461.377 261.926C461.601 261.926 461.831 261.926 462.065 261.926C462.577 261.926 462.967 261.894 463.233 261.83C463.511 261.755 463.713 261.643 463.841 261.494C463.969 261.334 464.065 261.126 464.129 260.87C464.172 260.763 464.204 260.662 464.225 260.566C464.247 260.47 464.257 260.385 464.257 260.31C464.257 260.107 464.188 259.979 464.049 259.926C463.911 259.873 463.687 259.83 463.377 259.798L461.233 259.526C460.711 259.451 460.348 259.302 460.145 259.078C459.943 258.854 459.841 258.545 459.841 258.15C459.841 258.054 459.852 257.915 459.873 257.734C459.895 257.542 459.927 257.35 459.969 257.158C460.087 256.625 460.247 256.203 460.449 255.894C460.663 255.585 460.919 255.355 461.217 255.206C461.516 255.057 461.868 254.961 462.273 254.918C462.679 254.865 463.137 254.838 463.649 254.838C463.98 254.838 464.321 254.849 464.673 254.87C465.025 254.891 465.367 254.918 465.697 254.95C466.028 254.982 466.305 255.019 466.529 255.062L466.273 256.342C465.975 256.299 465.681 256.267 465.393 256.246C465.116 256.225 464.839 256.209 464.561 256.198C464.284 256.177 464.012 256.166 463.745 256.166C463.383 256.166 463.063 256.182 462.785 256.214C462.508 256.235 462.273 256.305 462.081 256.422C461.889 256.539 461.745 256.731 461.649 256.998C461.607 257.094 461.569 257.201 461.537 257.318C461.505 257.425 461.489 257.547 461.489 257.686C461.489 257.878 461.553 258.006 461.681 258.07C461.809 258.134 462.033 258.182 462.353 258.214L464.465 258.486C464.785 258.518 465.052 258.577 465.265 258.662C465.479 258.747 465.639 258.881 465.745 259.062C465.863 259.243 465.921 259.499 465.921 259.83C465.921 259.937 465.911 260.086 465.889 260.278C465.868 260.459 465.831 260.657 465.777 260.87C465.66 261.393 465.505 261.814 465.313 262.134C465.132 262.454 464.897 262.694 464.609 262.854C464.332 263.014 464.001 263.121 463.617 263.174C463.233 263.227 462.785 263.254 462.273 263.254ZM470.555 263.254C470.213 263.254 469.84 263.243 469.435 263.222C469.04 263.201 468.656 263.174 468.283 263.142C467.909 263.11 467.573 263.078 467.275 263.046L467.547 261.766C467.813 261.787 468.064 261.809 468.299 261.83C468.533 261.851 468.763 261.873 468.987 261.894C469.221 261.905 469.445 261.915 469.659 261.926C469.883 261.926 470.112 261.926 470.347 261.926C470.859 261.926 471.248 261.894 471.515 261.83C471.792 261.755 471.995 261.643 472.123 261.494C472.251 261.334 472.347 261.126 472.411 260.87C472.453 260.763 472.485 260.662 472.507 260.566C472.528 260.47 472.539 260.385 472.539 260.31C472.539 260.107 472.469 259.979 472.331 259.926C472.192 259.873 471.968 259.83 471.659 259.798L469.515 259.526C468.992 259.451 468.629 259.302 468.427 259.078C468.224 258.854 468.123 258.545 468.123 258.15C468.123 258.054 468.133 257.915 468.155 257.734C468.176 257.542 468.208 257.35 468.251 257.158C468.368 256.625 468.528 256.203 468.731 255.894C468.944 255.585 469.2 255.355 469.499 255.206C469.797 255.057 470.149 254.961 470.555 254.918C470.96 254.865 471.419 254.838 471.931 254.838C472.261 254.838 472.603 254.849 472.955 254.87C473.307 254.891 473.648 254.918 473.979 254.95C474.309 254.982 474.587 255.019 474.811 255.062L474.555 256.342C474.256 256.299 473.963 256.267 473.675 256.246C473.397 256.225 473.12 256.209 472.843 256.198C472.565 256.177 472.293 256.166 472.027 256.166C471.664 256.166 471.344 256.182 471.067 256.214C470.789 256.235 470.555 256.305 470.363 256.422C470.171 256.539 470.027 256.731 469.931 256.998C469.888 257.094 469.851 257.201 469.819 257.318C469.787 257.425 469.771 257.547 469.771 257.686C469.771 257.878 469.835 258.006 469.963 258.07C470.091 258.134 470.315 258.182 470.635 258.214L472.747 258.486C473.067 258.518 473.333 258.577 473.547 258.662C473.76 258.747 473.92 258.881 474.027 259.062C474.144 259.243 474.203 259.499 474.203 259.83C474.203 259.937 474.192 260.086 474.171 260.278C474.149 260.459 474.112 260.657 474.059 260.87C473.941 261.393 473.787 261.814 473.595 262.134C473.413 262.454 473.179 262.694 472.891 262.854C472.613 263.014 472.283 263.121 471.899 263.174C471.515 263.227 471.067 263.254 470.555 263.254ZM479.22 263.254C478.324 263.254 477.62 263.201 477.108 263.094C476.607 262.977 476.255 262.774 476.052 262.486C475.849 262.198 475.748 261.809 475.748 261.318C475.748 261.03 475.78 260.705 475.844 260.342C475.908 259.969 475.988 259.537 476.084 259.046C476.223 258.363 476.356 257.782 476.484 257.302C476.612 256.822 476.767 256.422 476.948 256.102C477.129 255.782 477.364 255.531 477.652 255.35C477.951 255.158 478.324 255.025 478.772 254.95C479.231 254.875 479.801 254.838 480.484 254.838C481.38 254.838 482.079 254.897 482.58 255.014C483.081 255.131 483.433 255.334 483.636 255.622C483.839 255.899 483.94 256.289 483.94 256.79C483.94 257.078 483.913 257.409 483.86 257.782C483.807 258.145 483.727 258.566 483.62 259.046C483.471 259.729 483.327 260.31 483.188 260.79C483.06 261.27 482.905 261.67 482.724 261.99C482.553 262.31 482.324 262.566 482.036 262.758C481.759 262.939 481.391 263.067 480.932 263.142C480.473 263.217 479.903 263.254 479.22 263.254ZM479.252 261.894C479.668 261.894 480.009 261.878 480.276 261.846C480.553 261.803 480.772 261.729 480.932 261.622C481.103 261.505 481.241 261.345 481.348 261.142C481.465 260.929 481.567 260.651 481.652 260.31C481.737 259.958 481.833 259.537 481.94 259.046C482.025 258.609 482.095 258.235 482.148 257.926C482.201 257.617 482.228 257.355 482.228 257.142C482.228 256.875 482.175 256.678 482.068 256.55C481.961 256.411 481.78 256.321 481.524 256.278C481.268 256.225 480.916 256.198 480.468 256.198C479.945 256.198 479.535 256.23 479.236 256.294C478.937 256.358 478.703 256.491 478.532 256.694C478.372 256.886 478.239 257.169 478.132 257.542C478.036 257.915 477.919 258.417 477.78 259.046C477.695 259.494 477.62 259.873 477.556 260.182C477.503 260.491 477.476 260.753 477.476 260.966C477.476 261.222 477.529 261.419 477.636 261.558C477.743 261.686 477.924 261.777 478.18 261.83C478.447 261.873 478.804 261.894 479.252 261.894ZM484.951 263.126L486.679 254.966H488.247L487.975 256.518H488.071C488.316 256.059 488.588 255.713 488.887 255.478C489.186 255.233 489.527 255.067 489.911 254.982C490.295 254.886 490.727 254.838 491.207 254.838L490.855 256.454C490.279 256.454 489.788 256.523 489.383 256.662C488.988 256.801 488.663 257.009 488.407 257.286C488.162 257.563 487.954 257.91 487.783 258.326C487.623 258.742 487.484 259.222 487.367 259.766L486.631 263.126H484.951ZM493.313 252.854L493.665 251.238H495.441L495.105 252.854H493.313ZM491.185 263.126L492.913 254.966H494.625L492.897 263.126H491.185ZM498.57 263.254C498.229 263.254 497.856 263.243 497.45 263.222C497.056 263.201 496.672 263.174 496.298 263.142C495.925 263.11 495.589 263.078 495.29 263.046L495.562 261.766C495.829 261.787 496.08 261.809 496.314 261.83C496.549 261.851 496.778 261.873 497.002 261.894C497.237 261.905 497.461 261.915 497.674 261.926C497.898 261.926 498.128 261.926 498.362 261.926C498.874 261.926 499.264 261.894 499.53 261.83C499.808 261.755 500.01 261.643 500.138 261.494C500.266 261.334 500.362 261.126 500.426 260.87C500.469 260.763 500.501 260.662 500.522 260.566C500.544 260.47 500.554 260.385 500.554 260.31C500.554 260.107 500.485 259.979 500.346 259.926C500.208 259.873 499.984 259.83 499.674 259.798L497.53 259.526C497.008 259.451 496.645 259.302 496.442 259.078C496.24 258.854 496.138 258.545 496.138 258.15C496.138 258.054 496.149 257.915 496.17 257.734C496.192 257.542 496.224 257.35 496.266 257.158C496.384 256.625 496.544 256.203 496.746 255.894C496.96 255.585 497.216 255.355 497.514 255.206C497.813 255.057 498.165 254.961 498.57 254.918C498.976 254.865 499.434 254.838 499.946 254.838C500.277 254.838 500.618 254.849 500.97 254.87C501.322 254.891 501.664 254.918 501.994 254.95C502.325 254.982 502.602 255.019 502.826 255.062L502.57 256.342C502.272 256.299 501.978 256.267 501.69 256.246C501.413 256.225 501.136 256.209 500.858 256.198C500.581 256.177 500.309 256.166 500.042 256.166C499.68 256.166 499.36 256.182 499.082 256.214C498.805 256.235 498.57 256.305 498.378 256.422C498.186 256.539 498.042 256.731 497.946 256.998C497.904 257.094 497.866 257.201 497.834 257.318C497.802 257.425 497.786 257.547 497.786 257.686C497.786 257.878 497.85 258.006 497.978 258.07C498.106 258.134 498.33 258.182 498.65 258.214L500.762 258.486C501.082 258.518 501.349 258.577 501.562 258.662C501.776 258.747 501.936 258.881 502.042 259.062C502.16 259.243 502.218 259.499 502.218 259.83C502.218 259.937 502.208 260.086 502.186 260.278C502.165 260.459 502.128 260.657 502.074 260.87C501.957 261.393 501.802 261.814 501.61 262.134C501.429 262.454 501.194 262.694 500.906 262.854C500.629 263.014 500.298 263.121 499.914 263.174C499.53 263.227 499.082 263.254 498.57 263.254Z" fill="#454545"/>
<defs>
<clipPath id="clip0_178_1605">
<rect width="90.99" height="84.94" fill="white" transform="translate(219.505 0.75)"/>
</clipPath>
<clipPath id="clip1_178_1605">
<rect width="50.54" height="53.86" fill="white" transform="translate(173.583 190.766)"/>
</clipPath>
<clipPath id="clip2_178_1605">
<rect width="50.54" height="53.86" fill="white" transform="translate(305.876 190.766)"/>
</clipPath>
<clipPath id="clip3_178_1605">
<rect width="50.54" height="53.86" fill="white" transform="translate(438.169 190.766)"/>
</clipPath>
</defs>
</svg>
