<svg width="116" height="26" viewBox="0 0 116 26" fill="none" xmlns="http://www.w3.org/2000/svg">
<path d="M7.58357 25.3855C5.78234 25.3855 4.31638 25.2448 3.19488 24.9622C2.07076 24.6795 1.25692 24.1838 0.755991 23.4765C0.25112 22.7704 0 21.787 0 20.5261C0 19.8582 0.0683679 19.0799 0.201159 18.1911C0.333951 17.305 0.546943 16.2939 0.842765 15.1632C1.34764 13.1319 1.85514 11.4674 2.37447 10.1684C2.88986 8.86942 3.53409 7.84653 4.30192 7.10106C5.07237 6.35559 6.02426 5.83494 7.16285 5.53912C8.30144 5.2433 9.72796 5.09473 11.4424 5.09473C12.8624 5.09473 14.0943 5.18676 15.1461 5.36557C16.194 5.54569 17.0446 5.86124 17.6928 6.31089C18.3449 6.76185 18.7736 7.35876 18.9787 8.10554H19.2022L20.179 5.40501H22.5706L17.7822 25.0792H15.3867L15.9205 22.071H15.7009C15.1395 22.9966 14.4729 23.7026 13.7051 24.1917C12.9347 24.6821 12.0485 25.0029 11.0427 25.1567C10.0369 25.3093 8.88519 25.3868 7.58357 25.3868V25.3855ZM8.51706 23.3818C9.78581 23.3818 10.8376 23.2845 11.6659 23.0912C12.4916 22.898 13.1858 22.6087 13.7485 22.2235C14.3099 21.8383 14.8108 21.3373 15.2579 20.7194C15.5826 20.2816 15.8916 19.7162 16.1874 19.022C16.4832 18.3265 16.7567 17.5876 17.0091 16.8027C17.2576 16.0191 17.4811 15.2487 17.6718 14.4874C17.8664 13.7288 18.007 13.0359 18.0938 12.4048C18.1845 11.7737 18.2266 11.2794 18.2266 10.9191C18.2266 9.55704 17.7756 8.58675 16.875 8.00694C15.9705 7.42844 14.4572 7.13919 12.3286 7.13919C10.8521 7.13919 9.63724 7.23122 8.69324 7.41003C7.74529 7.59015 6.97089 7.95829 6.3661 8.51049C5.75736 9.06401 5.24197 9.8739 4.81336 10.9402C4.38475 12.0078 3.94824 13.4422 3.50517 15.2421C3.23827 16.3228 3.02922 17.2734 2.88591 18.0978C2.73471 18.9208 2.6624 19.615 2.6624 20.1804C2.6624 21.081 2.85304 21.762 3.23827 22.2248C3.6235 22.6876 4.25064 22.9979 5.12233 23.1504C5.99402 23.3056 7.12603 23.3831 8.51574 23.3831L8.51706 23.3818Z" fill="#D1D1D1"/>
<path d="M35.2759 25.3868C34.0045 25.3868 32.887 25.3487 31.9285 25.2711C30.9661 25.1935 30.1707 25.0331 29.533 24.7886C28.8993 24.5454 28.4233 24.2035 28.1131 23.767C27.8028 23.3292 27.6489 22.7389 27.6489 21.9908C27.6489 21.7857 27.6634 21.5727 27.6923 21.3544C27.7213 21.1362 27.7607 20.8982 27.8041 20.6405C27.8475 20.3828 27.9158 20.1133 28.0053 19.8293L30.9306 7.67692H26.229L26.7194 5.71003H31.4171L32.7936 0H35.4994L34.1229 5.71003H39.6672L39.1768 7.67692H33.6364L30.6203 20.137C30.5875 20.2671 30.552 20.4209 30.5086 20.5998C30.4652 20.7799 30.4257 20.9679 30.3968 21.1598C30.3679 21.3531 30.3534 21.5004 30.3534 21.6029C30.3534 22.1683 30.5441 22.5943 30.9293 22.8769C31.3106 23.1596 31.8983 23.3476 32.6806 23.4357C33.4628 23.5277 34.4778 23.5711 35.7177 23.5711L35.2746 25.3855L35.2759 25.3868Z" fill="#D1D1D1"/>
<path d="M52.2815 25.3852C50.0661 25.3852 48.2899 25.238 46.9606 24.9421C45.6314 24.6463 44.6914 24.1454 44.1431 23.438C43.5948 22.7307 43.3253 21.7736 43.3253 20.5626C43.3253 19.8947 43.4042 19.1164 43.5672 18.2303C43.729 17.3428 43.9459 16.358 44.2115 15.2773C44.6545 13.3998 45.1121 11.8116 45.5841 10.5126C46.06 9.21622 46.6938 8.16704 47.4931 7.36897C48.2899 6.57222 49.3851 5.99241 50.7722 5.63216C52.1632 5.27192 53.9828 5.0918 56.2271 5.0918C58.2085 5.0918 59.7612 5.24168 60.8853 5.53619C62.0095 5.83201 62.8062 6.29481 63.2769 6.92458C63.7528 7.55567 63.9869 8.42341 63.9869 9.52782C63.9869 9.8381 63.9435 10.293 63.8541 10.8991C63.7673 11.5026 63.6411 12.1784 63.4794 12.9239C63.3177 13.6693 63.1296 14.4411 62.9245 15.2392L62.7484 16.0504H46.7384C46.5333 16.9247 46.3572 17.707 46.2086 18.4025C46.0613 19.0954 45.9851 19.6883 45.9851 20.1774C45.9851 21.0254 46.1941 21.6763 46.6083 22.1259C47.0185 22.5769 47.714 22.8964 48.6909 23.0896C49.6678 23.2829 50.997 23.3802 52.6825 23.3802C53.4214 23.3802 54.2392 23.3552 55.1438 23.3026C56.0444 23.25 56.9305 23.1922 57.8022 23.1278C58.6739 23.0646 59.4667 22.9805 60.1767 22.878L59.6863 24.8475C59.0959 24.95 58.386 25.046 57.5603 25.1354C56.732 25.2261 55.8603 25.2905 54.9413 25.3287C54.0262 25.3681 53.14 25.3865 52.2828 25.3865L52.2815 25.3852ZM47.1828 14.2373H60.5277L60.7078 13.5444C60.8551 12.799 60.9853 12.1363 61.1036 11.5578C61.2219 10.978 61.2837 10.4837 61.2837 10.0721C61.2837 9.19781 61.0891 8.55489 60.7078 8.14337C60.3226 7.73316 59.7454 7.45575 58.9789 7.31507C58.2085 7.17307 57.2027 7.10208 55.9629 7.10208C54.3956 7.10208 53.1164 7.19279 52.1264 7.37292C51.135 7.55304 50.3541 7.89356 49.7769 8.39449C49.201 8.89673 48.7172 9.61065 48.3359 10.5362C47.9507 11.4618 47.5654 12.6964 47.1828 14.2399V14.2373Z" fill="#D1D1D1"/>
<path d="M67.6451 25.3868L72.4335 5.71263H74.783L74.2532 8.72081H74.5161C74.9303 8.07789 75.4562 7.51254 76.0912 7.02345C76.7289 6.53567 77.5716 6.14256 78.6208 5.84674C79.6687 5.55091 81.0058 5.40234 82.6348 5.40234C84.465 5.40234 85.9099 5.55223 86.9578 5.84674C88.0056 6.14256 88.7379 6.59746 89.1521 7.2154C89.5662 7.83334 89.7714 8.64193 89.7714 9.64509C89.7714 10.1355 89.728 10.6864 89.6412 11.3043C89.5505 11.9223 89.4177 12.5783 89.2415 13.2712L86.2688 25.3855H83.6104L86.4463 13.6564C86.6264 12.9373 86.7632 12.2825 86.8683 11.6896C86.9722 11.0992 87.0235 10.5983 87.0235 10.1855C87.0235 9.41501 86.8473 8.82862 86.4936 8.43156C86.1373 8.03187 85.568 7.76892 84.7858 7.64139C84.0008 7.51123 82.974 7.4468 81.7013 7.4468C79.9579 7.4468 78.5603 7.6598 77.5112 8.08447C76.4633 8.50782 75.6416 9.08763 75.0499 9.82127C74.4596 10.5523 74.0086 11.3898 73.6983 12.3285C73.388 13.2673 73.1001 14.2376 72.8332 15.2407L70.3036 25.3855H67.6451V25.3868Z" fill="#D1D1D1"/>
<path d="M101.013 25.3855C99.2119 25.3855 97.7459 25.2448 96.6244 24.9622C95.5003 24.6795 94.6865 24.1838 94.1856 23.4765C93.6807 22.7704 93.4296 21.787 93.4296 20.5261C93.4296 19.8582 93.4979 19.0799 93.6307 18.1911C93.7635 17.305 93.9765 16.2939 94.2723 15.1632C94.7772 13.1319 95.2847 11.4674 95.804 10.1684C96.3194 8.86942 96.9637 7.84653 97.7315 7.10106C98.5019 6.35559 99.4538 5.83494 100.592 5.53912C101.731 5.2433 103.158 5.09473 104.872 5.09473C106.292 5.09473 107.524 5.18676 108.576 5.36557C109.624 5.54569 110.474 5.86124 111.122 6.31089C111.774 6.76185 112.203 7.35876 112.408 8.10554H112.632L113.609 5.40501H116L111.212 25.0792H108.816L109.35 22.071H109.131C108.569 22.9966 107.903 23.7026 107.135 24.1917C106.364 24.6821 105.478 25.0029 104.472 25.1567C103.466 25.3093 102.315 25.3868 101.013 25.3868V25.3855ZM101.945 23.3818C103.214 23.3818 104.266 23.2845 105.094 23.0912C105.92 22.898 106.614 22.6087 107.177 22.2235C107.738 21.8383 108.239 21.3373 108.686 20.7194C109.011 20.2816 109.32 19.7162 109.616 19.022C109.911 18.3265 110.185 17.5876 110.437 16.8027C110.686 16.0191 110.909 15.2487 111.1 14.4874C111.295 13.7288 111.435 13.0359 111.522 12.4048C111.613 11.7737 111.655 11.2794 111.655 10.9191C111.655 9.55704 111.204 8.58675 110.303 8.00694C109.399 7.42844 107.885 7.13919 105.757 7.13919C104.28 7.13919 103.065 7.23122 102.121 7.41003C101.174 7.59015 100.399 7.95829 99.7943 8.51049C99.1856 9.06401 98.6702 9.8739 98.2416 10.9402C97.813 12.0078 97.3765 13.4422 96.9334 15.2421C96.6665 16.3228 96.4575 17.2734 96.3142 18.0978C96.163 18.9208 96.0907 19.615 96.0907 20.1804C96.0907 21.081 96.2813 21.762 96.6665 22.2248C97.0517 22.6876 97.6789 22.9979 98.5506 23.1504C99.4223 23.3056 100.554 23.3831 101.944 23.3831L101.945 23.3818Z" fill="#D1D1D1"/>
</svg>
