<svg width="162" height="26" viewBox="0 0 162 26" fill="none" xmlns="http://www.w3.org/2000/svg">
<path d="M0 25.3403L4.13626 7.94702H6.16599L5.70628 10.607H5.93557C6.26765 10.0615 6.68896 9.57238 7.19949 9.14091C7.71003 8.70943 8.37418 8.35703 9.19082 8.08369C10.0075 7.81035 11.0297 7.6748 12.2552 7.6748C14.2205 7.6748 15.6189 7.91313 16.449 8.39092C17.2781 8.8687 17.7446 9.60739 17.8474 10.6081H18.0767C18.4087 10.0626 18.8481 9.57351 19.3982 9.14204C19.9471 8.71057 20.6486 8.35816 21.5047 8.08482C22.3598 7.81148 23.426 7.67594 24.7024 7.67594C26.7954 7.67594 28.2445 7.96057 29.0487 8.52872C29.8529 9.09686 30.255 10.0185 30.255 11.2915C30.255 11.7241 30.2099 12.229 30.1206 12.8095C30.0314 13.389 29.897 14.0091 29.7185 14.6687L27.1907 25.3437H24.8549L27.3443 14.9759C27.4979 14.2711 27.6244 13.6454 27.7272 13.0998C27.8289 12.5543 27.8808 12.0991 27.8808 11.7354C27.8808 10.781 27.5747 10.1665 26.9614 9.89429C26.3481 9.62095 25.327 9.48541 23.897 9.48541C22.5687 9.48541 21.4968 9.65031 20.6802 9.98013C19.8624 10.3099 19.2243 10.7821 18.7657 11.3954C18.306 12.0099 17.9423 12.7429 17.6746 13.5957C17.4069 14.4485 17.1573 15.3747 16.928 16.3754L14.7446 25.3448H12.4088L14.8982 14.9771C15.0767 14.2723 15.2111 13.6465 15.3003 13.101C15.3896 12.5554 15.4347 12.1002 15.4347 11.7365C15.4347 10.7821 15.1287 10.1676 14.5153 9.89542C13.902 9.62208 12.8809 9.48654 11.451 9.48654C10.1227 9.48654 9.05076 9.67968 8.23413 10.066C7.41636 10.4523 6.77254 10.9696 6.3004 11.6179C5.82714 12.2663 5.45779 12.9993 5.1901 13.8182C4.9224 14.6371 4.68521 15.4899 4.48189 16.3765L2.29855 25.3459H0V25.3403Z" fill="#D1D1D1"/>
<path d="M34.3923 25.3405L38.5286 7.94721H40.8644L36.7282 25.3405H34.3923ZM39.6773 2.59222L40.2895 0H42.8558L42.2424 2.59222H39.6762H39.6773Z" fill="#D1D1D1"/>
<path d="M43.8521 25.3405L47.9883 7.94717H50.018L49.5583 10.6072H49.7876C50.1446 10.039 50.5975 9.53864 51.1476 9.10604C51.6965 8.67457 52.4239 8.32781 53.3309 8.06577C54.2368 7.80485 55.3923 7.67383 56.7974 7.67383C58.3798 7.67383 59.6245 7.80485 60.5315 8.06577C61.4374 8.32781 62.0699 8.73105 62.4268 9.2766C62.7838 9.82215 62.9634 10.5383 62.9634 11.4249C62.9634 11.8575 62.9249 12.3455 62.8481 12.891C62.7713 13.4366 62.6561 14.016 62.5036 14.6305L59.9374 25.3393H57.64L60.091 14.9716C60.2446 14.3357 60.3655 13.7551 60.4547 13.2321C60.5439 12.7092 60.5891 12.2664 60.5891 11.9016C60.5891 11.2194 60.4355 10.702 60.1294 10.3496C59.8233 9.99722 59.3309 9.76455 58.6554 9.65047C57.9788 9.53752 57.091 9.47991 55.9932 9.47991C54.4864 9.47991 53.2801 9.66741 52.3742 10.0424C51.4672 10.4174 50.759 10.9291 50.2485 11.5774C49.7379 12.2257 49.3482 12.9644 49.0806 13.7946C48.8129 14.6248 48.5632 15.4832 48.3339 16.3699L46.1506 25.3393H43.8532L43.8521 25.3405Z" fill="#D1D1D1"/>
<path d="M74.9508 25.6138C72.9843 25.6138 71.4335 25.5054 70.2972 25.2896C69.1609 25.0739 68.3567 24.6819 67.8846 24.1127C67.4113 23.5445 67.1764 22.7607 67.1764 21.7599C67.1764 21.1466 67.2588 20.4181 67.4249 19.5777C67.5909 18.7362 67.801 17.7705 68.0563 16.6783C68.4132 15.2009 68.7396 13.9449 69.0333 12.9091C69.327 11.8745 69.6975 11.016 70.1436 10.3338C70.5898 9.65159 71.1455 9.11734 71.8096 8.73105C72.4738 8.34475 73.3221 8.07141 74.3567 7.91215C75.3902 7.75289 76.6857 7.67383 78.2445 7.67383C80.2098 7.67383 81.755 7.78791 82.8788 8.01494C84.0016 8.24197 84.7934 8.63504 85.2531 9.19189C85.7128 9.74873 85.9421 10.5394 85.9421 11.5627C85.9421 12.1772 85.872 12.9102 85.732 13.763C85.5908 14.6158 85.3807 15.5872 85.1006 16.6794C84.7685 18.1342 84.4432 19.38 84.1236 20.4135C83.8039 21.4482 83.4278 22.3066 82.994 22.9888C82.5592 23.671 82.0102 24.2053 81.3472 24.5916C80.6831 24.9779 79.8348 25.2456 78.8002 25.3935C77.7667 25.5415 76.4836 25.6149 74.9508 25.6149V25.6138ZM74.874 23.8743C76.0995 23.8743 77.1206 23.8179 77.9384 23.7038C78.755 23.5908 79.4124 23.392 79.9105 23.1074C80.4086 22.8239 80.8164 22.4082 81.136 21.8627C81.4545 21.3171 81.7358 20.618 81.9786 19.7652C82.2215 18.9124 82.4824 17.8846 82.7636 16.6783C83.0437 15.6097 83.2617 14.6835 83.4142 13.8985C83.5678 13.1135 83.6435 12.4494 83.6435 11.9038C83.6435 11.2216 83.4843 10.7043 83.1646 10.3519C82.8449 9.99948 82.296 9.75551 81.5178 9.61884C80.7384 9.48217 79.6733 9.4144 78.3201 9.4144C76.7885 9.4144 75.5687 9.50589 74.6628 9.68774C73.7558 9.86959 73.06 10.2163 72.5754 10.728C72.0898 11.2397 71.6944 11.9727 71.3883 12.9283C71.0822 13.8827 70.7502 15.1342 70.3921 16.6794C70.1628 17.7479 69.9572 18.6696 69.7788 19.4422C69.6003 20.2159 69.5111 20.8744 69.5111 21.4199C69.5111 22.0796 69.6771 22.5856 70.0092 22.938C70.3413 23.2904 70.8959 23.5344 71.6752 23.671C72.4535 23.8077 73.5197 23.8755 74.8729 23.8755L74.874 23.8743Z" fill="#D1D1D1"/>
<path d="M97.7375 25.3405C96.6396 25.3405 95.675 25.3066 94.8459 25.2377C94.0157 25.1699 93.3267 25.0276 92.7778 24.8119C92.2289 24.5961 91.82 24.2945 91.5523 23.9082C91.2846 23.522 91.1502 22.999 91.1502 22.3394C91.1502 22.1575 91.1626 21.97 91.1886 21.7769C91.2134 21.5837 91.2462 21.3736 91.2846 21.1455C91.323 20.9184 91.3806 20.6801 91.4574 20.4294L93.9852 9.68662H89.9258L90.3471 7.94718H94.4065L95.5937 2.89941H97.9295L96.7424 7.94718H101.529L101.108 9.68662H96.3211L93.7164 20.7027C93.6904 20.8168 93.6588 20.9535 93.6204 21.1116C93.582 21.2708 93.5492 21.4358 93.5244 21.6063C93.4984 21.7769 93.486 21.9079 93.486 21.9983C93.486 22.4986 93.652 22.8736 93.9841 23.1232C94.3162 23.374 94.8199 23.5389 95.4965 23.618C96.1731 23.6982 97.0473 23.7377 98.1204 23.7377L97.7375 25.3405Z" fill="#D1D1D1"/>
<path d="M109.419 25.6135C107.861 25.6135 106.597 25.4881 105.627 25.2385C104.657 24.9889 103.954 24.5506 103.521 23.926C103.086 23.3014 102.87 22.4317 102.87 21.3168C102.87 20.7261 102.928 20.0382 103.043 19.2532C103.158 18.4682 103.342 17.577 103.599 16.5763C104.032 14.7804 104.473 13.3075 104.92 12.1599C105.366 11.0123 105.922 10.1087 106.586 9.44911C107.25 8.78948 108.074 8.32977 109.056 8.06772C110.039 7.8068 111.271 7.67578 112.752 7.67578C113.978 7.67578 115.044 7.75598 115.95 7.91411C116.856 8.07337 117.59 8.35236 118.152 8.74994C118.714 9.14753 119.084 9.67727 119.263 10.3358H119.455L120.297 7.94799H122.365L118.229 25.3413H116.161L116.621 22.6813H116.429C115.943 23.5002 115.369 24.1259 114.705 24.5574C114.041 24.99 113.275 25.2735 112.408 25.4102C111.539 25.5468 110.544 25.6146 109.42 25.6146L109.419 25.6135ZM110.223 23.8402C111.321 23.8402 112.227 23.7554 112.942 23.5849C113.657 23.4143 114.257 23.1591 114.742 22.818C115.227 22.4768 115.662 22.0329 116.045 21.4874C116.326 21.1011 116.594 20.6007 116.849 19.9863C117.104 19.373 117.34 18.719 117.557 18.0255C117.774 17.3319 117.965 16.6497 118.132 15.9788C118.298 15.3079 118.419 14.6945 118.496 14.1366C118.573 13.5797 118.611 13.1426 118.611 12.8241C118.611 11.6189 118.221 10.7605 117.443 10.2488C116.664 9.73713 115.356 9.48186 113.517 9.48186C112.239 9.48186 111.193 9.56206 110.377 9.72019C109.559 9.87945 108.889 10.2036 108.366 10.6927C107.842 11.1818 107.396 11.8979 107.026 12.841C106.655 13.7853 106.279 15.0526 105.896 16.6441C105.666 17.5996 105.487 18.44 105.36 19.1674C105.232 19.8948 105.168 20.5092 105.168 21.0085C105.168 21.8048 105.334 22.4068 105.666 22.8157C105.998 23.2246 106.54 23.4979 107.293 23.6346C108.047 23.7713 109.023 23.839 110.223 23.839V23.8402Z" fill="#D1D1D1"/>
<path d="M131.862 25.6139C130.279 25.6139 129.034 25.4829 128.128 25.2219C127.221 24.961 126.583 24.551 126.214 23.9942C125.843 23.4373 125.658 22.7269 125.658 21.8628C125.658 21.4087 125.696 20.9084 125.773 20.3617C125.85 19.8161 125.965 19.2367 126.118 18.6222L128.684 7.94727H131.02L128.53 18.315C128.377 18.9521 128.256 19.5315 128.166 20.0545C128.077 20.5774 128.032 21.0213 128.032 21.385C128.032 22.0672 128.186 22.5846 128.492 22.937C128.798 23.2894 129.289 23.522 129.966 23.6361C130.642 23.7502 131.543 23.8067 132.666 23.8067C134.147 23.8067 135.341 23.6192 136.247 23.2442C137.153 22.8692 137.868 22.3575 138.392 21.7092C138.915 21.0608 139.311 20.3221 139.579 19.492C139.847 18.6618 140.083 17.8033 140.287 16.9167L142.471 7.94727H144.806L140.632 25.3405H138.602L139.062 22.6806H138.87C138.512 23.2261 138.052 23.7208 137.491 24.1636C136.928 24.6064 136.201 24.9599 135.307 25.2208C134.413 25.4817 133.264 25.6128 131.86 25.6128L131.862 25.6139Z" fill="#D1D1D1"/>
<path d="M147.833 25.3403L151.969 7.94702H153.999L153.31 11.5287H153.502C154.038 10.4602 154.663 9.65257 155.379 9.10702C156.094 8.56147 156.93 8.18647 157.887 7.98203C158.845 7.77759 159.91 7.6748 161.085 7.6748L160.625 9.72147C159.171 9.72147 157.951 9.89768 156.968 10.2501C155.985 10.6025 155.187 11.1142 154.575 11.7851C153.962 12.456 153.47 13.2467 153.101 14.1559C152.73 15.0652 152.405 16.0546 152.124 17.1231L150.132 25.3426H147.835L147.833 25.3403Z" fill="#D1D1D1"/>
</svg>
