<svg width="144" height="96" viewBox="0 0 144 96" fill="none" xmlns="http://www.w3.org/2000/svg">
<path d="M137.676 82.7188H6.3241C3.05199 82.7188 0.399414 85.3713 0.399414 88.6434V89.1564C0.399414 92.4285 3.05199 95.0811 6.3241 95.0811H137.676C140.948 95.0811 143.601 92.4285 143.601 89.1564V88.6434C143.601 85.3713 140.948 82.7188 137.676 82.7188Z" fill="#F4F8F9"/>
<path d="M73.0002 50.7959C100.495 50.7959 128.083 60.9439 138.821 65.381C141.378 66.4326 142.532 69.3992 141.369 71.9042L140.762 73.2122C139.668 75.5633 136.932 76.632 134.538 75.6488C124.501 71.5451 98.2549 61.91 73.0002 61.91C47.7455 61.91 19.8063 71.6905 9.359 75.7685C6.93954 76.7089 4.2123 75.5804 3.16929 73.2037L2.58793 71.8871C1.48507 69.3736 2.68197 66.4412 5.23822 65.4323C16.3438 61.0636 45.3517 50.7959 72.9916 50.7959H73.0002Z" fill="#F4F8F9"/>
<path d="M72.7781 77.4182C63.0062 77.4182 53.2001 73.8104 49.3786 72.2374C48.4724 71.8612 48.062 70.8096 48.4724 69.9205L48.6861 69.4588C49.0708 68.621 50.0454 68.2448 50.9004 68.5953C54.4654 70.0573 63.8013 73.477 72.7781 73.477C81.7549 73.477 91.6892 69.9974 95.3996 68.5526C96.2631 68.2192 97.2292 68.621 97.5968 69.4674L97.802 69.9376C98.1953 70.8353 97.7678 71.8783 96.8616 72.2288C92.9118 73.7848 82.6013 77.4268 72.7781 77.4268V77.4182Z" fill="#50A1B0"/>
<path d="M137.676 0.0820312H6.3241C3.05199 0.0820312 0.399414 2.7346 0.399414 6.00671V6.51967C0.399414 9.79179 3.05199 12.4444 6.3241 12.4444H137.676C140.948 12.4444 143.601 9.79179 143.601 6.51967V6.00671C143.601 2.7346 140.948 0.0820312 137.676 0.0820312Z" fill="#F4F8F9"/>
<path d="M70.9995 44.368C43.5048 44.368 15.9162 34.2199 5.17822 29.7828C2.62197 28.7313 1.46781 25.7647 2.63052 23.2597L3.23752 21.9517C4.33183 19.6006 7.06762 18.5319 9.46143 19.5151C19.4983 23.6188 45.7448 33.2539 70.9995 33.2539C96.2542 33.2539 124.193 23.4734 134.641 19.3954C137.06 18.455 139.787 19.5835 140.83 21.9602L141.412 23.2768C142.515 25.7903 141.318 28.7227 138.761 29.7315C127.656 34.1002 98.648 44.368 71.008 44.368H70.9995Z" fill="#F4F8F9"/>
<path d="M71.2221 17.7449C80.9939 17.7449 90.8 21.3527 94.6216 22.9258C95.5278 23.3019 95.9382 24.3535 95.5278 25.2426L95.3141 25.7043C94.9293 26.5421 93.9547 26.9183 93.0998 26.5678C89.5347 25.1058 80.1989 21.6861 71.2221 21.6861C62.2453 21.6861 52.311 25.1657 48.6005 26.6105C47.7371 26.944 46.771 26.5421 46.4034 25.6958L46.1982 25.2255C45.8049 24.3279 46.2324 23.2848 47.1386 22.9343C51.0884 21.3783 61.3989 17.7363 71.2221 17.7363V17.7449Z" fill="#50A1B0"/>
</svg>
