<svg width="172" height="188" viewBox="0 0 172 188" fill="none" xmlns="http://www.w3.org/2000/svg">
<g clip-path="url(#clip0_22_1377)">
<path d="M149.748 79.5418C153.209 79.5418 156.009 76.7412 156.009 73.2812V72.7391C156.009 69.2791 153.209 66.4785 149.748 66.4785H86.8984V79.5418H149.748Z" fill="#F4F8F9"/>
<path d="M10.9584 66.4697C7.49832 66.4697 4.69775 69.2703 4.69775 72.7303V73.2724C4.69775 76.7324 7.49832 79.533 10.9584 79.533H85.0919V66.4697H10.9584Z" fill="#F4F8F9"/>
<path d="M145.06 143.124C148.52 143.124 151.32 140.323 151.32 136.863V136.321C151.32 132.861 148.52 130.061 145.06 130.061H86.8984V143.124H145.06Z" fill="#F4F8F9"/>
<path d="M6.26061 130.061C2.80056 130.061 0 132.861 0 136.321V136.863C0 140.323 2.80056 143.124 6.26061 143.124H85.0919V130.061H6.26061Z" fill="#F4F8F9"/>
<path d="M24.871 108.866C21.4109 108.866 18.6104 111.667 18.6104 115.127V115.669C18.6104 119.129 21.4109 121.929 24.871 121.929H85.0921V108.866H24.871Z" fill="#F4F8F9"/>
<path d="M163.661 121.929C167.121 121.929 169.922 119.129 169.922 115.669V115.127C169.922 111.667 167.121 108.866 163.661 108.866H86.8984V121.929H163.661Z" fill="#F4F8F9"/>
<path d="M165.73 45.2842H86.8984V58.3474H165.73C169.19 58.3474 171.99 55.5469 171.99 52.0868V51.5448C171.99 48.0847 169.19 45.2842 165.73 45.2842Z" fill="#F4F8F9"/>
<path d="M26.9398 45.2754C23.4798 45.2754 20.6792 48.076 20.6792 51.536V52.078C20.6792 55.5381 23.4798 58.3387 26.9398 58.3387H85.0921V45.2754H26.9398Z" fill="#F4F8F9"/>
<path d="M15.683 87.6729C12.2229 87.6729 9.42236 90.4734 9.42236 93.9335V94.4755C9.42236 97.9356 12.2229 100.736 15.683 100.736H85.0917V87.6729H15.683Z" fill="#F4F8F9"/>
<path d="M154.482 100.736C157.942 100.736 160.743 97.9356 160.743 94.4755V93.9335C160.743 90.4734 157.942 87.6729 154.482 87.6729H86.8984V100.736H154.482Z" fill="#F4F8F9"/>
<path d="M86.4469 30.5225H85.5435V39.6649H86.4469V30.5225Z" fill="#50A1B0"/>
<path d="M86.4469 15.4453H85.5435V24.5878H86.4469V15.4453Z" fill="#50A1B0"/>
<path d="M86.4469 0.692383H85.5435V9.83486H86.4469V0.692383Z" fill="#50A1B0"/>
<path d="M86.4469 178.33H85.5435V187.473H86.4469V178.33Z" fill="#50A1B0"/>
<path d="M86.4469 163.252H85.5435V172.394H86.4469V163.252Z" fill="#50A1B0"/>
<path d="M86.4469 148.499H85.5435V157.641H86.4469V148.499Z" fill="#50A1B0"/>
</g>
<defs>
<clipPath id="clip0_22_1377">
<rect width="172" height="186.779" fill="white" transform="translate(0 0.692383)"/>
</clipPath>
</defs>
</svg>
