<svg width="168" height="168" viewBox="0 0 168 168" fill="none" xmlns="http://www.w3.org/2000/svg">
<g clip-path="url(#clip0_22_1402)">
<path d="M84.0038 167.082C37.9552 167.082 0.5 129.627 0.5 83.5858C0.5 37.5447 37.9552 0.0820312 84.0038 0.0820312C130.052 0.0820312 167.508 37.5372 167.508 83.5858C167.508 129.634 130.052 167.09 84.0038 167.09V167.082ZM84.0038 9.80482C43.3176 9.80482 10.2228 42.8997 10.2228 83.5858C10.2228 124.272 43.3176 157.367 84.0038 157.367C124.69 157.367 157.785 124.272 157.785 83.5858C157.785 42.8997 124.682 9.80482 84.0038 9.80482Z" fill="#F4F8F9"/>
<path d="M27.4319 75.5093C29.1446 63.3109 34.7314 52.04 43.5941 43.1773L43.6315 43.1399C52.4942 34.2996 63.7427 28.7277 75.9261 27.015V25.5117C63.3463 27.2319 51.7239 32.9609 42.577 42.0853L42.5396 42.1227C33.1608 51.5015 27.6413 63.2885 25.9585 75.5093H27.4394H27.4319Z" fill="#50A1B0"/>
<path d="M92.0737 25.5039V27.0147C104.295 28.7349 115.573 34.3292 124.443 43.2143C133.283 52.077 138.855 63.3255 140.568 75.5089H142.049C140.366 63.3031 134.854 51.5311 125.505 42.1598C116.351 32.9904 104.698 27.2316 92.0737 25.5039Z" fill="#50A1B0"/>
<path d="M140.568 91.6562C138.855 103.855 133.268 115.126 124.406 123.988L124.368 124.026C115.289 133.09 103.898 138.453 92.0737 140.128V141.631C104.28 139.949 116.052 134.437 125.423 125.08L125.46 125.043C134.839 115.664 140.359 103.877 142.041 91.6562H140.561H140.568Z" fill="#50A1B0"/>
<path d="M75.9263 140.128C64.072 138.453 52.644 133.06 43.5569 123.951C34.7166 115.088 29.1447 103.84 27.432 91.6562H25.9512C27.634 103.862 33.146 115.634 42.4949 125.005C51.8736 134.407 63.6831 139.941 75.9263 141.631V140.128Z" fill="#50A1B0"/>
<path d="M67.6765 44.0442L62.9423 48.7784C62.2991 49.4216 61.2595 49.4216 60.6163 48.7784L50.7963 38.9584L37.9921 26.1543C37.3489 25.5111 36.3093 25.5111 35.6661 26.1543L26.5791 35.2413C25.9359 35.8845 25.9359 36.9241 26.5791 37.5673L42.3375 53.3257L49.2033 60.1915C49.8465 60.8347 49.8465 61.8743 49.2033 62.5175L44.469 67.2517C43.4294 68.2913 44.1698 70.0639 45.6357 70.0639H68.8582C69.7707 70.0639 70.5036 69.3309 70.5036 68.4185V45.196C70.5036 43.7301 68.7311 42.9971 67.6915 44.0292L67.6765 44.0442Z" fill="#F4F8F9"/>
<path d="M100.323 123.128L105.057 118.394C105.701 117.751 106.74 117.751 107.383 118.394L117.203 128.214L130.008 141.018C130.651 141.661 131.69 141.661 132.334 141.018L141.421 131.931C142.064 131.288 142.064 130.248 141.421 129.605L125.662 113.847L118.796 106.981C118.153 106.338 118.153 105.298 118.796 104.655L123.531 99.9205C124.57 98.8809 123.83 97.1084 122.364 97.1084H99.1415C98.229 97.1084 97.4961 97.8413 97.4961 98.7538V121.976C97.4961 123.442 99.2686 124.175 100.308 123.143L100.323 123.128Z" fill="#F4F8F9"/>
<path d="M44.4617 99.9052L49.1959 104.639C49.8391 105.283 49.8391 106.322 49.1959 106.965L39.3759 116.785L26.5718 129.59C25.9286 130.233 25.9286 131.272 26.5718 131.916L35.6588 141.003C36.302 141.646 37.3416 141.646 37.9848 141.003L53.7432 125.244L60.609 118.378C61.2522 117.735 62.2918 117.735 62.935 118.378L67.6692 123.113C68.7088 124.152 70.4813 123.412 70.4813 121.946V98.7235C70.4813 97.8111 69.7484 97.0781 68.836 97.0781H45.6135C44.1476 97.0781 43.4146 98.8507 44.4467 99.8902L44.4617 99.9052Z" fill="#F4F8F9"/>
<path d="M123.546 67.2596L118.811 62.5253C118.168 61.8821 118.168 60.8425 118.811 60.1993L128.631 50.3793L141.435 37.5751C142.079 36.9319 142.079 35.8924 141.435 35.2492L132.348 26.1621C131.705 25.5189 130.666 25.5189 130.022 26.1621L114.264 41.9205L107.398 48.7863C106.755 49.4295 105.715 49.4295 105.072 48.7863L100.338 44.052C99.2984 43.0124 97.5259 43.7528 97.5259 45.2187V68.4412C97.5259 69.3537 98.2588 70.0866 99.1713 70.0866H122.394C123.86 70.0866 124.593 68.3141 123.561 67.2745L123.546 67.2596Z" fill="#F4F8F9"/>
<path d="M102.2 78.9264L84.0037 60.7373L65.8072 78.9264C64.6404 80.0931 64.6404 81.9928 65.8072 83.1595L80.6157 97.9606L75.53 103.046L78.918 106.434L84.0037 101.349L89.0895 106.434L92.4775 103.046L87.3918 97.9606L102.2 83.1595C103.367 81.9928 103.367 80.0931 102.2 78.9264ZM84.0037 94.5726L70.4666 81.043L84.0037 67.5133L97.5409 81.043L84.0037 94.5726Z" fill="#50A1B0"/>
</g>
<defs>
<clipPath id="clip0_22_1402">
<rect width="167" height="167" fill="white" transform="translate(0.5 0.0820312)"/>
</clipPath>
</defs>
</svg>
