<svg width="132" height="174" viewBox="0 0 132 174" fill="none" xmlns="http://www.w3.org/2000/svg">
<g clip-path="url(#clip0_22_1436)">
<path d="M23.7739 1.84513V58.0399C23.7739 59.0176 22.9805 59.803 22.0108 59.803H14.8302C13.2594 59.803 12.474 61.7024 13.58 62.8163L31.1709 80.4072C31.8601 81.0965 32.9741 81.0965 33.6633 80.4072L51.2542 62.8163C52.3681 61.7024 51.5747 59.803 50.004 59.803H42.8314C41.8537 59.803 41.0683 59.0096 41.0683 58.0399V1.84513C41.0843 0.875426 40.2909 0.0820312 39.3212 0.0820312H25.545C24.5673 0.0820312 23.7819 0.875426 23.7819 1.84513H23.7739Z" fill="#F4F8F9"/>
<path d="M93.4804 1.84513V58.0399C93.4804 59.0176 92.687 59.803 91.7173 59.803H84.5367C82.9659 59.803 82.1806 61.7024 83.2865 62.8163L100.877 80.4072C101.567 81.0965 102.681 81.0965 103.37 80.4072L120.961 62.8163C122.075 61.7024 121.281 59.803 119.711 59.803H112.538C111.56 59.803 110.775 59.0096 110.775 58.0399V1.84513C110.775 0.867412 109.981 0.0820312 109.012 0.0820312H95.2355C94.2578 0.0820312 93.4724 0.875426 93.4724 1.84513H93.4804Z" fill="#F4F8F9"/>
<path d="M58.6274 19.059V104.193C58.6274 105.17 57.842 105.956 56.8643 105.956H49.6837C48.1129 105.956 47.3275 107.855 48.4335 108.969L66.0244 126.56C66.7136 127.249 67.8276 127.249 68.5168 126.56L86.1077 108.969C87.2217 107.855 86.4283 105.956 84.8575 105.956H77.6849C76.7072 105.956 75.9218 105.162 75.9218 104.193V19.059C75.9218 18.0813 75.1284 17.2959 74.1587 17.2959H60.3825C59.4048 17.2959 58.6194 18.0893 58.6194 19.059H58.6274Z" fill="#F4F8F9"/>
<path d="M65.0624 153.095C39.2891 153.095 13.4276 143.583 3.36192 139.423C0.965708 138.438 -0.116194 135.657 0.973722 133.309L1.54272 132.082C2.56853 129.879 5.13303 128.877 7.37698 129.798C16.7855 133.645 41.3888 142.677 65.0624 142.677C88.736 142.677 114.926 133.509 124.719 129.686C126.987 128.805 129.544 129.863 130.521 132.09L131.066 133.325C132.1 135.681 130.978 138.43 128.582 139.375C118.172 143.47 90.98 153.095 65.0704 153.095H65.0624Z" fill="#F4F8F9"/>
<path d="M65.0624 173.082C39.2891 173.082 13.4276 163.569 3.36192 159.41C0.965708 158.424 -0.116194 155.643 0.973722 153.295L1.54272 152.069C2.56853 149.865 5.13303 148.863 7.37698 149.785C16.7855 153.631 41.3888 162.663 65.0624 162.663C88.736 162.663 114.926 153.495 124.719 149.673C126.987 148.791 129.544 149.849 130.521 152.077L131.066 153.311C132.1 155.667 130.978 158.416 128.582 159.362C118.172 163.457 90.98 173.082 65.0704 173.082H65.0624Z" fill="#F4F8F9"/>
</g>
<defs>
<clipPath id="clip0_22_1436">
<rect width="130.902" height="173" fill="white" transform="translate(0.548828 0.0820312)"/>
</clipPath>
</defs>
</svg>
