<svg width="146" height="188" viewBox="0 0 146 188" fill="none" xmlns="http://www.w3.org/2000/svg">
<g clip-path="url(#clip0_22_1423)">
<path d="M22.4301 1.98772V62.7272C22.4301 63.784 21.5726 64.6328 20.5245 64.6328H12.7631C11.0653 64.6328 10.2164 66.6858 11.4118 67.8898L30.4254 86.9034C31.1703 87.6484 32.3744 87.6484 33.1193 86.9034L52.1329 67.8898C53.3369 66.6858 52.4794 64.6328 50.7816 64.6328H43.0289C41.9721 64.6328 41.1232 63.7753 41.1232 62.7272V1.98772C41.1405 0.93959 40.283 0.0820312 39.2262 0.0820312H24.3358C23.279 0.0820312 22.4301 0.93959 22.4301 1.98772Z" fill="#F4F8F9"/>
<path d="M97.7656 1.98772V62.7272C97.7656 63.784 96.908 64.6328 95.8599 64.6328H88.0986C86.4008 64.6328 85.5519 66.6858 86.7473 67.8898L105.761 86.9034C106.506 87.6484 107.71 87.6484 108.455 86.9034L127.468 67.8898C128.672 66.6858 127.815 64.6328 126.117 64.6328H118.364C117.308 64.6328 116.459 63.7753 116.459 62.7272V1.98772C116.459 0.930928 115.601 0.0820312 114.553 0.0820312H99.6626C98.6058 0.0820312 97.7569 0.93959 97.7569 1.98772H97.7656Z" fill="#F4F8F9"/>
<path d="M60.102 20.5942V112.613C60.102 113.67 59.2531 114.519 58.1963 114.519H50.435C48.7372 114.519 47.8883 116.571 49.0837 117.776L68.0972 136.789C68.8422 137.534 70.0462 137.534 70.7912 136.789L89.8047 117.776C91.0088 116.571 90.1512 114.519 88.4534 114.519H80.7008C79.644 114.519 78.7951 113.661 78.7951 112.613V20.5942C78.7951 19.5374 77.9375 18.6885 76.8894 18.6885H61.999C60.9423 18.6885 60.0934 19.546 60.0934 20.5942H60.102Z" fill="#F4F8F9"/>
<path d="M139.543 152.018H6.45702C3.1417 152.018 0.454102 154.705 0.454102 158.02V158.54C0.454102 161.856 3.1417 164.543 6.45702 164.543H139.543C142.859 164.543 145.546 161.856 145.546 158.54V158.02C145.546 154.705 142.859 152.018 139.543 152.018Z" fill="#F4F8F9"/>
<path d="M139.543 174.548H6.45702C3.1417 174.548 0.454102 177.235 0.454102 180.551V181.07C0.454102 184.386 3.1417 187.073 6.45702 187.073H139.543C142.859 187.073 145.546 184.386 145.546 181.07V180.551C145.546 177.235 142.859 174.548 139.543 174.548Z" fill="#F4F8F9"/>
</g>
<defs>
<clipPath id="clip0_22_1423">
<rect width="145.092" height="187" fill="white" transform="translate(0.454102 0.0820312)"/>
</clipPath>
</defs>
</svg>
