<svg width="220" height="162" viewBox="0 0 220 162" fill="none" xmlns="http://www.w3.org/2000/svg">
<path d="M2.09611 49.4645C2.09611 49.4645 4.52685 56.9134 11.8288 62.6921C19.1307 68.4708 22.5824 69.0246 26.841 73.3117C31.0997 77.5989 33.9388 88.7723 33.9388 88.7723C33.9388 88.7723 32.9276 84.2976 33.3262 80.9482C33.7346 77.5989 35.3583 71.8202 35.3583 71.8202C35.3583 71.8202 35.7667 79.4567 39.2086 81.8771C42.6603 84.2976 52.393 87.4683 58.6837 92.3092C64.9745 97.1501 70.0401 108.145 70.0401 108.145C70.0401 108.145 69.2331 101.062 68.4164 98.6417C67.5997 96.2212 65.3731 93.2381 65.3731 93.2381C65.3731 93.2381 72.6751 102.366 86.2678 104.974C99.8604 107.582 106.958 103.858 123.993 106.653C141.027 109.449 151.577 112.986 151.577 112.986C151.577 112.986 147.931 108.886 143.468 107.77C139.005 106.653 134.338 104.045 134.338 104.045C134.338 104.045 152.588 104.974 167.396 101.812C182.204 98.6417 198.636 88.9598 198.636 88.9598C198.636 88.9598 176.934 134.609 109.389 130.134C41.8436 125.66 27.8522 93.247 27.8522 93.247C27.8522 93.247 53.4042 135.172 121.154 133.68C188.903 132.189 206.949 85.6105 209.584 78.7153C212.219 71.8202 208.777 49.4645 213.434 49.2769C218.101 49.0893 220.532 56.5472 218.908 65.8628C217.285 75.1784 213.638 87.2896 210.994 91.9519C208.349 96.6142 203.488 102.572 203.488 102.572C203.488 102.572 195.982 125.678 183.808 135.368C171.635 145.059 150.138 152.883 150.138 152.883C150.138 152.883 155.816 148.221 159.064 144.13C162.311 140.039 165.354 134.814 165.354 134.814C165.354 134.814 149.943 155.125 122.962 159.6C95.981 164.074 80.5701 156.992 80.5701 156.992C80.5701 156.992 88.4846 156.992 100.648 152.704C112.821 148.417 115.864 144.693 115.864 144.693C115.864 144.693 92.1307 156.992 62.3201 148.792C32.4998 140.593 22.3587 126.624 22.3587 126.624C22.3587 126.624 24.9937 128.67 34.7361 130.161C44.4688 131.653 48.1246 130.724 48.1246 130.724C48.1246 130.724 11.6149 120.292 4.51712 91.7822C-2.57091 63.2548 2.09611 49.4645 2.09611 49.4645Z" fill="#F4F8F9"/>
<path d="M101.601 31.7982L76.3801 8.63867L51.1587 31.7982C49.535 33.2898 49.535 35.7013 51.1587 37.1929L71.6839 56.0385L64.6347 62.5139L69.3309 66.8278L76.3801 60.3524L83.4292 66.8278L88.1254 62.5139L81.0763 56.0385L101.601 37.1929C103.225 35.7013 103.225 33.2898 101.601 31.7982ZM76.3704 51.7156L57.605 34.4866L76.3704 17.2576L95.1357 34.4866L76.3704 51.7156Z" fill="#F4F8F9"/>
<path d="M171.547 33.0302L153.55 16.5068L135.553 33.0302C134.396 34.0931 134.396 35.8169 135.553 36.8797L150.196 50.3217L145.169 54.9394L148.523 58.0208L153.55 53.4031L158.577 58.0208L161.931 54.9394L156.904 50.3217L171.547 36.8797C172.704 35.8169 172.704 34.0931 171.547 33.0302ZM153.55 47.2404L140.162 34.9505L153.55 22.6607L166.939 34.9505L153.55 47.2404Z" fill="#F4F8F9"/>
<path d="M132.161 48.0444L119.929 36.8174L107.698 48.0444C106.91 48.7678 106.91 49.9379 107.698 50.6613L117.644 59.7983L114.231 62.9333L116.507 65.0233L119.919 61.8883L123.332 65.0233L125.607 62.9333L122.195 59.7983L132.141 50.6613C132.929 49.9379 132.929 48.7678 132.141 48.0444H132.161ZM119.929 57.6994L110.828 49.3484L119.929 40.9974L129.03 49.3484L119.929 57.6994Z" fill="#50A1B0"/>
<path d="M118.811 17.5791L112.88 12.1309L106.949 17.5791C106.57 17.9274 106.57 18.4991 106.949 18.8474L111.782 23.2775L110.119 24.7958L111.228 25.814L112.89 24.2957L114.553 25.814L115.661 24.7958L113.999 23.2775L118.831 18.8474C119.21 18.4991 119.21 17.9274 118.831 17.5791H118.811ZM112.871 22.2682L108.456 18.2133L112.871 14.1583L117.285 18.2133L112.871 22.2682Z" fill="#F4F8F9"/>
<path d="M137.158 5.53029L131.227 0.0820312L125.296 5.53029C124.916 5.87862 124.916 6.45024 125.296 6.79857L130.128 11.2286L128.465 12.747L129.574 13.7652L131.236 12.2468L132.899 13.7652L134.007 12.747L132.345 11.2286L137.177 6.79857C137.556 6.45024 137.556 5.87862 137.177 5.53029H137.158ZM131.227 10.2194L126.812 6.16443L131.227 2.1095L135.641 6.16443L131.227 10.2194Z" fill="#50A1B0"/>
</svg>
