<svg width="188" height="176" viewBox="0 0 188 176" fill="none" xmlns="http://www.w3.org/2000/svg">
<path d="M0 174.608L8.01671 142.015H33.9057L32.8106 146.424H13.2234L10.8267 155.983H27.7485L26.7155 160.289H9.77294L7.31421 170.199H26.9634L25.8683 174.608H0Z" fill="#898989"/>
<path d="M40.5796 174.608L48.5963 142.015H54.8154L46.7987 174.608H40.5796Z" fill="#898989"/>
<path d="M63.7202 174.608L71.7369 142.015H88.9894C91.6547 142.015 93.7002 142.282 95.1259 142.798C96.5722 143.313 97.5639 144.054 98.1631 145.002C98.7416 145.95 99.0309 147.083 99.0309 148.422C99.0309 148.793 99.0102 149.205 98.9483 149.658C98.8863 150.091 98.8243 150.565 98.721 151.059C98.6383 151.554 98.5144 152.028 98.3697 152.501C98.0392 153.696 97.6672 154.788 97.254 155.736C96.8408 156.704 96.3449 157.549 95.787 158.27C95.2292 158.991 94.506 159.609 93.6382 160.124C92.7704 160.64 91.696 161.031 90.415 161.299L93.4729 174.608H87.0265L84.5678 161.958C84.1752 161.958 83.762 161.958 83.3487 161.979C82.9355 161.979 82.5016 161.999 82.0677 161.999H73.0593L69.9394 174.608H63.7202ZM74.0923 157.755H83.638C85.3116 157.755 86.6546 157.652 87.6877 157.426C88.7001 157.199 89.5059 156.869 90.0638 156.416C90.6216 155.963 91.0555 155.365 91.3655 154.644C91.6754 153.923 91.944 153.058 92.1506 152.089C92.3365 151.513 92.4605 150.997 92.5225 150.524C92.6051 150.05 92.6258 149.617 92.6258 149.246C92.6258 148.608 92.4605 148.072 92.1093 147.639C91.758 147.207 91.1588 146.877 90.3117 146.671C89.4646 146.465 88.2662 146.362 86.7372 146.362H76.9023L74.0717 157.776L74.0923 157.755Z" fill="#898989"/>
<path d="M169.59 175C168.02 175 166.367 174.959 164.652 174.897C162.917 174.836 161.222 174.753 159.549 174.629C157.875 174.526 156.367 174.403 155.024 174.279L156.057 169.973C157.338 170.076 158.702 170.159 160.148 170.262C161.594 170.365 163.02 170.427 164.384 170.509C165.747 170.591 166.925 170.612 167.896 170.612C169.136 170.612 170.21 170.612 171.119 170.571C172.028 170.53 172.834 170.468 173.516 170.323C174.198 170.2 174.818 170.014 175.376 169.747C175.851 169.52 176.243 169.211 176.574 168.799C176.905 168.387 177.194 167.913 177.442 167.377C177.69 166.842 177.896 166.306 178.041 165.75C178.186 165.193 178.289 164.678 178.372 164.184C178.434 163.689 178.475 163.298 178.475 162.968C178.475 162.433 178.33 162.021 178.041 161.753C177.752 161.485 177.256 161.279 176.574 161.155C175.892 161.032 174.942 160.908 173.743 160.784L164.9 159.692C162.607 159.445 161.057 158.868 160.231 157.962C159.404 157.055 159.012 155.84 159.012 154.295C159.012 153.718 159.053 153.1 159.156 152.399C159.239 151.699 159.384 150.998 159.569 150.277C160.086 148.382 160.768 146.857 161.636 145.724C162.503 144.591 163.599 143.725 164.88 143.148C166.181 142.572 167.669 142.18 169.384 141.974C171.099 141.768 173.02 141.665 175.169 141.665C176.739 141.665 178.31 141.706 179.921 141.768C181.512 141.83 183.041 141.933 184.446 142.056C185.872 142.18 187.049 142.324 188 142.489L187.008 146.651C185.996 146.527 184.818 146.424 183.516 146.342C182.215 146.259 180.892 146.198 179.549 146.156C178.227 146.115 176.946 146.095 175.748 146.095C174.549 146.095 173.433 146.136 172.504 146.198C171.574 146.259 170.789 146.362 170.128 146.486C169.466 146.61 168.888 146.795 168.371 147.063C167.855 147.31 167.421 147.681 167.028 148.134C166.656 148.588 166.346 149.103 166.099 149.68C165.871 150.256 165.706 150.833 165.603 151.41C165.52 151.987 165.458 152.543 165.458 153.038C165.458 153.8 165.747 154.295 166.305 154.562C166.863 154.81 167.875 155.016 169.342 155.18L177.855 156.087C179.239 156.252 180.458 156.478 181.533 156.767C182.607 157.076 183.454 157.591 184.074 158.333C184.694 159.074 185.004 160.187 185.004 161.67C185.004 162.021 185.004 162.412 184.942 162.845C184.901 163.277 184.839 163.751 184.756 164.246C184.673 164.74 184.549 165.255 184.405 165.832C183.868 167.975 183.124 169.685 182.215 170.942C181.306 172.198 180.231 173.125 178.991 173.723C177.752 174.3 176.347 174.671 174.797 174.836C173.227 175 171.491 175.083 169.549 175.083L169.59 175Z" fill="#898989"/>
<path d="M143.02 143.973L138.309 148.67C138.371 149 138.412 149.35 138.412 149.742C138.412 150.648 138.288 151.823 138.061 153.224C137.834 154.625 137.441 156.335 136.883 158.312C136.305 160.702 135.768 162.68 135.272 164.225C134.776 165.771 134.259 166.986 133.722 167.852C133.185 168.717 132.503 169.335 131.697 169.726C130.892 170.097 129.879 170.345 128.66 170.427C127.441 170.53 125.912 170.571 124.053 170.571C121.986 170.571 120.313 170.509 119.073 170.406C118.226 170.324 117.544 170.159 117.007 169.871L113.061 173.806C113.639 174.032 114.3 174.218 115.044 174.341C117.152 174.753 120.065 174.96 123.784 174.96C126.759 174.96 129.239 174.815 131.201 174.547C133.164 174.28 134.776 173.806 136.036 173.126C137.297 172.446 138.33 171.498 139.115 170.262C139.921 169.026 140.623 167.44 141.243 165.503C141.863 163.566 142.524 161.197 143.206 158.415C143.722 156.335 144.115 154.522 144.384 152.997C144.652 151.472 144.797 150.113 144.797 148.938C144.797 146.981 144.363 145.477 143.495 144.406C143.35 144.241 143.185 144.076 143.02 143.911V143.973Z" fill="#D1D1D1"/>
<path d="M115.56 166.677C115.56 166.1 115.643 165.482 115.767 164.781C115.912 163.978 116.098 163.03 116.346 161.938C116.573 160.846 116.862 159.651 117.193 158.312C117.771 155.922 118.308 153.944 118.784 152.399C119.259 150.854 119.775 149.638 120.313 148.773C120.85 147.908 121.532 147.29 122.358 146.898C123.185 146.507 124.197 146.28 125.437 146.198C126.676 146.095 128.226 146.053 130.086 146.053C132.131 146.053 133.743 146.115 134.982 146.218C135.334 146.259 135.664 146.301 135.953 146.383L139.879 142.469C139.611 142.407 139.342 142.345 139.073 142.283C136.987 141.871 134.073 141.665 130.354 141.665C127.379 141.665 124.879 141.789 122.895 142.036C120.912 142.283 119.28 142.757 117.998 143.437C116.717 144.117 115.684 145.085 114.879 146.321C114.073 147.578 113.391 149.164 112.812 151.101C112.234 153.038 111.614 155.407 110.953 158.188C110.436 160.269 110.044 162.103 109.734 163.669C109.424 165.235 109.279 166.594 109.279 167.769C109.279 169.52 109.651 170.88 110.354 171.91L115.56 166.718V166.677Z" fill="#D1D1D1"/>
<path d="M144.053 50.9095L92.9564 0L41.8809 50.9095C38.5957 54.1853 38.5957 59.5008 41.8809 62.7561L83.452 104.188L69.1749 118.404L78.6999 127.881L92.9771 113.666L107.254 127.881L116.779 118.404L102.502 104.188L144.073 62.7561C147.358 59.4802 147.358 54.1647 144.073 50.9095H144.053ZM92.9564 94.6904L54.9597 56.8225L92.9564 18.9546L130.953 56.8225L92.9564 94.6904Z" fill="#D1D1D1"/>
</svg>
