<svg width="63" height="65" viewBox="0 0 63 65" fill="none" xmlns="http://www.w3.org/2000/svg">
<path d="M42.5181 24.1781C42.2659 23.5186 41.9556 23.053 41.4706 22.5486C40.9856 22.0442 40.5006 21.7532 39.8411 21.501C39.3367 21.3071 38.5995 21.0743 37.2222 21.0161C35.7285 20.9385 35.2823 20.9385 31.5189 20.9385C27.7554 20.9385 27.3093 20.9385 25.8155 21.0161C24.4382 21.0743 23.6816 21.3071 23.1967 21.501C22.5371 21.7532 22.0715 22.0636 21.5672 22.5486C21.0822 23.0336 20.7718 23.5186 20.5196 24.1781C20.3256 24.6825 20.0928 25.4197 20.0346 26.797C19.957 28.2907 19.957 28.7369 19.957 32.5003C19.957 36.2637 19.957 36.7099 20.0346 38.2036C20.0928 39.581 20.3256 40.3375 20.5196 40.8225C20.7718 41.4821 21.0822 41.9476 21.5672 42.452C22.0521 42.937 22.5371 43.2474 23.1967 43.4996C23.701 43.6936 24.4382 43.9263 25.8155 43.9845C27.3093 44.0621 27.7554 44.0621 31.5189 44.0621C35.2823 44.0621 35.7285 44.0621 37.2222 43.9845C38.5995 43.9263 39.3561 43.6936 39.8411 43.4996C40.5006 43.2474 40.9662 42.937 41.4706 42.452C41.975 41.967 42.2659 41.4821 42.5181 40.8225C42.7121 40.3181 42.9449 39.581 43.0031 38.2036C43.0807 36.7099 43.0807 36.2637 43.0807 32.5003C43.0807 28.7369 43.0807 28.2907 43.0031 26.797C42.9449 25.4197 42.7121 24.6631 42.5181 24.1781ZM31.4995 39.7556C27.5033 39.7556 24.2442 36.5159 24.2442 32.5003C24.2442 28.4847 27.4839 25.2451 31.4995 25.2451C35.5151 25.2451 38.7547 28.4847 38.7547 32.5003C38.7547 36.5159 35.5151 39.7556 31.4995 39.7556ZM39.0457 26.6612C38.1145 26.6612 37.358 25.9046 37.358 24.9735C37.358 24.0423 38.1145 23.2858 39.0457 23.2858C39.9769 23.2858 40.7334 24.0423 40.7334 24.9735C40.7334 25.9046 39.9769 26.6612 39.0457 26.6612Z" fill="white"/>
<path d="M31.4991 37.2141C34.1026 37.2141 36.2131 35.1036 36.2131 32.5001C36.2131 29.8966 34.1026 27.7861 31.4991 27.7861C28.8957 27.7861 26.7852 29.8966 26.7852 32.5001C26.7852 35.1036 28.8957 37.2141 31.4991 37.2141Z" fill="white"/>
<path d="M31.4995 10.0747C19.1229 10.0747 9.07422 20.1234 9.07422 32.5C9.07422 44.8766 19.1229 54.9253 31.4995 54.9253C43.8761 54.9253 53.9248 44.8766 53.9248 32.5C53.9248 20.1234 43.8955 10.0747 31.4995 10.0747ZM45.5444 38.3197C45.4668 39.8135 45.234 40.8416 44.8849 41.7534C44.5163 42.6845 44.0507 43.4605 43.2553 44.2558C42.4794 45.0318 41.684 45.5168 40.7529 45.8854C39.8605 46.2345 38.8324 46.4673 37.3192 46.5449C35.8061 46.6225 35.3405 46.6225 31.4995 46.6225C27.6585 46.6225 27.1735 46.6225 25.6798 46.5449C24.1861 46.4673 23.1579 46.2345 22.2462 45.8854C21.315 45.5168 20.5391 45.0512 19.7437 44.2558C18.9677 43.4799 18.4828 42.6845 18.1142 41.7534C17.765 40.861 17.5322 39.8329 17.4546 38.3197C17.377 36.8066 17.377 36.341 17.377 32.5C17.377 28.659 17.377 28.174 17.4546 26.6803C17.5322 25.1866 17.765 24.1584 18.1142 23.2467C18.4828 22.3155 18.9483 21.5395 19.7437 20.7442C20.5197 19.9682 21.315 19.4832 22.2462 19.1147C23.1385 18.7655 24.1667 18.5327 25.6798 18.4551C27.1929 18.3775 27.6585 18.3775 31.4995 18.3775C35.3405 18.3775 35.8255 18.3775 37.3192 18.4551C38.813 18.5327 39.8411 18.7655 40.7529 19.1147C41.684 19.4832 42.46 19.9488 43.2553 20.7442C44.0313 21.5201 44.5163 22.3155 44.8849 23.2467C45.234 24.139 45.4668 25.1672 45.5444 26.6803C45.622 28.1934 45.622 28.659 45.622 32.5C45.622 36.341 45.622 36.826 45.5444 38.3197Z" fill="white"/>
</svg>
