<svg width="69" height="65" viewBox="0 0 69 65" fill="none" xmlns="http://www.w3.org/2000/svg">
<path d="M34.4981 10.0098C22.0856 10.0098 12.0078 20.0876 12.0078 32.5C12.0078 44.9125 22.0856 54.9903 34.4981 54.9903C46.9105 54.9903 56.9884 44.9125 56.9884 32.5C56.9884 20.0876 46.93 10.0098 34.4981 10.0098ZM27.0856 44.7958C25.4903 44.7958 23.8755 44.7958 22.2802 44.7958C22.0273 44.7958 21.9494 44.7374 21.9494 44.465C21.9494 38.7646 21.9494 33.0642 21.9494 27.3639C21.9494 27.1304 22.0078 27.0526 22.2607 27.0526C23.8755 27.0526 25.5098 27.0526 27.1245 27.0526C27.4358 27.0526 27.4747 27.1693 27.4747 27.4417C27.4747 30.2821 27.4747 33.1226 27.4747 35.9631C27.4747 38.8035 27.4747 41.6051 27.4747 44.4067C27.4747 44.7179 27.3969 44.8152 27.0662 44.8152L27.0856 44.7958ZM24.7121 24.6012C22.9611 24.6012 21.5214 23.1615 21.5214 21.4105C21.5214 19.6596 22.9611 18.2004 24.7315 18.2004C26.4825 18.2004 27.9222 19.6401 27.9222 21.3716C27.9222 23.1421 26.4825 24.5817 24.7315 24.5817L24.7121 24.6012ZM48.1751 44.4261C48.1751 44.7179 48.0973 44.7958 47.8055 44.7958C46.2101 44.7958 44.5954 44.7958 43 44.7958C42.7277 44.7958 42.6498 44.7179 42.6498 44.4456C42.6498 41.4884 42.6498 38.5312 42.6498 35.574C42.6498 34.8347 42.5915 34.0954 42.3969 33.3755C42.0078 32.0526 41.0545 31.3716 39.6732 31.4495C37.7666 31.5467 36.7938 32.4806 36.5409 34.4261C36.4825 34.893 36.4631 35.3405 36.4631 35.8074C36.4631 38.6868 36.4631 41.5662 36.4631 44.4261C36.4631 44.7179 36.3852 44.7958 36.0934 44.7958C34.4786 44.7958 32.8638 44.7958 31.2491 44.7958C30.9961 44.7958 30.9183 44.7374 30.9183 44.465C30.9183 38.7646 30.9183 33.0837 30.9183 27.3833C30.9183 27.1109 31.0156 27.0331 31.2685 27.0331C32.8055 27.0331 34.323 27.0331 35.86 27.0331C36.1323 27.0331 36.2101 27.1304 36.2101 27.3833C36.2101 28.0642 36.2101 28.7452 36.2101 29.4261C36.5798 29.0175 36.8911 28.5895 37.2607 28.2393C38.428 27.1304 39.8094 26.5856 41.4242 26.6051C42.3191 26.6051 43.1751 26.6829 44.0312 26.9164C45.9767 27.4806 47.1245 28.823 47.6498 30.7296C48.0584 32.1693 48.1362 33.6284 48.1362 35.107C48.1362 38.2199 48.1362 41.3133 48.1362 44.4261H48.1751Z" fill="white"/>
</svg>
