<svg width="63" height="65" viewBox="0 0 63 65" fill="none" xmlns="http://www.w3.org/2000/svg">
<g clip-path="url(#clip0_298_7969)">
<path d="M31.425 10C19.0374 10 9 20.0374 9 32.425C9 44.8126 19.0374 54.85 31.425 54.85C43.8126 54.85 53.85 44.8126 53.85 32.425C53.85 20.0374 43.8126 10 31.425 10ZM45.3733 29.3034C43.5614 29.3483 41.7764 28.8998 40.1528 28.1284L37.8565 26.7021V38.9731C37.5874 42.6956 35.1745 46.1312 31.73 47.5753C24.4553 50.6251 16.6604 44.8484 17.5484 37.0356C18.1763 31.4473 23.5135 27.2493 29.1287 28.1553V33.636C29.1287 33.636 29.0479 33.7256 29.0659 33.7884C26.2314 32.9363 23.2264 34.9814 23.065 37.9415C22.8228 42.3279 28.2945 44.5793 31.1918 41.2156C31.6492 40.6774 32.2771 39.5023 32.2771 38.7937V16.4494H37.8565C37.8655 20.5397 41.2741 23.9753 45.3733 23.9663V29.2945V29.3034Z" fill="white"/>
</g>
<defs>
<clipPath id="clip0_298_7969">
<rect width="44.91" height="44.91" fill="white" transform="translate(9.04688 10.0449)"/>
</clipPath>
</defs>
</svg>
