<svg width="69" height="65" viewBox="0 0 69 65" fill="none" xmlns="http://www.w3.org/2000/svg">
<path d="M24.5352 21.0342C24.7152 21.5022 25.1022 21.9342 25.3992 22.3302C30.7992 29.5032 36.4332 36.5412 41.7432 43.7682H44.4612L27.3522 21.0342H24.5352Z" fill="white"/>
<path d="M34.5 10C22.071 10 12 20.071 12 32.5C12 44.929 22.071 55 34.5 55C46.929 55 57 44.929 57 32.5C57 20.071 46.929 10 34.5 10ZM40.485 46.684L33.087 36.982L32.835 36.829L24.276 46.684H19.497L30.576 33.76L18.804 18.316H28.713L35.571 27.262L36.066 26.866L43.509 18.316H48.288L37.839 30.331L50.196 46.675H40.485V46.684Z" fill="white"/>
</svg>
