<svg width="69" height="65" viewBox="0 0 69 65" fill="none" xmlns="http://www.w3.org/2000/svg">
<path d="M31.5117 37.0008L39.2907 32.5002L31.5117 28.019V37.0008Z" fill="white"/>
<path d="M34.4995 10.0747C22.1229 10.0747 12.0742 20.1234 12.0742 32.5C12.0742 44.8766 22.1229 54.9253 34.4995 54.9253C46.8761 54.9253 56.9248 44.8766 56.9248 32.5C56.9248 20.1234 46.8955 10.0747 34.4995 10.0747ZM48.8354 39.6971C48.4862 40.9774 47.4775 42.0055 46.1971 42.3353C43.8693 42.9561 34.5189 42.9561 34.5189 42.9561C34.5189 42.9561 25.1686 42.9561 22.8407 42.3353C21.5604 41.9861 20.5322 40.9774 20.2024 39.6971C19.5817 37.3692 19.5817 32.5 19.5817 32.5C19.5817 32.5 19.5817 27.6308 20.2024 25.303C20.5516 24.0226 21.5604 22.9945 22.8407 22.6647C25.1686 22.0439 34.5189 22.0439 34.5189 22.0439C34.5189 22.0439 43.8693 22.0439 46.1971 22.6647C47.4775 23.0139 48.5056 24.0226 48.8354 25.303C49.4562 27.6308 49.4562 32.5 49.4562 32.5C49.4562 32.5 49.4562 37.3692 48.8354 39.6971Z" fill="white"/>
</svg>
